M48
; DRILL file {KiCad 5.1.4+dfsg1-1} date So 17 Nov 2019 03:16:45 CET
; FORMAT={-:-/ absolute / inch / decimal}
; #@! TF.CreationDate,2019-11-17T03:16:45+01:00
; #@! TF.GenerationSoftware,Kicad,Pcbnew,5.1.4+dfsg1-1
; #@! TF.FileFunction,Plated,1,2,PTH
FMAT,2
INCH
T1C0.0157
%
G90
G05
T1
X0.372Y-0.4626
X0.435Y-0.3386
X0.4469Y-0.4626
X0.5413Y-1.0295
X0.5827Y-1.1634
X0.6535Y-1.0571
X0.7303Y-2.3622
X0.7717Y-2.6811
X0.7756Y-2.498
X0.7953Y-2.7047
X0.8209Y-2.7303
X0.8287Y-2.372
X0.8406Y-1.7579
X0.8465Y-2.7559
X0.8504Y-3.2087
X0.873Y-2.7825
X0.8799Y-3.2421
X0.8819Y-3.2874
X0.8937Y-3.3346
X0.8986Y-2.8081
X0.9075Y-1.6378
X0.9242Y-2.8337
X0.9291Y-1.7559
X0.9291Y-3.3661
X0.9488Y-2.8583
X1.0177Y-0.6575
X1.0453Y-0.5531
X1.1024Y-2.9311
X1.1319Y-0.5
X1.1398Y-2.9311
X1.1457Y-2.0846
X1.1772Y-2.0531
X1.2067Y-1.4173
X1.2087Y-2.0236
X1.2205Y-0.5315
X1.2303Y-0.7224
X1.2323Y-0.565
X1.2323Y-1.4409
X1.2402Y-1.9941
X1.252Y-0.6949
X1.2539Y-0.502
X1.2579Y-0.5374
X1.2736Y-0.6693
X1.2795Y-0.4783
X1.2894Y-0.5157
X1.2972Y-2.8445
X1.315Y-0.4902
X1.3287Y-2.8209
X1.3327Y-0.6043
X1.3504Y-2.2303
X1.3583Y-0.5827
X1.3799Y-1.2677
X1.3957Y-2.1732
X1.4075Y-1.2933
X1.439Y-2.1299
X1.4508Y-2.6949
X1.4764Y-2.6693
X1.6732Y-0.9409
X1.7323Y-0.8071
X1.7539Y-0.9488
X1.7835Y-1.876
X1.8465Y-1.7421
X1.8701Y-1.8799
X1.878Y-1.6004
X1.9055Y-1.5827
X1.939Y-1.5827
X1.9724Y-1.5827
X2.0059Y-1.5827
X2.0118Y-2.5689
X2.0315Y-2.4528
X2.0394Y-1.5827
X2.065Y-2.4213
X2.0728Y-1.5827
X2.0906Y-2.4843
X2.0945Y-1.315
X2.1201Y-2.4587
X2.122Y-1.4272
X2.1575Y-1.5669
X2.1732Y-1.3189
X2.1907Y-1.5672
X2.2244Y-1.5669
X2.2264Y-2.3819
X2.252Y-2.4075
X2.2539Y-2.3543
X2.2776Y-2.4331
X2.2795Y-2.3268
X2.2795Y-2.3799
X2.3031Y-2.4606
X2.3051Y-2.3524
X2.3051Y-2.4055
X2.3071Y-2.3031
X2.3287Y-2.4862
X2.3307Y-2.378
X2.3307Y-2.4331
X2.3327Y-2.3287
X2.3543Y-2.5118
X2.3563Y-2.4055
X2.3563Y-2.4587
X2.3583Y-2.3543
X2.3819Y-2.4311
X2.3819Y-2.4843
X2.3839Y-2.3819
X2.4016Y-0.9114
X2.4075Y-2.4567
X2.4094Y-2.4075
X2.435Y-2.4331
X2.4606Y-0.7697
X2.4764Y-2.1043
X2.4823Y-0.9114
X2.5472Y-2.0138
X2.5591Y-2.1142
X2.5984Y-1.0748
X2.6457Y-1.1181
X2.6988Y-1.1673
X2.7283Y-2.8228
X2.7382Y-1.1969
X2.7382Y-1.372
X2.7776Y-1.4626
X2.7835Y-1.8228
X2.7835Y-2.6831
X2.8091Y-1.8484
X2.811Y-1.7953
X2.815Y-2.8287
X2.8346Y-1.874
X2.8366Y-1.7677
X2.8366Y-1.8209
X2.8602Y-1.8996
X2.8622Y-1.7933
X2.8622Y-1.8465
X2.8642Y-1.7441
X2.8858Y-1.9252
X2.8878Y-1.8189
X2.8878Y-1.872
X2.8898Y-1.7697
X2.9114Y-1.9508
X2.9134Y-1.8445
X2.9134Y-1.8976
X2.9154Y-1.7953
X2.939Y-1.8701
X2.939Y-1.9232
X2.9409Y-1.8209
X2.9646Y-1.8957
X2.9665Y-1.8465
X2.9921Y-1.872
X3.1299Y-0.7185
X3.2087Y-0.876
X3.2854Y-1.0256
X3.2933Y-0.9783
X3.2992Y-0.7736
X3.3031Y-0.939
T0
M30
