G04 #@! TF.GenerationSoftware,KiCad,Pcbnew,5.1.4+dfsg1-1*
G04 #@! TF.CreationDate,2019-11-20T14:25:38+01:00*
G04 #@! TF.ProjectId,LED-Polyhedron,4c45442d-506f-46c7-9968-6564726f6e2e,rev?*
G04 #@! TF.SameCoordinates,Original*
G04 #@! TF.FileFunction,Paste,Top*
G04 #@! TF.FilePolarity,Positive*
%FSLAX46Y46*%
G04 Gerber Fmt 4.6, Leading zero omitted, Abs format (unit mm)*
G04 Created by KiCad (PCBNEW 5.1.4+dfsg1-1) date 2019-11-20 14:25:38*
%MOMM*%
%LPD*%
G04 APERTURE LIST*
%ADD10C,1.000000*%
%ADD11C,0.100000*%
%ADD12C,0.875000*%
G04 APERTURE END LIST*
D10*
X54068959Y-76966218D03*
D11*
G36*
X53185076Y-76789441D02*
G01*
X53892182Y-76082335D01*
X54952842Y-77142995D01*
X54245736Y-77850101D01*
X53185076Y-76789441D01*
X53185076Y-76789441D01*
G37*
D10*
X51806218Y-79228959D03*
D11*
G36*
X50922335Y-79052182D02*
G01*
X51629441Y-78345076D01*
X52690101Y-79405736D01*
X51982995Y-80112842D01*
X50922335Y-79052182D01*
X50922335Y-79052182D01*
G37*
D10*
X57533782Y-80431041D03*
D11*
G36*
X56649899Y-80254264D02*
G01*
X57357005Y-79547158D01*
X58417665Y-80607818D01*
X57710559Y-81314924D01*
X56649899Y-80254264D01*
X56649899Y-80254264D01*
G37*
D10*
X55271041Y-82693782D03*
D11*
G36*
X54387158Y-82517005D02*
G01*
X55094264Y-81809899D01*
X56154924Y-82870559D01*
X55447818Y-83577665D01*
X54387158Y-82517005D01*
X54387158Y-82517005D01*
G37*
G36*
X56744805Y-75853274D02*
G01*
X56766040Y-75856424D01*
X56786864Y-75861640D01*
X56807076Y-75868872D01*
X56826482Y-75878051D01*
X56844895Y-75889087D01*
X56862138Y-75901875D01*
X56878044Y-75916291D01*
X57187403Y-76225650D01*
X57201819Y-76241556D01*
X57214607Y-76258799D01*
X57225643Y-76277212D01*
X57234822Y-76296618D01*
X57242054Y-76316830D01*
X57247270Y-76337654D01*
X57250420Y-76358889D01*
X57251473Y-76380330D01*
X57250420Y-76401771D01*
X57247270Y-76423006D01*
X57242054Y-76443830D01*
X57234822Y-76464042D01*
X57225643Y-76483448D01*
X57214607Y-76501861D01*
X57201819Y-76519104D01*
X57187403Y-76535010D01*
X56825010Y-76897403D01*
X56809104Y-76911819D01*
X56791861Y-76924607D01*
X56773448Y-76935643D01*
X56754042Y-76944822D01*
X56733830Y-76952054D01*
X56713006Y-76957270D01*
X56691771Y-76960420D01*
X56670330Y-76961473D01*
X56648889Y-76960420D01*
X56627654Y-76957270D01*
X56606830Y-76952054D01*
X56586618Y-76944822D01*
X56567212Y-76935643D01*
X56548799Y-76924607D01*
X56531556Y-76911819D01*
X56515650Y-76897403D01*
X56206291Y-76588044D01*
X56191875Y-76572138D01*
X56179087Y-76554895D01*
X56168051Y-76536482D01*
X56158872Y-76517076D01*
X56151640Y-76496864D01*
X56146424Y-76476040D01*
X56143274Y-76454805D01*
X56142221Y-76433364D01*
X56143274Y-76411923D01*
X56146424Y-76390688D01*
X56151640Y-76369864D01*
X56158872Y-76349652D01*
X56168051Y-76330246D01*
X56179087Y-76311833D01*
X56191875Y-76294590D01*
X56206291Y-76278684D01*
X56568684Y-75916291D01*
X56584590Y-75901875D01*
X56601833Y-75889087D01*
X56620246Y-75878051D01*
X56639652Y-75868872D01*
X56659864Y-75861640D01*
X56680688Y-75856424D01*
X56701923Y-75853274D01*
X56723364Y-75852221D01*
X56744805Y-75853274D01*
X56744805Y-75853274D01*
G37*
D12*
X56696847Y-76406847D03*
D11*
G36*
X55631111Y-74739580D02*
G01*
X55652346Y-74742730D01*
X55673170Y-74747946D01*
X55693382Y-74755178D01*
X55712788Y-74764357D01*
X55731201Y-74775393D01*
X55748444Y-74788181D01*
X55764350Y-74802597D01*
X56073709Y-75111956D01*
X56088125Y-75127862D01*
X56100913Y-75145105D01*
X56111949Y-75163518D01*
X56121128Y-75182924D01*
X56128360Y-75203136D01*
X56133576Y-75223960D01*
X56136726Y-75245195D01*
X56137779Y-75266636D01*
X56136726Y-75288077D01*
X56133576Y-75309312D01*
X56128360Y-75330136D01*
X56121128Y-75350348D01*
X56111949Y-75369754D01*
X56100913Y-75388167D01*
X56088125Y-75405410D01*
X56073709Y-75421316D01*
X55711316Y-75783709D01*
X55695410Y-75798125D01*
X55678167Y-75810913D01*
X55659754Y-75821949D01*
X55640348Y-75831128D01*
X55620136Y-75838360D01*
X55599312Y-75843576D01*
X55578077Y-75846726D01*
X55556636Y-75847779D01*
X55535195Y-75846726D01*
X55513960Y-75843576D01*
X55493136Y-75838360D01*
X55472924Y-75831128D01*
X55453518Y-75821949D01*
X55435105Y-75810913D01*
X55417862Y-75798125D01*
X55401956Y-75783709D01*
X55092597Y-75474350D01*
X55078181Y-75458444D01*
X55065393Y-75441201D01*
X55054357Y-75422788D01*
X55045178Y-75403382D01*
X55037946Y-75383170D01*
X55032730Y-75362346D01*
X55029580Y-75341111D01*
X55028527Y-75319670D01*
X55029580Y-75298229D01*
X55032730Y-75276994D01*
X55037946Y-75256170D01*
X55045178Y-75235958D01*
X55054357Y-75216552D01*
X55065393Y-75198139D01*
X55078181Y-75180896D01*
X55092597Y-75164990D01*
X55454990Y-74802597D01*
X55470896Y-74788181D01*
X55488139Y-74775393D01*
X55506552Y-74764357D01*
X55525958Y-74755178D01*
X55546170Y-74747946D01*
X55566994Y-74742730D01*
X55588229Y-74739580D01*
X55609670Y-74738527D01*
X55631111Y-74739580D01*
X55631111Y-74739580D01*
G37*
D12*
X55583153Y-75293153D03*
D11*
G36*
X25241111Y-73139580D02*
G01*
X25262346Y-73142730D01*
X25283170Y-73147946D01*
X25303382Y-73155178D01*
X25322788Y-73164357D01*
X25341201Y-73175393D01*
X25358444Y-73188181D01*
X25374350Y-73202597D01*
X25683709Y-73511956D01*
X25698125Y-73527862D01*
X25710913Y-73545105D01*
X25721949Y-73563518D01*
X25731128Y-73582924D01*
X25738360Y-73603136D01*
X25743576Y-73623960D01*
X25746726Y-73645195D01*
X25747779Y-73666636D01*
X25746726Y-73688077D01*
X25743576Y-73709312D01*
X25738360Y-73730136D01*
X25731128Y-73750348D01*
X25721949Y-73769754D01*
X25710913Y-73788167D01*
X25698125Y-73805410D01*
X25683709Y-73821316D01*
X25321316Y-74183709D01*
X25305410Y-74198125D01*
X25288167Y-74210913D01*
X25269754Y-74221949D01*
X25250348Y-74231128D01*
X25230136Y-74238360D01*
X25209312Y-74243576D01*
X25188077Y-74246726D01*
X25166636Y-74247779D01*
X25145195Y-74246726D01*
X25123960Y-74243576D01*
X25103136Y-74238360D01*
X25082924Y-74231128D01*
X25063518Y-74221949D01*
X25045105Y-74210913D01*
X25027862Y-74198125D01*
X25011956Y-74183709D01*
X24702597Y-73874350D01*
X24688181Y-73858444D01*
X24675393Y-73841201D01*
X24664357Y-73822788D01*
X24655178Y-73803382D01*
X24647946Y-73783170D01*
X24642730Y-73762346D01*
X24639580Y-73741111D01*
X24638527Y-73719670D01*
X24639580Y-73698229D01*
X24642730Y-73676994D01*
X24647946Y-73656170D01*
X24655178Y-73635958D01*
X24664357Y-73616552D01*
X24675393Y-73598139D01*
X24688181Y-73580896D01*
X24702597Y-73564990D01*
X25064990Y-73202597D01*
X25080896Y-73188181D01*
X25098139Y-73175393D01*
X25116552Y-73164357D01*
X25135958Y-73155178D01*
X25156170Y-73147946D01*
X25176994Y-73142730D01*
X25198229Y-73139580D01*
X25219670Y-73138527D01*
X25241111Y-73139580D01*
X25241111Y-73139580D01*
G37*
D12*
X25193153Y-73693153D03*
D11*
G36*
X26354805Y-74253274D02*
G01*
X26376040Y-74256424D01*
X26396864Y-74261640D01*
X26417076Y-74268872D01*
X26436482Y-74278051D01*
X26454895Y-74289087D01*
X26472138Y-74301875D01*
X26488044Y-74316291D01*
X26797403Y-74625650D01*
X26811819Y-74641556D01*
X26824607Y-74658799D01*
X26835643Y-74677212D01*
X26844822Y-74696618D01*
X26852054Y-74716830D01*
X26857270Y-74737654D01*
X26860420Y-74758889D01*
X26861473Y-74780330D01*
X26860420Y-74801771D01*
X26857270Y-74823006D01*
X26852054Y-74843830D01*
X26844822Y-74864042D01*
X26835643Y-74883448D01*
X26824607Y-74901861D01*
X26811819Y-74919104D01*
X26797403Y-74935010D01*
X26435010Y-75297403D01*
X26419104Y-75311819D01*
X26401861Y-75324607D01*
X26383448Y-75335643D01*
X26364042Y-75344822D01*
X26343830Y-75352054D01*
X26323006Y-75357270D01*
X26301771Y-75360420D01*
X26280330Y-75361473D01*
X26258889Y-75360420D01*
X26237654Y-75357270D01*
X26216830Y-75352054D01*
X26196618Y-75344822D01*
X26177212Y-75335643D01*
X26158799Y-75324607D01*
X26141556Y-75311819D01*
X26125650Y-75297403D01*
X25816291Y-74988044D01*
X25801875Y-74972138D01*
X25789087Y-74954895D01*
X25778051Y-74936482D01*
X25768872Y-74917076D01*
X25761640Y-74896864D01*
X25756424Y-74876040D01*
X25753274Y-74854805D01*
X25752221Y-74833364D01*
X25753274Y-74811923D01*
X25756424Y-74790688D01*
X25761640Y-74769864D01*
X25768872Y-74749652D01*
X25778051Y-74730246D01*
X25789087Y-74711833D01*
X25801875Y-74694590D01*
X25816291Y-74678684D01*
X26178684Y-74316291D01*
X26194590Y-74301875D01*
X26211833Y-74289087D01*
X26230246Y-74278051D01*
X26249652Y-74268872D01*
X26269864Y-74261640D01*
X26290688Y-74256424D01*
X26311923Y-74253274D01*
X26333364Y-74252221D01*
X26354805Y-74253274D01*
X26354805Y-74253274D01*
G37*
D12*
X26306847Y-74806847D03*
D11*
G36*
X74654805Y-62913274D02*
G01*
X74676040Y-62916424D01*
X74696864Y-62921640D01*
X74717076Y-62928872D01*
X74736482Y-62938051D01*
X74754895Y-62949087D01*
X74772138Y-62961875D01*
X74788044Y-62976291D01*
X75097403Y-63285650D01*
X75111819Y-63301556D01*
X75124607Y-63318799D01*
X75135643Y-63337212D01*
X75144822Y-63356618D01*
X75152054Y-63376830D01*
X75157270Y-63397654D01*
X75160420Y-63418889D01*
X75161473Y-63440330D01*
X75160420Y-63461771D01*
X75157270Y-63483006D01*
X75152054Y-63503830D01*
X75144822Y-63524042D01*
X75135643Y-63543448D01*
X75124607Y-63561861D01*
X75111819Y-63579104D01*
X75097403Y-63595010D01*
X74735010Y-63957403D01*
X74719104Y-63971819D01*
X74701861Y-63984607D01*
X74683448Y-63995643D01*
X74664042Y-64004822D01*
X74643830Y-64012054D01*
X74623006Y-64017270D01*
X74601771Y-64020420D01*
X74580330Y-64021473D01*
X74558889Y-64020420D01*
X74537654Y-64017270D01*
X74516830Y-64012054D01*
X74496618Y-64004822D01*
X74477212Y-63995643D01*
X74458799Y-63984607D01*
X74441556Y-63971819D01*
X74425650Y-63957403D01*
X74116291Y-63648044D01*
X74101875Y-63632138D01*
X74089087Y-63614895D01*
X74078051Y-63596482D01*
X74068872Y-63577076D01*
X74061640Y-63556864D01*
X74056424Y-63536040D01*
X74053274Y-63514805D01*
X74052221Y-63493364D01*
X74053274Y-63471923D01*
X74056424Y-63450688D01*
X74061640Y-63429864D01*
X74068872Y-63409652D01*
X74078051Y-63390246D01*
X74089087Y-63371833D01*
X74101875Y-63354590D01*
X74116291Y-63338684D01*
X74478684Y-62976291D01*
X74494590Y-62961875D01*
X74511833Y-62949087D01*
X74530246Y-62938051D01*
X74549652Y-62928872D01*
X74569864Y-62921640D01*
X74590688Y-62916424D01*
X74611923Y-62913274D01*
X74633364Y-62912221D01*
X74654805Y-62913274D01*
X74654805Y-62913274D01*
G37*
D12*
X74606847Y-63466847D03*
D11*
G36*
X73541111Y-61799580D02*
G01*
X73562346Y-61802730D01*
X73583170Y-61807946D01*
X73603382Y-61815178D01*
X73622788Y-61824357D01*
X73641201Y-61835393D01*
X73658444Y-61848181D01*
X73674350Y-61862597D01*
X73983709Y-62171956D01*
X73998125Y-62187862D01*
X74010913Y-62205105D01*
X74021949Y-62223518D01*
X74031128Y-62242924D01*
X74038360Y-62263136D01*
X74043576Y-62283960D01*
X74046726Y-62305195D01*
X74047779Y-62326636D01*
X74046726Y-62348077D01*
X74043576Y-62369312D01*
X74038360Y-62390136D01*
X74031128Y-62410348D01*
X74021949Y-62429754D01*
X74010913Y-62448167D01*
X73998125Y-62465410D01*
X73983709Y-62481316D01*
X73621316Y-62843709D01*
X73605410Y-62858125D01*
X73588167Y-62870913D01*
X73569754Y-62881949D01*
X73550348Y-62891128D01*
X73530136Y-62898360D01*
X73509312Y-62903576D01*
X73488077Y-62906726D01*
X73466636Y-62907779D01*
X73445195Y-62906726D01*
X73423960Y-62903576D01*
X73403136Y-62898360D01*
X73382924Y-62891128D01*
X73363518Y-62881949D01*
X73345105Y-62870913D01*
X73327862Y-62858125D01*
X73311956Y-62843709D01*
X73002597Y-62534350D01*
X72988181Y-62518444D01*
X72975393Y-62501201D01*
X72964357Y-62482788D01*
X72955178Y-62463382D01*
X72947946Y-62443170D01*
X72942730Y-62422346D01*
X72939580Y-62401111D01*
X72938527Y-62379670D01*
X72939580Y-62358229D01*
X72942730Y-62336994D01*
X72947946Y-62316170D01*
X72955178Y-62295958D01*
X72964357Y-62276552D01*
X72975393Y-62258139D01*
X72988181Y-62240896D01*
X73002597Y-62224990D01*
X73364990Y-61862597D01*
X73380896Y-61848181D01*
X73398139Y-61835393D01*
X73416552Y-61824357D01*
X73435958Y-61815178D01*
X73456170Y-61807946D01*
X73476994Y-61802730D01*
X73498229Y-61799580D01*
X73519670Y-61798527D01*
X73541111Y-61799580D01*
X73541111Y-61799580D01*
G37*
D12*
X73493153Y-62353153D03*
D11*
G36*
X37854805Y-76003274D02*
G01*
X37876040Y-76006424D01*
X37896864Y-76011640D01*
X37917076Y-76018872D01*
X37936482Y-76028051D01*
X37954895Y-76039087D01*
X37972138Y-76051875D01*
X37988044Y-76066291D01*
X38297403Y-76375650D01*
X38311819Y-76391556D01*
X38324607Y-76408799D01*
X38335643Y-76427212D01*
X38344822Y-76446618D01*
X38352054Y-76466830D01*
X38357270Y-76487654D01*
X38360420Y-76508889D01*
X38361473Y-76530330D01*
X38360420Y-76551771D01*
X38357270Y-76573006D01*
X38352054Y-76593830D01*
X38344822Y-76614042D01*
X38335643Y-76633448D01*
X38324607Y-76651861D01*
X38311819Y-76669104D01*
X38297403Y-76685010D01*
X37935010Y-77047403D01*
X37919104Y-77061819D01*
X37901861Y-77074607D01*
X37883448Y-77085643D01*
X37864042Y-77094822D01*
X37843830Y-77102054D01*
X37823006Y-77107270D01*
X37801771Y-77110420D01*
X37780330Y-77111473D01*
X37758889Y-77110420D01*
X37737654Y-77107270D01*
X37716830Y-77102054D01*
X37696618Y-77094822D01*
X37677212Y-77085643D01*
X37658799Y-77074607D01*
X37641556Y-77061819D01*
X37625650Y-77047403D01*
X37316291Y-76738044D01*
X37301875Y-76722138D01*
X37289087Y-76704895D01*
X37278051Y-76686482D01*
X37268872Y-76667076D01*
X37261640Y-76646864D01*
X37256424Y-76626040D01*
X37253274Y-76604805D01*
X37252221Y-76583364D01*
X37253274Y-76561923D01*
X37256424Y-76540688D01*
X37261640Y-76519864D01*
X37268872Y-76499652D01*
X37278051Y-76480246D01*
X37289087Y-76461833D01*
X37301875Y-76444590D01*
X37316291Y-76428684D01*
X37678684Y-76066291D01*
X37694590Y-76051875D01*
X37711833Y-76039087D01*
X37730246Y-76028051D01*
X37749652Y-76018872D01*
X37769864Y-76011640D01*
X37790688Y-76006424D01*
X37811923Y-76003274D01*
X37833364Y-76002221D01*
X37854805Y-76003274D01*
X37854805Y-76003274D01*
G37*
D12*
X37806847Y-76556847D03*
D11*
G36*
X36741111Y-74889580D02*
G01*
X36762346Y-74892730D01*
X36783170Y-74897946D01*
X36803382Y-74905178D01*
X36822788Y-74914357D01*
X36841201Y-74925393D01*
X36858444Y-74938181D01*
X36874350Y-74952597D01*
X37183709Y-75261956D01*
X37198125Y-75277862D01*
X37210913Y-75295105D01*
X37221949Y-75313518D01*
X37231128Y-75332924D01*
X37238360Y-75353136D01*
X37243576Y-75373960D01*
X37246726Y-75395195D01*
X37247779Y-75416636D01*
X37246726Y-75438077D01*
X37243576Y-75459312D01*
X37238360Y-75480136D01*
X37231128Y-75500348D01*
X37221949Y-75519754D01*
X37210913Y-75538167D01*
X37198125Y-75555410D01*
X37183709Y-75571316D01*
X36821316Y-75933709D01*
X36805410Y-75948125D01*
X36788167Y-75960913D01*
X36769754Y-75971949D01*
X36750348Y-75981128D01*
X36730136Y-75988360D01*
X36709312Y-75993576D01*
X36688077Y-75996726D01*
X36666636Y-75997779D01*
X36645195Y-75996726D01*
X36623960Y-75993576D01*
X36603136Y-75988360D01*
X36582924Y-75981128D01*
X36563518Y-75971949D01*
X36545105Y-75960913D01*
X36527862Y-75948125D01*
X36511956Y-75933709D01*
X36202597Y-75624350D01*
X36188181Y-75608444D01*
X36175393Y-75591201D01*
X36164357Y-75572788D01*
X36155178Y-75553382D01*
X36147946Y-75533170D01*
X36142730Y-75512346D01*
X36139580Y-75491111D01*
X36138527Y-75469670D01*
X36139580Y-75448229D01*
X36142730Y-75426994D01*
X36147946Y-75406170D01*
X36155178Y-75385958D01*
X36164357Y-75366552D01*
X36175393Y-75348139D01*
X36188181Y-75330896D01*
X36202597Y-75314990D01*
X36564990Y-74952597D01*
X36580896Y-74938181D01*
X36598139Y-74925393D01*
X36616552Y-74914357D01*
X36635958Y-74905178D01*
X36656170Y-74897946D01*
X36676994Y-74892730D01*
X36698229Y-74889580D01*
X36719670Y-74888527D01*
X36741111Y-74889580D01*
X36741111Y-74889580D01*
G37*
D12*
X36693153Y-75443153D03*
D10*
X73031041Y-69513782D03*
D11*
G36*
X72147158Y-69337005D02*
G01*
X72854264Y-68629899D01*
X73914924Y-69690559D01*
X73207818Y-70397665D01*
X72147158Y-69337005D01*
X72147158Y-69337005D01*
G37*
D10*
X75293782Y-67251041D03*
D11*
G36*
X74409899Y-67074264D02*
G01*
X75117005Y-66367158D01*
X76177665Y-67427818D01*
X75470559Y-68134924D01*
X74409899Y-67074264D01*
X74409899Y-67074264D01*
G37*
D10*
X69566218Y-66048959D03*
D11*
G36*
X68682335Y-65872182D02*
G01*
X69389441Y-65165076D01*
X70450101Y-66225736D01*
X69742995Y-66932842D01*
X68682335Y-65872182D01*
X68682335Y-65872182D01*
G37*
D10*
X71828959Y-63786218D03*
D11*
G36*
X70945076Y-63609441D02*
G01*
X71652182Y-62902335D01*
X72712842Y-63962995D01*
X72005736Y-64670101D01*
X70945076Y-63609441D01*
X70945076Y-63609441D01*
G37*
D10*
X23398959Y-75386218D03*
D11*
G36*
X22515076Y-75209441D02*
G01*
X23222182Y-74502335D01*
X24282842Y-75562995D01*
X23575736Y-76270101D01*
X22515076Y-75209441D01*
X22515076Y-75209441D01*
G37*
D10*
X21136218Y-77648959D03*
D11*
G36*
X20252335Y-77472182D02*
G01*
X20959441Y-76765076D01*
X22020101Y-77825736D01*
X21312995Y-78532842D01*
X20252335Y-77472182D01*
X20252335Y-77472182D01*
G37*
D10*
X26863782Y-78851041D03*
D11*
G36*
X25979899Y-78674264D02*
G01*
X26687005Y-77967158D01*
X27747665Y-79027818D01*
X27040559Y-79734924D01*
X25979899Y-78674264D01*
X25979899Y-78674264D01*
G37*
D10*
X24601041Y-81113782D03*
D11*
G36*
X23717158Y-80937005D02*
G01*
X24424264Y-80229899D01*
X25484924Y-81290559D01*
X24777818Y-81997665D01*
X23717158Y-80937005D01*
X23717158Y-80937005D01*
G37*
D10*
X38398959Y-69136218D03*
D11*
G36*
X39282842Y-69312995D02*
G01*
X38575736Y-70020101D01*
X37515076Y-68959441D01*
X38222182Y-68252335D01*
X39282842Y-69312995D01*
X39282842Y-69312995D01*
G37*
D10*
X36136218Y-71398959D03*
D11*
G36*
X37020101Y-71575736D02*
G01*
X36312995Y-72282842D01*
X35252335Y-71222182D01*
X35959441Y-70515076D01*
X37020101Y-71575736D01*
X37020101Y-71575736D01*
G37*
D10*
X41863782Y-72601041D03*
D11*
G36*
X42747665Y-72777818D02*
G01*
X42040559Y-73484924D01*
X40979899Y-72424264D01*
X41687005Y-71717158D01*
X42747665Y-72777818D01*
X42747665Y-72777818D01*
G37*
D10*
X39601041Y-74863782D03*
D11*
G36*
X40484924Y-75040559D02*
G01*
X39777818Y-75747665D01*
X38717158Y-74687005D01*
X39424264Y-73979899D01*
X40484924Y-75040559D01*
X40484924Y-75040559D01*
G37*
G36*
X62434311Y-16582780D02*
G01*
X62455546Y-16585930D01*
X62476370Y-16591146D01*
X62496582Y-16598378D01*
X62515988Y-16607557D01*
X62534401Y-16618593D01*
X62551644Y-16631381D01*
X62567550Y-16645797D01*
X62876909Y-16955156D01*
X62891325Y-16971062D01*
X62904113Y-16988305D01*
X62915149Y-17006718D01*
X62924328Y-17026124D01*
X62931560Y-17046336D01*
X62936776Y-17067160D01*
X62939926Y-17088395D01*
X62940979Y-17109836D01*
X62939926Y-17131277D01*
X62936776Y-17152512D01*
X62931560Y-17173336D01*
X62924328Y-17193548D01*
X62915149Y-17212954D01*
X62904113Y-17231367D01*
X62891325Y-17248610D01*
X62876909Y-17264516D01*
X62514516Y-17626909D01*
X62498610Y-17641325D01*
X62481367Y-17654113D01*
X62462954Y-17665149D01*
X62443548Y-17674328D01*
X62423336Y-17681560D01*
X62402512Y-17686776D01*
X62381277Y-17689926D01*
X62359836Y-17690979D01*
X62338395Y-17689926D01*
X62317160Y-17686776D01*
X62296336Y-17681560D01*
X62276124Y-17674328D01*
X62256718Y-17665149D01*
X62238305Y-17654113D01*
X62221062Y-17641325D01*
X62205156Y-17626909D01*
X61895797Y-17317550D01*
X61881381Y-17301644D01*
X61868593Y-17284401D01*
X61857557Y-17265988D01*
X61848378Y-17246582D01*
X61841146Y-17226370D01*
X61835930Y-17205546D01*
X61832780Y-17184311D01*
X61831727Y-17162870D01*
X61832780Y-17141429D01*
X61835930Y-17120194D01*
X61841146Y-17099370D01*
X61848378Y-17079158D01*
X61857557Y-17059752D01*
X61868593Y-17041339D01*
X61881381Y-17024096D01*
X61895797Y-17008190D01*
X62258190Y-16645797D01*
X62274096Y-16631381D01*
X62291339Y-16618593D01*
X62309752Y-16607557D01*
X62329158Y-16598378D01*
X62349370Y-16591146D01*
X62370194Y-16585930D01*
X62391429Y-16582780D01*
X62412870Y-16581727D01*
X62434311Y-16582780D01*
X62434311Y-16582780D01*
G37*
D12*
X62386353Y-17136353D03*
D11*
G36*
X63548005Y-17696474D02*
G01*
X63569240Y-17699624D01*
X63590064Y-17704840D01*
X63610276Y-17712072D01*
X63629682Y-17721251D01*
X63648095Y-17732287D01*
X63665338Y-17745075D01*
X63681244Y-17759491D01*
X63990603Y-18068850D01*
X64005019Y-18084756D01*
X64017807Y-18101999D01*
X64028843Y-18120412D01*
X64038022Y-18139818D01*
X64045254Y-18160030D01*
X64050470Y-18180854D01*
X64053620Y-18202089D01*
X64054673Y-18223530D01*
X64053620Y-18244971D01*
X64050470Y-18266206D01*
X64045254Y-18287030D01*
X64038022Y-18307242D01*
X64028843Y-18326648D01*
X64017807Y-18345061D01*
X64005019Y-18362304D01*
X63990603Y-18378210D01*
X63628210Y-18740603D01*
X63612304Y-18755019D01*
X63595061Y-18767807D01*
X63576648Y-18778843D01*
X63557242Y-18788022D01*
X63537030Y-18795254D01*
X63516206Y-18800470D01*
X63494971Y-18803620D01*
X63473530Y-18804673D01*
X63452089Y-18803620D01*
X63430854Y-18800470D01*
X63410030Y-18795254D01*
X63389818Y-18788022D01*
X63370412Y-18778843D01*
X63351999Y-18767807D01*
X63334756Y-18755019D01*
X63318850Y-18740603D01*
X63009491Y-18431244D01*
X62995075Y-18415338D01*
X62982287Y-18398095D01*
X62971251Y-18379682D01*
X62962072Y-18360276D01*
X62954840Y-18340064D01*
X62949624Y-18319240D01*
X62946474Y-18298005D01*
X62945421Y-18276564D01*
X62946474Y-18255123D01*
X62949624Y-18233888D01*
X62954840Y-18213064D01*
X62962072Y-18192852D01*
X62971251Y-18173446D01*
X62982287Y-18155033D01*
X62995075Y-18137790D01*
X63009491Y-18121884D01*
X63371884Y-17759491D01*
X63387790Y-17745075D01*
X63405033Y-17732287D01*
X63423446Y-17721251D01*
X63442852Y-17712072D01*
X63463064Y-17704840D01*
X63483888Y-17699624D01*
X63505123Y-17696474D01*
X63526564Y-17695421D01*
X63548005Y-17696474D01*
X63548005Y-17696474D01*
G37*
D12*
X63500047Y-18250047D03*
D11*
G36*
X33241111Y-57389580D02*
G01*
X33262346Y-57392730D01*
X33283170Y-57397946D01*
X33303382Y-57405178D01*
X33322788Y-57414357D01*
X33341201Y-57425393D01*
X33358444Y-57438181D01*
X33374350Y-57452597D01*
X33683709Y-57761956D01*
X33698125Y-57777862D01*
X33710913Y-57795105D01*
X33721949Y-57813518D01*
X33731128Y-57832924D01*
X33738360Y-57853136D01*
X33743576Y-57873960D01*
X33746726Y-57895195D01*
X33747779Y-57916636D01*
X33746726Y-57938077D01*
X33743576Y-57959312D01*
X33738360Y-57980136D01*
X33731128Y-58000348D01*
X33721949Y-58019754D01*
X33710913Y-58038167D01*
X33698125Y-58055410D01*
X33683709Y-58071316D01*
X33321316Y-58433709D01*
X33305410Y-58448125D01*
X33288167Y-58460913D01*
X33269754Y-58471949D01*
X33250348Y-58481128D01*
X33230136Y-58488360D01*
X33209312Y-58493576D01*
X33188077Y-58496726D01*
X33166636Y-58497779D01*
X33145195Y-58496726D01*
X33123960Y-58493576D01*
X33103136Y-58488360D01*
X33082924Y-58481128D01*
X33063518Y-58471949D01*
X33045105Y-58460913D01*
X33027862Y-58448125D01*
X33011956Y-58433709D01*
X32702597Y-58124350D01*
X32688181Y-58108444D01*
X32675393Y-58091201D01*
X32664357Y-58072788D01*
X32655178Y-58053382D01*
X32647946Y-58033170D01*
X32642730Y-58012346D01*
X32639580Y-57991111D01*
X32638527Y-57969670D01*
X32639580Y-57948229D01*
X32642730Y-57926994D01*
X32647946Y-57906170D01*
X32655178Y-57885958D01*
X32664357Y-57866552D01*
X32675393Y-57848139D01*
X32688181Y-57830896D01*
X32702597Y-57814990D01*
X33064990Y-57452597D01*
X33080896Y-57438181D01*
X33098139Y-57425393D01*
X33116552Y-57414357D01*
X33135958Y-57405178D01*
X33156170Y-57397946D01*
X33176994Y-57392730D01*
X33198229Y-57389580D01*
X33219670Y-57388527D01*
X33241111Y-57389580D01*
X33241111Y-57389580D01*
G37*
D12*
X33193153Y-57943153D03*
D11*
G36*
X34354805Y-58503274D02*
G01*
X34376040Y-58506424D01*
X34396864Y-58511640D01*
X34417076Y-58518872D01*
X34436482Y-58528051D01*
X34454895Y-58539087D01*
X34472138Y-58551875D01*
X34488044Y-58566291D01*
X34797403Y-58875650D01*
X34811819Y-58891556D01*
X34824607Y-58908799D01*
X34835643Y-58927212D01*
X34844822Y-58946618D01*
X34852054Y-58966830D01*
X34857270Y-58987654D01*
X34860420Y-59008889D01*
X34861473Y-59030330D01*
X34860420Y-59051771D01*
X34857270Y-59073006D01*
X34852054Y-59093830D01*
X34844822Y-59114042D01*
X34835643Y-59133448D01*
X34824607Y-59151861D01*
X34811819Y-59169104D01*
X34797403Y-59185010D01*
X34435010Y-59547403D01*
X34419104Y-59561819D01*
X34401861Y-59574607D01*
X34383448Y-59585643D01*
X34364042Y-59594822D01*
X34343830Y-59602054D01*
X34323006Y-59607270D01*
X34301771Y-59610420D01*
X34280330Y-59611473D01*
X34258889Y-59610420D01*
X34237654Y-59607270D01*
X34216830Y-59602054D01*
X34196618Y-59594822D01*
X34177212Y-59585643D01*
X34158799Y-59574607D01*
X34141556Y-59561819D01*
X34125650Y-59547403D01*
X33816291Y-59238044D01*
X33801875Y-59222138D01*
X33789087Y-59204895D01*
X33778051Y-59186482D01*
X33768872Y-59167076D01*
X33761640Y-59146864D01*
X33756424Y-59126040D01*
X33753274Y-59104805D01*
X33752221Y-59083364D01*
X33753274Y-59061923D01*
X33756424Y-59040688D01*
X33761640Y-59019864D01*
X33768872Y-58999652D01*
X33778051Y-58980246D01*
X33789087Y-58961833D01*
X33801875Y-58944590D01*
X33816291Y-58928684D01*
X34178684Y-58566291D01*
X34194590Y-58551875D01*
X34211833Y-58539087D01*
X34230246Y-58528051D01*
X34249652Y-58518872D01*
X34269864Y-58511640D01*
X34290688Y-58506424D01*
X34311923Y-58503274D01*
X34333364Y-58502221D01*
X34354805Y-58503274D01*
X34354805Y-58503274D01*
G37*
D12*
X34306847Y-59056847D03*
D11*
G36*
X19604805Y-65753274D02*
G01*
X19626040Y-65756424D01*
X19646864Y-65761640D01*
X19667076Y-65768872D01*
X19686482Y-65778051D01*
X19704895Y-65789087D01*
X19722138Y-65801875D01*
X19738044Y-65816291D01*
X20047403Y-66125650D01*
X20061819Y-66141556D01*
X20074607Y-66158799D01*
X20085643Y-66177212D01*
X20094822Y-66196618D01*
X20102054Y-66216830D01*
X20107270Y-66237654D01*
X20110420Y-66258889D01*
X20111473Y-66280330D01*
X20110420Y-66301771D01*
X20107270Y-66323006D01*
X20102054Y-66343830D01*
X20094822Y-66364042D01*
X20085643Y-66383448D01*
X20074607Y-66401861D01*
X20061819Y-66419104D01*
X20047403Y-66435010D01*
X19685010Y-66797403D01*
X19669104Y-66811819D01*
X19651861Y-66824607D01*
X19633448Y-66835643D01*
X19614042Y-66844822D01*
X19593830Y-66852054D01*
X19573006Y-66857270D01*
X19551771Y-66860420D01*
X19530330Y-66861473D01*
X19508889Y-66860420D01*
X19487654Y-66857270D01*
X19466830Y-66852054D01*
X19446618Y-66844822D01*
X19427212Y-66835643D01*
X19408799Y-66824607D01*
X19391556Y-66811819D01*
X19375650Y-66797403D01*
X19066291Y-66488044D01*
X19051875Y-66472138D01*
X19039087Y-66454895D01*
X19028051Y-66436482D01*
X19018872Y-66417076D01*
X19011640Y-66396864D01*
X19006424Y-66376040D01*
X19003274Y-66354805D01*
X19002221Y-66333364D01*
X19003274Y-66311923D01*
X19006424Y-66290688D01*
X19011640Y-66269864D01*
X19018872Y-66249652D01*
X19028051Y-66230246D01*
X19039087Y-66211833D01*
X19051875Y-66194590D01*
X19066291Y-66178684D01*
X19428684Y-65816291D01*
X19444590Y-65801875D01*
X19461833Y-65789087D01*
X19480246Y-65778051D01*
X19499652Y-65768872D01*
X19519864Y-65761640D01*
X19540688Y-65756424D01*
X19561923Y-65753274D01*
X19583364Y-65752221D01*
X19604805Y-65753274D01*
X19604805Y-65753274D01*
G37*
D12*
X19556847Y-66306847D03*
D11*
G36*
X18491111Y-64639580D02*
G01*
X18512346Y-64642730D01*
X18533170Y-64647946D01*
X18553382Y-64655178D01*
X18572788Y-64664357D01*
X18591201Y-64675393D01*
X18608444Y-64688181D01*
X18624350Y-64702597D01*
X18933709Y-65011956D01*
X18948125Y-65027862D01*
X18960913Y-65045105D01*
X18971949Y-65063518D01*
X18981128Y-65082924D01*
X18988360Y-65103136D01*
X18993576Y-65123960D01*
X18996726Y-65145195D01*
X18997779Y-65166636D01*
X18996726Y-65188077D01*
X18993576Y-65209312D01*
X18988360Y-65230136D01*
X18981128Y-65250348D01*
X18971949Y-65269754D01*
X18960913Y-65288167D01*
X18948125Y-65305410D01*
X18933709Y-65321316D01*
X18571316Y-65683709D01*
X18555410Y-65698125D01*
X18538167Y-65710913D01*
X18519754Y-65721949D01*
X18500348Y-65731128D01*
X18480136Y-65738360D01*
X18459312Y-65743576D01*
X18438077Y-65746726D01*
X18416636Y-65747779D01*
X18395195Y-65746726D01*
X18373960Y-65743576D01*
X18353136Y-65738360D01*
X18332924Y-65731128D01*
X18313518Y-65721949D01*
X18295105Y-65710913D01*
X18277862Y-65698125D01*
X18261956Y-65683709D01*
X17952597Y-65374350D01*
X17938181Y-65358444D01*
X17925393Y-65341201D01*
X17914357Y-65322788D01*
X17905178Y-65303382D01*
X17897946Y-65283170D01*
X17892730Y-65262346D01*
X17889580Y-65241111D01*
X17888527Y-65219670D01*
X17889580Y-65198229D01*
X17892730Y-65176994D01*
X17897946Y-65156170D01*
X17905178Y-65135958D01*
X17914357Y-65116552D01*
X17925393Y-65098139D01*
X17938181Y-65080896D01*
X17952597Y-65064990D01*
X18314990Y-64702597D01*
X18330896Y-64688181D01*
X18348139Y-64675393D01*
X18366552Y-64664357D01*
X18385958Y-64655178D01*
X18406170Y-64647946D01*
X18426994Y-64642730D01*
X18448229Y-64639580D01*
X18469670Y-64638527D01*
X18491111Y-64639580D01*
X18491111Y-64639580D01*
G37*
D12*
X18443153Y-65193153D03*
D11*
G36*
X24604805Y-39003274D02*
G01*
X24626040Y-39006424D01*
X24646864Y-39011640D01*
X24667076Y-39018872D01*
X24686482Y-39028051D01*
X24704895Y-39039087D01*
X24722138Y-39051875D01*
X24738044Y-39066291D01*
X25047403Y-39375650D01*
X25061819Y-39391556D01*
X25074607Y-39408799D01*
X25085643Y-39427212D01*
X25094822Y-39446618D01*
X25102054Y-39466830D01*
X25107270Y-39487654D01*
X25110420Y-39508889D01*
X25111473Y-39530330D01*
X25110420Y-39551771D01*
X25107270Y-39573006D01*
X25102054Y-39593830D01*
X25094822Y-39614042D01*
X25085643Y-39633448D01*
X25074607Y-39651861D01*
X25061819Y-39669104D01*
X25047403Y-39685010D01*
X24685010Y-40047403D01*
X24669104Y-40061819D01*
X24651861Y-40074607D01*
X24633448Y-40085643D01*
X24614042Y-40094822D01*
X24593830Y-40102054D01*
X24573006Y-40107270D01*
X24551771Y-40110420D01*
X24530330Y-40111473D01*
X24508889Y-40110420D01*
X24487654Y-40107270D01*
X24466830Y-40102054D01*
X24446618Y-40094822D01*
X24427212Y-40085643D01*
X24408799Y-40074607D01*
X24391556Y-40061819D01*
X24375650Y-40047403D01*
X24066291Y-39738044D01*
X24051875Y-39722138D01*
X24039087Y-39704895D01*
X24028051Y-39686482D01*
X24018872Y-39667076D01*
X24011640Y-39646864D01*
X24006424Y-39626040D01*
X24003274Y-39604805D01*
X24002221Y-39583364D01*
X24003274Y-39561923D01*
X24006424Y-39540688D01*
X24011640Y-39519864D01*
X24018872Y-39499652D01*
X24028051Y-39480246D01*
X24039087Y-39461833D01*
X24051875Y-39444590D01*
X24066291Y-39428684D01*
X24428684Y-39066291D01*
X24444590Y-39051875D01*
X24461833Y-39039087D01*
X24480246Y-39028051D01*
X24499652Y-39018872D01*
X24519864Y-39011640D01*
X24540688Y-39006424D01*
X24561923Y-39003274D01*
X24583364Y-39002221D01*
X24604805Y-39003274D01*
X24604805Y-39003274D01*
G37*
D12*
X24556847Y-39556847D03*
D11*
G36*
X23491111Y-37889580D02*
G01*
X23512346Y-37892730D01*
X23533170Y-37897946D01*
X23553382Y-37905178D01*
X23572788Y-37914357D01*
X23591201Y-37925393D01*
X23608444Y-37938181D01*
X23624350Y-37952597D01*
X23933709Y-38261956D01*
X23948125Y-38277862D01*
X23960913Y-38295105D01*
X23971949Y-38313518D01*
X23981128Y-38332924D01*
X23988360Y-38353136D01*
X23993576Y-38373960D01*
X23996726Y-38395195D01*
X23997779Y-38416636D01*
X23996726Y-38438077D01*
X23993576Y-38459312D01*
X23988360Y-38480136D01*
X23981128Y-38500348D01*
X23971949Y-38519754D01*
X23960913Y-38538167D01*
X23948125Y-38555410D01*
X23933709Y-38571316D01*
X23571316Y-38933709D01*
X23555410Y-38948125D01*
X23538167Y-38960913D01*
X23519754Y-38971949D01*
X23500348Y-38981128D01*
X23480136Y-38988360D01*
X23459312Y-38993576D01*
X23438077Y-38996726D01*
X23416636Y-38997779D01*
X23395195Y-38996726D01*
X23373960Y-38993576D01*
X23353136Y-38988360D01*
X23332924Y-38981128D01*
X23313518Y-38971949D01*
X23295105Y-38960913D01*
X23277862Y-38948125D01*
X23261956Y-38933709D01*
X22952597Y-38624350D01*
X22938181Y-38608444D01*
X22925393Y-38591201D01*
X22914357Y-38572788D01*
X22905178Y-38553382D01*
X22897946Y-38533170D01*
X22892730Y-38512346D01*
X22889580Y-38491111D01*
X22888527Y-38469670D01*
X22889580Y-38448229D01*
X22892730Y-38426994D01*
X22897946Y-38406170D01*
X22905178Y-38385958D01*
X22914357Y-38366552D01*
X22925393Y-38348139D01*
X22938181Y-38330896D01*
X22952597Y-38314990D01*
X23314990Y-37952597D01*
X23330896Y-37938181D01*
X23348139Y-37925393D01*
X23366552Y-37914357D01*
X23385958Y-37905178D01*
X23406170Y-37897946D01*
X23426994Y-37892730D01*
X23448229Y-37889580D01*
X23469670Y-37888527D01*
X23491111Y-37889580D01*
X23491111Y-37889580D01*
G37*
D12*
X23443153Y-38443153D03*
D11*
G36*
X46991111Y-40889580D02*
G01*
X47012346Y-40892730D01*
X47033170Y-40897946D01*
X47053382Y-40905178D01*
X47072788Y-40914357D01*
X47091201Y-40925393D01*
X47108444Y-40938181D01*
X47124350Y-40952597D01*
X47433709Y-41261956D01*
X47448125Y-41277862D01*
X47460913Y-41295105D01*
X47471949Y-41313518D01*
X47481128Y-41332924D01*
X47488360Y-41353136D01*
X47493576Y-41373960D01*
X47496726Y-41395195D01*
X47497779Y-41416636D01*
X47496726Y-41438077D01*
X47493576Y-41459312D01*
X47488360Y-41480136D01*
X47481128Y-41500348D01*
X47471949Y-41519754D01*
X47460913Y-41538167D01*
X47448125Y-41555410D01*
X47433709Y-41571316D01*
X47071316Y-41933709D01*
X47055410Y-41948125D01*
X47038167Y-41960913D01*
X47019754Y-41971949D01*
X47000348Y-41981128D01*
X46980136Y-41988360D01*
X46959312Y-41993576D01*
X46938077Y-41996726D01*
X46916636Y-41997779D01*
X46895195Y-41996726D01*
X46873960Y-41993576D01*
X46853136Y-41988360D01*
X46832924Y-41981128D01*
X46813518Y-41971949D01*
X46795105Y-41960913D01*
X46777862Y-41948125D01*
X46761956Y-41933709D01*
X46452597Y-41624350D01*
X46438181Y-41608444D01*
X46425393Y-41591201D01*
X46414357Y-41572788D01*
X46405178Y-41553382D01*
X46397946Y-41533170D01*
X46392730Y-41512346D01*
X46389580Y-41491111D01*
X46388527Y-41469670D01*
X46389580Y-41448229D01*
X46392730Y-41426994D01*
X46397946Y-41406170D01*
X46405178Y-41385958D01*
X46414357Y-41366552D01*
X46425393Y-41348139D01*
X46438181Y-41330896D01*
X46452597Y-41314990D01*
X46814990Y-40952597D01*
X46830896Y-40938181D01*
X46848139Y-40925393D01*
X46866552Y-40914357D01*
X46885958Y-40905178D01*
X46906170Y-40897946D01*
X46926994Y-40892730D01*
X46948229Y-40889580D01*
X46969670Y-40888527D01*
X46991111Y-40889580D01*
X46991111Y-40889580D01*
G37*
D12*
X46943153Y-41443153D03*
D11*
G36*
X48104805Y-42003274D02*
G01*
X48126040Y-42006424D01*
X48146864Y-42011640D01*
X48167076Y-42018872D01*
X48186482Y-42028051D01*
X48204895Y-42039087D01*
X48222138Y-42051875D01*
X48238044Y-42066291D01*
X48547403Y-42375650D01*
X48561819Y-42391556D01*
X48574607Y-42408799D01*
X48585643Y-42427212D01*
X48594822Y-42446618D01*
X48602054Y-42466830D01*
X48607270Y-42487654D01*
X48610420Y-42508889D01*
X48611473Y-42530330D01*
X48610420Y-42551771D01*
X48607270Y-42573006D01*
X48602054Y-42593830D01*
X48594822Y-42614042D01*
X48585643Y-42633448D01*
X48574607Y-42651861D01*
X48561819Y-42669104D01*
X48547403Y-42685010D01*
X48185010Y-43047403D01*
X48169104Y-43061819D01*
X48151861Y-43074607D01*
X48133448Y-43085643D01*
X48114042Y-43094822D01*
X48093830Y-43102054D01*
X48073006Y-43107270D01*
X48051771Y-43110420D01*
X48030330Y-43111473D01*
X48008889Y-43110420D01*
X47987654Y-43107270D01*
X47966830Y-43102054D01*
X47946618Y-43094822D01*
X47927212Y-43085643D01*
X47908799Y-43074607D01*
X47891556Y-43061819D01*
X47875650Y-43047403D01*
X47566291Y-42738044D01*
X47551875Y-42722138D01*
X47539087Y-42704895D01*
X47528051Y-42686482D01*
X47518872Y-42667076D01*
X47511640Y-42646864D01*
X47506424Y-42626040D01*
X47503274Y-42604805D01*
X47502221Y-42583364D01*
X47503274Y-42561923D01*
X47506424Y-42540688D01*
X47511640Y-42519864D01*
X47518872Y-42499652D01*
X47528051Y-42480246D01*
X47539087Y-42461833D01*
X47551875Y-42444590D01*
X47566291Y-42428684D01*
X47928684Y-42066291D01*
X47944590Y-42051875D01*
X47961833Y-42039087D01*
X47980246Y-42028051D01*
X47999652Y-42018872D01*
X48019864Y-42011640D01*
X48040688Y-42006424D01*
X48061923Y-42003274D01*
X48083364Y-42002221D01*
X48104805Y-42003274D01*
X48104805Y-42003274D01*
G37*
D12*
X48056847Y-42556847D03*
D11*
G36*
X65604805Y-48003274D02*
G01*
X65626040Y-48006424D01*
X65646864Y-48011640D01*
X65667076Y-48018872D01*
X65686482Y-48028051D01*
X65704895Y-48039087D01*
X65722138Y-48051875D01*
X65738044Y-48066291D01*
X66047403Y-48375650D01*
X66061819Y-48391556D01*
X66074607Y-48408799D01*
X66085643Y-48427212D01*
X66094822Y-48446618D01*
X66102054Y-48466830D01*
X66107270Y-48487654D01*
X66110420Y-48508889D01*
X66111473Y-48530330D01*
X66110420Y-48551771D01*
X66107270Y-48573006D01*
X66102054Y-48593830D01*
X66094822Y-48614042D01*
X66085643Y-48633448D01*
X66074607Y-48651861D01*
X66061819Y-48669104D01*
X66047403Y-48685010D01*
X65685010Y-49047403D01*
X65669104Y-49061819D01*
X65651861Y-49074607D01*
X65633448Y-49085643D01*
X65614042Y-49094822D01*
X65593830Y-49102054D01*
X65573006Y-49107270D01*
X65551771Y-49110420D01*
X65530330Y-49111473D01*
X65508889Y-49110420D01*
X65487654Y-49107270D01*
X65466830Y-49102054D01*
X65446618Y-49094822D01*
X65427212Y-49085643D01*
X65408799Y-49074607D01*
X65391556Y-49061819D01*
X65375650Y-49047403D01*
X65066291Y-48738044D01*
X65051875Y-48722138D01*
X65039087Y-48704895D01*
X65028051Y-48686482D01*
X65018872Y-48667076D01*
X65011640Y-48646864D01*
X65006424Y-48626040D01*
X65003274Y-48604805D01*
X65002221Y-48583364D01*
X65003274Y-48561923D01*
X65006424Y-48540688D01*
X65011640Y-48519864D01*
X65018872Y-48499652D01*
X65028051Y-48480246D01*
X65039087Y-48461833D01*
X65051875Y-48444590D01*
X65066291Y-48428684D01*
X65428684Y-48066291D01*
X65444590Y-48051875D01*
X65461833Y-48039087D01*
X65480246Y-48028051D01*
X65499652Y-48018872D01*
X65519864Y-48011640D01*
X65540688Y-48006424D01*
X65561923Y-48003274D01*
X65583364Y-48002221D01*
X65604805Y-48003274D01*
X65604805Y-48003274D01*
G37*
D12*
X65556847Y-48556847D03*
D11*
G36*
X64491111Y-46889580D02*
G01*
X64512346Y-46892730D01*
X64533170Y-46897946D01*
X64553382Y-46905178D01*
X64572788Y-46914357D01*
X64591201Y-46925393D01*
X64608444Y-46938181D01*
X64624350Y-46952597D01*
X64933709Y-47261956D01*
X64948125Y-47277862D01*
X64960913Y-47295105D01*
X64971949Y-47313518D01*
X64981128Y-47332924D01*
X64988360Y-47353136D01*
X64993576Y-47373960D01*
X64996726Y-47395195D01*
X64997779Y-47416636D01*
X64996726Y-47438077D01*
X64993576Y-47459312D01*
X64988360Y-47480136D01*
X64981128Y-47500348D01*
X64971949Y-47519754D01*
X64960913Y-47538167D01*
X64948125Y-47555410D01*
X64933709Y-47571316D01*
X64571316Y-47933709D01*
X64555410Y-47948125D01*
X64538167Y-47960913D01*
X64519754Y-47971949D01*
X64500348Y-47981128D01*
X64480136Y-47988360D01*
X64459312Y-47993576D01*
X64438077Y-47996726D01*
X64416636Y-47997779D01*
X64395195Y-47996726D01*
X64373960Y-47993576D01*
X64353136Y-47988360D01*
X64332924Y-47981128D01*
X64313518Y-47971949D01*
X64295105Y-47960913D01*
X64277862Y-47948125D01*
X64261956Y-47933709D01*
X63952597Y-47624350D01*
X63938181Y-47608444D01*
X63925393Y-47591201D01*
X63914357Y-47572788D01*
X63905178Y-47553382D01*
X63897946Y-47533170D01*
X63892730Y-47512346D01*
X63889580Y-47491111D01*
X63888527Y-47469670D01*
X63889580Y-47448229D01*
X63892730Y-47426994D01*
X63897946Y-47406170D01*
X63905178Y-47385958D01*
X63914357Y-47366552D01*
X63925393Y-47348139D01*
X63938181Y-47330896D01*
X63952597Y-47314990D01*
X64314990Y-46952597D01*
X64330896Y-46938181D01*
X64348139Y-46925393D01*
X64366552Y-46914357D01*
X64385958Y-46905178D01*
X64406170Y-46897946D01*
X64426994Y-46892730D01*
X64448229Y-46889580D01*
X64469670Y-46888527D01*
X64491111Y-46889580D01*
X64491111Y-46889580D01*
G37*
D12*
X64443153Y-47443153D03*
D11*
G36*
X71104805Y-43003274D02*
G01*
X71126040Y-43006424D01*
X71146864Y-43011640D01*
X71167076Y-43018872D01*
X71186482Y-43028051D01*
X71204895Y-43039087D01*
X71222138Y-43051875D01*
X71238044Y-43066291D01*
X71547403Y-43375650D01*
X71561819Y-43391556D01*
X71574607Y-43408799D01*
X71585643Y-43427212D01*
X71594822Y-43446618D01*
X71602054Y-43466830D01*
X71607270Y-43487654D01*
X71610420Y-43508889D01*
X71611473Y-43530330D01*
X71610420Y-43551771D01*
X71607270Y-43573006D01*
X71602054Y-43593830D01*
X71594822Y-43614042D01*
X71585643Y-43633448D01*
X71574607Y-43651861D01*
X71561819Y-43669104D01*
X71547403Y-43685010D01*
X71185010Y-44047403D01*
X71169104Y-44061819D01*
X71151861Y-44074607D01*
X71133448Y-44085643D01*
X71114042Y-44094822D01*
X71093830Y-44102054D01*
X71073006Y-44107270D01*
X71051771Y-44110420D01*
X71030330Y-44111473D01*
X71008889Y-44110420D01*
X70987654Y-44107270D01*
X70966830Y-44102054D01*
X70946618Y-44094822D01*
X70927212Y-44085643D01*
X70908799Y-44074607D01*
X70891556Y-44061819D01*
X70875650Y-44047403D01*
X70566291Y-43738044D01*
X70551875Y-43722138D01*
X70539087Y-43704895D01*
X70528051Y-43686482D01*
X70518872Y-43667076D01*
X70511640Y-43646864D01*
X70506424Y-43626040D01*
X70503274Y-43604805D01*
X70502221Y-43583364D01*
X70503274Y-43561923D01*
X70506424Y-43540688D01*
X70511640Y-43519864D01*
X70518872Y-43499652D01*
X70528051Y-43480246D01*
X70539087Y-43461833D01*
X70551875Y-43444590D01*
X70566291Y-43428684D01*
X70928684Y-43066291D01*
X70944590Y-43051875D01*
X70961833Y-43039087D01*
X70980246Y-43028051D01*
X70999652Y-43018872D01*
X71019864Y-43011640D01*
X71040688Y-43006424D01*
X71061923Y-43003274D01*
X71083364Y-43002221D01*
X71104805Y-43003274D01*
X71104805Y-43003274D01*
G37*
D12*
X71056847Y-43556847D03*
D11*
G36*
X69991111Y-41889580D02*
G01*
X70012346Y-41892730D01*
X70033170Y-41897946D01*
X70053382Y-41905178D01*
X70072788Y-41914357D01*
X70091201Y-41925393D01*
X70108444Y-41938181D01*
X70124350Y-41952597D01*
X70433709Y-42261956D01*
X70448125Y-42277862D01*
X70460913Y-42295105D01*
X70471949Y-42313518D01*
X70481128Y-42332924D01*
X70488360Y-42353136D01*
X70493576Y-42373960D01*
X70496726Y-42395195D01*
X70497779Y-42416636D01*
X70496726Y-42438077D01*
X70493576Y-42459312D01*
X70488360Y-42480136D01*
X70481128Y-42500348D01*
X70471949Y-42519754D01*
X70460913Y-42538167D01*
X70448125Y-42555410D01*
X70433709Y-42571316D01*
X70071316Y-42933709D01*
X70055410Y-42948125D01*
X70038167Y-42960913D01*
X70019754Y-42971949D01*
X70000348Y-42981128D01*
X69980136Y-42988360D01*
X69959312Y-42993576D01*
X69938077Y-42996726D01*
X69916636Y-42997779D01*
X69895195Y-42996726D01*
X69873960Y-42993576D01*
X69853136Y-42988360D01*
X69832924Y-42981128D01*
X69813518Y-42971949D01*
X69795105Y-42960913D01*
X69777862Y-42948125D01*
X69761956Y-42933709D01*
X69452597Y-42624350D01*
X69438181Y-42608444D01*
X69425393Y-42591201D01*
X69414357Y-42572788D01*
X69405178Y-42553382D01*
X69397946Y-42533170D01*
X69392730Y-42512346D01*
X69389580Y-42491111D01*
X69388527Y-42469670D01*
X69389580Y-42448229D01*
X69392730Y-42426994D01*
X69397946Y-42406170D01*
X69405178Y-42385958D01*
X69414357Y-42366552D01*
X69425393Y-42348139D01*
X69438181Y-42330896D01*
X69452597Y-42314990D01*
X69814990Y-41952597D01*
X69830896Y-41938181D01*
X69848139Y-41925393D01*
X69866552Y-41914357D01*
X69885958Y-41905178D01*
X69906170Y-41897946D01*
X69926994Y-41892730D01*
X69948229Y-41889580D01*
X69969670Y-41888527D01*
X69991111Y-41889580D01*
X69991111Y-41889580D01*
G37*
D12*
X69943153Y-42443153D03*
D11*
G36*
X52491111Y-38139580D02*
G01*
X52512346Y-38142730D01*
X52533170Y-38147946D01*
X52553382Y-38155178D01*
X52572788Y-38164357D01*
X52591201Y-38175393D01*
X52608444Y-38188181D01*
X52624350Y-38202597D01*
X52933709Y-38511956D01*
X52948125Y-38527862D01*
X52960913Y-38545105D01*
X52971949Y-38563518D01*
X52981128Y-38582924D01*
X52988360Y-38603136D01*
X52993576Y-38623960D01*
X52996726Y-38645195D01*
X52997779Y-38666636D01*
X52996726Y-38688077D01*
X52993576Y-38709312D01*
X52988360Y-38730136D01*
X52981128Y-38750348D01*
X52971949Y-38769754D01*
X52960913Y-38788167D01*
X52948125Y-38805410D01*
X52933709Y-38821316D01*
X52571316Y-39183709D01*
X52555410Y-39198125D01*
X52538167Y-39210913D01*
X52519754Y-39221949D01*
X52500348Y-39231128D01*
X52480136Y-39238360D01*
X52459312Y-39243576D01*
X52438077Y-39246726D01*
X52416636Y-39247779D01*
X52395195Y-39246726D01*
X52373960Y-39243576D01*
X52353136Y-39238360D01*
X52332924Y-39231128D01*
X52313518Y-39221949D01*
X52295105Y-39210913D01*
X52277862Y-39198125D01*
X52261956Y-39183709D01*
X51952597Y-38874350D01*
X51938181Y-38858444D01*
X51925393Y-38841201D01*
X51914357Y-38822788D01*
X51905178Y-38803382D01*
X51897946Y-38783170D01*
X51892730Y-38762346D01*
X51889580Y-38741111D01*
X51888527Y-38719670D01*
X51889580Y-38698229D01*
X51892730Y-38676994D01*
X51897946Y-38656170D01*
X51905178Y-38635958D01*
X51914357Y-38616552D01*
X51925393Y-38598139D01*
X51938181Y-38580896D01*
X51952597Y-38564990D01*
X52314990Y-38202597D01*
X52330896Y-38188181D01*
X52348139Y-38175393D01*
X52366552Y-38164357D01*
X52385958Y-38155178D01*
X52406170Y-38147946D01*
X52426994Y-38142730D01*
X52448229Y-38139580D01*
X52469670Y-38138527D01*
X52491111Y-38139580D01*
X52491111Y-38139580D01*
G37*
D12*
X52443153Y-38693153D03*
D11*
G36*
X53604805Y-39253274D02*
G01*
X53626040Y-39256424D01*
X53646864Y-39261640D01*
X53667076Y-39268872D01*
X53686482Y-39278051D01*
X53704895Y-39289087D01*
X53722138Y-39301875D01*
X53738044Y-39316291D01*
X54047403Y-39625650D01*
X54061819Y-39641556D01*
X54074607Y-39658799D01*
X54085643Y-39677212D01*
X54094822Y-39696618D01*
X54102054Y-39716830D01*
X54107270Y-39737654D01*
X54110420Y-39758889D01*
X54111473Y-39780330D01*
X54110420Y-39801771D01*
X54107270Y-39823006D01*
X54102054Y-39843830D01*
X54094822Y-39864042D01*
X54085643Y-39883448D01*
X54074607Y-39901861D01*
X54061819Y-39919104D01*
X54047403Y-39935010D01*
X53685010Y-40297403D01*
X53669104Y-40311819D01*
X53651861Y-40324607D01*
X53633448Y-40335643D01*
X53614042Y-40344822D01*
X53593830Y-40352054D01*
X53573006Y-40357270D01*
X53551771Y-40360420D01*
X53530330Y-40361473D01*
X53508889Y-40360420D01*
X53487654Y-40357270D01*
X53466830Y-40352054D01*
X53446618Y-40344822D01*
X53427212Y-40335643D01*
X53408799Y-40324607D01*
X53391556Y-40311819D01*
X53375650Y-40297403D01*
X53066291Y-39988044D01*
X53051875Y-39972138D01*
X53039087Y-39954895D01*
X53028051Y-39936482D01*
X53018872Y-39917076D01*
X53011640Y-39896864D01*
X53006424Y-39876040D01*
X53003274Y-39854805D01*
X53002221Y-39833364D01*
X53003274Y-39811923D01*
X53006424Y-39790688D01*
X53011640Y-39769864D01*
X53018872Y-39749652D01*
X53028051Y-39730246D01*
X53039087Y-39711833D01*
X53051875Y-39694590D01*
X53066291Y-39678684D01*
X53428684Y-39316291D01*
X53444590Y-39301875D01*
X53461833Y-39289087D01*
X53480246Y-39278051D01*
X53499652Y-39268872D01*
X53519864Y-39261640D01*
X53540688Y-39256424D01*
X53561923Y-39253274D01*
X53583364Y-39252221D01*
X53604805Y-39253274D01*
X53604805Y-39253274D01*
G37*
D12*
X53556847Y-39806847D03*
D11*
G36*
X33404805Y-37953274D02*
G01*
X33426040Y-37956424D01*
X33446864Y-37961640D01*
X33467076Y-37968872D01*
X33486482Y-37978051D01*
X33504895Y-37989087D01*
X33522138Y-38001875D01*
X33538044Y-38016291D01*
X33847403Y-38325650D01*
X33861819Y-38341556D01*
X33874607Y-38358799D01*
X33885643Y-38377212D01*
X33894822Y-38396618D01*
X33902054Y-38416830D01*
X33907270Y-38437654D01*
X33910420Y-38458889D01*
X33911473Y-38480330D01*
X33910420Y-38501771D01*
X33907270Y-38523006D01*
X33902054Y-38543830D01*
X33894822Y-38564042D01*
X33885643Y-38583448D01*
X33874607Y-38601861D01*
X33861819Y-38619104D01*
X33847403Y-38635010D01*
X33485010Y-38997403D01*
X33469104Y-39011819D01*
X33451861Y-39024607D01*
X33433448Y-39035643D01*
X33414042Y-39044822D01*
X33393830Y-39052054D01*
X33373006Y-39057270D01*
X33351771Y-39060420D01*
X33330330Y-39061473D01*
X33308889Y-39060420D01*
X33287654Y-39057270D01*
X33266830Y-39052054D01*
X33246618Y-39044822D01*
X33227212Y-39035643D01*
X33208799Y-39024607D01*
X33191556Y-39011819D01*
X33175650Y-38997403D01*
X32866291Y-38688044D01*
X32851875Y-38672138D01*
X32839087Y-38654895D01*
X32828051Y-38636482D01*
X32818872Y-38617076D01*
X32811640Y-38596864D01*
X32806424Y-38576040D01*
X32803274Y-38554805D01*
X32802221Y-38533364D01*
X32803274Y-38511923D01*
X32806424Y-38490688D01*
X32811640Y-38469864D01*
X32818872Y-38449652D01*
X32828051Y-38430246D01*
X32839087Y-38411833D01*
X32851875Y-38394590D01*
X32866291Y-38378684D01*
X33228684Y-38016291D01*
X33244590Y-38001875D01*
X33261833Y-37989087D01*
X33280246Y-37978051D01*
X33299652Y-37968872D01*
X33319864Y-37961640D01*
X33340688Y-37956424D01*
X33361923Y-37953274D01*
X33383364Y-37952221D01*
X33404805Y-37953274D01*
X33404805Y-37953274D01*
G37*
D12*
X33356847Y-38506847D03*
D11*
G36*
X32291111Y-36839580D02*
G01*
X32312346Y-36842730D01*
X32333170Y-36847946D01*
X32353382Y-36855178D01*
X32372788Y-36864357D01*
X32391201Y-36875393D01*
X32408444Y-36888181D01*
X32424350Y-36902597D01*
X32733709Y-37211956D01*
X32748125Y-37227862D01*
X32760913Y-37245105D01*
X32771949Y-37263518D01*
X32781128Y-37282924D01*
X32788360Y-37303136D01*
X32793576Y-37323960D01*
X32796726Y-37345195D01*
X32797779Y-37366636D01*
X32796726Y-37388077D01*
X32793576Y-37409312D01*
X32788360Y-37430136D01*
X32781128Y-37450348D01*
X32771949Y-37469754D01*
X32760913Y-37488167D01*
X32748125Y-37505410D01*
X32733709Y-37521316D01*
X32371316Y-37883709D01*
X32355410Y-37898125D01*
X32338167Y-37910913D01*
X32319754Y-37921949D01*
X32300348Y-37931128D01*
X32280136Y-37938360D01*
X32259312Y-37943576D01*
X32238077Y-37946726D01*
X32216636Y-37947779D01*
X32195195Y-37946726D01*
X32173960Y-37943576D01*
X32153136Y-37938360D01*
X32132924Y-37931128D01*
X32113518Y-37921949D01*
X32095105Y-37910913D01*
X32077862Y-37898125D01*
X32061956Y-37883709D01*
X31752597Y-37574350D01*
X31738181Y-37558444D01*
X31725393Y-37541201D01*
X31714357Y-37522788D01*
X31705178Y-37503382D01*
X31697946Y-37483170D01*
X31692730Y-37462346D01*
X31689580Y-37441111D01*
X31688527Y-37419670D01*
X31689580Y-37398229D01*
X31692730Y-37376994D01*
X31697946Y-37356170D01*
X31705178Y-37335958D01*
X31714357Y-37316552D01*
X31725393Y-37298139D01*
X31738181Y-37280896D01*
X31752597Y-37264990D01*
X32114990Y-36902597D01*
X32130896Y-36888181D01*
X32148139Y-36875393D01*
X32166552Y-36864357D01*
X32185958Y-36855178D01*
X32206170Y-36847946D01*
X32226994Y-36842730D01*
X32248229Y-36839580D01*
X32269670Y-36838527D01*
X32291111Y-36839580D01*
X32291111Y-36839580D01*
G37*
D12*
X32243153Y-37393153D03*
D11*
G36*
X13491111Y-30639580D02*
G01*
X13512346Y-30642730D01*
X13533170Y-30647946D01*
X13553382Y-30655178D01*
X13572788Y-30664357D01*
X13591201Y-30675393D01*
X13608444Y-30688181D01*
X13624350Y-30702597D01*
X13933709Y-31011956D01*
X13948125Y-31027862D01*
X13960913Y-31045105D01*
X13971949Y-31063518D01*
X13981128Y-31082924D01*
X13988360Y-31103136D01*
X13993576Y-31123960D01*
X13996726Y-31145195D01*
X13997779Y-31166636D01*
X13996726Y-31188077D01*
X13993576Y-31209312D01*
X13988360Y-31230136D01*
X13981128Y-31250348D01*
X13971949Y-31269754D01*
X13960913Y-31288167D01*
X13948125Y-31305410D01*
X13933709Y-31321316D01*
X13571316Y-31683709D01*
X13555410Y-31698125D01*
X13538167Y-31710913D01*
X13519754Y-31721949D01*
X13500348Y-31731128D01*
X13480136Y-31738360D01*
X13459312Y-31743576D01*
X13438077Y-31746726D01*
X13416636Y-31747779D01*
X13395195Y-31746726D01*
X13373960Y-31743576D01*
X13353136Y-31738360D01*
X13332924Y-31731128D01*
X13313518Y-31721949D01*
X13295105Y-31710913D01*
X13277862Y-31698125D01*
X13261956Y-31683709D01*
X12952597Y-31374350D01*
X12938181Y-31358444D01*
X12925393Y-31341201D01*
X12914357Y-31322788D01*
X12905178Y-31303382D01*
X12897946Y-31283170D01*
X12892730Y-31262346D01*
X12889580Y-31241111D01*
X12888527Y-31219670D01*
X12889580Y-31198229D01*
X12892730Y-31176994D01*
X12897946Y-31156170D01*
X12905178Y-31135958D01*
X12914357Y-31116552D01*
X12925393Y-31098139D01*
X12938181Y-31080896D01*
X12952597Y-31064990D01*
X13314990Y-30702597D01*
X13330896Y-30688181D01*
X13348139Y-30675393D01*
X13366552Y-30664357D01*
X13385958Y-30655178D01*
X13406170Y-30647946D01*
X13426994Y-30642730D01*
X13448229Y-30639580D01*
X13469670Y-30638527D01*
X13491111Y-30639580D01*
X13491111Y-30639580D01*
G37*
D12*
X13443153Y-31193153D03*
D11*
G36*
X14604805Y-31753274D02*
G01*
X14626040Y-31756424D01*
X14646864Y-31761640D01*
X14667076Y-31768872D01*
X14686482Y-31778051D01*
X14704895Y-31789087D01*
X14722138Y-31801875D01*
X14738044Y-31816291D01*
X15047403Y-32125650D01*
X15061819Y-32141556D01*
X15074607Y-32158799D01*
X15085643Y-32177212D01*
X15094822Y-32196618D01*
X15102054Y-32216830D01*
X15107270Y-32237654D01*
X15110420Y-32258889D01*
X15111473Y-32280330D01*
X15110420Y-32301771D01*
X15107270Y-32323006D01*
X15102054Y-32343830D01*
X15094822Y-32364042D01*
X15085643Y-32383448D01*
X15074607Y-32401861D01*
X15061819Y-32419104D01*
X15047403Y-32435010D01*
X14685010Y-32797403D01*
X14669104Y-32811819D01*
X14651861Y-32824607D01*
X14633448Y-32835643D01*
X14614042Y-32844822D01*
X14593830Y-32852054D01*
X14573006Y-32857270D01*
X14551771Y-32860420D01*
X14530330Y-32861473D01*
X14508889Y-32860420D01*
X14487654Y-32857270D01*
X14466830Y-32852054D01*
X14446618Y-32844822D01*
X14427212Y-32835643D01*
X14408799Y-32824607D01*
X14391556Y-32811819D01*
X14375650Y-32797403D01*
X14066291Y-32488044D01*
X14051875Y-32472138D01*
X14039087Y-32454895D01*
X14028051Y-32436482D01*
X14018872Y-32417076D01*
X14011640Y-32396864D01*
X14006424Y-32376040D01*
X14003274Y-32354805D01*
X14002221Y-32333364D01*
X14003274Y-32311923D01*
X14006424Y-32290688D01*
X14011640Y-32269864D01*
X14018872Y-32249652D01*
X14028051Y-32230246D01*
X14039087Y-32211833D01*
X14051875Y-32194590D01*
X14066291Y-32178684D01*
X14428684Y-31816291D01*
X14444590Y-31801875D01*
X14461833Y-31789087D01*
X14480246Y-31778051D01*
X14499652Y-31768872D01*
X14519864Y-31761640D01*
X14540688Y-31756424D01*
X14561923Y-31753274D01*
X14583364Y-31752221D01*
X14604805Y-31753274D01*
X14604805Y-31753274D01*
G37*
D12*
X14556847Y-32306847D03*
D11*
G36*
X10991111Y-4889580D02*
G01*
X11012346Y-4892730D01*
X11033170Y-4897946D01*
X11053382Y-4905178D01*
X11072788Y-4914357D01*
X11091201Y-4925393D01*
X11108444Y-4938181D01*
X11124350Y-4952597D01*
X11433709Y-5261956D01*
X11448125Y-5277862D01*
X11460913Y-5295105D01*
X11471949Y-5313518D01*
X11481128Y-5332924D01*
X11488360Y-5353136D01*
X11493576Y-5373960D01*
X11496726Y-5395195D01*
X11497779Y-5416636D01*
X11496726Y-5438077D01*
X11493576Y-5459312D01*
X11488360Y-5480136D01*
X11481128Y-5500348D01*
X11471949Y-5519754D01*
X11460913Y-5538167D01*
X11448125Y-5555410D01*
X11433709Y-5571316D01*
X11071316Y-5933709D01*
X11055410Y-5948125D01*
X11038167Y-5960913D01*
X11019754Y-5971949D01*
X11000348Y-5981128D01*
X10980136Y-5988360D01*
X10959312Y-5993576D01*
X10938077Y-5996726D01*
X10916636Y-5997779D01*
X10895195Y-5996726D01*
X10873960Y-5993576D01*
X10853136Y-5988360D01*
X10832924Y-5981128D01*
X10813518Y-5971949D01*
X10795105Y-5960913D01*
X10777862Y-5948125D01*
X10761956Y-5933709D01*
X10452597Y-5624350D01*
X10438181Y-5608444D01*
X10425393Y-5591201D01*
X10414357Y-5572788D01*
X10405178Y-5553382D01*
X10397946Y-5533170D01*
X10392730Y-5512346D01*
X10389580Y-5491111D01*
X10388527Y-5469670D01*
X10389580Y-5448229D01*
X10392730Y-5426994D01*
X10397946Y-5406170D01*
X10405178Y-5385958D01*
X10414357Y-5366552D01*
X10425393Y-5348139D01*
X10438181Y-5330896D01*
X10452597Y-5314990D01*
X10814990Y-4952597D01*
X10830896Y-4938181D01*
X10848139Y-4925393D01*
X10866552Y-4914357D01*
X10885958Y-4905178D01*
X10906170Y-4897946D01*
X10926994Y-4892730D01*
X10948229Y-4889580D01*
X10969670Y-4888527D01*
X10991111Y-4889580D01*
X10991111Y-4889580D01*
G37*
D12*
X10943153Y-5443153D03*
D11*
G36*
X12104805Y-6003274D02*
G01*
X12126040Y-6006424D01*
X12146864Y-6011640D01*
X12167076Y-6018872D01*
X12186482Y-6028051D01*
X12204895Y-6039087D01*
X12222138Y-6051875D01*
X12238044Y-6066291D01*
X12547403Y-6375650D01*
X12561819Y-6391556D01*
X12574607Y-6408799D01*
X12585643Y-6427212D01*
X12594822Y-6446618D01*
X12602054Y-6466830D01*
X12607270Y-6487654D01*
X12610420Y-6508889D01*
X12611473Y-6530330D01*
X12610420Y-6551771D01*
X12607270Y-6573006D01*
X12602054Y-6593830D01*
X12594822Y-6614042D01*
X12585643Y-6633448D01*
X12574607Y-6651861D01*
X12561819Y-6669104D01*
X12547403Y-6685010D01*
X12185010Y-7047403D01*
X12169104Y-7061819D01*
X12151861Y-7074607D01*
X12133448Y-7085643D01*
X12114042Y-7094822D01*
X12093830Y-7102054D01*
X12073006Y-7107270D01*
X12051771Y-7110420D01*
X12030330Y-7111473D01*
X12008889Y-7110420D01*
X11987654Y-7107270D01*
X11966830Y-7102054D01*
X11946618Y-7094822D01*
X11927212Y-7085643D01*
X11908799Y-7074607D01*
X11891556Y-7061819D01*
X11875650Y-7047403D01*
X11566291Y-6738044D01*
X11551875Y-6722138D01*
X11539087Y-6704895D01*
X11528051Y-6686482D01*
X11518872Y-6667076D01*
X11511640Y-6646864D01*
X11506424Y-6626040D01*
X11503274Y-6604805D01*
X11502221Y-6583364D01*
X11503274Y-6561923D01*
X11506424Y-6540688D01*
X11511640Y-6519864D01*
X11518872Y-6499652D01*
X11528051Y-6480246D01*
X11539087Y-6461833D01*
X11551875Y-6444590D01*
X11566291Y-6428684D01*
X11928684Y-6066291D01*
X11944590Y-6051875D01*
X11961833Y-6039087D01*
X11980246Y-6028051D01*
X11999652Y-6018872D01*
X12019864Y-6011640D01*
X12040688Y-6006424D01*
X12061923Y-6003274D01*
X12083364Y-6002221D01*
X12104805Y-6003274D01*
X12104805Y-6003274D01*
G37*
D12*
X12056847Y-6556847D03*
D11*
G36*
X30104805Y-11753274D02*
G01*
X30126040Y-11756424D01*
X30146864Y-11761640D01*
X30167076Y-11768872D01*
X30186482Y-11778051D01*
X30204895Y-11789087D01*
X30222138Y-11801875D01*
X30238044Y-11816291D01*
X30547403Y-12125650D01*
X30561819Y-12141556D01*
X30574607Y-12158799D01*
X30585643Y-12177212D01*
X30594822Y-12196618D01*
X30602054Y-12216830D01*
X30607270Y-12237654D01*
X30610420Y-12258889D01*
X30611473Y-12280330D01*
X30610420Y-12301771D01*
X30607270Y-12323006D01*
X30602054Y-12343830D01*
X30594822Y-12364042D01*
X30585643Y-12383448D01*
X30574607Y-12401861D01*
X30561819Y-12419104D01*
X30547403Y-12435010D01*
X30185010Y-12797403D01*
X30169104Y-12811819D01*
X30151861Y-12824607D01*
X30133448Y-12835643D01*
X30114042Y-12844822D01*
X30093830Y-12852054D01*
X30073006Y-12857270D01*
X30051771Y-12860420D01*
X30030330Y-12861473D01*
X30008889Y-12860420D01*
X29987654Y-12857270D01*
X29966830Y-12852054D01*
X29946618Y-12844822D01*
X29927212Y-12835643D01*
X29908799Y-12824607D01*
X29891556Y-12811819D01*
X29875650Y-12797403D01*
X29566291Y-12488044D01*
X29551875Y-12472138D01*
X29539087Y-12454895D01*
X29528051Y-12436482D01*
X29518872Y-12417076D01*
X29511640Y-12396864D01*
X29506424Y-12376040D01*
X29503274Y-12354805D01*
X29502221Y-12333364D01*
X29503274Y-12311923D01*
X29506424Y-12290688D01*
X29511640Y-12269864D01*
X29518872Y-12249652D01*
X29528051Y-12230246D01*
X29539087Y-12211833D01*
X29551875Y-12194590D01*
X29566291Y-12178684D01*
X29928684Y-11816291D01*
X29944590Y-11801875D01*
X29961833Y-11789087D01*
X29980246Y-11778051D01*
X29999652Y-11768872D01*
X30019864Y-11761640D01*
X30040688Y-11756424D01*
X30061923Y-11753274D01*
X30083364Y-11752221D01*
X30104805Y-11753274D01*
X30104805Y-11753274D01*
G37*
D12*
X30056847Y-12306847D03*
D11*
G36*
X28991111Y-10639580D02*
G01*
X29012346Y-10642730D01*
X29033170Y-10647946D01*
X29053382Y-10655178D01*
X29072788Y-10664357D01*
X29091201Y-10675393D01*
X29108444Y-10688181D01*
X29124350Y-10702597D01*
X29433709Y-11011956D01*
X29448125Y-11027862D01*
X29460913Y-11045105D01*
X29471949Y-11063518D01*
X29481128Y-11082924D01*
X29488360Y-11103136D01*
X29493576Y-11123960D01*
X29496726Y-11145195D01*
X29497779Y-11166636D01*
X29496726Y-11188077D01*
X29493576Y-11209312D01*
X29488360Y-11230136D01*
X29481128Y-11250348D01*
X29471949Y-11269754D01*
X29460913Y-11288167D01*
X29448125Y-11305410D01*
X29433709Y-11321316D01*
X29071316Y-11683709D01*
X29055410Y-11698125D01*
X29038167Y-11710913D01*
X29019754Y-11721949D01*
X29000348Y-11731128D01*
X28980136Y-11738360D01*
X28959312Y-11743576D01*
X28938077Y-11746726D01*
X28916636Y-11747779D01*
X28895195Y-11746726D01*
X28873960Y-11743576D01*
X28853136Y-11738360D01*
X28832924Y-11731128D01*
X28813518Y-11721949D01*
X28795105Y-11710913D01*
X28777862Y-11698125D01*
X28761956Y-11683709D01*
X28452597Y-11374350D01*
X28438181Y-11358444D01*
X28425393Y-11341201D01*
X28414357Y-11322788D01*
X28405178Y-11303382D01*
X28397946Y-11283170D01*
X28392730Y-11262346D01*
X28389580Y-11241111D01*
X28388527Y-11219670D01*
X28389580Y-11198229D01*
X28392730Y-11176994D01*
X28397946Y-11156170D01*
X28405178Y-11135958D01*
X28414357Y-11116552D01*
X28425393Y-11098139D01*
X28438181Y-11080896D01*
X28452597Y-11064990D01*
X28814990Y-10702597D01*
X28830896Y-10688181D01*
X28848139Y-10675393D01*
X28866552Y-10664357D01*
X28885958Y-10655178D01*
X28906170Y-10647946D01*
X28926994Y-10642730D01*
X28948229Y-10639580D01*
X28969670Y-10638527D01*
X28991111Y-10639580D01*
X28991111Y-10639580D01*
G37*
D12*
X28943153Y-11193153D03*
D11*
G36*
X44047911Y-17196380D02*
G01*
X44069146Y-17199530D01*
X44089970Y-17204746D01*
X44110182Y-17211978D01*
X44129588Y-17221157D01*
X44148001Y-17232193D01*
X44165244Y-17244981D01*
X44181150Y-17259397D01*
X44490509Y-17568756D01*
X44504925Y-17584662D01*
X44517713Y-17601905D01*
X44528749Y-17620318D01*
X44537928Y-17639724D01*
X44545160Y-17659936D01*
X44550376Y-17680760D01*
X44553526Y-17701995D01*
X44554579Y-17723436D01*
X44553526Y-17744877D01*
X44550376Y-17766112D01*
X44545160Y-17786936D01*
X44537928Y-17807148D01*
X44528749Y-17826554D01*
X44517713Y-17844967D01*
X44504925Y-17862210D01*
X44490509Y-17878116D01*
X44128116Y-18240509D01*
X44112210Y-18254925D01*
X44094967Y-18267713D01*
X44076554Y-18278749D01*
X44057148Y-18287928D01*
X44036936Y-18295160D01*
X44016112Y-18300376D01*
X43994877Y-18303526D01*
X43973436Y-18304579D01*
X43951995Y-18303526D01*
X43930760Y-18300376D01*
X43909936Y-18295160D01*
X43889724Y-18287928D01*
X43870318Y-18278749D01*
X43851905Y-18267713D01*
X43834662Y-18254925D01*
X43818756Y-18240509D01*
X43509397Y-17931150D01*
X43494981Y-17915244D01*
X43482193Y-17898001D01*
X43471157Y-17879588D01*
X43461978Y-17860182D01*
X43454746Y-17839970D01*
X43449530Y-17819146D01*
X43446380Y-17797911D01*
X43445327Y-17776470D01*
X43446380Y-17755029D01*
X43449530Y-17733794D01*
X43454746Y-17712970D01*
X43461978Y-17692758D01*
X43471157Y-17673352D01*
X43482193Y-17654939D01*
X43494981Y-17637696D01*
X43509397Y-17621790D01*
X43871790Y-17259397D01*
X43887696Y-17244981D01*
X43904939Y-17232193D01*
X43923352Y-17221157D01*
X43942758Y-17211978D01*
X43962970Y-17204746D01*
X43983794Y-17199530D01*
X44005029Y-17196380D01*
X44026470Y-17195327D01*
X44047911Y-17196380D01*
X44047911Y-17196380D01*
G37*
D12*
X43999953Y-17749953D03*
D11*
G36*
X45161605Y-18310074D02*
G01*
X45182840Y-18313224D01*
X45203664Y-18318440D01*
X45223876Y-18325672D01*
X45243282Y-18334851D01*
X45261695Y-18345887D01*
X45278938Y-18358675D01*
X45294844Y-18373091D01*
X45604203Y-18682450D01*
X45618619Y-18698356D01*
X45631407Y-18715599D01*
X45642443Y-18734012D01*
X45651622Y-18753418D01*
X45658854Y-18773630D01*
X45664070Y-18794454D01*
X45667220Y-18815689D01*
X45668273Y-18837130D01*
X45667220Y-18858571D01*
X45664070Y-18879806D01*
X45658854Y-18900630D01*
X45651622Y-18920842D01*
X45642443Y-18940248D01*
X45631407Y-18958661D01*
X45618619Y-18975904D01*
X45604203Y-18991810D01*
X45241810Y-19354203D01*
X45225904Y-19368619D01*
X45208661Y-19381407D01*
X45190248Y-19392443D01*
X45170842Y-19401622D01*
X45150630Y-19408854D01*
X45129806Y-19414070D01*
X45108571Y-19417220D01*
X45087130Y-19418273D01*
X45065689Y-19417220D01*
X45044454Y-19414070D01*
X45023630Y-19408854D01*
X45003418Y-19401622D01*
X44984012Y-19392443D01*
X44965599Y-19381407D01*
X44948356Y-19368619D01*
X44932450Y-19354203D01*
X44623091Y-19044844D01*
X44608675Y-19028938D01*
X44595887Y-19011695D01*
X44584851Y-18993282D01*
X44575672Y-18973876D01*
X44568440Y-18953664D01*
X44563224Y-18932840D01*
X44560074Y-18911605D01*
X44559021Y-18890164D01*
X44560074Y-18868723D01*
X44563224Y-18847488D01*
X44568440Y-18826664D01*
X44575672Y-18806452D01*
X44584851Y-18787046D01*
X44595887Y-18768633D01*
X44608675Y-18751390D01*
X44623091Y-18735484D01*
X44985484Y-18373091D01*
X45001390Y-18358675D01*
X45018633Y-18345887D01*
X45037046Y-18334851D01*
X45056452Y-18325672D01*
X45076664Y-18318440D01*
X45097488Y-18313224D01*
X45118723Y-18310074D01*
X45140164Y-18309021D01*
X45161605Y-18310074D01*
X45161605Y-18310074D01*
G37*
D12*
X45113647Y-18863647D03*
D11*
G36*
X49991111Y-66139580D02*
G01*
X50012346Y-66142730D01*
X50033170Y-66147946D01*
X50053382Y-66155178D01*
X50072788Y-66164357D01*
X50091201Y-66175393D01*
X50108444Y-66188181D01*
X50124350Y-66202597D01*
X50433709Y-66511956D01*
X50448125Y-66527862D01*
X50460913Y-66545105D01*
X50471949Y-66563518D01*
X50481128Y-66582924D01*
X50488360Y-66603136D01*
X50493576Y-66623960D01*
X50496726Y-66645195D01*
X50497779Y-66666636D01*
X50496726Y-66688077D01*
X50493576Y-66709312D01*
X50488360Y-66730136D01*
X50481128Y-66750348D01*
X50471949Y-66769754D01*
X50460913Y-66788167D01*
X50448125Y-66805410D01*
X50433709Y-66821316D01*
X50071316Y-67183709D01*
X50055410Y-67198125D01*
X50038167Y-67210913D01*
X50019754Y-67221949D01*
X50000348Y-67231128D01*
X49980136Y-67238360D01*
X49959312Y-67243576D01*
X49938077Y-67246726D01*
X49916636Y-67247779D01*
X49895195Y-67246726D01*
X49873960Y-67243576D01*
X49853136Y-67238360D01*
X49832924Y-67231128D01*
X49813518Y-67221949D01*
X49795105Y-67210913D01*
X49777862Y-67198125D01*
X49761956Y-67183709D01*
X49452597Y-66874350D01*
X49438181Y-66858444D01*
X49425393Y-66841201D01*
X49414357Y-66822788D01*
X49405178Y-66803382D01*
X49397946Y-66783170D01*
X49392730Y-66762346D01*
X49389580Y-66741111D01*
X49388527Y-66719670D01*
X49389580Y-66698229D01*
X49392730Y-66676994D01*
X49397946Y-66656170D01*
X49405178Y-66635958D01*
X49414357Y-66616552D01*
X49425393Y-66598139D01*
X49438181Y-66580896D01*
X49452597Y-66564990D01*
X49814990Y-66202597D01*
X49830896Y-66188181D01*
X49848139Y-66175393D01*
X49866552Y-66164357D01*
X49885958Y-66155178D01*
X49906170Y-66147946D01*
X49926994Y-66142730D01*
X49948229Y-66139580D01*
X49969670Y-66138527D01*
X49991111Y-66139580D01*
X49991111Y-66139580D01*
G37*
D12*
X49943153Y-66693153D03*
D11*
G36*
X51104805Y-67253274D02*
G01*
X51126040Y-67256424D01*
X51146864Y-67261640D01*
X51167076Y-67268872D01*
X51186482Y-67278051D01*
X51204895Y-67289087D01*
X51222138Y-67301875D01*
X51238044Y-67316291D01*
X51547403Y-67625650D01*
X51561819Y-67641556D01*
X51574607Y-67658799D01*
X51585643Y-67677212D01*
X51594822Y-67696618D01*
X51602054Y-67716830D01*
X51607270Y-67737654D01*
X51610420Y-67758889D01*
X51611473Y-67780330D01*
X51610420Y-67801771D01*
X51607270Y-67823006D01*
X51602054Y-67843830D01*
X51594822Y-67864042D01*
X51585643Y-67883448D01*
X51574607Y-67901861D01*
X51561819Y-67919104D01*
X51547403Y-67935010D01*
X51185010Y-68297403D01*
X51169104Y-68311819D01*
X51151861Y-68324607D01*
X51133448Y-68335643D01*
X51114042Y-68344822D01*
X51093830Y-68352054D01*
X51073006Y-68357270D01*
X51051771Y-68360420D01*
X51030330Y-68361473D01*
X51008889Y-68360420D01*
X50987654Y-68357270D01*
X50966830Y-68352054D01*
X50946618Y-68344822D01*
X50927212Y-68335643D01*
X50908799Y-68324607D01*
X50891556Y-68311819D01*
X50875650Y-68297403D01*
X50566291Y-67988044D01*
X50551875Y-67972138D01*
X50539087Y-67954895D01*
X50528051Y-67936482D01*
X50518872Y-67917076D01*
X50511640Y-67896864D01*
X50506424Y-67876040D01*
X50503274Y-67854805D01*
X50502221Y-67833364D01*
X50503274Y-67811923D01*
X50506424Y-67790688D01*
X50511640Y-67769864D01*
X50518872Y-67749652D01*
X50528051Y-67730246D01*
X50539087Y-67711833D01*
X50551875Y-67694590D01*
X50566291Y-67678684D01*
X50928684Y-67316291D01*
X50944590Y-67301875D01*
X50961833Y-67289087D01*
X50980246Y-67278051D01*
X50999652Y-67268872D01*
X51019864Y-67261640D01*
X51040688Y-67256424D01*
X51061923Y-67253274D01*
X51083364Y-67252221D01*
X51104805Y-67253274D01*
X51104805Y-67253274D01*
G37*
D12*
X51056847Y-67806847D03*
D11*
G36*
X79241111Y-19139580D02*
G01*
X79262346Y-19142730D01*
X79283170Y-19147946D01*
X79303382Y-19155178D01*
X79322788Y-19164357D01*
X79341201Y-19175393D01*
X79358444Y-19188181D01*
X79374350Y-19202597D01*
X79683709Y-19511956D01*
X79698125Y-19527862D01*
X79710913Y-19545105D01*
X79721949Y-19563518D01*
X79731128Y-19582924D01*
X79738360Y-19603136D01*
X79743576Y-19623960D01*
X79746726Y-19645195D01*
X79747779Y-19666636D01*
X79746726Y-19688077D01*
X79743576Y-19709312D01*
X79738360Y-19730136D01*
X79731128Y-19750348D01*
X79721949Y-19769754D01*
X79710913Y-19788167D01*
X79698125Y-19805410D01*
X79683709Y-19821316D01*
X79321316Y-20183709D01*
X79305410Y-20198125D01*
X79288167Y-20210913D01*
X79269754Y-20221949D01*
X79250348Y-20231128D01*
X79230136Y-20238360D01*
X79209312Y-20243576D01*
X79188077Y-20246726D01*
X79166636Y-20247779D01*
X79145195Y-20246726D01*
X79123960Y-20243576D01*
X79103136Y-20238360D01*
X79082924Y-20231128D01*
X79063518Y-20221949D01*
X79045105Y-20210913D01*
X79027862Y-20198125D01*
X79011956Y-20183709D01*
X78702597Y-19874350D01*
X78688181Y-19858444D01*
X78675393Y-19841201D01*
X78664357Y-19822788D01*
X78655178Y-19803382D01*
X78647946Y-19783170D01*
X78642730Y-19762346D01*
X78639580Y-19741111D01*
X78638527Y-19719670D01*
X78639580Y-19698229D01*
X78642730Y-19676994D01*
X78647946Y-19656170D01*
X78655178Y-19635958D01*
X78664357Y-19616552D01*
X78675393Y-19598139D01*
X78688181Y-19580896D01*
X78702597Y-19564990D01*
X79064990Y-19202597D01*
X79080896Y-19188181D01*
X79098139Y-19175393D01*
X79116552Y-19164357D01*
X79135958Y-19155178D01*
X79156170Y-19147946D01*
X79176994Y-19142730D01*
X79198229Y-19139580D01*
X79219670Y-19138527D01*
X79241111Y-19139580D01*
X79241111Y-19139580D01*
G37*
D12*
X79193153Y-19693153D03*
D11*
G36*
X80354805Y-20253274D02*
G01*
X80376040Y-20256424D01*
X80396864Y-20261640D01*
X80417076Y-20268872D01*
X80436482Y-20278051D01*
X80454895Y-20289087D01*
X80472138Y-20301875D01*
X80488044Y-20316291D01*
X80797403Y-20625650D01*
X80811819Y-20641556D01*
X80824607Y-20658799D01*
X80835643Y-20677212D01*
X80844822Y-20696618D01*
X80852054Y-20716830D01*
X80857270Y-20737654D01*
X80860420Y-20758889D01*
X80861473Y-20780330D01*
X80860420Y-20801771D01*
X80857270Y-20823006D01*
X80852054Y-20843830D01*
X80844822Y-20864042D01*
X80835643Y-20883448D01*
X80824607Y-20901861D01*
X80811819Y-20919104D01*
X80797403Y-20935010D01*
X80435010Y-21297403D01*
X80419104Y-21311819D01*
X80401861Y-21324607D01*
X80383448Y-21335643D01*
X80364042Y-21344822D01*
X80343830Y-21352054D01*
X80323006Y-21357270D01*
X80301771Y-21360420D01*
X80280330Y-21361473D01*
X80258889Y-21360420D01*
X80237654Y-21357270D01*
X80216830Y-21352054D01*
X80196618Y-21344822D01*
X80177212Y-21335643D01*
X80158799Y-21324607D01*
X80141556Y-21311819D01*
X80125650Y-21297403D01*
X79816291Y-20988044D01*
X79801875Y-20972138D01*
X79789087Y-20954895D01*
X79778051Y-20936482D01*
X79768872Y-20917076D01*
X79761640Y-20896864D01*
X79756424Y-20876040D01*
X79753274Y-20854805D01*
X79752221Y-20833364D01*
X79753274Y-20811923D01*
X79756424Y-20790688D01*
X79761640Y-20769864D01*
X79768872Y-20749652D01*
X79778051Y-20730246D01*
X79789087Y-20711833D01*
X79801875Y-20694590D01*
X79816291Y-20678684D01*
X80178684Y-20316291D01*
X80194590Y-20301875D01*
X80211833Y-20289087D01*
X80230246Y-20278051D01*
X80249652Y-20268872D01*
X80269864Y-20261640D01*
X80290688Y-20256424D01*
X80311923Y-20253274D01*
X80333364Y-20252221D01*
X80354805Y-20253274D01*
X80354805Y-20253274D01*
G37*
D12*
X80306847Y-20806847D03*
D10*
X19898959Y-58886218D03*
D11*
G36*
X20782842Y-59062995D02*
G01*
X20075736Y-59770101D01*
X19015076Y-58709441D01*
X19722182Y-58002335D01*
X20782842Y-59062995D01*
X20782842Y-59062995D01*
G37*
D10*
X17636218Y-61148959D03*
D11*
G36*
X18520101Y-61325736D02*
G01*
X17812995Y-62032842D01*
X16752335Y-60972182D01*
X17459441Y-60265076D01*
X18520101Y-61325736D01*
X18520101Y-61325736D01*
G37*
D10*
X23363782Y-62351041D03*
D11*
G36*
X24247665Y-62527818D02*
G01*
X23540559Y-63234924D01*
X22479899Y-62174264D01*
X23187005Y-61467158D01*
X24247665Y-62527818D01*
X24247665Y-62527818D01*
G37*
D10*
X21101041Y-64613782D03*
D11*
G36*
X21984924Y-64790559D02*
G01*
X21277818Y-65497665D01*
X20217158Y-64437005D01*
X20924264Y-63729899D01*
X21984924Y-64790559D01*
X21984924Y-64790559D01*
G37*
D10*
X21648959Y-40136218D03*
D11*
G36*
X20765076Y-39959441D02*
G01*
X21472182Y-39252335D01*
X22532842Y-40312995D01*
X21825736Y-41020101D01*
X20765076Y-39959441D01*
X20765076Y-39959441D01*
G37*
D10*
X19386218Y-42398959D03*
D11*
G36*
X18502335Y-42222182D02*
G01*
X19209441Y-41515076D01*
X20270101Y-42575736D01*
X19562995Y-43282842D01*
X18502335Y-42222182D01*
X18502335Y-42222182D01*
G37*
D10*
X25113782Y-43601041D03*
D11*
G36*
X24229899Y-43424264D02*
G01*
X24937005Y-42717158D01*
X25997665Y-43777818D01*
X25290559Y-44484924D01*
X24229899Y-43424264D01*
X24229899Y-43424264D01*
G37*
D10*
X22851041Y-45863782D03*
D11*
G36*
X21967158Y-45687005D02*
G01*
X22674264Y-44979899D01*
X23734924Y-46040559D01*
X23027818Y-46747665D01*
X21967158Y-45687005D01*
X21967158Y-45687005D01*
G37*
D10*
X46601041Y-48863782D03*
D11*
G36*
X45717158Y-48687005D02*
G01*
X46424264Y-47979899D01*
X47484924Y-49040559D01*
X46777818Y-49747665D01*
X45717158Y-48687005D01*
X45717158Y-48687005D01*
G37*
D10*
X48863782Y-46601041D03*
D11*
G36*
X47979899Y-46424264D02*
G01*
X48687005Y-45717158D01*
X49747665Y-46777818D01*
X49040559Y-47484924D01*
X47979899Y-46424264D01*
X47979899Y-46424264D01*
G37*
D10*
X43136218Y-45398959D03*
D11*
G36*
X42252335Y-45222182D02*
G01*
X42959441Y-44515076D01*
X44020101Y-45575736D01*
X43312995Y-46282842D01*
X42252335Y-45222182D01*
X42252335Y-45222182D01*
G37*
D10*
X45398959Y-43136218D03*
D11*
G36*
X44515076Y-42959441D02*
G01*
X45222182Y-42252335D01*
X46282842Y-43312995D01*
X45575736Y-44020101D01*
X44515076Y-42959441D01*
X44515076Y-42959441D01*
G37*
D10*
X62898959Y-48886218D03*
D11*
G36*
X62015076Y-48709441D02*
G01*
X62722182Y-48002335D01*
X63782842Y-49062995D01*
X63075736Y-49770101D01*
X62015076Y-48709441D01*
X62015076Y-48709441D01*
G37*
D10*
X60636218Y-51148959D03*
D11*
G36*
X59752335Y-50972182D02*
G01*
X60459441Y-50265076D01*
X61520101Y-51325736D01*
X60812995Y-52032842D01*
X59752335Y-50972182D01*
X59752335Y-50972182D01*
G37*
D10*
X66363782Y-52351041D03*
D11*
G36*
X65479899Y-52174264D02*
G01*
X66187005Y-51467158D01*
X67247665Y-52527818D01*
X66540559Y-53234924D01*
X65479899Y-52174264D01*
X65479899Y-52174264D01*
G37*
D10*
X64101041Y-54613782D03*
D11*
G36*
X63217158Y-54437005D02*
G01*
X63924264Y-53729899D01*
X64984924Y-54790559D01*
X64277818Y-55497665D01*
X63217158Y-54437005D01*
X63217158Y-54437005D01*
G37*
D10*
X71398959Y-36136218D03*
D11*
G36*
X72282842Y-36312995D02*
G01*
X71575736Y-37020101D01*
X70515076Y-35959441D01*
X71222182Y-35252335D01*
X72282842Y-36312995D01*
X72282842Y-36312995D01*
G37*
D10*
X69136218Y-38398959D03*
D11*
G36*
X70020101Y-38575736D02*
G01*
X69312995Y-39282842D01*
X68252335Y-38222182D01*
X68959441Y-37515076D01*
X70020101Y-38575736D01*
X70020101Y-38575736D01*
G37*
D10*
X74863782Y-39601041D03*
D11*
G36*
X75747665Y-39777818D02*
G01*
X75040559Y-40484924D01*
X73979899Y-39424264D01*
X74687005Y-38717158D01*
X75747665Y-39777818D01*
X75747665Y-39777818D01*
G37*
D10*
X72601041Y-41863782D03*
D11*
G36*
X73484924Y-42040559D02*
G01*
X72777818Y-42747665D01*
X71717158Y-41687005D01*
X72424264Y-40979899D01*
X73484924Y-42040559D01*
X73484924Y-42040559D01*
G37*
D10*
X55351041Y-38113782D03*
D11*
G36*
X56234924Y-38290559D02*
G01*
X55527818Y-38997665D01*
X54467158Y-37937005D01*
X55174264Y-37229899D01*
X56234924Y-38290559D01*
X56234924Y-38290559D01*
G37*
D10*
X57613782Y-35851041D03*
D11*
G36*
X58497665Y-36027818D02*
G01*
X57790559Y-36734924D01*
X56729899Y-35674264D01*
X57437005Y-34967158D01*
X58497665Y-36027818D01*
X58497665Y-36027818D01*
G37*
D10*
X51886218Y-34648959D03*
D11*
G36*
X52770101Y-34825736D02*
G01*
X52062995Y-35532842D01*
X51002335Y-34472182D01*
X51709441Y-33765076D01*
X52770101Y-34825736D01*
X52770101Y-34825736D01*
G37*
D10*
X54148959Y-32386218D03*
D11*
G36*
X55032842Y-32562995D02*
G01*
X54325736Y-33270101D01*
X53265076Y-32209441D01*
X53972182Y-31502335D01*
X55032842Y-32562995D01*
X55032842Y-32562995D01*
G37*
D10*
X33648959Y-31386218D03*
D11*
G36*
X34532842Y-31562995D02*
G01*
X33825736Y-32270101D01*
X32765076Y-31209441D01*
X33472182Y-30502335D01*
X34532842Y-31562995D01*
X34532842Y-31562995D01*
G37*
D10*
X31386218Y-33648959D03*
D11*
G36*
X32270101Y-33825736D02*
G01*
X31562995Y-34532842D01*
X30502335Y-33472182D01*
X31209441Y-32765076D01*
X32270101Y-33825736D01*
X32270101Y-33825736D01*
G37*
D10*
X37113782Y-34851041D03*
D11*
G36*
X37997665Y-35027818D02*
G01*
X37290559Y-35734924D01*
X36229899Y-34674264D01*
X36937005Y-33967158D01*
X37997665Y-35027818D01*
X37997665Y-35027818D01*
G37*
D10*
X34851041Y-37113782D03*
D11*
G36*
X35734924Y-37290559D02*
G01*
X35027818Y-37997665D01*
X33967158Y-36937005D01*
X34674264Y-36229899D01*
X35734924Y-37290559D01*
X35734924Y-37290559D01*
G37*
D10*
X16202041Y-30727582D03*
D11*
G36*
X17085924Y-30904359D02*
G01*
X16378818Y-31611465D01*
X15318158Y-30550805D01*
X16025264Y-29843699D01*
X17085924Y-30904359D01*
X17085924Y-30904359D01*
G37*
D10*
X18464782Y-28464841D03*
D11*
G36*
X19348665Y-28641618D02*
G01*
X18641559Y-29348724D01*
X17580899Y-28288064D01*
X18288005Y-27580958D01*
X19348665Y-28641618D01*
X19348665Y-28641618D01*
G37*
D10*
X12737218Y-27262759D03*
D11*
G36*
X13621101Y-27439536D02*
G01*
X12913995Y-28146642D01*
X11853335Y-27085982D01*
X12560441Y-26378876D01*
X13621101Y-27439536D01*
X13621101Y-27439536D01*
G37*
D10*
X14999959Y-25000018D03*
D11*
G36*
X15883842Y-25176795D02*
G01*
X15176736Y-25883901D01*
X14116076Y-24823241D01*
X14823182Y-24116135D01*
X15883842Y-25176795D01*
X15883842Y-25176795D01*
G37*
D10*
X10601041Y-12863782D03*
D11*
G36*
X9717158Y-12687005D02*
G01*
X10424264Y-11979899D01*
X11484924Y-13040559D01*
X10777818Y-13747665D01*
X9717158Y-12687005D01*
X9717158Y-12687005D01*
G37*
D10*
X12863782Y-10601041D03*
D11*
G36*
X11979899Y-10424264D02*
G01*
X12687005Y-9717158D01*
X13747665Y-10777818D01*
X13040559Y-11484924D01*
X11979899Y-10424264D01*
X11979899Y-10424264D01*
G37*
D10*
X7136218Y-9398959D03*
D11*
G36*
X6252335Y-9222182D02*
G01*
X6959441Y-8515076D01*
X8020101Y-9575736D01*
X7312995Y-10282842D01*
X6252335Y-9222182D01*
X6252335Y-9222182D01*
G37*
D10*
X9398959Y-7136218D03*
D11*
G36*
X8515076Y-6959441D02*
G01*
X9222182Y-6252335D01*
X10282842Y-7312995D01*
X9575736Y-8020101D01*
X8515076Y-6959441D01*
X8515076Y-6959441D01*
G37*
D10*
X27262759Y-12737218D03*
D11*
G36*
X26378876Y-12560441D02*
G01*
X27085982Y-11853335D01*
X28146642Y-12913995D01*
X27439536Y-13621101D01*
X26378876Y-12560441D01*
X26378876Y-12560441D01*
G37*
D10*
X25000018Y-14999959D03*
D11*
G36*
X24116135Y-14823182D02*
G01*
X24823241Y-14116076D01*
X25883901Y-15176736D01*
X25176795Y-15883842D01*
X24116135Y-14823182D01*
X24116135Y-14823182D01*
G37*
D10*
X30727582Y-16202041D03*
D11*
G36*
X29843699Y-16025264D02*
G01*
X30550805Y-15318158D01*
X31611465Y-16378818D01*
X30904359Y-17085924D01*
X29843699Y-16025264D01*
X29843699Y-16025264D01*
G37*
D10*
X28464841Y-18464782D03*
D11*
G36*
X27580958Y-18288005D02*
G01*
X28288064Y-17580899D01*
X29348724Y-18641559D01*
X28641618Y-19348665D01*
X27580958Y-18288005D01*
X27580958Y-18288005D01*
G37*
D10*
X43601041Y-25113782D03*
D11*
G36*
X42717158Y-24937005D02*
G01*
X43424264Y-24229899D01*
X44484924Y-25290559D01*
X43777818Y-25997665D01*
X42717158Y-24937005D01*
X42717158Y-24937005D01*
G37*
D10*
X45863782Y-22851041D03*
D11*
G36*
X44979899Y-22674264D02*
G01*
X45687005Y-21967158D01*
X46747665Y-23027818D01*
X46040559Y-23734924D01*
X44979899Y-22674264D01*
X44979899Y-22674264D01*
G37*
D10*
X40136218Y-21648959D03*
D11*
G36*
X39252335Y-21472182D02*
G01*
X39959441Y-20765076D01*
X41020101Y-21825736D01*
X40312995Y-22532842D01*
X39252335Y-21472182D01*
X39252335Y-21472182D01*
G37*
D10*
X42398959Y-19386218D03*
D11*
G36*
X41515076Y-19209441D02*
G01*
X42222182Y-18502335D01*
X43282842Y-19562995D01*
X42575736Y-20270101D01*
X41515076Y-19209441D01*
X41515076Y-19209441D01*
G37*
D10*
X60898959Y-18636218D03*
D11*
G36*
X60015076Y-18459441D02*
G01*
X60722182Y-17752335D01*
X61782842Y-18812995D01*
X61075736Y-19520101D01*
X60015076Y-18459441D01*
X60015076Y-18459441D01*
G37*
D10*
X58636218Y-20898959D03*
D11*
G36*
X57752335Y-20722182D02*
G01*
X58459441Y-20015076D01*
X59520101Y-21075736D01*
X58812995Y-21782842D01*
X57752335Y-20722182D01*
X57752335Y-20722182D01*
G37*
D10*
X64363782Y-22101041D03*
D11*
G36*
X63479899Y-21924264D02*
G01*
X64187005Y-21217158D01*
X65247665Y-22277818D01*
X64540559Y-22984924D01*
X63479899Y-21924264D01*
X63479899Y-21924264D01*
G37*
D10*
X62101041Y-24363782D03*
D11*
G36*
X61217158Y-24187005D02*
G01*
X61924264Y-23479899D01*
X62984924Y-24540559D01*
X62277818Y-25247665D01*
X61217158Y-24187005D01*
X61217158Y-24187005D01*
G37*
D10*
X78851041Y-26863782D03*
D11*
G36*
X77967158Y-26687005D02*
G01*
X78674264Y-25979899D01*
X79734924Y-27040559D01*
X79027818Y-27747665D01*
X77967158Y-26687005D01*
X77967158Y-26687005D01*
G37*
D10*
X81113782Y-24601041D03*
D11*
G36*
X80229899Y-24424264D02*
G01*
X80937005Y-23717158D01*
X81997665Y-24777818D01*
X81290559Y-25484924D01*
X80229899Y-24424264D01*
X80229899Y-24424264D01*
G37*
D10*
X75386218Y-23398959D03*
D11*
G36*
X74502335Y-23222182D02*
G01*
X75209441Y-22515076D01*
X76270101Y-23575736D01*
X75562995Y-24282842D01*
X74502335Y-23222182D01*
X74502335Y-23222182D01*
G37*
D10*
X77648959Y-21136218D03*
D11*
G36*
X76765076Y-20959441D02*
G01*
X77472182Y-20252335D01*
X78532842Y-21312995D01*
X77825736Y-22020101D01*
X76765076Y-20959441D01*
X76765076Y-20959441D01*
G37*
D10*
X52601041Y-66113782D03*
D11*
G36*
X53484924Y-66290559D02*
G01*
X52777818Y-66997665D01*
X51717158Y-65937005D01*
X52424264Y-65229899D01*
X53484924Y-66290559D01*
X53484924Y-66290559D01*
G37*
D10*
X54863782Y-63851041D03*
D11*
G36*
X55747665Y-64027818D02*
G01*
X55040559Y-64734924D01*
X53979899Y-63674264D01*
X54687005Y-62967158D01*
X55747665Y-64027818D01*
X55747665Y-64027818D01*
G37*
D10*
X49136218Y-62648959D03*
D11*
G36*
X50020101Y-62825736D02*
G01*
X49312995Y-63532842D01*
X48252335Y-62472182D01*
X48959441Y-61765076D01*
X50020101Y-62825736D01*
X50020101Y-62825736D01*
G37*
D10*
X51398959Y-60386218D03*
D11*
G36*
X52282842Y-60562995D02*
G01*
X51575736Y-61270101D01*
X50515076Y-60209441D01*
X51222182Y-59502335D01*
X52282842Y-60562995D01*
X52282842Y-60562995D01*
G37*
D10*
X34648959Y-51886218D03*
D11*
G36*
X35532842Y-52062995D02*
G01*
X34825736Y-52770101D01*
X33765076Y-51709441D01*
X34472182Y-51002335D01*
X35532842Y-52062995D01*
X35532842Y-52062995D01*
G37*
D10*
X32386218Y-54148959D03*
D11*
G36*
X33270101Y-54325736D02*
G01*
X32562995Y-55032842D01*
X31502335Y-53972182D01*
X32209441Y-53265076D01*
X33270101Y-54325736D01*
X33270101Y-54325736D01*
G37*
D10*
X38113782Y-55351041D03*
D11*
G36*
X38997665Y-55527818D02*
G01*
X38290559Y-56234924D01*
X37229899Y-55174264D01*
X37937005Y-54467158D01*
X38997665Y-55527818D01*
X38997665Y-55527818D01*
G37*
D10*
X35851041Y-57613782D03*
D11*
G36*
X36734924Y-57790559D02*
G01*
X36027818Y-58497665D01*
X34967158Y-57437005D01*
X35674264Y-56729899D01*
X36734924Y-57790559D01*
X36734924Y-57790559D01*
G37*
M02*
