M48
; DRILL file {KiCad 5.1.4+dfsg1-1} date Mi 20 Nov 2019 14:25:40 CET
; FORMAT={-:-/ absolute / inch / decimal}
; #@! TF.CreationDate,2019-11-20T14:25:40+01:00
; #@! TF.GenerationSoftware,Kicad,Pcbnew,5.1.4+dfsg1-1
; #@! TF.FileFunction,Plated,1,2,PTH
FMAT,2
INCH
T1C0.0157
%
G90
G05
T1
X0.3858Y-0.389
X0.6028Y-1.1098
X0.7699Y-2.4293
X0.8522Y-3.1122
X0.8574Y-2.2218
X0.8764Y-1.7063
X1.0596Y-0.6258
X1.0724Y-0.6827
X1.0845Y-0.5954
X1.091Y-0.5492
X1.1752Y-2.0748
X1.3224Y-1.3827
X1.3715Y-2.1832
X1.3981Y-2.2098
X1.4088Y-1.569
X1.4114Y-2.1449
X1.4128Y-1.5313
X1.417Y-1.4914
X1.4335Y-2.0913
X1.4353Y-2.2308
X1.4621Y-2.2576
X1.5134Y-2.8472
X1.6248Y-0.8071
X1.7008Y-0.8772
X1.8047Y-1.8094
X1.8508Y-2.224
X2.0118Y-1.6886
X2.1453Y-3.1303
X2.1539Y-1.3917
X2.2228Y-2.3823
X2.3063Y-2.2969
X2.3181Y-1.8492
X2.3618Y-2.524
X2.4217Y-0.8402
X2.4449Y-2.4417
X2.4488Y-1.6488
X2.5373Y-1.8212
X2.5675Y-1.7931
X2.5983Y-1.7645
X2.6342Y-1.731
X2.7909Y-1.826
X2.8461Y-2.611
X2.8681Y-1.7449
X2.8744Y-1.5161
X2.9193Y-1.9626
X2.9972Y-1.8803
X3.2087Y-0.889
T0
M30
