G04 #@! TF.GenerationSoftware,KiCad,Pcbnew,5.1.4+dfsg1-1*
G04 #@! TF.CreationDate,2019-11-20T14:25:38+01:00*
G04 #@! TF.ProjectId,LED-Polyhedron,4c45442d-506f-46c7-9968-6564726f6e2e,rev?*
G04 #@! TF.SameCoordinates,Original*
G04 #@! TF.FileFunction,Profile,NP*
%FSLAX46Y46*%
G04 Gerber Fmt 4.6, Leading zero omitted, Abs format (unit mm)*
G04 Created by KiCad (PCBNEW 5.1.4+dfsg1-1) date 2019-11-20 14:25:38*
%MOMM*%
%LPD*%
G04 APERTURE LIST*
%ADD10C,0.254000*%
G04 APERTURE END LIST*
D10*
X48110140Y-79814420D02*
X48110140Y-79814420D01*
X44739560Y-80662780D02*
X48110140Y-79814420D01*
X45039280Y-81826100D02*
X44739560Y-80662780D01*
X48399700Y-80980280D02*
X45039280Y-81826100D01*
X48110140Y-79814420D02*
X48399700Y-80980280D01*
X80662780Y-44749720D02*
X80662780Y-44749720D01*
X79814420Y-48110140D02*
X80662780Y-44749720D01*
X80980280Y-48409860D02*
X79814420Y-48110140D01*
X81826100Y-45039280D02*
X80980280Y-48409860D01*
X80662780Y-44749720D02*
X81826100Y-45039280D01*
X12760960Y-43213020D02*
X12760960Y-43213020D01*
X11587480Y-43451780D02*
X12760960Y-43213020D01*
X12311380Y-47111920D02*
X11587480Y-43451780D01*
X13484860Y-46883320D02*
X12311380Y-47111920D01*
X12760960Y-43213020D02*
X13484860Y-46883320D01*
X43444160Y-11587480D02*
X43444160Y-11587480D01*
X43213020Y-12768580D02*
X43444160Y-11587480D01*
X46890940Y-13484860D02*
X43213020Y-12768580D01*
X47122080Y-12301220D02*
X46890940Y-13484860D01*
X43444160Y-11587480D02*
X47122080Y-12301220D01*
X0Y0D02*
X0Y0D01*
X18343880Y-3596640D02*
X0Y0D01*
X17805400Y-6332220D02*
X18343880Y-3596640D01*
X19182080Y-6604000D02*
X17805400Y-6332220D01*
X19367500Y-5687060D02*
X19182080Y-6604000D01*
X25786080Y-6949440D02*
X19367500Y-5687060D01*
X25600660Y-7866380D02*
X25786080Y-6949440D01*
X26977340Y-8130540D02*
X25600660Y-7866380D01*
X28054300Y-2672080D02*
X26977340Y-8130540D01*
X37226240Y-4470400D02*
X28054300Y-2672080D01*
X36687760Y-7203440D02*
X37226240Y-4470400D01*
X55031640Y-10802620D02*
X36687760Y-7203440D01*
X54493160Y-13535660D02*
X55031640Y-10802620D01*
X55869840Y-13809980D02*
X54493160Y-13535660D01*
X56055260Y-12893040D02*
X55869840Y-13809980D01*
X62476380Y-14152880D02*
X56055260Y-12893040D01*
X62298580Y-15062200D02*
X62476380Y-14152880D01*
X63675260Y-15336520D02*
X62298580Y-15062200D01*
X64742060Y-9875520D02*
X63675260Y-15336520D01*
X73914000Y-11676380D02*
X64742060Y-9875520D01*
X73375520Y-14409420D02*
X73914000Y-11676380D01*
X91721940Y-18008600D02*
X73375520Y-14409420D01*
X89603580Y-26421080D02*
X91721940Y-18008600D01*
X86906100Y-25742900D02*
X89603580Y-26421080D01*
X86588600Y-27005280D02*
X86906100Y-25742900D01*
X87487760Y-27233880D02*
X86588600Y-27005280D01*
X86006940Y-33116520D02*
X87487760Y-27233880D01*
X85107780Y-32895540D02*
X86006940Y-33116520D01*
X84790280Y-34155380D02*
X85107780Y-32895540D01*
X90187780Y-35514280D02*
X84790280Y-34155380D01*
X35514280Y-90187780D02*
X34155380Y-84790280D01*
X27101800Y-92303600D02*
X35514280Y-90187780D01*
X26421080Y-89603580D02*
X27101800Y-92303600D01*
X18008600Y-91721940D02*
X26421080Y-89603580D01*
X14409420Y-73375520D02*
X18008600Y-91721940D01*
X68480940Y-79011780D02*
X76895960Y-76895960D01*
X67802760Y-76314300D02*
X68480940Y-79011780D01*
X66540380Y-76631800D02*
X67802760Y-76314300D01*
X66771520Y-77530960D02*
X66540380Y-76631800D01*
X60878720Y-79011780D02*
X66771520Y-77530960D01*
X60650120Y-78112620D02*
X60878720Y-79011780D01*
X59390280Y-78430120D02*
X60650120Y-78112620D01*
X60746640Y-83827620D02*
X59390280Y-78430120D01*
X52341780Y-85953600D02*
X60746640Y-83827620D01*
X51663600Y-83253580D02*
X52341780Y-85953600D01*
X43248580Y-85371940D02*
X51663600Y-83253580D01*
X42570400Y-82671920D02*
X43248580Y-85371940D01*
X15608300Y-65051940D02*
X14701520Y-65227200D01*
X17134840Y-72847200D02*
X14409420Y-73375520D01*
X16870680Y-71470520D02*
X17134840Y-72847200D01*
X15953740Y-71648320D02*
X16870680Y-71470520D01*
X14701520Y-65227200D02*
X15953740Y-71648320D01*
X15336520Y-63675260D02*
X15608300Y-65051940D01*
X9664700Y-34775140D02*
X9928860Y-36149280D01*
X41308020Y-82989420D02*
X42570400Y-82671920D01*
X41529000Y-83888580D02*
X41308020Y-82989420D01*
X35646360Y-85371940D02*
X41529000Y-83888580D01*
X35417760Y-84472780D02*
X35646360Y-85371940D01*
X34155380Y-84790280D02*
X35417760Y-84472780D01*
X7203440Y-36687760D02*
X10802620Y-55031640D01*
X8077200Y-55570120D02*
X9875520Y-64742060D01*
X9875520Y-64742060D02*
X15336520Y-63675260D01*
X9928860Y-36149280D02*
X7203440Y-36687760D01*
X8755380Y-34958020D02*
X9664700Y-34775140D01*
X10802620Y-55031640D02*
X8077200Y-55570120D01*
X0Y0D02*
X3596640Y-18343880D01*
X88069420Y-43929300D02*
X90187780Y-35514280D01*
X85371940Y-43248580D02*
X88069420Y-43929300D01*
X83253580Y-51663600D02*
X85371940Y-43248580D01*
X80556100Y-50975260D02*
X83253580Y-51663600D01*
X80238600Y-52245260D02*
X80556100Y-50975260D01*
X81137760Y-52466240D02*
X80238600Y-52245260D01*
X79656940Y-58356500D02*
X81137760Y-52466240D01*
X78757780Y-58127900D02*
X79656940Y-58356500D01*
X78430120Y-59390280D02*
X78757780Y-58127900D01*
X83827620Y-60746640D02*
X78430120Y-59390280D01*
X81711800Y-69161660D02*
X83827620Y-60746640D01*
X79011780Y-68480940D02*
X81711800Y-69161660D01*
X76895960Y-76895960D02*
X79011780Y-68480940D01*
X871220Y-18882360D02*
X2672080Y-28054300D01*
X8130540Y-26977340D02*
X8404860Y-28354020D01*
X8404860Y-28354020D02*
X7495540Y-28539440D01*
X2672080Y-28054300D02*
X8130540Y-26977340D01*
X7495540Y-28539440D02*
X8755380Y-34958020D01*
X3596640Y-18343880D02*
X871220Y-18882360D01*
M02*
