G04 #@! TF.GenerationSoftware,KiCad,Pcbnew,5.1.4+dfsg1-1*
G04 #@! TF.CreationDate,2019-11-20T14:25:38+01:00*
G04 #@! TF.ProjectId,LED-Polyhedron,4c45442d-506f-46c7-9968-6564726f6e2e,rev?*
G04 #@! TF.SameCoordinates,Original*
G04 #@! TF.FileFunction,Copper,L2,Bot*
G04 #@! TF.FilePolarity,Positive*
%FSLAX46Y46*%
G04 Gerber Fmt 4.6, Leading zero omitted, Abs format (unit mm)*
G04 Created by KiCad (PCBNEW 5.1.4+dfsg1-1) date 2019-11-20 14:25:38*
%MOMM*%
%LPD*%
G04 APERTURE LIST*
%ADD10C,4.000000*%
%ADD11C,0.100000*%
%ADD12C,2.000000*%
%ADD13C,1.500000*%
%ADD14C,1.000000*%
%ADD15C,0.800000*%
%ADD16C,0.250000*%
%ADD17C,1.200000*%
%ADD18C,0.800000*%
%ADD19C,3.000000*%
%ADD20C,1.000000*%
%ADD21C,2.000000*%
%ADD22C,0.200000*%
G04 APERTURE END LIST*
D10*
X51087513Y-53027548D03*
D11*
G36*
X51794620Y-56563082D02*
G01*
X47551979Y-52320441D01*
X50380406Y-49492014D01*
X54623047Y-53734655D01*
X51794620Y-56563082D01*
X51794620Y-56563082D01*
G37*
D10*
X59289952Y-61229987D03*
D11*
G36*
X59997059Y-64765521D02*
G01*
X55754418Y-60522880D01*
X58582845Y-57694453D01*
X62825486Y-61937094D01*
X59997059Y-64765521D01*
X59997059Y-64765521D01*
G37*
D10*
X65229648Y-38885413D03*
D11*
G36*
X65936755Y-42420947D02*
G01*
X61694114Y-38178306D01*
X64522541Y-35349879D01*
X68765182Y-39592520D01*
X65936755Y-42420947D01*
X65936755Y-42420947D01*
G37*
D10*
X73432087Y-47087852D03*
D11*
G36*
X74139194Y-50623386D02*
G01*
X69896553Y-46380745D01*
X72724980Y-43552318D01*
X76967621Y-47794959D01*
X74139194Y-50623386D01*
X74139194Y-50623386D01*
G37*
D12*
X65777359Y-31002893D03*
D11*
G36*
X64363145Y-28174466D02*
G01*
X68605786Y-32417107D01*
X67191573Y-33831320D01*
X62948932Y-29588679D01*
X64363145Y-28174466D01*
X64363145Y-28174466D01*
G37*
D12*
X69312893Y-27467359D03*
D11*
G36*
X67898679Y-24638932D02*
G01*
X72141320Y-28881573D01*
X70727107Y-30295786D01*
X66484466Y-26053145D01*
X67898679Y-24638932D01*
X67898679Y-24638932D01*
G37*
D12*
X48867107Y-60787359D03*
D11*
G36*
X51695534Y-59373145D02*
G01*
X47452893Y-63615786D01*
X46038680Y-62201573D01*
X50281321Y-57958932D01*
X51695534Y-59373145D01*
X51695534Y-59373145D01*
G37*
D12*
X52402641Y-64322893D03*
D11*
G36*
X55231068Y-62908679D02*
G01*
X50988427Y-67151320D01*
X49574214Y-65737107D01*
X53816855Y-61494466D01*
X55231068Y-62908679D01*
X55231068Y-62908679D01*
G37*
D12*
X32542893Y-53992641D03*
D11*
G36*
X29714466Y-55406855D02*
G01*
X33957107Y-51164214D01*
X35371320Y-52578427D01*
X31128679Y-56821068D01*
X29714466Y-55406855D01*
X29714466Y-55406855D01*
G37*
D12*
X29007359Y-50457107D03*
D11*
G36*
X26178932Y-51871321D02*
G01*
X30421573Y-47628680D01*
X31835786Y-49042893D01*
X27593145Y-53285534D01*
X26178932Y-51871321D01*
X26178932Y-51871321D01*
G37*
D12*
X30707107Y-14507359D03*
D11*
G36*
X33535534Y-13093145D02*
G01*
X29292893Y-17335786D01*
X27878680Y-15921573D01*
X32121321Y-11678932D01*
X33535534Y-13093145D01*
X33535534Y-13093145D01*
G37*
D12*
X34242641Y-18042893D03*
D11*
G36*
X37071068Y-16628679D02*
G01*
X32828427Y-20871320D01*
X31414214Y-19457107D01*
X35656855Y-15214466D01*
X37071068Y-16628679D01*
X37071068Y-16628679D01*
G37*
G36*
X85432701Y-17915635D02*
G01*
X85456985Y-17919129D01*
X86438613Y-18109938D01*
X86462438Y-18115796D01*
X86485573Y-18123960D01*
X86507797Y-18134353D01*
X86528895Y-18146874D01*
X86548665Y-18161402D01*
X86566915Y-18177799D01*
X86583470Y-18195905D01*
X86598170Y-18215547D01*
X86610875Y-18236535D01*
X86621461Y-18258667D01*
X86629827Y-18281731D01*
X86635892Y-18305503D01*
X86639598Y-18329755D01*
X86640909Y-18354254D01*
X86639812Y-18378763D01*
X86636318Y-18403047D01*
X86082972Y-21249766D01*
X86077114Y-21273591D01*
X86068950Y-21296726D01*
X86058557Y-21318950D01*
X86046036Y-21340048D01*
X86031508Y-21359818D01*
X86015111Y-21378068D01*
X85997005Y-21394623D01*
X85977363Y-21409323D01*
X85956375Y-21422028D01*
X85934243Y-21432614D01*
X85911179Y-21440980D01*
X85887407Y-21447045D01*
X85863155Y-21450751D01*
X85838656Y-21452062D01*
X85814147Y-21450965D01*
X85789863Y-21447471D01*
X84808235Y-21256662D01*
X84784410Y-21250804D01*
X84761275Y-21242640D01*
X84739051Y-21232247D01*
X84717953Y-21219726D01*
X84698183Y-21205198D01*
X84679933Y-21188801D01*
X84663378Y-21170695D01*
X84648678Y-21151053D01*
X84635973Y-21130065D01*
X84625387Y-21107933D01*
X84617021Y-21084869D01*
X84610956Y-21061097D01*
X84607250Y-21036845D01*
X84605939Y-21012346D01*
X84607036Y-20987837D01*
X84610530Y-20963553D01*
X85163876Y-18116834D01*
X85169734Y-18093009D01*
X85177898Y-18069874D01*
X85188291Y-18047650D01*
X85200812Y-18026552D01*
X85215340Y-18006782D01*
X85231737Y-17988532D01*
X85249843Y-17971977D01*
X85269485Y-17957277D01*
X85290473Y-17944572D01*
X85312605Y-17933986D01*
X85335669Y-17925620D01*
X85359441Y-17919555D01*
X85383693Y-17915849D01*
X85408192Y-17914538D01*
X85432701Y-17915635D01*
X85432701Y-17915635D01*
G37*
D13*
X85623424Y-19683300D03*
D11*
G36*
X76892545Y-16255597D02*
G01*
X76916829Y-16259091D01*
X77898457Y-16449900D01*
X77922282Y-16455758D01*
X77945417Y-16463922D01*
X77967641Y-16474315D01*
X77988739Y-16486836D01*
X78008509Y-16501364D01*
X78026759Y-16517761D01*
X78043314Y-16535867D01*
X78058014Y-16555509D01*
X78070719Y-16576497D01*
X78081305Y-16598629D01*
X78089671Y-16621693D01*
X78095736Y-16645465D01*
X78099442Y-16669717D01*
X78100753Y-16694216D01*
X78099656Y-16718725D01*
X78096162Y-16743009D01*
X77542816Y-19589728D01*
X77536958Y-19613553D01*
X77528794Y-19636688D01*
X77518401Y-19658912D01*
X77505880Y-19680010D01*
X77491352Y-19699780D01*
X77474955Y-19718030D01*
X77456849Y-19734585D01*
X77437207Y-19749285D01*
X77416219Y-19761990D01*
X77394087Y-19772576D01*
X77371023Y-19780942D01*
X77347251Y-19787007D01*
X77322999Y-19790713D01*
X77298500Y-19792024D01*
X77273991Y-19790927D01*
X77249707Y-19787433D01*
X76268079Y-19596624D01*
X76244254Y-19590766D01*
X76221119Y-19582602D01*
X76198895Y-19572209D01*
X76177797Y-19559688D01*
X76158027Y-19545160D01*
X76139777Y-19528763D01*
X76123222Y-19510657D01*
X76108522Y-19491015D01*
X76095817Y-19470027D01*
X76085231Y-19447895D01*
X76076865Y-19424831D01*
X76070800Y-19401059D01*
X76067094Y-19376807D01*
X76065783Y-19352308D01*
X76066880Y-19327799D01*
X76070374Y-19303515D01*
X76623720Y-16456796D01*
X76629578Y-16432971D01*
X76637742Y-16409836D01*
X76648135Y-16387612D01*
X76660656Y-16366514D01*
X76675184Y-16346744D01*
X76691581Y-16328494D01*
X76709687Y-16311939D01*
X76729329Y-16297239D01*
X76750317Y-16284534D01*
X76772449Y-16273948D01*
X76795513Y-16265582D01*
X76819285Y-16259517D01*
X76843537Y-16255811D01*
X76868036Y-16254500D01*
X76892545Y-16255597D01*
X76892545Y-16255597D01*
G37*
D13*
X77083268Y-18023262D03*
D11*
G36*
X82283674Y-23110210D02*
G01*
X82307958Y-23113704D01*
X82798771Y-23209108D01*
X82822595Y-23214965D01*
X82845731Y-23223130D01*
X82867955Y-23233522D01*
X82889053Y-23246043D01*
X82908822Y-23260572D01*
X82927073Y-23276969D01*
X82943628Y-23295075D01*
X82958328Y-23314717D01*
X82971033Y-23335705D01*
X82981619Y-23357837D01*
X82989985Y-23380900D01*
X82996050Y-23404673D01*
X82999756Y-23428925D01*
X83001067Y-23453424D01*
X82999970Y-23477933D01*
X82996476Y-23502217D01*
X82424049Y-26447099D01*
X82418191Y-26470924D01*
X82410027Y-26494059D01*
X82399634Y-26516283D01*
X82387113Y-26537381D01*
X82372585Y-26557151D01*
X82356188Y-26575401D01*
X82338082Y-26591956D01*
X82318440Y-26606656D01*
X82297452Y-26619361D01*
X82275320Y-26629947D01*
X82252256Y-26638313D01*
X82228484Y-26644378D01*
X82204232Y-26648084D01*
X82179733Y-26649395D01*
X82155224Y-26648298D01*
X82130940Y-26644804D01*
X81640127Y-26549400D01*
X81616303Y-26543543D01*
X81593167Y-26535378D01*
X81570943Y-26524986D01*
X81549845Y-26512465D01*
X81530076Y-26497936D01*
X81511825Y-26481539D01*
X81495270Y-26463433D01*
X81480570Y-26443791D01*
X81467865Y-26422803D01*
X81457279Y-26400671D01*
X81448913Y-26377608D01*
X81442848Y-26353835D01*
X81439142Y-26329583D01*
X81437831Y-26305084D01*
X81438928Y-26280575D01*
X81442422Y-26256291D01*
X82014849Y-23311409D01*
X82020707Y-23287584D01*
X82028871Y-23264449D01*
X82039264Y-23242225D01*
X82051785Y-23221127D01*
X82066313Y-23201357D01*
X82082710Y-23183107D01*
X82100816Y-23166552D01*
X82120458Y-23151852D01*
X82141446Y-23139147D01*
X82163578Y-23128561D01*
X82186642Y-23120195D01*
X82210414Y-23114130D01*
X82234666Y-23110424D01*
X82259165Y-23109113D01*
X82283674Y-23110210D01*
X82283674Y-23110210D01*
G37*
D14*
X82219449Y-24879254D03*
D11*
G36*
X80320419Y-22728593D02*
G01*
X80344703Y-22732087D01*
X80835516Y-22827491D01*
X80859340Y-22833348D01*
X80882476Y-22841513D01*
X80904700Y-22851905D01*
X80925798Y-22864426D01*
X80945567Y-22878955D01*
X80963818Y-22895352D01*
X80980373Y-22913458D01*
X80995073Y-22933100D01*
X81007778Y-22954088D01*
X81018364Y-22976220D01*
X81026730Y-22999283D01*
X81032795Y-23023056D01*
X81036501Y-23047308D01*
X81037812Y-23071807D01*
X81036715Y-23096316D01*
X81033221Y-23120600D01*
X80460794Y-26065482D01*
X80454936Y-26089307D01*
X80446772Y-26112442D01*
X80436379Y-26134666D01*
X80423858Y-26155764D01*
X80409330Y-26175534D01*
X80392933Y-26193784D01*
X80374827Y-26210339D01*
X80355185Y-26225039D01*
X80334197Y-26237744D01*
X80312065Y-26248330D01*
X80289001Y-26256696D01*
X80265229Y-26262761D01*
X80240977Y-26266467D01*
X80216478Y-26267778D01*
X80191969Y-26266681D01*
X80167685Y-26263187D01*
X79676872Y-26167783D01*
X79653048Y-26161926D01*
X79629912Y-26153761D01*
X79607688Y-26143369D01*
X79586590Y-26130848D01*
X79566821Y-26116319D01*
X79548570Y-26099922D01*
X79532015Y-26081816D01*
X79517315Y-26062174D01*
X79504610Y-26041186D01*
X79494024Y-26019054D01*
X79485658Y-25995991D01*
X79479593Y-25972218D01*
X79475887Y-25947966D01*
X79474576Y-25923467D01*
X79475673Y-25898958D01*
X79479167Y-25874674D01*
X80051594Y-22929792D01*
X80057452Y-22905967D01*
X80065616Y-22882832D01*
X80076009Y-22860608D01*
X80088530Y-22839510D01*
X80103058Y-22819740D01*
X80119455Y-22801490D01*
X80137561Y-22784935D01*
X80157203Y-22770235D01*
X80178191Y-22757530D01*
X80200323Y-22746944D01*
X80223387Y-22738578D01*
X80247159Y-22732513D01*
X80271411Y-22728807D01*
X80295910Y-22727496D01*
X80320419Y-22728593D01*
X80320419Y-22728593D01*
G37*
D14*
X80256194Y-24497637D03*
D11*
G36*
X78357165Y-22346975D02*
G01*
X78381449Y-22350469D01*
X78872262Y-22445873D01*
X78896086Y-22451730D01*
X78919222Y-22459895D01*
X78941446Y-22470287D01*
X78962544Y-22482808D01*
X78982313Y-22497337D01*
X79000564Y-22513734D01*
X79017119Y-22531840D01*
X79031819Y-22551482D01*
X79044524Y-22572470D01*
X79055110Y-22594602D01*
X79063476Y-22617665D01*
X79069541Y-22641438D01*
X79073247Y-22665690D01*
X79074558Y-22690189D01*
X79073461Y-22714698D01*
X79069967Y-22738982D01*
X78497540Y-25683864D01*
X78491682Y-25707689D01*
X78483518Y-25730824D01*
X78473125Y-25753048D01*
X78460604Y-25774146D01*
X78446076Y-25793916D01*
X78429679Y-25812166D01*
X78411573Y-25828721D01*
X78391931Y-25843421D01*
X78370943Y-25856126D01*
X78348811Y-25866712D01*
X78325747Y-25875078D01*
X78301975Y-25881143D01*
X78277723Y-25884849D01*
X78253224Y-25886160D01*
X78228715Y-25885063D01*
X78204431Y-25881569D01*
X77713618Y-25786165D01*
X77689794Y-25780308D01*
X77666658Y-25772143D01*
X77644434Y-25761751D01*
X77623336Y-25749230D01*
X77603567Y-25734701D01*
X77585316Y-25718304D01*
X77568761Y-25700198D01*
X77554061Y-25680556D01*
X77541356Y-25659568D01*
X77530770Y-25637436D01*
X77522404Y-25614373D01*
X77516339Y-25590600D01*
X77512633Y-25566348D01*
X77511322Y-25541849D01*
X77512419Y-25517340D01*
X77515913Y-25493056D01*
X78088340Y-22548174D01*
X78094198Y-22524349D01*
X78102362Y-22501214D01*
X78112755Y-22478990D01*
X78125276Y-22457892D01*
X78139804Y-22438122D01*
X78156201Y-22419872D01*
X78174307Y-22403317D01*
X78193949Y-22388617D01*
X78214937Y-22375912D01*
X78237069Y-22365326D01*
X78260133Y-22356960D01*
X78283905Y-22350895D01*
X78308157Y-22347189D01*
X78332656Y-22345878D01*
X78357165Y-22346975D01*
X78357165Y-22346975D01*
G37*
D14*
X78292940Y-24116019D03*
D11*
G36*
X26329583Y-82039142D02*
G01*
X26353835Y-82042848D01*
X26377607Y-82048913D01*
X26400671Y-82057279D01*
X26422803Y-82067865D01*
X26443791Y-82080570D01*
X26463433Y-82095270D01*
X26481539Y-82111825D01*
X26497936Y-82130075D01*
X26512464Y-82149845D01*
X26524985Y-82170943D01*
X26535378Y-82193167D01*
X26543542Y-82216302D01*
X26549400Y-82240127D01*
X26644804Y-82730940D01*
X26648298Y-82755224D01*
X26649395Y-82779733D01*
X26648084Y-82804232D01*
X26644378Y-82828484D01*
X26638313Y-82852257D01*
X26629947Y-82875320D01*
X26619361Y-82897452D01*
X26606656Y-82918440D01*
X26591956Y-82938082D01*
X26575401Y-82956188D01*
X26557150Y-82972585D01*
X26537381Y-82987114D01*
X26516283Y-82999635D01*
X26494059Y-83010027D01*
X26470923Y-83018192D01*
X26447099Y-83024049D01*
X23502217Y-83596476D01*
X23477933Y-83599970D01*
X23453424Y-83601067D01*
X23428925Y-83599756D01*
X23404673Y-83596050D01*
X23380901Y-83589985D01*
X23357837Y-83581619D01*
X23335705Y-83571033D01*
X23314717Y-83558328D01*
X23295075Y-83543628D01*
X23276969Y-83527073D01*
X23260572Y-83508823D01*
X23246044Y-83489053D01*
X23233523Y-83467955D01*
X23223130Y-83445731D01*
X23214966Y-83422596D01*
X23209108Y-83398771D01*
X23113704Y-82907958D01*
X23110210Y-82883674D01*
X23109113Y-82859165D01*
X23110424Y-82834666D01*
X23114130Y-82810414D01*
X23120195Y-82786641D01*
X23128561Y-82763578D01*
X23139147Y-82741446D01*
X23151852Y-82720458D01*
X23166552Y-82700816D01*
X23183107Y-82682710D01*
X23201358Y-82666313D01*
X23221127Y-82651784D01*
X23242225Y-82639263D01*
X23264449Y-82628871D01*
X23287585Y-82620706D01*
X23311409Y-82614849D01*
X26256291Y-82042422D01*
X26280575Y-82038928D01*
X26305084Y-82037831D01*
X26329583Y-82039142D01*
X26329583Y-82039142D01*
G37*
D14*
X24879254Y-82819449D03*
D11*
G36*
X25947966Y-80075887D02*
G01*
X25972218Y-80079593D01*
X25995990Y-80085658D01*
X26019054Y-80094024D01*
X26041186Y-80104610D01*
X26062174Y-80117315D01*
X26081816Y-80132015D01*
X26099922Y-80148570D01*
X26116319Y-80166820D01*
X26130847Y-80186590D01*
X26143368Y-80207688D01*
X26153761Y-80229912D01*
X26161925Y-80253047D01*
X26167783Y-80276872D01*
X26263187Y-80767685D01*
X26266681Y-80791969D01*
X26267778Y-80816478D01*
X26266467Y-80840977D01*
X26262761Y-80865229D01*
X26256696Y-80889002D01*
X26248330Y-80912065D01*
X26237744Y-80934197D01*
X26225039Y-80955185D01*
X26210339Y-80974827D01*
X26193784Y-80992933D01*
X26175533Y-81009330D01*
X26155764Y-81023859D01*
X26134666Y-81036380D01*
X26112442Y-81046772D01*
X26089306Y-81054937D01*
X26065482Y-81060794D01*
X23120600Y-81633221D01*
X23096316Y-81636715D01*
X23071807Y-81637812D01*
X23047308Y-81636501D01*
X23023056Y-81632795D01*
X22999284Y-81626730D01*
X22976220Y-81618364D01*
X22954088Y-81607778D01*
X22933100Y-81595073D01*
X22913458Y-81580373D01*
X22895352Y-81563818D01*
X22878955Y-81545568D01*
X22864427Y-81525798D01*
X22851906Y-81504700D01*
X22841513Y-81482476D01*
X22833349Y-81459341D01*
X22827491Y-81435516D01*
X22732087Y-80944703D01*
X22728593Y-80920419D01*
X22727496Y-80895910D01*
X22728807Y-80871411D01*
X22732513Y-80847159D01*
X22738578Y-80823386D01*
X22746944Y-80800323D01*
X22757530Y-80778191D01*
X22770235Y-80757203D01*
X22784935Y-80737561D01*
X22801490Y-80719455D01*
X22819741Y-80703058D01*
X22839510Y-80688529D01*
X22860608Y-80676008D01*
X22882832Y-80665616D01*
X22905968Y-80657451D01*
X22929792Y-80651594D01*
X25874674Y-80079167D01*
X25898958Y-80075673D01*
X25923467Y-80074576D01*
X25947966Y-80075887D01*
X25947966Y-80075887D01*
G37*
D14*
X24497637Y-80856194D03*
D11*
G36*
X25566348Y-78112633D02*
G01*
X25590600Y-78116339D01*
X25614372Y-78122404D01*
X25637436Y-78130770D01*
X25659568Y-78141356D01*
X25680556Y-78154061D01*
X25700198Y-78168761D01*
X25718304Y-78185316D01*
X25734701Y-78203566D01*
X25749229Y-78223336D01*
X25761750Y-78244434D01*
X25772143Y-78266658D01*
X25780307Y-78289793D01*
X25786165Y-78313618D01*
X25881569Y-78804431D01*
X25885063Y-78828715D01*
X25886160Y-78853224D01*
X25884849Y-78877723D01*
X25881143Y-78901975D01*
X25875078Y-78925748D01*
X25866712Y-78948811D01*
X25856126Y-78970943D01*
X25843421Y-78991931D01*
X25828721Y-79011573D01*
X25812166Y-79029679D01*
X25793915Y-79046076D01*
X25774146Y-79060605D01*
X25753048Y-79073126D01*
X25730824Y-79083518D01*
X25707688Y-79091683D01*
X25683864Y-79097540D01*
X22738982Y-79669967D01*
X22714698Y-79673461D01*
X22690189Y-79674558D01*
X22665690Y-79673247D01*
X22641438Y-79669541D01*
X22617666Y-79663476D01*
X22594602Y-79655110D01*
X22572470Y-79644524D01*
X22551482Y-79631819D01*
X22531840Y-79617119D01*
X22513734Y-79600564D01*
X22497337Y-79582314D01*
X22482809Y-79562544D01*
X22470288Y-79541446D01*
X22459895Y-79519222D01*
X22451731Y-79496087D01*
X22445873Y-79472262D01*
X22350469Y-78981449D01*
X22346975Y-78957165D01*
X22345878Y-78932656D01*
X22347189Y-78908157D01*
X22350895Y-78883905D01*
X22356960Y-78860132D01*
X22365326Y-78837069D01*
X22375912Y-78814937D01*
X22388617Y-78793949D01*
X22403317Y-78774307D01*
X22419872Y-78756201D01*
X22438123Y-78739804D01*
X22457892Y-78725275D01*
X22478990Y-78712754D01*
X22501214Y-78702362D01*
X22524350Y-78694197D01*
X22548174Y-78688340D01*
X25493056Y-78115913D01*
X25517340Y-78112419D01*
X25541849Y-78111322D01*
X25566348Y-78112633D01*
X25566348Y-78112633D01*
G37*
D14*
X24116019Y-78892940D03*
D11*
G36*
X21036845Y-85207250D02*
G01*
X21061097Y-85210956D01*
X21084869Y-85217021D01*
X21107933Y-85225387D01*
X21130065Y-85235973D01*
X21151053Y-85248678D01*
X21170695Y-85263378D01*
X21188801Y-85279933D01*
X21205198Y-85298183D01*
X21219726Y-85317953D01*
X21232247Y-85339051D01*
X21242640Y-85361275D01*
X21250804Y-85384410D01*
X21256662Y-85408235D01*
X21447471Y-86389863D01*
X21450965Y-86414147D01*
X21452062Y-86438656D01*
X21450751Y-86463155D01*
X21447045Y-86487407D01*
X21440980Y-86511179D01*
X21432614Y-86534243D01*
X21422028Y-86556375D01*
X21409323Y-86577363D01*
X21394623Y-86597005D01*
X21378068Y-86615111D01*
X21359818Y-86631508D01*
X21340048Y-86646036D01*
X21318950Y-86658557D01*
X21296726Y-86668950D01*
X21273591Y-86677114D01*
X21249766Y-86682972D01*
X18403047Y-87236318D01*
X18378763Y-87239812D01*
X18354254Y-87240909D01*
X18329755Y-87239598D01*
X18305503Y-87235892D01*
X18281731Y-87229827D01*
X18258667Y-87221461D01*
X18236535Y-87210875D01*
X18215547Y-87198170D01*
X18195905Y-87183470D01*
X18177799Y-87166915D01*
X18161402Y-87148665D01*
X18146874Y-87128895D01*
X18134353Y-87107797D01*
X18123960Y-87085573D01*
X18115796Y-87062438D01*
X18109938Y-87038613D01*
X17919129Y-86056985D01*
X17915635Y-86032701D01*
X17914538Y-86008192D01*
X17915849Y-85983693D01*
X17919555Y-85959441D01*
X17925620Y-85935669D01*
X17933986Y-85912605D01*
X17944572Y-85890473D01*
X17957277Y-85869485D01*
X17971977Y-85849843D01*
X17988532Y-85831737D01*
X18006782Y-85815340D01*
X18026552Y-85800812D01*
X18047650Y-85788291D01*
X18069874Y-85777898D01*
X18093009Y-85769734D01*
X18116834Y-85763876D01*
X20963553Y-85210530D01*
X20987837Y-85207036D01*
X21012346Y-85205939D01*
X21036845Y-85207250D01*
X21036845Y-85207250D01*
G37*
D13*
X19683300Y-86223424D03*
D11*
G36*
X19376807Y-76667094D02*
G01*
X19401059Y-76670800D01*
X19424831Y-76676865D01*
X19447895Y-76685231D01*
X19470027Y-76695817D01*
X19491015Y-76708522D01*
X19510657Y-76723222D01*
X19528763Y-76739777D01*
X19545160Y-76758027D01*
X19559688Y-76777797D01*
X19572209Y-76798895D01*
X19582602Y-76821119D01*
X19590766Y-76844254D01*
X19596624Y-76868079D01*
X19787433Y-77849707D01*
X19790927Y-77873991D01*
X19792024Y-77898500D01*
X19790713Y-77922999D01*
X19787007Y-77947251D01*
X19780942Y-77971023D01*
X19772576Y-77994087D01*
X19761990Y-78016219D01*
X19749285Y-78037207D01*
X19734585Y-78056849D01*
X19718030Y-78074955D01*
X19699780Y-78091352D01*
X19680010Y-78105880D01*
X19658912Y-78118401D01*
X19636688Y-78128794D01*
X19613553Y-78136958D01*
X19589728Y-78142816D01*
X16743009Y-78696162D01*
X16718725Y-78699656D01*
X16694216Y-78700753D01*
X16669717Y-78699442D01*
X16645465Y-78695736D01*
X16621693Y-78689671D01*
X16598629Y-78681305D01*
X16576497Y-78670719D01*
X16555509Y-78658014D01*
X16535867Y-78643314D01*
X16517761Y-78626759D01*
X16501364Y-78608509D01*
X16486836Y-78588739D01*
X16474315Y-78567641D01*
X16463922Y-78545417D01*
X16455758Y-78522282D01*
X16449900Y-78498457D01*
X16259091Y-77516829D01*
X16255597Y-77492545D01*
X16254500Y-77468036D01*
X16255811Y-77443537D01*
X16259517Y-77419285D01*
X16265582Y-77395513D01*
X16273948Y-77372449D01*
X16284534Y-77350317D01*
X16297239Y-77329329D01*
X16311939Y-77309687D01*
X16328494Y-77291581D01*
X16346744Y-77275184D01*
X16366514Y-77260656D01*
X16387612Y-77248135D01*
X16409836Y-77237742D01*
X16432971Y-77229578D01*
X16456796Y-77223720D01*
X19303515Y-76670374D01*
X19327799Y-76666880D01*
X19352308Y-76665783D01*
X19376807Y-76667094D01*
X19376807Y-76667094D01*
G37*
D13*
X18023262Y-77683268D03*
D15*
X62100000Y-62020000D03*
X59990000Y-64110000D03*
X58580000Y-58340000D03*
X56460000Y-60510000D03*
X74150000Y-49850000D03*
X76130000Y-47760000D03*
X70890000Y-46380000D03*
X21778100Y-56434300D03*
X72849487Y-44320513D03*
X47010000Y-56490000D03*
X58880000Y-46970000D03*
X51100000Y-42890000D03*
X62200000Y-41880000D03*
X54710000Y-35350000D03*
X45840000Y-45960000D03*
X33590000Y-35120000D03*
X43200000Y-22280000D03*
X61510000Y-21340000D03*
X27240000Y-17340000D03*
X15310000Y-28190000D03*
X9800000Y-9880000D03*
X22260852Y-43339148D03*
X19554866Y-61704866D03*
X38440000Y-72320000D03*
X54490000Y-79510000D03*
X72290000Y-66320000D03*
X73010000Y-38510000D03*
X29850000Y-52700000D03*
X35850000Y-54480000D03*
X36410000Y-53120000D03*
X41270000Y-20500000D03*
X27545400Y-15122300D03*
X66909900Y-43968300D03*
X35512100Y-56129400D03*
X35992900Y-37882200D03*
X26914135Y-15894135D03*
X27710539Y-13949461D03*
X35885343Y-38895343D03*
X35783612Y-39853612D03*
X65997371Y-44817371D03*
X65215175Y-45545175D03*
X64448519Y-46258519D03*
X34836350Y-55453650D03*
X36456500Y-56663500D03*
X37136500Y-57343500D03*
X21644900Y-79050500D03*
X81500900Y-22581700D03*
D16*
X77083300Y-18023300D02*
X77697800Y-18142700D01*
X77697800Y-18142700D02*
X77820500Y-18166600D01*
X77820500Y-18166600D02*
X84886200Y-19540000D01*
X84886200Y-19540000D02*
X85008900Y-19563900D01*
X85008900Y-19563900D02*
X85623400Y-19683300D01*
X85623400Y-19683300D02*
X84709000Y-21213500D01*
X84709000Y-21213500D02*
X84705100Y-21217500D01*
X84705100Y-21217500D02*
X82937400Y-23274200D01*
X82937400Y-23274200D02*
X82930800Y-23280900D01*
X82930800Y-23280900D02*
X82219400Y-24879300D01*
X69312900Y-27467400D02*
X70727100Y-30119000D01*
X70727100Y-30119000D02*
X70815500Y-30207400D01*
X70815500Y-30207400D02*
X70851900Y-30244100D01*
X70851900Y-30244100D02*
X72600200Y-43604100D01*
X72600200Y-43604100D02*
X72636600Y-43640800D01*
X72636600Y-43640800D02*
X72725000Y-43729200D01*
X72725000Y-43729200D02*
X72849487Y-44320513D01*
X29007400Y-50457100D02*
X26355800Y-51871300D01*
X26355800Y-51871300D02*
X26267400Y-51959700D01*
X26267400Y-51959700D02*
X21778100Y-56434300D01*
X73432100Y-47087900D02*
X72106200Y-48413600D01*
X72106200Y-48413600D02*
X72017800Y-48502000D01*
X72017800Y-48502000D02*
X60704100Y-59815700D01*
X60704100Y-59815700D02*
X60615700Y-59904100D01*
X60615700Y-59904100D02*
X59290000Y-61230000D01*
X59290000Y-61230000D02*
X56685500Y-61277100D01*
X56685500Y-61277100D02*
X56597100Y-61365500D01*
X56597100Y-61365500D02*
X55142500Y-62820200D01*
X55142500Y-62820200D02*
X55054100Y-62908600D01*
X55054100Y-62908600D02*
X52402600Y-64322900D01*
X52402600Y-64322900D02*
X49751000Y-65737100D01*
X49751000Y-65737100D02*
X49662600Y-65825500D01*
X49662600Y-65825500D02*
X49625900Y-65861900D01*
X49625900Y-65861900D02*
X26547000Y-82218800D01*
X26547000Y-82218800D02*
X26544300Y-82218800D01*
X26544300Y-82218800D02*
X24879300Y-82819400D01*
X82219400Y-24879300D02*
X81459400Y-26405700D01*
X81459400Y-26405700D02*
X72193000Y-29006400D01*
X72193000Y-29006400D02*
X72089600Y-29006400D01*
X72089600Y-29006400D02*
X72052900Y-28970000D01*
X72052900Y-28970000D02*
X71964500Y-28881600D01*
X71964500Y-28881600D02*
X69312900Y-27467400D01*
X77083300Y-18023300D02*
X76067100Y-19325100D01*
X76067100Y-19325100D02*
X76060400Y-19325100D01*
X76060400Y-19325100D02*
X37122700Y-16503900D01*
X37122700Y-16503900D02*
X37019300Y-16503900D01*
X37019300Y-16503900D02*
X36982600Y-16540300D01*
X36982600Y-16540300D02*
X36894200Y-16628700D01*
X36894200Y-16628700D02*
X34242600Y-18042900D01*
X18023300Y-77683300D02*
X18142700Y-78297800D01*
X18142700Y-78297800D02*
X18166600Y-78420500D01*
X18166600Y-78420500D02*
X19540000Y-85486200D01*
X19540000Y-85486200D02*
X19563900Y-85608900D01*
X19563900Y-85608900D02*
X19683300Y-86223400D01*
X19683300Y-86223400D02*
X21213500Y-85309000D01*
X21213500Y-85309000D02*
X21217500Y-85305100D01*
X21217500Y-85305100D02*
X23274200Y-83537400D01*
X23274200Y-83537400D02*
X23280900Y-83530800D01*
X23280900Y-83530800D02*
X24879300Y-82819400D01*
X18023300Y-77683300D02*
X19411700Y-76673300D01*
X19411700Y-76673300D02*
X19411700Y-76669800D01*
X19411700Y-76669800D02*
X21778100Y-56434300D01*
X59290000Y-61230000D02*
X59290000Y-61230000D01*
X72849487Y-44320513D02*
X73432100Y-47087900D01*
D17*
X35992900Y-37882200D02*
X35885343Y-38895343D01*
X34556500Y-51412500D02*
X34381400Y-51588500D01*
X34381400Y-51588500D02*
X33957100Y-52012800D01*
X33957100Y-52012800D02*
X33301127Y-52931127D01*
X27545400Y-15122300D02*
X28127000Y-15322200D01*
X28127000Y-15322200D02*
X28303000Y-15497300D01*
X28303000Y-15497300D02*
X28727300Y-15921600D01*
X28727300Y-15921600D02*
X30707100Y-14507400D01*
X35512100Y-56129400D02*
X34836350Y-55453650D01*
X33666200Y-54283500D02*
X33241900Y-53859200D01*
X33241900Y-53859200D02*
X32542900Y-53992600D01*
X65777400Y-31002900D02*
X67191600Y-32982700D01*
X67191600Y-32982700D02*
X66767300Y-33407000D01*
X66767300Y-33407000D02*
X66592200Y-33583000D01*
X66592200Y-33583000D02*
X65121900Y-35598200D01*
X65121900Y-35598200D02*
X64946800Y-35774200D01*
X64946800Y-35774200D02*
X64522500Y-36198500D01*
X64522500Y-36198500D02*
X65229600Y-38885400D01*
X65229600Y-38885400D02*
X65936700Y-41572300D01*
X65936700Y-41572300D02*
X66361000Y-41996600D01*
X66361000Y-41996600D02*
X66536100Y-42172600D01*
X66536100Y-42172600D02*
X66909900Y-43968300D01*
X30707100Y-14507400D02*
X29292900Y-16487200D01*
X29292900Y-16487200D02*
X29717200Y-16911500D01*
X29717200Y-16911500D02*
X29892300Y-17087500D01*
X29892300Y-17087500D02*
X30514100Y-19829900D01*
X30514100Y-19829900D02*
X35992900Y-37882200D01*
X33301127Y-52931127D02*
X32542900Y-53992600D01*
X35885343Y-38895343D02*
X35783612Y-39853612D01*
X35783612Y-39853612D02*
X34556500Y-51412500D01*
X66909900Y-43968300D02*
X64770000Y-45950000D01*
X26914135Y-15894135D02*
X27710539Y-13949461D01*
X34836350Y-55453650D02*
X33666200Y-54283500D01*
X37136500Y-57343500D02*
X34836350Y-55453650D01*
D16*
X24497600Y-80856200D02*
X22797600Y-80723300D01*
X22797600Y-80723300D02*
X22787100Y-80712700D01*
X22787100Y-80712700D02*
X22076800Y-79765300D01*
X22076800Y-79765300D02*
X22063900Y-79747500D01*
X22063900Y-79747500D02*
X22051100Y-79729800D01*
X22051100Y-79729800D02*
X21644900Y-79050500D01*
X80256200Y-24497600D02*
X80995000Y-22933100D01*
X80995000Y-22933100D02*
X81500900Y-22581700D01*
D18*
X77777600Y-24141200D02*
X76957600Y-23124700D01*
X77777600Y-24141200D02*
X76636600Y-24776500D01*
D19*
X76101500Y-23815400D02*
X68532300Y-22838900D01*
X68532300Y-22838900D02*
X67265100Y-22838900D01*
X67265100Y-22838900D02*
X67071000Y-22919300D01*
X67071000Y-22919300D02*
X62121300Y-27869000D01*
X62121300Y-27869000D02*
X61229300Y-28761000D01*
X61229300Y-28761000D02*
X51844300Y-50148800D01*
X51844300Y-50148800D02*
X51441000Y-50552600D01*
X51441000Y-50552600D02*
X50380300Y-51613300D01*
X50380300Y-51613300D02*
X51087500Y-53027500D01*
X51087500Y-53027500D02*
X51158300Y-55078100D01*
X50281300Y-58807600D02*
X48867100Y-60787400D01*
X50705600Y-58383300D02*
X50281300Y-58807600D01*
X50880700Y-58207300D02*
X50705600Y-58383300D01*
X50880700Y-57710700D02*
X50880700Y-58207300D01*
X50734000Y-55502400D02*
X50880700Y-57710700D01*
X51158300Y-55078100D02*
X50734000Y-55502400D01*
D20*
X24116000Y-78892900D02*
X25742900Y-78214300D01*
D19*
X46287000Y-62801000D02*
X27134600Y-77196600D01*
X46463000Y-62625900D02*
X46287000Y-62801000D01*
X46887300Y-62201600D02*
X46463000Y-62625900D01*
X48867100Y-60787400D02*
X46887300Y-62201600D01*
D21*
X25742900Y-78214300D02*
X27134600Y-77196600D01*
D18*
X78292900Y-24116000D02*
X78170200Y-24217500D01*
X78170200Y-24217500D02*
X77777600Y-24141200D01*
X77777600Y-24141200D02*
X76101500Y-23815400D01*
D22*
G36*
X17842389Y-3933444D02*
G01*
X17390516Y-6229048D01*
X17384459Y-6249119D01*
X17382411Y-6270223D01*
X17382389Y-6270334D01*
X17380481Y-6290103D01*
X17376334Y-6332837D01*
X17376346Y-6332958D01*
X17376335Y-6333074D01*
X17380449Y-6374000D01*
X17384700Y-6416531D01*
X17384735Y-6416646D01*
X17384747Y-6416764D01*
X17396990Y-6456836D01*
X17409232Y-6496986D01*
X17409288Y-6497090D01*
X17409323Y-6497205D01*
X17429070Y-6533971D01*
X17448989Y-6571109D01*
X17449066Y-6571202D01*
X17449121Y-6571305D01*
X17474940Y-6602638D01*
X17502442Y-6636051D01*
X17502535Y-6636127D01*
X17502610Y-6636218D01*
X17534907Y-6662616D01*
X17567538Y-6689317D01*
X17567643Y-6689373D01*
X17567736Y-6689449D01*
X17604776Y-6709153D01*
X17641774Y-6728861D01*
X17641889Y-6728896D01*
X17641993Y-6728951D01*
X17682252Y-6741076D01*
X17702119Y-6747071D01*
X17702233Y-6747093D01*
X17722532Y-6753207D01*
X17743399Y-6755220D01*
X19077829Y-7018660D01*
X19097038Y-7024553D01*
X19118992Y-7026786D01*
X19119960Y-7026977D01*
X19139861Y-7028908D01*
X19180718Y-7033064D01*
X19181707Y-7032970D01*
X19182698Y-7033066D01*
X19223673Y-7028970D01*
X19264449Y-7025084D01*
X19265398Y-7024799D01*
X19266392Y-7024700D01*
X19305769Y-7012693D01*
X19345016Y-7000924D01*
X19345894Y-7000458D01*
X19346846Y-7000168D01*
X19383052Y-6980748D01*
X19419321Y-6961510D01*
X19420092Y-6960881D01*
X19420969Y-6960411D01*
X19452666Y-6934321D01*
X19484510Y-6908357D01*
X19485144Y-6907589D01*
X19485911Y-6906958D01*
X19511943Y-6875145D01*
X19538076Y-6843507D01*
X19538546Y-6842634D01*
X19539178Y-6841862D01*
X19558495Y-6805598D01*
X19577962Y-6769455D01*
X19578254Y-6768502D01*
X19578721Y-6767626D01*
X19590611Y-6728227D01*
X19596450Y-6709195D01*
X19596644Y-6708235D01*
X19603022Y-6687101D01*
X19604963Y-6667095D01*
X19701845Y-6187997D01*
X25282467Y-7285571D01*
X25185867Y-7763275D01*
X25179282Y-7785526D01*
X25175639Y-7825263D01*
X25171596Y-7865018D01*
X25171799Y-7867153D01*
X25171604Y-7869285D01*
X25175787Y-7908994D01*
X25179576Y-7948749D01*
X25180191Y-7950801D01*
X25180416Y-7952934D01*
X25192261Y-7991050D01*
X25203736Y-8029316D01*
X25204742Y-8031212D01*
X25205377Y-8033256D01*
X25224420Y-8068310D01*
X25243150Y-8103621D01*
X25244505Y-8105283D01*
X25245528Y-8107166D01*
X25271043Y-8137830D01*
X25296303Y-8168810D01*
X25297959Y-8170178D01*
X25299327Y-8171822D01*
X25330340Y-8196924D01*
X25361153Y-8222376D01*
X25363040Y-8223392D01*
X25364706Y-8224741D01*
X25400025Y-8243313D01*
X25435205Y-8262262D01*
X25437257Y-8262892D01*
X25439152Y-8263888D01*
X25477421Y-8275214D01*
X25515618Y-8286933D01*
X25538708Y-8289281D01*
X26875184Y-8545728D01*
X26894286Y-8551490D01*
X26916368Y-8553630D01*
X26917476Y-8553843D01*
X26937395Y-8555669D01*
X26978005Y-8559605D01*
X26979123Y-8559493D01*
X26980246Y-8559596D01*
X27021028Y-8555300D01*
X27061698Y-8551230D01*
X27062773Y-8550902D01*
X27063894Y-8550784D01*
X27103040Y-8538619D01*
X27142150Y-8526689D01*
X27143141Y-8526157D01*
X27144217Y-8525823D01*
X27180266Y-8506239D01*
X27216268Y-8486924D01*
X27217135Y-8486211D01*
X27218126Y-8485672D01*
X27249644Y-8459447D01*
X27281205Y-8433464D01*
X27281917Y-8432593D01*
X27282783Y-8431873D01*
X27308554Y-8400033D01*
X27334464Y-8368362D01*
X27334993Y-8367369D01*
X27335701Y-8366494D01*
X27354754Y-8330261D01*
X27373999Y-8294122D01*
X27374324Y-8293044D01*
X27374848Y-8292048D01*
X27386479Y-8252749D01*
X27392203Y-8233775D01*
X27392419Y-8232682D01*
X27398719Y-8211395D01*
X27400541Y-8191514D01*
X28390668Y-3173160D01*
X36724675Y-4807189D01*
X36272836Y-7100483D01*
X36266722Y-7120830D01*
X36262755Y-7162218D01*
X36258695Y-7204219D01*
X36258712Y-7204389D01*
X36258696Y-7204557D01*
X36262885Y-7245974D01*
X36267092Y-7287909D01*
X36267142Y-7288072D01*
X36267159Y-7288242D01*
X36279338Y-7328018D01*
X36291654Y-7368355D01*
X36291736Y-7368507D01*
X36291785Y-7368668D01*
X36311412Y-7405159D01*
X36331439Y-7442463D01*
X36331548Y-7442595D01*
X36331628Y-7442744D01*
X36358186Y-7474933D01*
X36384917Y-7507385D01*
X36385049Y-7507493D01*
X36385157Y-7507624D01*
X36417429Y-7533969D01*
X36450033Y-7560627D01*
X36450185Y-7560708D01*
X36450315Y-7560814D01*
X36486870Y-7580231D01*
X36524283Y-7600142D01*
X36524447Y-7600192D01*
X36524597Y-7600271D01*
X36564595Y-7612290D01*
X36604818Y-7624412D01*
X36625969Y-7626457D01*
X54530086Y-11139353D01*
X54078358Y-13432085D01*
X54072367Y-13451812D01*
X54070249Y-13473245D01*
X54070159Y-13473700D01*
X54068178Y-13494195D01*
X54064094Y-13535517D01*
X54064139Y-13535980D01*
X54064095Y-13536439D01*
X54068232Y-13577673D01*
X54072311Y-13619224D01*
X54072446Y-13619669D01*
X54072492Y-13620129D01*
X54084619Y-13659848D01*
X54096700Y-13699722D01*
X54096918Y-13700131D01*
X54097054Y-13700575D01*
X54116826Y-13737405D01*
X54136326Y-13773915D01*
X54136618Y-13774271D01*
X54136839Y-13774683D01*
X54163298Y-13806804D01*
X54189663Y-13838953D01*
X54190024Y-13839250D01*
X54190317Y-13839605D01*
X54222486Y-13865908D01*
X54254665Y-13892334D01*
X54255072Y-13892552D01*
X54255433Y-13892847D01*
X54292165Y-13912395D01*
X54328830Y-13932010D01*
X54329276Y-13932146D01*
X54329683Y-13932362D01*
X54369414Y-13944335D01*
X54389143Y-13950327D01*
X54389595Y-13950417D01*
X54410218Y-13956632D01*
X54430741Y-13958616D01*
X55765226Y-14224528D01*
X55784798Y-14230533D01*
X55806374Y-14232728D01*
X55806969Y-14232846D01*
X55827197Y-14234845D01*
X55868478Y-14239044D01*
X55869088Y-14238986D01*
X55869696Y-14239046D01*
X55911020Y-14234990D01*
X55952209Y-14231064D01*
X55952792Y-14230889D01*
X55953404Y-14230829D01*
X55993219Y-14218766D01*
X56032776Y-14206904D01*
X56033315Y-14206618D01*
X56033903Y-14206440D01*
X56070479Y-14186905D01*
X56107081Y-14167490D01*
X56107557Y-14167102D01*
X56108096Y-14166814D01*
X56140114Y-14140556D01*
X56172270Y-14114337D01*
X56172660Y-14113865D01*
X56173133Y-14113477D01*
X56199456Y-14081424D01*
X56225836Y-14049487D01*
X56226126Y-14048949D01*
X56226515Y-14048475D01*
X56246058Y-14011943D01*
X56265722Y-13975435D01*
X56265902Y-13974848D01*
X56266190Y-13974310D01*
X56278240Y-13934634D01*
X56284210Y-13915175D01*
X56284330Y-13914581D01*
X56290633Y-13893828D01*
X56292647Y-13873454D01*
X56389643Y-13393788D01*
X61975430Y-14489733D01*
X61883691Y-14958913D01*
X61877787Y-14978352D01*
X61875638Y-15000099D01*
X61875491Y-15000849D01*
X61873579Y-15020925D01*
X61869514Y-15062057D01*
X61869589Y-15062825D01*
X61869516Y-15063596D01*
X61873696Y-15104664D01*
X61877731Y-15145764D01*
X61877956Y-15146506D01*
X61878034Y-15147275D01*
X61890136Y-15186707D01*
X61902120Y-15226262D01*
X61902485Y-15226945D01*
X61902712Y-15227685D01*
X61922288Y-15264024D01*
X61941746Y-15300455D01*
X61942237Y-15301054D01*
X61942604Y-15301735D01*
X61968840Y-15333493D01*
X61995083Y-15365493D01*
X61995684Y-15365986D01*
X61996175Y-15366581D01*
X62028220Y-15392706D01*
X62060085Y-15418874D01*
X62060763Y-15419237D01*
X62061367Y-15419729D01*
X62097856Y-15439081D01*
X62134250Y-15458550D01*
X62134994Y-15458776D01*
X62135675Y-15459137D01*
X62175157Y-15470973D01*
X62194563Y-15476867D01*
X62195317Y-15477017D01*
X62216244Y-15483291D01*
X62236465Y-15485216D01*
X63572030Y-15751344D01*
X63592998Y-15757626D01*
X63634065Y-15761528D01*
X63675116Y-15765586D01*
X63675926Y-15765506D01*
X63676732Y-15765583D01*
X63717678Y-15761408D01*
X63758824Y-15757369D01*
X63759602Y-15757133D01*
X63760409Y-15757051D01*
X63799792Y-15744957D01*
X63839323Y-15732980D01*
X63840040Y-15732597D01*
X63840815Y-15732359D01*
X63877076Y-15712816D01*
X63913516Y-15693354D01*
X63914145Y-15692838D01*
X63914858Y-15692454D01*
X63946589Y-15666231D01*
X63978553Y-15640017D01*
X63979069Y-15639388D01*
X63979694Y-15638872D01*
X64005687Y-15606977D01*
X64031935Y-15575015D01*
X64032319Y-15574297D01*
X64032830Y-15573670D01*
X64052103Y-15537315D01*
X64071610Y-15500850D01*
X64071846Y-15500073D01*
X64072226Y-15499356D01*
X64084054Y-15459878D01*
X64096053Y-15420368D01*
X64098206Y-15398587D01*
X65079193Y-10376867D01*
X73412457Y-12013057D01*
X72960596Y-14306468D01*
X72954480Y-14326821D01*
X72950525Y-14368088D01*
X72946455Y-14410199D01*
X72946473Y-14410375D01*
X72946456Y-14410549D01*
X72950666Y-14452167D01*
X72954852Y-14493889D01*
X72954903Y-14494057D01*
X72954921Y-14494233D01*
X72967176Y-14534251D01*
X72979414Y-14574335D01*
X72979498Y-14574491D01*
X72979549Y-14574658D01*
X72999238Y-14611262D01*
X73019199Y-14648443D01*
X73019311Y-14648579D01*
X73019394Y-14648733D01*
X73045960Y-14680931D01*
X73072677Y-14713365D01*
X73072813Y-14713476D01*
X73072925Y-14713612D01*
X73105611Y-14740293D01*
X73137793Y-14766607D01*
X73137946Y-14766689D01*
X73138084Y-14766801D01*
X73175563Y-14786708D01*
X73212043Y-14806122D01*
X73212209Y-14806172D01*
X73212367Y-14806256D01*
X73253106Y-14818497D01*
X73292578Y-14830392D01*
X73313729Y-14832437D01*
X91197923Y-18340938D01*
X89293736Y-25902893D01*
X87030580Y-25333909D01*
X87010754Y-25326793D01*
X86989880Y-25323676D01*
X86989868Y-25323673D01*
X86974531Y-25321384D01*
X86927565Y-25314371D01*
X86927546Y-25314372D01*
X86927526Y-25314369D01*
X86887038Y-25316323D01*
X86843551Y-25318418D01*
X86843530Y-25318423D01*
X86843513Y-25318424D01*
X86811054Y-25326525D01*
X86761940Y-25338777D01*
X86761916Y-25338788D01*
X86761905Y-25338791D01*
X86734374Y-25351783D01*
X86685870Y-25374667D01*
X86685853Y-25374679D01*
X86685837Y-25374687D01*
X86657187Y-25395897D01*
X86618262Y-25424707D01*
X86618245Y-25424725D01*
X86618235Y-25424733D01*
X86595547Y-25449721D01*
X86561718Y-25486975D01*
X86561708Y-25486991D01*
X86561694Y-25487007D01*
X86538188Y-25526146D01*
X86518406Y-25559078D01*
X86518400Y-25559095D01*
X86518389Y-25559113D01*
X86504171Y-25598741D01*
X86497114Y-25618405D01*
X86497109Y-25618425D01*
X86489984Y-25638284D01*
X86486876Y-25659113D01*
X86179747Y-26880254D01*
X86172763Y-26899559D01*
X86169514Y-26920939D01*
X86169380Y-26921474D01*
X86166341Y-26941828D01*
X86160128Y-26982717D01*
X86160153Y-26983266D01*
X86160071Y-26983815D01*
X86162074Y-27025383D01*
X86163960Y-27066739D01*
X86164092Y-27067276D01*
X86164119Y-27067828D01*
X86174141Y-27108003D01*
X86184109Y-27148402D01*
X86184345Y-27148905D01*
X86184478Y-27149439D01*
X86202112Y-27186816D01*
X86219803Y-27224564D01*
X86220132Y-27225011D01*
X86220367Y-27225509D01*
X86245029Y-27258830D01*
X86269670Y-27292300D01*
X86270078Y-27292672D01*
X86270407Y-27293117D01*
X86301136Y-27321022D01*
X86331793Y-27349005D01*
X86332267Y-27349291D01*
X86332675Y-27349662D01*
X86368087Y-27370934D01*
X86403784Y-27392502D01*
X86404308Y-27392691D01*
X86404778Y-27392974D01*
X86443516Y-27406876D01*
X86463057Y-27413946D01*
X86463599Y-27414084D01*
X86483946Y-27421386D01*
X86504243Y-27424417D01*
X86969688Y-27542750D01*
X85696510Y-32600522D01*
X85231289Y-32486188D01*
X85212633Y-32479483D01*
X85190534Y-32476172D01*
X85189316Y-32475873D01*
X85169877Y-32473078D01*
X85129449Y-32467021D01*
X85128180Y-32467082D01*
X85126925Y-32466901D01*
X85086158Y-32469086D01*
X85045433Y-32471029D01*
X85044204Y-32471335D01*
X85042936Y-32471403D01*
X85003428Y-32481486D01*
X84963813Y-32491349D01*
X84962663Y-32491891D01*
X84961436Y-32492204D01*
X84924695Y-32509782D01*
X84887725Y-32527202D01*
X84886703Y-32527958D01*
X84885561Y-32528504D01*
X84852967Y-32552903D01*
X84820094Y-32577210D01*
X84819239Y-32578151D01*
X84818226Y-32578909D01*
X84791017Y-32609200D01*
X84763520Y-32639451D01*
X84762865Y-32640540D01*
X84762018Y-32641483D01*
X84741249Y-32676485D01*
X84720173Y-32711533D01*
X84719742Y-32712732D01*
X84719097Y-32713819D01*
X84705554Y-32752206D01*
X84698853Y-32770850D01*
X84698544Y-32772076D01*
X84691113Y-32793139D01*
X84688292Y-32812755D01*
X84381339Y-34030747D01*
X84374199Y-34050626D01*
X84368014Y-34091974D01*
X84361762Y-34133711D01*
X84361764Y-34133757D01*
X84361756Y-34133812D01*
X84363826Y-34176989D01*
X84365769Y-34217726D01*
X84365782Y-34217777D01*
X84365784Y-34217826D01*
X84375850Y-34258217D01*
X84386089Y-34299346D01*
X84386110Y-34299391D01*
X84386123Y-34299442D01*
X84404244Y-34337876D01*
X84421942Y-34375434D01*
X84421972Y-34375475D01*
X84421994Y-34375521D01*
X84446792Y-34409041D01*
X84471950Y-34443065D01*
X84471988Y-34443100D01*
X84472018Y-34443140D01*
X84502051Y-34470426D01*
X84534191Y-34499640D01*
X84534235Y-34499666D01*
X84534273Y-34499701D01*
X84569364Y-34520792D01*
X84606273Y-34542987D01*
X84606324Y-34543005D01*
X84606365Y-34543030D01*
X84643506Y-34556369D01*
X84685427Y-34571437D01*
X84706328Y-34574568D01*
X89669462Y-35824110D01*
X87759639Y-43410739D01*
X85496637Y-42839662D01*
X85476683Y-42832496D01*
X85435792Y-42826381D01*
X85393745Y-42820068D01*
X85393617Y-42820074D01*
X85393496Y-42820056D01*
X85351882Y-42822052D01*
X85309729Y-42824049D01*
X85309609Y-42824079D01*
X85309481Y-42824085D01*
X85268408Y-42834322D01*
X85228102Y-42844343D01*
X85227988Y-42844397D01*
X85227866Y-42844427D01*
X85189587Y-42862477D01*
X85152003Y-42880172D01*
X85151903Y-42880246D01*
X85151788Y-42880300D01*
X85117809Y-42905439D01*
X85084356Y-42930158D01*
X85084271Y-42930251D01*
X85084170Y-42930326D01*
X85055330Y-42962071D01*
X85027761Y-42992382D01*
X85027699Y-42992485D01*
X85027611Y-42992582D01*
X85005095Y-43030046D01*
X84984392Y-43064450D01*
X84984351Y-43064563D01*
X84984284Y-43064675D01*
X84969272Y-43106475D01*
X84955917Y-43143595D01*
X84952771Y-43164549D01*
X82944076Y-51143938D01*
X80680999Y-50566449D01*
X80660163Y-50559005D01*
X80619505Y-50552993D01*
X80579042Y-50546808D01*
X80577996Y-50546855D01*
X80576956Y-50546701D01*
X80536002Y-50548732D01*
X80495016Y-50550565D01*
X80493995Y-50550816D01*
X80492948Y-50550868D01*
X80453189Y-50560847D01*
X80413336Y-50570643D01*
X80412386Y-50571087D01*
X80411367Y-50571343D01*
X80374201Y-50588942D01*
X80337142Y-50606270D01*
X80336300Y-50606889D01*
X80335347Y-50607340D01*
X80302328Y-50631852D01*
X80269362Y-50656076D01*
X80268654Y-50656850D01*
X80267811Y-50657476D01*
X80240330Y-50687826D01*
X80212602Y-50718149D01*
X80212056Y-50719051D01*
X80211355Y-50719825D01*
X80190312Y-50754967D01*
X80169042Y-50790102D01*
X80168685Y-50791086D01*
X80168145Y-50791988D01*
X80154376Y-50830528D01*
X80140357Y-50869171D01*
X80137014Y-50891042D01*
X79829231Y-52122173D01*
X79821933Y-52142859D01*
X79816057Y-52183725D01*
X79810041Y-52224404D01*
X79810084Y-52225263D01*
X79809961Y-52226115D01*
X79812171Y-52267340D01*
X79814208Y-52308411D01*
X79814417Y-52309243D01*
X79814463Y-52310104D01*
X79824668Y-52350087D01*
X79834683Y-52389992D01*
X79835051Y-52390769D01*
X79835264Y-52391604D01*
X79853071Y-52428824D01*
X79870680Y-52466012D01*
X79871192Y-52466702D01*
X79871564Y-52467479D01*
X79896277Y-52500492D01*
X79920816Y-52533548D01*
X79921453Y-52534125D01*
X79921969Y-52534814D01*
X79952647Y-52562371D01*
X79983165Y-52590005D01*
X79983902Y-52590446D01*
X79984543Y-52591022D01*
X80019897Y-52611999D01*
X80055328Y-52633215D01*
X80056143Y-52633506D01*
X80056879Y-52633943D01*
X80095694Y-52647637D01*
X80134537Y-52661515D01*
X80156234Y-52664723D01*
X80618982Y-52778450D01*
X79347213Y-57837173D01*
X78884360Y-57719498D01*
X78865575Y-57712596D01*
X78843693Y-57709159D01*
X78842661Y-57708897D01*
X78823006Y-57705910D01*
X78782481Y-57699546D01*
X78781407Y-57699590D01*
X78780343Y-57699428D01*
X78739447Y-57701293D01*
X78698440Y-57702958D01*
X78697391Y-57703211D01*
X78696321Y-57703260D01*
X78656613Y-57713057D01*
X78616677Y-57722700D01*
X78615700Y-57723152D01*
X78614658Y-57723409D01*
X78577560Y-57740795D01*
X78540338Y-57758014D01*
X78539469Y-57758647D01*
X78538496Y-57759103D01*
X78505478Y-57783411D01*
X78472355Y-57807542D01*
X78471627Y-57808332D01*
X78470760Y-57808970D01*
X78443103Y-57839270D01*
X78415341Y-57869381D01*
X78414781Y-57870298D01*
X78414055Y-57871093D01*
X78392854Y-57906182D01*
X78371485Y-57941154D01*
X78371114Y-57942164D01*
X78370558Y-57943084D01*
X78356608Y-57981644D01*
X78349746Y-58000319D01*
X78349478Y-58001351D01*
X78341943Y-58022179D01*
X78338937Y-58041963D01*
X78021668Y-59264310D01*
X78013992Y-59285710D01*
X78008035Y-59325662D01*
X78001766Y-59365579D01*
X78001834Y-59367247D01*
X78001587Y-59368902D01*
X78003536Y-59409187D01*
X78005178Y-59449619D01*
X78005570Y-59451243D01*
X78005651Y-59452914D01*
X78015434Y-59492094D01*
X78024920Y-59531382D01*
X78025623Y-59532901D01*
X78026027Y-59534520D01*
X78043255Y-59571018D01*
X78060234Y-59607721D01*
X78061218Y-59609072D01*
X78061932Y-59610584D01*
X78086008Y-59643099D01*
X78109762Y-59675704D01*
X78110988Y-59676834D01*
X78111985Y-59678181D01*
X78141942Y-59705373D01*
X78171601Y-59732719D01*
X78173027Y-59733590D01*
X78174265Y-59734714D01*
X78208903Y-59755511D01*
X78243374Y-59776574D01*
X78244943Y-59777150D01*
X78246376Y-59778011D01*
X78284395Y-59791647D01*
X78322325Y-59805584D01*
X78344791Y-59809112D01*
X83309374Y-61056684D01*
X81401878Y-68643161D01*
X79136374Y-68071991D01*
X79116405Y-68064826D01*
X79075067Y-68058656D01*
X79033489Y-68052424D01*
X79033352Y-68052431D01*
X79033214Y-68052410D01*
X78991142Y-68054440D01*
X78949474Y-68056423D01*
X78949340Y-68056456D01*
X78949201Y-68056463D01*
X78908658Y-68066580D01*
X78867852Y-68076735D01*
X78867725Y-68076795D01*
X78867592Y-68076828D01*
X78830109Y-68094516D01*
X78791761Y-68112581D01*
X78791648Y-68112664D01*
X78791524Y-68112723D01*
X78757843Y-68137656D01*
X78724125Y-68162583D01*
X78724033Y-68162685D01*
X78723920Y-68162768D01*
X78694904Y-68194725D01*
X78667544Y-68224819D01*
X78667476Y-68224932D01*
X78667378Y-68225040D01*
X78644944Y-68262393D01*
X78624191Y-68296896D01*
X78624145Y-68297023D01*
X78624072Y-68297145D01*
X78609451Y-68337893D01*
X78595733Y-68376048D01*
X78592589Y-68397020D01*
X76544131Y-76544131D01*
X68790937Y-78493546D01*
X68221984Y-76230522D01*
X68218867Y-76209646D01*
X68203519Y-76166883D01*
X68190471Y-76130513D01*
X68190460Y-76130495D01*
X68190454Y-76130478D01*
X68168137Y-76093325D01*
X68147166Y-76058407D01*
X68147155Y-76058395D01*
X68147143Y-76058375D01*
X68114377Y-76022293D01*
X68090625Y-75996133D01*
X68090612Y-75996123D01*
X68090597Y-75996107D01*
X68054869Y-75969663D01*
X68023023Y-75946087D01*
X68023004Y-75946078D01*
X68022989Y-75946067D01*
X67985110Y-75928196D01*
X67946955Y-75910191D01*
X67946937Y-75910187D01*
X67946919Y-75910178D01*
X67909462Y-75900834D01*
X67865347Y-75889824D01*
X67865323Y-75889823D01*
X67865308Y-75889819D01*
X67827891Y-75888016D01*
X67781334Y-75885769D01*
X67781314Y-75885772D01*
X67781295Y-75885771D01*
X67736244Y-75892498D01*
X67698144Y-75898184D01*
X67678291Y-75905307D01*
X66455491Y-76212853D01*
X66433557Y-76216245D01*
X66395098Y-76230274D01*
X66356558Y-76244106D01*
X66355595Y-76244684D01*
X66354538Y-76245070D01*
X66319523Y-76266353D01*
X66284455Y-76287418D01*
X66283623Y-76288173D01*
X66282663Y-76288757D01*
X66252528Y-76316411D01*
X66222187Y-76343963D01*
X66221517Y-76344868D01*
X66220690Y-76345627D01*
X66196481Y-76378694D01*
X66172147Y-76411571D01*
X66171669Y-76412585D01*
X66171003Y-76413494D01*
X66153686Y-76450701D01*
X66136258Y-76487641D01*
X66135986Y-76488729D01*
X66135511Y-76489751D01*
X66125785Y-76529621D01*
X66115899Y-76569252D01*
X66115845Y-76570372D01*
X66115578Y-76571467D01*
X66113820Y-76612397D01*
X66111851Y-76653265D01*
X66112017Y-76654378D01*
X66111969Y-76655499D01*
X66118232Y-76695997D01*
X66124274Y-76736454D01*
X66131769Y-76757339D01*
X66251079Y-77221467D01*
X61187633Y-78493877D01*
X61069234Y-78028173D01*
X61066177Y-78007767D01*
X61058896Y-77987510D01*
X61058786Y-77987077D01*
X61051801Y-77967769D01*
X61037727Y-77928613D01*
X61037495Y-77928228D01*
X61037342Y-77927804D01*
X61015884Y-77892290D01*
X60994381Y-77856531D01*
X60994076Y-77856196D01*
X60993845Y-77855813D01*
X60965848Y-77825141D01*
X60937805Y-77794290D01*
X60937444Y-77794023D01*
X60937140Y-77793690D01*
X60903593Y-77768993D01*
X60870174Y-77744282D01*
X60869767Y-77744090D01*
X60869404Y-77743823D01*
X60831622Y-77726116D01*
X60794086Y-77708429D01*
X60793651Y-77708321D01*
X60793242Y-77708129D01*
X60752848Y-77698162D01*
X60712466Y-77688109D01*
X60712015Y-77688087D01*
X60711579Y-77687980D01*
X60670022Y-77686085D01*
X60628450Y-77684102D01*
X60628006Y-77684168D01*
X60627557Y-77684148D01*
X60586515Y-77690384D01*
X60566114Y-77693440D01*
X60565678Y-77693550D01*
X60544399Y-77696783D01*
X60524998Y-77703802D01*
X59306413Y-78010905D01*
X59285710Y-78013992D01*
X59265734Y-78021157D01*
X59265590Y-78021193D01*
X59245362Y-78028463D01*
X59206536Y-78042389D01*
X59206414Y-78042462D01*
X59206273Y-78042513D01*
X59170013Y-78064318D01*
X59134425Y-78085686D01*
X59134316Y-78085785D01*
X59134191Y-78085860D01*
X59103306Y-78113933D01*
X59072145Y-78142219D01*
X59072057Y-78142338D01*
X59071950Y-78142435D01*
X59046966Y-78176224D01*
X59022092Y-78209816D01*
X59022030Y-78209946D01*
X59021942Y-78210066D01*
X59003831Y-78248502D01*
X58986187Y-78285880D01*
X58986152Y-78286020D01*
X58986089Y-78286154D01*
X58976198Y-78325885D01*
X58965811Y-78367486D01*
X58965804Y-78367634D01*
X58965769Y-78367774D01*
X58963801Y-78409040D01*
X58961747Y-78451498D01*
X58961769Y-78451645D01*
X58961762Y-78451789D01*
X58967927Y-78492943D01*
X58971043Y-78513841D01*
X58971079Y-78513983D01*
X58974223Y-78534973D01*
X58981304Y-78554674D01*
X60228610Y-83518206D01*
X52651721Y-85434754D01*
X52082818Y-83169796D01*
X52079684Y-83148837D01*
X52065484Y-83109295D01*
X52051352Y-83069879D01*
X52051293Y-83069781D01*
X52051255Y-83069675D01*
X52029966Y-83034252D01*
X52008063Y-82997763D01*
X52007985Y-82997677D01*
X52007928Y-82997582D01*
X51979981Y-82966820D01*
X51951536Y-82935477D01*
X51951445Y-82935409D01*
X51951369Y-82935326D01*
X51917789Y-82910483D01*
X51883945Y-82885416D01*
X51883842Y-82885367D01*
X51883751Y-82885300D01*
X51845238Y-82867140D01*
X51807885Y-82849503D01*
X51807777Y-82849476D01*
X51807673Y-82849427D01*
X51766566Y-82839181D01*
X51726281Y-82829118D01*
X51726169Y-82829113D01*
X51726058Y-82829085D01*
X51683876Y-82827062D01*
X51642270Y-82825045D01*
X51642159Y-82825062D01*
X51642043Y-82825056D01*
X51599468Y-82831422D01*
X51559076Y-82837441D01*
X51539132Y-82844591D01*
X43558640Y-84853565D01*
X42989631Y-82588186D01*
X42986507Y-82567266D01*
X42972222Y-82527462D01*
X42958152Y-82488219D01*
X42958116Y-82488159D01*
X42958094Y-82488098D01*
X42936830Y-82452698D01*
X42914863Y-82416103D01*
X42914818Y-82416054D01*
X42914783Y-82415995D01*
X42885315Y-82383545D01*
X42858336Y-82353817D01*
X42858283Y-82353778D01*
X42858237Y-82353727D01*
X42824673Y-82328885D01*
X42790745Y-82303756D01*
X42790682Y-82303726D01*
X42790629Y-82303687D01*
X42752944Y-82285908D01*
X42714685Y-82267843D01*
X42714620Y-82267827D01*
X42714559Y-82267798D01*
X42674782Y-82257875D01*
X42633081Y-82247458D01*
X42633010Y-82247455D01*
X42632948Y-82247439D01*
X42590930Y-82245414D01*
X42549070Y-82243385D01*
X42549007Y-82243394D01*
X42548935Y-82243391D01*
X42504874Y-82249970D01*
X42465876Y-82255781D01*
X42445977Y-82262915D01*
X41225340Y-82569917D01*
X41205619Y-82572753D01*
X41184648Y-82580152D01*
X41183525Y-82580434D01*
X41164860Y-82587133D01*
X41126299Y-82600737D01*
X41125297Y-82601332D01*
X41124198Y-82601726D01*
X41089098Y-82622810D01*
X41053963Y-82643658D01*
X41053096Y-82644437D01*
X41052095Y-82645038D01*
X41021773Y-82672573D01*
X40991389Y-82699866D01*
X40990691Y-82700798D01*
X40989827Y-82701583D01*
X40965508Y-82734440D01*
X40940984Y-82767201D01*
X40940480Y-82768255D01*
X40939787Y-82769191D01*
X40922355Y-82806140D01*
X40904684Y-82843076D01*
X40904395Y-82844207D01*
X40903898Y-82845261D01*
X40894014Y-82884880D01*
X40883883Y-82924576D01*
X40883820Y-82925744D01*
X40883539Y-82926872D01*
X40881575Y-82967640D01*
X40879381Y-83008565D01*
X40879547Y-83009720D01*
X40879491Y-83010885D01*
X40885528Y-83051309D01*
X40888353Y-83070956D01*
X40888630Y-83072083D01*
X40891914Y-83094074D01*
X40898642Y-83112820D01*
X41013044Y-83578318D01*
X35955188Y-84853701D01*
X35836899Y-84388431D01*
X35833867Y-84368126D01*
X35826562Y-84347772D01*
X35826426Y-84347237D01*
X35819418Y-84327865D01*
X35805454Y-84288958D01*
X35805171Y-84288488D01*
X35804982Y-84287964D01*
X35783501Y-84252412D01*
X35762143Y-84216855D01*
X35761769Y-84216443D01*
X35761485Y-84215973D01*
X35733598Y-84185422D01*
X35705597Y-84154587D01*
X35705152Y-84154258D01*
X35704780Y-84153850D01*
X35671310Y-84129209D01*
X35637989Y-84104547D01*
X35637491Y-84104312D01*
X35637044Y-84103983D01*
X35599296Y-84086292D01*
X35561919Y-84068658D01*
X35561385Y-84068525D01*
X35560882Y-84068289D01*
X35520483Y-84058321D01*
X35480308Y-84048299D01*
X35479756Y-84048272D01*
X35479219Y-84048140D01*
X35437863Y-84046254D01*
X35396295Y-84044251D01*
X35395746Y-84044333D01*
X35395197Y-84044308D01*
X35354346Y-84050515D01*
X35333953Y-84053560D01*
X35333417Y-84053695D01*
X35312039Y-84056943D01*
X35292736Y-84063927D01*
X34071522Y-84371073D01*
X34050626Y-84374199D01*
X34012028Y-84388062D01*
X33971558Y-84402586D01*
X33971514Y-84402612D01*
X33971465Y-84402630D01*
X33935233Y-84424406D01*
X33899455Y-84445898D01*
X33899417Y-84445933D01*
X33899373Y-84445959D01*
X33870691Y-84472018D01*
X33837187Y-84502443D01*
X33837155Y-84502487D01*
X33837118Y-84502520D01*
X33812846Y-84535329D01*
X33787147Y-84570051D01*
X33787126Y-84570096D01*
X33787094Y-84570139D01*
X33770014Y-84606365D01*
X33751258Y-84646121D01*
X33751246Y-84646169D01*
X33751223Y-84646218D01*
X33740883Y-84687711D01*
X33730899Y-84727732D01*
X33730897Y-84727784D01*
X33730884Y-84727834D01*
X33728858Y-84770098D01*
X33726851Y-84811745D01*
X33726859Y-84811795D01*
X33726856Y-84811848D01*
X33733473Y-84856092D01*
X33739274Y-84894934D01*
X33746408Y-84914813D01*
X34995926Y-89877853D01*
X27411516Y-91785406D01*
X26840268Y-89519597D01*
X26837157Y-89498807D01*
X26830009Y-89478908D01*
X26829995Y-89478852D01*
X26823092Y-89459652D01*
X26808722Y-89419647D01*
X26808689Y-89419593D01*
X26808669Y-89419536D01*
X26787031Y-89383561D01*
X26765390Y-89347557D01*
X26765345Y-89347508D01*
X26765316Y-89347459D01*
X26738323Y-89317768D01*
X26708826Y-89285305D01*
X26708776Y-89285268D01*
X26708735Y-89285223D01*
X26675733Y-89260825D01*
X26641205Y-89235284D01*
X26641148Y-89235257D01*
X26641099Y-89235221D01*
X26603995Y-89217741D01*
X26565124Y-89199416D01*
X26565063Y-89199401D01*
X26565008Y-89199375D01*
X26524695Y-89189343D01*
X26483508Y-89179081D01*
X26483446Y-89179078D01*
X26483386Y-89179063D01*
X26442532Y-89177118D01*
X26399493Y-89175057D01*
X26399428Y-89175067D01*
X26399371Y-89175064D01*
X26359324Y-89181067D01*
X26337154Y-89184384D01*
X26337093Y-89184399D01*
X26316188Y-89187533D01*
X26296411Y-89194644D01*
X18340938Y-91197924D01*
X17492871Y-86874989D01*
X17772518Y-86874989D01*
X17861727Y-87341539D01*
X17878634Y-87398164D01*
X17906264Y-87450402D01*
X17943554Y-87496247D01*
X17989071Y-87533935D01*
X18041065Y-87562019D01*
X18097540Y-87579420D01*
X18156326Y-87585469D01*
X18215160Y-87579933D01*
X19613702Y-87306605D01*
X19673013Y-87218672D01*
X19525136Y-86457911D01*
X17831829Y-86787057D01*
X17772518Y-86874989D01*
X17492871Y-86874989D01*
X17283994Y-85810264D01*
X17569978Y-85810264D01*
X17575514Y-85869099D01*
X17667573Y-86335095D01*
X17755506Y-86394406D01*
X17821448Y-86381588D01*
X19917787Y-86381588D01*
X20065664Y-87142349D01*
X20153597Y-87201660D01*
X21552693Y-86931183D01*
X21609317Y-86914276D01*
X21661556Y-86886645D01*
X21707400Y-86849356D01*
X21745088Y-86803839D01*
X21773172Y-86751844D01*
X21790573Y-86695369D01*
X21796622Y-86636584D01*
X21791086Y-86577749D01*
X21699027Y-86111753D01*
X21611094Y-86052442D01*
X19917787Y-86381588D01*
X17821448Y-86381588D01*
X19448813Y-86065260D01*
X19300936Y-85304499D01*
X19213003Y-85245188D01*
X17813907Y-85515665D01*
X17757283Y-85532572D01*
X17705044Y-85560203D01*
X17659200Y-85597492D01*
X17621512Y-85643009D01*
X17593428Y-85695004D01*
X17576027Y-85751479D01*
X17569978Y-85810264D01*
X17283994Y-85810264D01*
X17169801Y-85228176D01*
X19693587Y-85228176D01*
X19841464Y-85988937D01*
X21534771Y-85659791D01*
X21594082Y-85571859D01*
X21504873Y-85105309D01*
X21487966Y-85048684D01*
X21460336Y-84996446D01*
X21423046Y-84950601D01*
X21377529Y-84912913D01*
X21325535Y-84884829D01*
X21269060Y-84867428D01*
X21210274Y-84861379D01*
X21151440Y-84866915D01*
X19752898Y-85140243D01*
X19693587Y-85228176D01*
X17169801Y-85228176D01*
X16826955Y-83480555D01*
X22919391Y-83480555D01*
X22960897Y-83701698D01*
X22977805Y-83758322D01*
X23005435Y-83810561D01*
X23042724Y-83856405D01*
X23088241Y-83894094D01*
X23140236Y-83922178D01*
X23196711Y-83939578D01*
X23255496Y-83945628D01*
X23314331Y-83940092D01*
X24761954Y-83657223D01*
X24821265Y-83569291D01*
X24721090Y-83053936D01*
X22978702Y-83392622D01*
X22919391Y-83480555D01*
X16826955Y-83480555D01*
X16666222Y-82661236D01*
X22764553Y-82661236D01*
X22770088Y-82720071D01*
X22814446Y-82940660D01*
X22902379Y-82999971D01*
X23017400Y-82977613D01*
X25113741Y-82977613D01*
X25213916Y-83492967D01*
X25301849Y-83552278D01*
X26750026Y-83272260D01*
X26806650Y-83255353D01*
X26858889Y-83227723D01*
X26904733Y-83190433D01*
X26942421Y-83144917D01*
X26970505Y-83092922D01*
X26987906Y-83036447D01*
X26993955Y-82977662D01*
X26988420Y-82918827D01*
X26944062Y-82698238D01*
X26856129Y-82638927D01*
X25113741Y-82977613D01*
X23017400Y-82977613D01*
X24644767Y-82661285D01*
X24544592Y-82145931D01*
X24456659Y-82086620D01*
X23008482Y-82366638D01*
X22951858Y-82383545D01*
X22899619Y-82411175D01*
X22853775Y-82448465D01*
X22816087Y-82493981D01*
X22788003Y-82545976D01*
X22770602Y-82602451D01*
X22764553Y-82661236D01*
X16666222Y-82661236D01*
X16550157Y-82069607D01*
X24937243Y-82069607D01*
X25037418Y-82584962D01*
X26779806Y-82246276D01*
X26839117Y-82158343D01*
X26797611Y-81937200D01*
X26780703Y-81880576D01*
X26753073Y-81828337D01*
X26715784Y-81782493D01*
X26670267Y-81744804D01*
X26618272Y-81716720D01*
X26561797Y-81699320D01*
X26503012Y-81693270D01*
X26444177Y-81698806D01*
X24996554Y-81981675D01*
X24937243Y-82069607D01*
X16550157Y-82069607D01*
X15817472Y-78334833D01*
X16112480Y-78334833D01*
X16201689Y-78801383D01*
X16218596Y-78858008D01*
X16246226Y-78910246D01*
X16283516Y-78956091D01*
X16329033Y-78993779D01*
X16381027Y-79021863D01*
X16437502Y-79039264D01*
X16496288Y-79045313D01*
X16555122Y-79039777D01*
X16853022Y-78981556D01*
X20944900Y-78981556D01*
X20944900Y-79119444D01*
X20971801Y-79254682D01*
X21024568Y-79382074D01*
X21101174Y-79496724D01*
X21198676Y-79594226D01*
X21313326Y-79670832D01*
X21440718Y-79723599D01*
X21567256Y-79748769D01*
X21685223Y-79946049D01*
X21694484Y-79961931D01*
X21695844Y-79963812D01*
X21697051Y-79965830D01*
X21707473Y-79979912D01*
X21707521Y-79979995D01*
X21719835Y-79996987D01*
X21722475Y-80000637D01*
X21724236Y-80003541D01*
X21734694Y-80017490D01*
X21744919Y-80031599D01*
X21747208Y-80034181D01*
X22426980Y-80940864D01*
X22430896Y-80948274D01*
X22431125Y-80948556D01*
X22436175Y-81002222D01*
X22531579Y-81493035D01*
X22562508Y-81596620D01*
X22613051Y-81692180D01*
X22681266Y-81776044D01*
X22764531Y-81844988D01*
X22859646Y-81896363D01*
X22962956Y-81928194D01*
X23070492Y-81939260D01*
X23178120Y-81929133D01*
X26123002Y-81356706D01*
X26226586Y-81325777D01*
X26322146Y-81275234D01*
X26406009Y-81207020D01*
X26474953Y-81123755D01*
X26526328Y-81028640D01*
X26558160Y-80925329D01*
X26569226Y-80817794D01*
X26559099Y-80710166D01*
X26554076Y-80684320D01*
X44311035Y-80684320D01*
X44311213Y-80685510D01*
X44311162Y-80686712D01*
X44317431Y-80727098D01*
X44323472Y-80767507D01*
X44330999Y-80788470D01*
X44620251Y-81911157D01*
X44623192Y-81930829D01*
X44630721Y-81951797D01*
X44631018Y-81952948D01*
X44637790Y-81971480D01*
X44651619Y-82009992D01*
X44652238Y-82011023D01*
X44652651Y-82012152D01*
X44673916Y-82047096D01*
X44694944Y-82082087D01*
X44695751Y-82082975D01*
X44696377Y-82084004D01*
X44724103Y-82114185D01*
X44751501Y-82144345D01*
X44752463Y-82145057D01*
X44753280Y-82145946D01*
X44786345Y-82170125D01*
X44819117Y-82194373D01*
X44820204Y-82194885D01*
X44821174Y-82195595D01*
X44858292Y-82212847D01*
X44895194Y-82230248D01*
X44896357Y-82230538D01*
X44897450Y-82231046D01*
X44937222Y-82240725D01*
X44976808Y-82250593D01*
X44978008Y-82250651D01*
X44979177Y-82250935D01*
X45019997Y-82252666D01*
X45060822Y-82254625D01*
X45062012Y-82254447D01*
X45063212Y-82254498D01*
X45103549Y-82248237D01*
X45123161Y-82245305D01*
X45124322Y-82245013D01*
X45146329Y-82241597D01*
X45165004Y-82234773D01*
X48482945Y-81399646D01*
X48503123Y-81396694D01*
X48523602Y-81389413D01*
X48524268Y-81389245D01*
X48543802Y-81382231D01*
X48582374Y-81368516D01*
X48582949Y-81368173D01*
X48583592Y-81367942D01*
X48619259Y-81346508D01*
X48654605Y-81325418D01*
X48655107Y-81324965D01*
X48655686Y-81324617D01*
X48686448Y-81296672D01*
X48717040Y-81269056D01*
X48717440Y-81268518D01*
X48717945Y-81268060D01*
X48742772Y-81234505D01*
X48767280Y-81201597D01*
X48767568Y-81200992D01*
X48767973Y-81200444D01*
X48785726Y-81162797D01*
X48803394Y-81125633D01*
X48803559Y-81124980D01*
X48803848Y-81124367D01*
X48813917Y-81083976D01*
X48823994Y-81044083D01*
X48824028Y-81043414D01*
X48824193Y-81042753D01*
X48826188Y-81001183D01*
X48828290Y-80960082D01*
X48828192Y-80959415D01*
X48828225Y-80958738D01*
X48822129Y-80917964D01*
X48819166Y-80897713D01*
X48819002Y-80897052D01*
X48815787Y-80875551D01*
X48808894Y-80856355D01*
X48532039Y-79741651D01*
X48530962Y-79730713D01*
X48527824Y-79720369D01*
X48526228Y-79709693D01*
X48515643Y-79680216D01*
X48506545Y-79650224D01*
X48501769Y-79641289D01*
X48498376Y-79631746D01*
X48498031Y-79631168D01*
X48497802Y-79630530D01*
X48481664Y-79603675D01*
X48466895Y-79576044D01*
X48460467Y-79568211D01*
X48455278Y-79559515D01*
X48454826Y-79559015D01*
X48454478Y-79558435D01*
X48433416Y-79535250D01*
X48413535Y-79511025D01*
X48405703Y-79504598D01*
X48398917Y-79497080D01*
X48398374Y-79496675D01*
X48397921Y-79496177D01*
X48372745Y-79477549D01*
X48348516Y-79457665D01*
X48339579Y-79452888D01*
X48331458Y-79446840D01*
X48330849Y-79446550D01*
X48330305Y-79446148D01*
X48301974Y-79432788D01*
X48274336Y-79418015D01*
X48264637Y-79415073D01*
X48255494Y-79410726D01*
X48254841Y-79410561D01*
X48254228Y-79410272D01*
X48223850Y-79402700D01*
X48193847Y-79393598D01*
X48183759Y-79392604D01*
X48173944Y-79390125D01*
X48173265Y-79390090D01*
X48172614Y-79389928D01*
X48141340Y-79388427D01*
X48131118Y-79387420D01*
X48121040Y-79387420D01*
X48089943Y-79385830D01*
X48089276Y-79385928D01*
X48088599Y-79385895D01*
X48057621Y-79390526D01*
X48026433Y-79393598D01*
X48016732Y-79396541D01*
X48006717Y-79398006D01*
X47986229Y-79405291D01*
X44654526Y-80243866D01*
X44632511Y-80247283D01*
X44594089Y-80261322D01*
X44555670Y-80275118D01*
X44554638Y-80275738D01*
X44553508Y-80276151D01*
X44518605Y-80297391D01*
X44483575Y-80318442D01*
X44482684Y-80319251D01*
X44481656Y-80319877D01*
X44451540Y-80347543D01*
X44421317Y-80374999D01*
X44420602Y-80375965D01*
X44419714Y-80376781D01*
X44395597Y-80409761D01*
X44371288Y-80442615D01*
X44370773Y-80443706D01*
X44370065Y-80444675D01*
X44352877Y-80481657D01*
X44335412Y-80518692D01*
X44335121Y-80519861D01*
X44334614Y-80520951D01*
X44324945Y-80560683D01*
X44315068Y-80600306D01*
X44315010Y-80601505D01*
X44314725Y-80602678D01*
X44312992Y-80643563D01*
X44311035Y-80684320D01*
X26554076Y-80684320D01*
X26463695Y-80219353D01*
X26432766Y-80115768D01*
X26382223Y-80020208D01*
X26314008Y-79936344D01*
X26230743Y-79867400D01*
X26135628Y-79816025D01*
X26032318Y-79784194D01*
X25924782Y-79773128D01*
X25817154Y-79783255D01*
X23066143Y-80317997D01*
X23019633Y-80314361D01*
X22760877Y-79969231D01*
X22796502Y-79965879D01*
X24249065Y-79683529D01*
X24274775Y-79680933D01*
X24296278Y-79674352D01*
X25380981Y-79463507D01*
X25542531Y-79505132D01*
X25798208Y-79519418D01*
X26051762Y-79483551D01*
X26293445Y-79398906D01*
X26458708Y-79301358D01*
X26887643Y-78987693D01*
X27234927Y-79002524D01*
X27585317Y-78948250D01*
X27918387Y-78826662D01*
X28145420Y-78688598D01*
X44035947Y-66744734D01*
X50263643Y-66744734D01*
X50263643Y-66850800D01*
X50775269Y-67364479D01*
X50820949Y-67401968D01*
X50873067Y-67429825D01*
X50929617Y-67446980D01*
X50988427Y-67452772D01*
X51047238Y-67446980D01*
X51103788Y-67429825D01*
X51155906Y-67401968D01*
X51201586Y-67364479D01*
X53127425Y-65436586D01*
X53127425Y-65330520D01*
X52402641Y-64605736D01*
X50263643Y-66744734D01*
X44035947Y-66744734D01*
X45376529Y-65737107D01*
X49272762Y-65737107D01*
X49278554Y-65795917D01*
X49295709Y-65852467D01*
X49323566Y-65904585D01*
X49361055Y-65950265D01*
X49874734Y-66461891D01*
X49980800Y-66461891D01*
X52119798Y-64322893D01*
X52685484Y-64322893D01*
X53410268Y-65047677D01*
X53516334Y-65047677D01*
X55444227Y-63121838D01*
X55481716Y-63076158D01*
X55509573Y-63024040D01*
X55526728Y-62967490D01*
X55528970Y-62944721D01*
X57858061Y-62944721D01*
X57858061Y-63050787D01*
X59783900Y-64978680D01*
X59829581Y-65016169D01*
X59881699Y-65044026D01*
X59938249Y-65061181D01*
X59997059Y-65066973D01*
X60055869Y-65061181D01*
X60112419Y-65044026D01*
X60164537Y-65016169D01*
X60210218Y-64978680D01*
X61428950Y-63757894D01*
X61428950Y-63651828D01*
X59289952Y-61512830D01*
X57858061Y-62944721D01*
X55528970Y-62944721D01*
X55532520Y-62908679D01*
X55526728Y-62849869D01*
X55509573Y-62793319D01*
X55481716Y-62741201D01*
X55444227Y-62695521D01*
X54930548Y-62183895D01*
X54824482Y-62183895D01*
X52685484Y-64322893D01*
X52119798Y-64322893D01*
X51395014Y-63598109D01*
X51288948Y-63598109D01*
X49361055Y-65523948D01*
X49323566Y-65569628D01*
X49295709Y-65621746D01*
X49278554Y-65678296D01*
X49272762Y-65737107D01*
X45376529Y-65737107D01*
X47255883Y-64324521D01*
X47288006Y-64307457D01*
X47397337Y-64218200D01*
X47439188Y-64186743D01*
X47465838Y-64162276D01*
X47493840Y-64139415D01*
X47530926Y-64102518D01*
X47634923Y-64007039D01*
X47656410Y-63977676D01*
X47671480Y-63962683D01*
X47673266Y-63961217D01*
X47734153Y-63900330D01*
X47795210Y-63839585D01*
X47796681Y-63837802D01*
X48054760Y-63579723D01*
X48573471Y-63209200D01*
X51677857Y-63209200D01*
X51677857Y-63315266D01*
X52402641Y-64040050D01*
X54541639Y-61901052D01*
X54541639Y-61794986D01*
X54030013Y-61281307D01*
X53984333Y-61243818D01*
X53932215Y-61215961D01*
X53875665Y-61198806D01*
X53816855Y-61193014D01*
X53758044Y-61198806D01*
X53701494Y-61215961D01*
X53649376Y-61243818D01*
X53603696Y-61281307D01*
X51677857Y-63209200D01*
X48573471Y-63209200D01*
X49795483Y-62336299D01*
X49824531Y-62321920D01*
X49939497Y-62233428D01*
X49985309Y-62200704D01*
X50009577Y-62179486D01*
X50105504Y-62105649D01*
X50142743Y-62063057D01*
X50185350Y-62025805D01*
X50259206Y-61929853D01*
X50280403Y-61905609D01*
X50313099Y-61859836D01*
X50401620Y-61744832D01*
X50416003Y-61715777D01*
X51268106Y-60522880D01*
X55452966Y-60522880D01*
X55458758Y-60581690D01*
X55475913Y-60638240D01*
X55503770Y-60690358D01*
X55541259Y-60736039D01*
X57469152Y-62661878D01*
X57575218Y-62661878D01*
X59007109Y-61229987D01*
X59572795Y-61229987D01*
X61711793Y-63368985D01*
X61817859Y-63368985D01*
X63038645Y-62150253D01*
X63076134Y-62104572D01*
X63103991Y-62052454D01*
X63121146Y-61995904D01*
X63126938Y-61937094D01*
X63121146Y-61878284D01*
X63103991Y-61821734D01*
X63076134Y-61769616D01*
X63038645Y-61723935D01*
X61110752Y-59798096D01*
X61004686Y-59798096D01*
X59572795Y-61229987D01*
X59007109Y-61229987D01*
X56868111Y-59090989D01*
X56762045Y-59090989D01*
X55541259Y-60309721D01*
X55503770Y-60355402D01*
X55475913Y-60407520D01*
X55458758Y-60464070D01*
X55452966Y-60522880D01*
X51268106Y-60522880D01*
X51659422Y-59975061D01*
X51917502Y-59716981D01*
X51919285Y-59715510D01*
X51980030Y-59654453D01*
X52040917Y-59593566D01*
X52042383Y-59591780D01*
X52092752Y-59541152D01*
X52159650Y-59486250D01*
X52217484Y-59415779D01*
X52219115Y-59414140D01*
X52273481Y-59347548D01*
X52384587Y-59212165D01*
X52385688Y-59210106D01*
X52387157Y-59208306D01*
X52469070Y-59054108D01*
X52551729Y-58899463D01*
X52552406Y-58897230D01*
X52553497Y-58895177D01*
X52603839Y-58727679D01*
X52611604Y-58702080D01*
X57150954Y-58702080D01*
X57150954Y-58808146D01*
X59289952Y-60947144D01*
X60721843Y-59515253D01*
X60721843Y-59409187D01*
X58796004Y-57481294D01*
X58750323Y-57443805D01*
X58698205Y-57415948D01*
X58641655Y-57398793D01*
X58582845Y-57393001D01*
X58524035Y-57398793D01*
X58467485Y-57415948D01*
X58415367Y-57443805D01*
X58369686Y-57481294D01*
X57150954Y-58702080D01*
X52611604Y-58702080D01*
X52654655Y-58560161D01*
X52654883Y-58557845D01*
X52655554Y-58555613D01*
X52672247Y-58381550D01*
X52680700Y-58295723D01*
X52680700Y-58293404D01*
X52689402Y-58202664D01*
X52680700Y-58116571D01*
X52680700Y-57739332D01*
X52682602Y-57679616D01*
X52680700Y-57650985D01*
X52680700Y-57622276D01*
X52674841Y-57562790D01*
X52584291Y-56199727D01*
X54836205Y-53947813D01*
X54873694Y-53902132D01*
X54901551Y-53850015D01*
X54918706Y-53793465D01*
X54924498Y-53734655D01*
X54918706Y-53675845D01*
X54901551Y-53619295D01*
X54873694Y-53567178D01*
X54836205Y-53521497D01*
X52926814Y-51612106D01*
X53041725Y-51497052D01*
X53096368Y-51454078D01*
X53166715Y-51371907D01*
X53180366Y-51358239D01*
X53224197Y-51304763D01*
X53326957Y-51184731D01*
X53336480Y-51167772D01*
X53348808Y-51152732D01*
X53423206Y-51013337D01*
X53457063Y-50953045D01*
X53464825Y-50935357D01*
X53515757Y-50839927D01*
X53535896Y-50773390D01*
X54400687Y-48802586D01*
X72000196Y-48802586D01*
X72000196Y-48908652D01*
X73926035Y-50836545D01*
X73971716Y-50874034D01*
X74023834Y-50901891D01*
X74080384Y-50919046D01*
X74139194Y-50924838D01*
X74198004Y-50919046D01*
X74254554Y-50901891D01*
X74306672Y-50874034D01*
X74352353Y-50836545D01*
X75571085Y-49615759D01*
X75571085Y-49509693D01*
X73432087Y-47370695D01*
X72000196Y-48802586D01*
X54400687Y-48802586D01*
X62737493Y-29803556D01*
X65918734Y-32984797D01*
X65907521Y-32998532D01*
X65891200Y-33016825D01*
X65879540Y-33032806D01*
X65838972Y-33082498D01*
X65827424Y-33104237D01*
X64435377Y-35012185D01*
X64320798Y-35127353D01*
X64309383Y-35136721D01*
X63868600Y-35577504D01*
X63845242Y-35599186D01*
X63840859Y-35605245D01*
X61480956Y-37965148D01*
X61443467Y-38010829D01*
X61415610Y-38062946D01*
X61398455Y-38119496D01*
X61392663Y-38178306D01*
X61398455Y-38237116D01*
X61415610Y-38293666D01*
X61443467Y-38345783D01*
X61480956Y-38391464D01*
X65315850Y-42226358D01*
X65337385Y-42249558D01*
X65343404Y-42253912D01*
X65710058Y-42620566D01*
X65925107Y-43653642D01*
X64126047Y-45319701D01*
X64037882Y-45419098D01*
X63948375Y-45572128D01*
X63890443Y-45739679D01*
X63874169Y-45858127D01*
X63828187Y-45926945D01*
X63775420Y-46054337D01*
X63748519Y-46189575D01*
X63748519Y-46327463D01*
X63775420Y-46462701D01*
X63828187Y-46590093D01*
X63904793Y-46704743D01*
X64002295Y-46802245D01*
X64116945Y-46878851D01*
X64244337Y-46931618D01*
X64379575Y-46958519D01*
X64517463Y-46958519D01*
X64652701Y-46931618D01*
X64780093Y-46878851D01*
X64825868Y-46848266D01*
X64912281Y-46843091D01*
X65083780Y-46798172D01*
X65243221Y-46720660D01*
X65349083Y-46640373D01*
X65629437Y-46380745D01*
X69595101Y-46380745D01*
X69600893Y-46439555D01*
X69618048Y-46496105D01*
X69645905Y-46548223D01*
X69683394Y-46593904D01*
X71611287Y-48519743D01*
X71717353Y-48519743D01*
X73149244Y-47087852D01*
X73714930Y-47087852D01*
X75853928Y-49226850D01*
X75959994Y-49226850D01*
X77100468Y-48088294D01*
X79385911Y-48088294D01*
X79387854Y-48129387D01*
X79389617Y-48170466D01*
X79389839Y-48171375D01*
X79389883Y-48172310D01*
X79399819Y-48212292D01*
X79409549Y-48252182D01*
X79409942Y-48253027D01*
X79410169Y-48253939D01*
X79427739Y-48291265D01*
X79445040Y-48328439D01*
X79445592Y-48329192D01*
X79445991Y-48330041D01*
X79470455Y-48363155D01*
X79494725Y-48396307D01*
X79495415Y-48396940D01*
X79495971Y-48397693D01*
X79526413Y-48425387D01*
X79556697Y-48453178D01*
X79557496Y-48453664D01*
X79558189Y-48454294D01*
X79593402Y-48475489D01*
X79628571Y-48496867D01*
X79629452Y-48497188D01*
X79630252Y-48497670D01*
X79668924Y-48511588D01*
X79687787Y-48518469D01*
X79688687Y-48518700D01*
X79709395Y-48526153D01*
X79729320Y-48529146D01*
X80854843Y-48818496D01*
X80875848Y-48826022D01*
X80916182Y-48832023D01*
X80956572Y-48838271D01*
X80957818Y-48838218D01*
X80959044Y-48838400D01*
X80999771Y-48836416D01*
X81040606Y-48834663D01*
X81041814Y-48834368D01*
X81043054Y-48834308D01*
X81082622Y-48824414D01*
X81122322Y-48814731D01*
X81123450Y-48814206D01*
X81124654Y-48813905D01*
X81161557Y-48796471D01*
X81198579Y-48779241D01*
X81199581Y-48778508D01*
X81200706Y-48777976D01*
X81233471Y-48753697D01*
X81266448Y-48729555D01*
X81267291Y-48728636D01*
X81268286Y-48727899D01*
X81295659Y-48697724D01*
X81323319Y-48667583D01*
X81323965Y-48666521D01*
X81324799Y-48665601D01*
X81345763Y-48630659D01*
X81367007Y-48595709D01*
X81367434Y-48594538D01*
X81368072Y-48593475D01*
X81381816Y-48555113D01*
X81395833Y-48516690D01*
X81399245Y-48494633D01*
X82235253Y-45163156D01*
X82242461Y-45142915D01*
X82248504Y-45101757D01*
X82254640Y-45060517D01*
X82254620Y-45060105D01*
X82254680Y-45059696D01*
X82252572Y-45018062D01*
X82250548Y-44976505D01*
X82250448Y-44976105D01*
X82250427Y-44975692D01*
X82240284Y-44935452D01*
X82230146Y-44894905D01*
X82229968Y-44894529D01*
X82229868Y-44894131D01*
X82212147Y-44856808D01*
X82194216Y-44818854D01*
X82193968Y-44818519D01*
X82193792Y-44818149D01*
X82168890Y-44784675D01*
X82144139Y-44751274D01*
X82143837Y-44751000D01*
X82143587Y-44750664D01*
X82112577Y-44722642D01*
X82081841Y-44694761D01*
X82081484Y-44694547D01*
X82081180Y-44694272D01*
X82045722Y-44673091D01*
X82009715Y-44651487D01*
X82009322Y-44651346D01*
X82008972Y-44651137D01*
X81969726Y-44637160D01*
X81930532Y-44623118D01*
X81909283Y-44619957D01*
X80786960Y-44340601D01*
X80767805Y-44333707D01*
X80756978Y-44332080D01*
X80746487Y-44328898D01*
X80715441Y-44325840D01*
X80684626Y-44321211D01*
X80683910Y-44321245D01*
X80683196Y-44321140D01*
X80651989Y-44322720D01*
X80641802Y-44322720D01*
X80631735Y-44323711D01*
X80600609Y-44325183D01*
X80599910Y-44325357D01*
X80599193Y-44325393D01*
X80589274Y-44327893D01*
X80579073Y-44328898D01*
X80549224Y-44337953D01*
X80518980Y-44345469D01*
X80518324Y-44345778D01*
X80517633Y-44345952D01*
X80508391Y-44350340D01*
X80498584Y-44353315D01*
X80471082Y-44368015D01*
X80442878Y-44381291D01*
X80442299Y-44381719D01*
X80441650Y-44382027D01*
X80433439Y-44388136D01*
X80424404Y-44392965D01*
X80400299Y-44412747D01*
X80375226Y-44431271D01*
X80374741Y-44431804D01*
X80374166Y-44432232D01*
X80367303Y-44439827D01*
X80359385Y-44446325D01*
X80339604Y-44470428D01*
X80318625Y-44493489D01*
X80318254Y-44494106D01*
X80317772Y-44494639D01*
X80312522Y-44503427D01*
X80306025Y-44511344D01*
X80291330Y-44538836D01*
X80275249Y-44565553D01*
X80275005Y-44566231D01*
X80274637Y-44566847D01*
X80271201Y-44576495D01*
X80266375Y-44585524D01*
X80257327Y-44615350D01*
X80253904Y-44624861D01*
X80253726Y-44625567D01*
X80246419Y-44646085D01*
X80244933Y-44656207D01*
X80241958Y-44666013D01*
X80240962Y-44676125D01*
X79405772Y-47984382D01*
X79398867Y-48003310D01*
X79395503Y-48025056D01*
X79395275Y-48025961D01*
X79392288Y-48045846D01*
X79386010Y-48086433D01*
X79386050Y-48087368D01*
X79385911Y-48088294D01*
X77100468Y-48088294D01*
X77180780Y-48008118D01*
X77218269Y-47962437D01*
X77246126Y-47910319D01*
X77263281Y-47853769D01*
X77269073Y-47794959D01*
X77263281Y-47736149D01*
X77246126Y-47679599D01*
X77218269Y-47627481D01*
X77180780Y-47581800D01*
X75252887Y-45655961D01*
X75146821Y-45655961D01*
X73714930Y-47087852D01*
X73149244Y-47087852D01*
X71010246Y-44948854D01*
X70904180Y-44948854D01*
X69683394Y-46167586D01*
X69645905Y-46213267D01*
X69618048Y-46265385D01*
X69600893Y-46321935D01*
X69595101Y-46380745D01*
X65629437Y-46380745D01*
X67504621Y-44644192D01*
X67555030Y-44602068D01*
X67588978Y-44559945D01*
X71293089Y-44559945D01*
X71293089Y-44666011D01*
X73432087Y-46805009D01*
X74863978Y-45373118D01*
X74863978Y-45267052D01*
X72938139Y-43339159D01*
X72892458Y-43301670D01*
X72840340Y-43273813D01*
X72783790Y-43256658D01*
X72724980Y-43250866D01*
X72666170Y-43256658D01*
X72609620Y-43273813D01*
X72557502Y-43301670D01*
X72511821Y-43339159D01*
X71293089Y-44559945D01*
X67588978Y-44559945D01*
X67597302Y-44549617D01*
X67642018Y-44499204D01*
X67652835Y-44480709D01*
X67666276Y-44464032D01*
X67697504Y-44404339D01*
X67731524Y-44346174D01*
X67738525Y-44325925D01*
X67748455Y-44306944D01*
X67767437Y-44242308D01*
X67789457Y-44178622D01*
X67792373Y-44157395D01*
X67798409Y-44136843D01*
X67804417Y-44069737D01*
X67813588Y-44002987D01*
X67812308Y-43981604D01*
X67814218Y-43960266D01*
X67807018Y-43893270D01*
X67802991Y-43826020D01*
X67786346Y-43762469D01*
X67427274Y-42037527D01*
X67423526Y-41998443D01*
X67409253Y-41950953D01*
X67408202Y-41945905D01*
X67396540Y-41908654D01*
X67372498Y-41828662D01*
X67370059Y-41824071D01*
X67368506Y-41819110D01*
X67328506Y-41745849D01*
X67289328Y-41672098D01*
X67286039Y-41668069D01*
X67283549Y-41663509D01*
X67230023Y-41599456D01*
X67209590Y-41574428D01*
X68978340Y-39805678D01*
X69015829Y-39759997D01*
X69043686Y-39707880D01*
X69060841Y-39651330D01*
X69066633Y-39592520D01*
X69060841Y-39533710D01*
X69043686Y-39477160D01*
X69015829Y-39425043D01*
X68978340Y-39379362D01*
X65795373Y-36196395D01*
X65806589Y-36182655D01*
X65822899Y-36164375D01*
X65834551Y-36148405D01*
X65875128Y-36098702D01*
X65886679Y-36076958D01*
X67278725Y-34169012D01*
X67393245Y-34053904D01*
X67404731Y-34044478D01*
X67823536Y-33625673D01*
X67850724Y-33601902D01*
X67862145Y-33587064D01*
X68818944Y-32630265D01*
X68856433Y-32584584D01*
X68884290Y-32532467D01*
X68901445Y-32475917D01*
X68907237Y-32417107D01*
X68901445Y-32358297D01*
X68884290Y-32301747D01*
X68856433Y-32249630D01*
X68818944Y-32203949D01*
X65089981Y-28474986D01*
X68588109Y-28474986D01*
X68588109Y-28581052D01*
X70513948Y-30508945D01*
X70559628Y-30546434D01*
X70611746Y-30574291D01*
X70668296Y-30591446D01*
X70727107Y-30597238D01*
X70785917Y-30591446D01*
X70842467Y-30574291D01*
X70894585Y-30546434D01*
X70940265Y-30508945D01*
X71451891Y-29995266D01*
X71451891Y-29889200D01*
X69312893Y-27750202D01*
X68588109Y-28474986D01*
X65089981Y-28474986D01*
X64576303Y-27961308D01*
X64575354Y-27960529D01*
X66270528Y-26265355D01*
X66271307Y-26266304D01*
X68199200Y-28192143D01*
X68305266Y-28192143D01*
X69030050Y-27467359D01*
X69595736Y-27467359D01*
X71734734Y-29606357D01*
X71840800Y-29606357D01*
X72354479Y-29094731D01*
X72391968Y-29049051D01*
X72419825Y-28996933D01*
X72436980Y-28940383D01*
X72442772Y-28881573D01*
X72436980Y-28822762D01*
X72419825Y-28766212D01*
X72391968Y-28714094D01*
X72354479Y-28668414D01*
X70540262Y-26856129D01*
X82038927Y-26856129D01*
X82098238Y-26944062D01*
X82318827Y-26988420D01*
X82377662Y-26993955D01*
X82436447Y-26987906D01*
X82492922Y-26970505D01*
X82544917Y-26942421D01*
X82590433Y-26904733D01*
X82627723Y-26858889D01*
X82655353Y-26806650D01*
X82672260Y-26750026D01*
X82952278Y-25301849D01*
X82892967Y-25213916D01*
X82377613Y-25113741D01*
X82038927Y-26856129D01*
X70540262Y-26856129D01*
X70426586Y-26742575D01*
X70320520Y-26742575D01*
X69595736Y-27467359D01*
X69030050Y-27467359D01*
X69015908Y-27453217D01*
X69298751Y-27170374D01*
X69312893Y-27184516D01*
X70037677Y-26459732D01*
X70037677Y-26353666D01*
X68324738Y-24638900D01*
X68416675Y-24638900D01*
X75958888Y-25611919D01*
X76224485Y-25619922D01*
X76574166Y-25561256D01*
X76905684Y-25435497D01*
X77016803Y-25365997D01*
X77259819Y-25230688D01*
X77220001Y-25435536D01*
X77209874Y-25543165D01*
X77220940Y-25650700D01*
X77252772Y-25754011D01*
X77304147Y-25849126D01*
X77373091Y-25932391D01*
X77456954Y-26000605D01*
X77552514Y-26051148D01*
X77656099Y-26082077D01*
X78146912Y-26177481D01*
X78254539Y-26187608D01*
X78362075Y-26176542D01*
X78465385Y-26144711D01*
X78560500Y-26093336D01*
X78643765Y-26024392D01*
X78711980Y-25940528D01*
X78720307Y-25924783D01*
X79173128Y-25924783D01*
X79184194Y-26032318D01*
X79216026Y-26135629D01*
X79267401Y-26230744D01*
X79336345Y-26314009D01*
X79420208Y-26382223D01*
X79515768Y-26432766D01*
X79619353Y-26463695D01*
X80110166Y-26559099D01*
X80217793Y-26569226D01*
X80325329Y-26558160D01*
X80428639Y-26526329D01*
X80471807Y-26503012D01*
X81093270Y-26503012D01*
X81099320Y-26561797D01*
X81116720Y-26618272D01*
X81144804Y-26670267D01*
X81182493Y-26715784D01*
X81228337Y-26753073D01*
X81280576Y-26780703D01*
X81337200Y-26797611D01*
X81558343Y-26839117D01*
X81646276Y-26779806D01*
X81984962Y-25037418D01*
X81469607Y-24937243D01*
X81381675Y-24996554D01*
X81098806Y-26444177D01*
X81093270Y-26503012D01*
X80471807Y-26503012D01*
X80523754Y-26474954D01*
X80607019Y-26406010D01*
X80675234Y-26322146D01*
X80725777Y-26226586D01*
X80756706Y-26123002D01*
X81029209Y-24721090D01*
X82453936Y-24721090D01*
X82969291Y-24821265D01*
X83057223Y-24761954D01*
X83340092Y-23314331D01*
X83345628Y-23255496D01*
X83339578Y-23196711D01*
X83322178Y-23140236D01*
X83294094Y-23088241D01*
X83256405Y-23042724D01*
X83210561Y-23005435D01*
X83158322Y-22977805D01*
X83101698Y-22960897D01*
X82880555Y-22919391D01*
X82792622Y-22978702D01*
X82453936Y-24721090D01*
X81029209Y-24721090D01*
X81313576Y-23258152D01*
X81431956Y-23281700D01*
X81569844Y-23281700D01*
X81705082Y-23254799D01*
X81720223Y-23248527D01*
X81486620Y-24456659D01*
X81545931Y-24544592D01*
X82061285Y-24644767D01*
X82399971Y-22902379D01*
X82340660Y-22814446D01*
X82174946Y-22781123D01*
X82200900Y-22650644D01*
X82200900Y-22512756D01*
X82173999Y-22377518D01*
X82121232Y-22250126D01*
X82044626Y-22135476D01*
X81947124Y-22037974D01*
X81832474Y-21961368D01*
X81705082Y-21908601D01*
X81569844Y-21881700D01*
X81431956Y-21881700D01*
X81296718Y-21908601D01*
X81169326Y-21961368D01*
X81054676Y-22037974D01*
X80957174Y-22135476D01*
X80880568Y-22250126D01*
X80827801Y-22377518D01*
X80800900Y-22512756D01*
X80800900Y-22513670D01*
X80402222Y-22436175D01*
X80294595Y-22426048D01*
X80187059Y-22437114D01*
X80083749Y-22468945D01*
X79988634Y-22520320D01*
X79905369Y-22589264D01*
X79837154Y-22673128D01*
X79786611Y-22768688D01*
X79755682Y-22872272D01*
X79183255Y-25817154D01*
X79173128Y-25924783D01*
X78720307Y-25924783D01*
X78762523Y-25844968D01*
X78793452Y-25741384D01*
X79365879Y-22796502D01*
X79376006Y-22688873D01*
X79364940Y-22581338D01*
X79333108Y-22478027D01*
X79281733Y-22382912D01*
X79212789Y-22299647D01*
X79128926Y-22231433D01*
X79033366Y-22180890D01*
X78929781Y-22149961D01*
X78438968Y-22054557D01*
X78331341Y-22044430D01*
X78223805Y-22055496D01*
X78120495Y-22087327D01*
X78025380Y-22138702D01*
X77942115Y-22207646D01*
X77873900Y-22291510D01*
X77823357Y-22387070D01*
X77792428Y-22490654D01*
X77705645Y-22937113D01*
X77570355Y-22769403D01*
X77533578Y-22710603D01*
X77290526Y-22452446D01*
X77001780Y-22246668D01*
X76678437Y-22101175D01*
X76419505Y-22041509D01*
X73083208Y-21611094D01*
X85452442Y-21611094D01*
X85511753Y-21699027D01*
X85977749Y-21791086D01*
X86036584Y-21796622D01*
X86095369Y-21790573D01*
X86151844Y-21773172D01*
X86203839Y-21745088D01*
X86249356Y-21707400D01*
X86286645Y-21661556D01*
X86314276Y-21609317D01*
X86331183Y-21552693D01*
X86601660Y-20153597D01*
X86542349Y-20065664D01*
X85781588Y-19917787D01*
X85452442Y-21611094D01*
X73083208Y-21611094D01*
X69976311Y-21210274D01*
X84261379Y-21210274D01*
X84267428Y-21269060D01*
X84284829Y-21325535D01*
X84312913Y-21377529D01*
X84350601Y-21423046D01*
X84396446Y-21460336D01*
X84448684Y-21487966D01*
X84505309Y-21504873D01*
X84971859Y-21594082D01*
X85059791Y-21534771D01*
X85388937Y-19841464D01*
X84628176Y-19693587D01*
X84540243Y-19752898D01*
X84266915Y-21151440D01*
X84261379Y-21210274D01*
X69976311Y-21210274D01*
X68911321Y-21072880D01*
X68885162Y-21064945D01*
X68735727Y-21050227D01*
X68674911Y-21042381D01*
X68647761Y-21041563D01*
X68620724Y-21038900D01*
X68559387Y-21038900D01*
X68409315Y-21034378D01*
X68382361Y-21038900D01*
X67353512Y-21038900D01*
X67265091Y-21030192D01*
X67176681Y-21038900D01*
X67176676Y-21038900D01*
X66912238Y-21064945D01*
X66572937Y-21167871D01*
X66494565Y-21209761D01*
X66463865Y-21222478D01*
X66378837Y-21248271D01*
X66066135Y-21415414D01*
X66066131Y-21415418D01*
X66066128Y-21415419D01*
X66056835Y-21423046D01*
X65860733Y-21583983D01*
X65860724Y-21583992D01*
X65792044Y-21640357D01*
X65735685Y-21709031D01*
X60911038Y-26533679D01*
X60911033Y-26533683D01*
X60032317Y-27412399D01*
X59977231Y-27455722D01*
X59907242Y-27537475D01*
X59893983Y-27550734D01*
X59849785Y-27604590D01*
X59746642Y-27725069D01*
X59737392Y-27741541D01*
X59725414Y-27756136D01*
X59650689Y-27895936D01*
X59616536Y-27956754D01*
X59608993Y-27973944D01*
X59558271Y-28068838D01*
X59537931Y-28135889D01*
X50331838Y-49115976D01*
X50177846Y-49270158D01*
X50167248Y-49278856D01*
X49088638Y-50357466D01*
X49013837Y-50428309D01*
X49004230Y-50441874D01*
X47338821Y-52107283D01*
X47301332Y-52152964D01*
X47273475Y-52205081D01*
X47256320Y-52261631D01*
X47250528Y-52320441D01*
X47256320Y-52379251D01*
X47273475Y-52435801D01*
X47301332Y-52487918D01*
X47338821Y-52533599D01*
X49262859Y-54457637D01*
X49230114Y-54497536D01*
X49201783Y-54550540D01*
X49166813Y-54599431D01*
X49118385Y-54706565D01*
X49062971Y-54810238D01*
X49045524Y-54867753D01*
X49020766Y-54922524D01*
X48994171Y-55037040D01*
X48960045Y-55149539D01*
X48954154Y-55209353D01*
X48940557Y-55267901D01*
X48936814Y-55385410D01*
X48925292Y-55502400D01*
X48939858Y-55650291D01*
X49061098Y-57475339D01*
X49042895Y-57489350D01*
X48965873Y-57577444D01*
X48945983Y-57597334D01*
X48907733Y-57643941D01*
X48867996Y-57689391D01*
X48851624Y-57712310D01*
X48777414Y-57802736D01*
X48748822Y-57856228D01*
X47576755Y-59497056D01*
X45935933Y-60669119D01*
X45882436Y-60697714D01*
X45792001Y-60771932D01*
X45769091Y-60788297D01*
X45723664Y-60828015D01*
X45677034Y-60866283D01*
X45657132Y-60886185D01*
X45569051Y-60963196D01*
X45532049Y-61011268D01*
X45191972Y-61351345D01*
X45105849Y-61437028D01*
X25982412Y-75810858D01*
X25786677Y-75990562D01*
X25577290Y-76276702D01*
X25427750Y-76598193D01*
X25357752Y-76885442D01*
X24923990Y-77202637D01*
X24780933Y-77330552D01*
X24627005Y-77535203D01*
X24515962Y-77765953D01*
X24489023Y-77870504D01*
X23889736Y-78120474D01*
X22490654Y-78392428D01*
X22387070Y-78423357D01*
X22291510Y-78473900D01*
X22207647Y-78542114D01*
X22170875Y-78586525D01*
X22091124Y-78506774D01*
X21976474Y-78430168D01*
X21849082Y-78377401D01*
X21713844Y-78350500D01*
X21575956Y-78350500D01*
X21440718Y-78377401D01*
X21313326Y-78430168D01*
X21198676Y-78506774D01*
X21101174Y-78604276D01*
X21024568Y-78718926D01*
X20971801Y-78846318D01*
X20944900Y-78981556D01*
X16853022Y-78981556D01*
X17953664Y-78766449D01*
X18012975Y-78678516D01*
X17865098Y-77917755D01*
X16171791Y-78246901D01*
X16112480Y-78334833D01*
X15817472Y-78334833D01*
X15608595Y-77270108D01*
X15909940Y-77270108D01*
X15915476Y-77328943D01*
X16007535Y-77794939D01*
X16095468Y-77854250D01*
X16161410Y-77841432D01*
X18257749Y-77841432D01*
X18405626Y-78602193D01*
X18493559Y-78661504D01*
X19892655Y-78391027D01*
X19949279Y-78374120D01*
X20001518Y-78346489D01*
X20047362Y-78309200D01*
X20085050Y-78263683D01*
X20113134Y-78211688D01*
X20130535Y-78155213D01*
X20136584Y-78096428D01*
X20131048Y-78037593D01*
X20038989Y-77571597D01*
X19951056Y-77512286D01*
X18257749Y-77841432D01*
X16161410Y-77841432D01*
X17788775Y-77525104D01*
X17640898Y-76764343D01*
X17552965Y-76705032D01*
X16153869Y-76975509D01*
X16097245Y-76992416D01*
X16045006Y-77020047D01*
X15999162Y-77057336D01*
X15961474Y-77102853D01*
X15933390Y-77154848D01*
X15915989Y-77211323D01*
X15909940Y-77270108D01*
X15608595Y-77270108D01*
X15494402Y-76688020D01*
X18033549Y-76688020D01*
X18181426Y-77448781D01*
X19874733Y-77119635D01*
X19934044Y-77031703D01*
X19844835Y-76565153D01*
X19827928Y-76508528D01*
X19800298Y-76456290D01*
X19763008Y-76410445D01*
X19717491Y-76372757D01*
X19665497Y-76344673D01*
X19609022Y-76327272D01*
X19550236Y-76321223D01*
X19491402Y-76326759D01*
X18092860Y-76600087D01*
X18033549Y-76688020D01*
X15494402Y-76688020D01*
X14910819Y-73713273D01*
X17195115Y-73270465D01*
X17215695Y-73268579D01*
X17236290Y-73262484D01*
X17236695Y-73262405D01*
X17256826Y-73256405D01*
X17296348Y-73244708D01*
X17296705Y-73244520D01*
X17297102Y-73244402D01*
X17334398Y-73224700D01*
X17370794Y-73205561D01*
X17371108Y-73205307D01*
X17371473Y-73205114D01*
X17403990Y-73178692D01*
X17436173Y-73152643D01*
X17436434Y-73152330D01*
X17436752Y-73152071D01*
X17463470Y-73119837D01*
X17489972Y-73087986D01*
X17490166Y-73087629D01*
X17490428Y-73087313D01*
X17510319Y-73050532D01*
X17530123Y-73014077D01*
X17530244Y-73013688D01*
X17530439Y-73013327D01*
X17542788Y-72973321D01*
X17555084Y-72933754D01*
X17555126Y-72933351D01*
X17555248Y-72932957D01*
X17559558Y-72891283D01*
X17563896Y-72850106D01*
X17563859Y-72849701D01*
X17563901Y-72849293D01*
X17560040Y-72808039D01*
X17558143Y-72787336D01*
X17558065Y-72786930D01*
X17556064Y-72765546D01*
X17550162Y-72745741D01*
X17293904Y-71410251D01*
X17291900Y-71388843D01*
X17279953Y-71348766D01*
X17268188Y-71309012D01*
X17267992Y-71308640D01*
X17267872Y-71308236D01*
X17248476Y-71271526D01*
X17229041Y-71234566D01*
X17228774Y-71234236D01*
X17228579Y-71233867D01*
X17202285Y-71201510D01*
X17176122Y-71169187D01*
X17175802Y-71168921D01*
X17175534Y-71168591D01*
X17143413Y-71141970D01*
X17111466Y-71115388D01*
X17111094Y-71115186D01*
X17110772Y-71114919D01*
X17074147Y-71095115D01*
X17037556Y-71075237D01*
X17037156Y-71075113D01*
X17036785Y-71074912D01*
X16997003Y-71062635D01*
X16957234Y-71050276D01*
X16956814Y-71050232D01*
X16956413Y-71050108D01*
X16915003Y-71045827D01*
X16873585Y-71041464D01*
X16873167Y-71041502D01*
X16872748Y-71041459D01*
X16831088Y-71045360D01*
X16789826Y-71049142D01*
X16769219Y-71055241D01*
X16291200Y-71147932D01*
X15202493Y-65565275D01*
X15669566Y-65475001D01*
X15691401Y-65472882D01*
X15730917Y-65460957D01*
X15770343Y-65449230D01*
X15771102Y-65448830D01*
X15771926Y-65448581D01*
X15808401Y-65429152D01*
X15844736Y-65409983D01*
X15845401Y-65409444D01*
X15846162Y-65409038D01*
X15878164Y-65382852D01*
X15910044Y-65356976D01*
X15910591Y-65356317D01*
X15911258Y-65355771D01*
X15937469Y-65323927D01*
X15963756Y-65292248D01*
X15964166Y-65291492D01*
X15964711Y-65290829D01*
X15984149Y-65254589D01*
X16003808Y-65218285D01*
X16004063Y-65217462D01*
X16004468Y-65216706D01*
X16016453Y-65177399D01*
X16028661Y-65137929D01*
X16028750Y-65137071D01*
X16029000Y-65136252D01*
X16033092Y-65095311D01*
X16037360Y-65054269D01*
X16037280Y-65053414D01*
X16037366Y-65052558D01*
X16033398Y-65011675D01*
X16029570Y-64970519D01*
X16023315Y-64949487D01*
X15759581Y-63613564D01*
X15757626Y-63592998D01*
X15751453Y-63572393D01*
X15751371Y-63571979D01*
X15745474Y-63552436D01*
X15733486Y-63512424D01*
X15733285Y-63512045D01*
X15733161Y-63511634D01*
X15713676Y-63475055D01*
X15694091Y-63438110D01*
X15693818Y-63437774D01*
X15693617Y-63437398D01*
X15667341Y-63405286D01*
X15640954Y-63372908D01*
X15640623Y-63372635D01*
X15640351Y-63372302D01*
X15608221Y-63345857D01*
X15576118Y-63319325D01*
X15575739Y-63319121D01*
X15575409Y-63318849D01*
X15538799Y-63299213D01*
X15502075Y-63279421D01*
X15501664Y-63279295D01*
X15501286Y-63279092D01*
X15461435Y-63266941D01*
X15421669Y-63254729D01*
X15421243Y-63254686D01*
X15420831Y-63254560D01*
X15379392Y-63250418D01*
X15337992Y-63246196D01*
X15337564Y-63246237D01*
X15337137Y-63246194D01*
X15295675Y-63250218D01*
X15275242Y-63252160D01*
X15274825Y-63252242D01*
X15253419Y-63254319D01*
X15233648Y-63260285D01*
X10212442Y-64241172D01*
X8578258Y-55906377D01*
X10864533Y-55454662D01*
X10885230Y-55452678D01*
X10905682Y-55446532D01*
X10905965Y-55446476D01*
X10926461Y-55440288D01*
X10965783Y-55428471D01*
X10966026Y-55428342D01*
X10966307Y-55428257D01*
X11004164Y-55408084D01*
X11040065Y-55389014D01*
X11040280Y-55388838D01*
X11040536Y-55388702D01*
X11073268Y-55361909D01*
X11105223Y-55335824D01*
X11105403Y-55335606D01*
X11105624Y-55335425D01*
X11132319Y-55302982D01*
X11158752Y-55270944D01*
X11158886Y-55270695D01*
X11159067Y-55270475D01*
X11178936Y-55233418D01*
X11198595Y-55196868D01*
X11198677Y-55196599D01*
X11198813Y-55196346D01*
X11211024Y-55156275D01*
X11223221Y-55116441D01*
X11223250Y-55116157D01*
X11223332Y-55115887D01*
X11227465Y-55074478D01*
X11231684Y-55032757D01*
X11231657Y-55032474D01*
X11231685Y-55032192D01*
X11227661Y-54990787D01*
X11225669Y-54970012D01*
X11225614Y-54969732D01*
X11223548Y-54948475D01*
X11217538Y-54928570D01*
X10815391Y-52878948D01*
X26868361Y-52878948D01*
X26868361Y-52985014D01*
X27379987Y-53498693D01*
X27425667Y-53536182D01*
X27477785Y-53564039D01*
X27534335Y-53581194D01*
X27593145Y-53586986D01*
X27651956Y-53581194D01*
X27708506Y-53564039D01*
X27760624Y-53536182D01*
X27806304Y-53498693D01*
X29732143Y-51570800D01*
X29732143Y-51464734D01*
X29007359Y-50739950D01*
X26868361Y-52878948D01*
X10815391Y-52878948D01*
X10617688Y-51871321D01*
X25877480Y-51871321D01*
X25883272Y-51930131D01*
X25900427Y-51986681D01*
X25928284Y-52038799D01*
X25965773Y-52084479D01*
X26479452Y-52596105D01*
X26585518Y-52596105D01*
X28724516Y-50457107D01*
X29290202Y-50457107D01*
X30014986Y-51181891D01*
X30121052Y-51181891D01*
X32048945Y-49256052D01*
X32086434Y-49210372D01*
X32114291Y-49158254D01*
X32131446Y-49101704D01*
X32137238Y-49042893D01*
X32131446Y-48984083D01*
X32114291Y-48927533D01*
X32086434Y-48875415D01*
X32048945Y-48829735D01*
X31535266Y-48318109D01*
X31429200Y-48318109D01*
X29290202Y-50457107D01*
X28724516Y-50457107D01*
X27999732Y-49732323D01*
X27893666Y-49732323D01*
X25965773Y-51658162D01*
X25928284Y-51703842D01*
X25900427Y-51755960D01*
X25883272Y-51812510D01*
X25877480Y-51871321D01*
X10617688Y-51871321D01*
X10121698Y-49343414D01*
X28282575Y-49343414D01*
X28282575Y-49449480D01*
X29007359Y-50174264D01*
X31146357Y-48035266D01*
X31146357Y-47929200D01*
X30634731Y-47415521D01*
X30589051Y-47378032D01*
X30536933Y-47350175D01*
X30480383Y-47333020D01*
X30421573Y-47327228D01*
X30362762Y-47333020D01*
X30306212Y-47350175D01*
X30254094Y-47378032D01*
X30208414Y-47415521D01*
X28282575Y-49343414D01*
X10121698Y-49343414D01*
X8965631Y-43451312D01*
X11158414Y-43451312D01*
X11158528Y-43452485D01*
X11158418Y-43453656D01*
X11162598Y-43494271D01*
X11164524Y-43514047D01*
X11164752Y-43515198D01*
X11167029Y-43537326D01*
X11172890Y-43556349D01*
X11888306Y-47173591D01*
X11890231Y-47193962D01*
X11896444Y-47214738D01*
X11896564Y-47215346D01*
X11902547Y-47235149D01*
X11914329Y-47274548D01*
X11914614Y-47275087D01*
X11914795Y-47275685D01*
X11934518Y-47312681D01*
X11953686Y-47348883D01*
X11954072Y-47349357D01*
X11954365Y-47349907D01*
X11980810Y-47382202D01*
X12006788Y-47414113D01*
X12007262Y-47414505D01*
X12007654Y-47414984D01*
X12039877Y-47441488D01*
X12071596Y-47467729D01*
X12072134Y-47468019D01*
X12072615Y-47468415D01*
X12109515Y-47488190D01*
X12145618Y-47507672D01*
X12146202Y-47507852D01*
X12146751Y-47508146D01*
X12186822Y-47520349D01*
X12226011Y-47532406D01*
X12226618Y-47532468D01*
X12227215Y-47532650D01*
X12268669Y-47536779D01*
X12309684Y-47540983D01*
X12310299Y-47540925D01*
X12310912Y-47540986D01*
X12352325Y-47536953D01*
X12372436Y-47535052D01*
X12373030Y-47534936D01*
X12394627Y-47532833D01*
X12414225Y-47526911D01*
X13546411Y-47306356D01*
X13567886Y-47304276D01*
X13607572Y-47292307D01*
X13647488Y-47280371D01*
X13647933Y-47280135D01*
X13648415Y-47279990D01*
X13685185Y-47260412D01*
X13721823Y-47241014D01*
X13722211Y-47240698D01*
X13722658Y-47240460D01*
X13754898Y-47214089D01*
X13787053Y-47187912D01*
X13787374Y-47187524D01*
X13787764Y-47187205D01*
X13814159Y-47155148D01*
X13840669Y-47123104D01*
X13840909Y-47122660D01*
X13841228Y-47122272D01*
X13860789Y-47085819D01*
X13880612Y-47049083D01*
X13880761Y-47048599D01*
X13880998Y-47048157D01*
X13893053Y-47008647D01*
X13905347Y-46968690D01*
X13905399Y-46968185D01*
X13905545Y-46967706D01*
X13909658Y-46926633D01*
X13913923Y-46885017D01*
X13913875Y-46884511D01*
X13913925Y-46884014D01*
X13909942Y-46842890D01*
X13906009Y-46801278D01*
X13899826Y-46780600D01*
X13183882Y-43150640D01*
X13181782Y-43129313D01*
X13181507Y-43128406D01*
X13181411Y-43127474D01*
X13169411Y-43088530D01*
X13157630Y-43049465D01*
X13157466Y-43049157D01*
X13157365Y-43048824D01*
X13156921Y-43047993D01*
X13156643Y-43047091D01*
X13137292Y-43011267D01*
X13118100Y-42975222D01*
X13117881Y-42974954D01*
X13117715Y-42974644D01*
X13117112Y-42973910D01*
X13116668Y-42973087D01*
X13090714Y-42941741D01*
X13064845Y-42910116D01*
X13064577Y-42909895D01*
X13064355Y-42909625D01*
X13063626Y-42909026D01*
X13063025Y-42908301D01*
X13031385Y-42882566D01*
X12999912Y-42856652D01*
X12999610Y-42856490D01*
X12999336Y-42856265D01*
X12998499Y-42855818D01*
X12997773Y-42855227D01*
X12961720Y-42836158D01*
X12925797Y-42816882D01*
X12925467Y-42816781D01*
X12925156Y-42816615D01*
X12924251Y-42816340D01*
X12923420Y-42815901D01*
X12884327Y-42804229D01*
X12845346Y-42792335D01*
X12845007Y-42792301D01*
X12844667Y-42792198D01*
X12843721Y-42792105D01*
X12842824Y-42791837D01*
X12802191Y-42788014D01*
X12761654Y-42783955D01*
X12760371Y-42784079D01*
X12759083Y-42783958D01*
X12718475Y-42788137D01*
X12677934Y-42792064D01*
X12677604Y-42792163D01*
X12677253Y-42792198D01*
X12656180Y-42798591D01*
X11524047Y-43028938D01*
X11504233Y-43030868D01*
X11482938Y-43037302D01*
X11481789Y-43037536D01*
X11462828Y-43043378D01*
X11423716Y-43055196D01*
X11422676Y-43055750D01*
X11421551Y-43056097D01*
X11385528Y-43075555D01*
X11349494Y-43094766D01*
X11348585Y-43095510D01*
X11347547Y-43096071D01*
X11316000Y-43122193D01*
X11284416Y-43148055D01*
X11283669Y-43148963D01*
X11282761Y-43149715D01*
X11256938Y-43181463D01*
X11230986Y-43213016D01*
X11230430Y-43214054D01*
X11229687Y-43214967D01*
X11210569Y-43251113D01*
X11191255Y-43287152D01*
X11190912Y-43288278D01*
X11190361Y-43289320D01*
X11178646Y-43328556D01*
X11166751Y-43367616D01*
X11166634Y-43368786D01*
X11166297Y-43369916D01*
X11162465Y-43410646D01*
X11158414Y-43451312D01*
X8965631Y-43451312D01*
X7704554Y-37024006D01*
X9989976Y-36572460D01*
X10009859Y-36570630D01*
X10031112Y-36564332D01*
X10032205Y-36564116D01*
X10051500Y-36558290D01*
X10090504Y-36546732D01*
X10091476Y-36546220D01*
X10092547Y-36545897D01*
X10128945Y-36526501D01*
X10164936Y-36507560D01*
X10165793Y-36506866D01*
X10166776Y-36506342D01*
X10198547Y-36480336D01*
X10230298Y-36454619D01*
X10231007Y-36453767D01*
X10231864Y-36453065D01*
X10257924Y-36421394D01*
X10284074Y-36389944D01*
X10284601Y-36388973D01*
X10285307Y-36388115D01*
X10304719Y-36351910D01*
X10324200Y-36316021D01*
X10324527Y-36314966D01*
X10325053Y-36313986D01*
X10336988Y-36274820D01*
X10349134Y-36235690D01*
X10349250Y-36234583D01*
X10349572Y-36233527D01*
X10353626Y-36192905D01*
X10357917Y-36152038D01*
X10357815Y-36150932D01*
X10357925Y-36149832D01*
X10353974Y-36109180D01*
X10352142Y-36089271D01*
X10351933Y-36088184D01*
X10349788Y-36066115D01*
X10344015Y-36046996D01*
X10087637Y-34713334D01*
X10085343Y-34690542D01*
X10073594Y-34652105D01*
X10062153Y-34613496D01*
X10061294Y-34611863D01*
X10060756Y-34610104D01*
X10041724Y-34574679D01*
X10022980Y-34539063D01*
X10021821Y-34537632D01*
X10020949Y-34536009D01*
X9995362Y-34504965D01*
X9970039Y-34473702D01*
X9968622Y-34472524D01*
X9967451Y-34471103D01*
X9936270Y-34445624D01*
X9905364Y-34419926D01*
X9903748Y-34419049D01*
X9902319Y-34417881D01*
X9866721Y-34398950D01*
X9831441Y-34379800D01*
X9829686Y-34379255D01*
X9828055Y-34378388D01*
X9789516Y-34366787D01*
X9751110Y-34354866D01*
X9749275Y-34354673D01*
X9747513Y-34354143D01*
X9707500Y-34350287D01*
X9667459Y-34346083D01*
X9665624Y-34346252D01*
X9663790Y-34346075D01*
X9623733Y-34350106D01*
X9583701Y-34353789D01*
X9561738Y-34360297D01*
X9091759Y-34454819D01*
X7996185Y-28873139D01*
X8468678Y-28776793D01*
X8488708Y-28774813D01*
X8509798Y-28768408D01*
X8510729Y-28768218D01*
X8529791Y-28762336D01*
X8569190Y-28750370D01*
X8570039Y-28749916D01*
X8570959Y-28749632D01*
X8607124Y-28730077D01*
X8643355Y-28710695D01*
X8644099Y-28710084D01*
X8644946Y-28709626D01*
X8676534Y-28683447D01*
X8708357Y-28657313D01*
X8708970Y-28656566D01*
X8709708Y-28655954D01*
X8735563Y-28624139D01*
X8761694Y-28592276D01*
X8762148Y-28591426D01*
X8762755Y-28590679D01*
X8781970Y-28554313D01*
X8801320Y-28518083D01*
X8801599Y-28517163D01*
X8802049Y-28516311D01*
X8813805Y-28476875D01*
X8825709Y-28437584D01*
X8825803Y-28436627D01*
X8826078Y-28435704D01*
X8829910Y-28394789D01*
X8833926Y-28353876D01*
X8833831Y-28352918D01*
X8833921Y-28351960D01*
X8829695Y-28311070D01*
X8827726Y-28291149D01*
X8827539Y-28290212D01*
X8825274Y-28268293D01*
X8819340Y-28249063D01*
X8553485Y-26914864D01*
X8551490Y-26894287D01*
X8545286Y-26873720D01*
X8545207Y-26873323D01*
X8539204Y-26853557D01*
X8527199Y-26813758D01*
X8527009Y-26813400D01*
X8526890Y-26813010D01*
X8507190Y-26776186D01*
X8487663Y-26739518D01*
X8487406Y-26739204D01*
X8487214Y-26738845D01*
X8460611Y-26706450D01*
X8434404Y-26674416D01*
X8434094Y-26674161D01*
X8433833Y-26673843D01*
X8401495Y-26647323D01*
X8369468Y-26620956D01*
X8369109Y-26620763D01*
X8368795Y-26620506D01*
X8331984Y-26600846D01*
X8295350Y-26581191D01*
X8294964Y-26581073D01*
X8294602Y-26580880D01*
X8254443Y-26568713D01*
X8214898Y-26556650D01*
X8214496Y-26556610D01*
X8214104Y-26556491D01*
X8172332Y-26552390D01*
X8131205Y-26548275D01*
X8130804Y-26548314D01*
X8130397Y-26548274D01*
X8088867Y-26552379D01*
X8068466Y-26554356D01*
X8068070Y-26554434D01*
X8046692Y-26556547D01*
X8026909Y-26562555D01*
X3008735Y-27552646D01*
X1372390Y-19218595D01*
X3658525Y-18766908D01*
X3679194Y-18764929D01*
X3699675Y-18758777D01*
X3699985Y-18758716D01*
X3720308Y-18752580D01*
X3759750Y-18740733D01*
X3760020Y-18740590D01*
X3760327Y-18740497D01*
X3797827Y-18720514D01*
X3834038Y-18701286D01*
X3834278Y-18701090D01*
X3834556Y-18700942D01*
X3867028Y-18674362D01*
X3899203Y-18648104D01*
X3899401Y-18647864D01*
X3899644Y-18647665D01*
X3926345Y-18615215D01*
X3952740Y-18583231D01*
X3952887Y-18582959D01*
X3953087Y-18582715D01*
X3973037Y-18545506D01*
X3992593Y-18509160D01*
X3992683Y-18508865D01*
X3992833Y-18508586D01*
X4005025Y-18468578D01*
X4017230Y-18428737D01*
X4017262Y-18428423D01*
X4017352Y-18428127D01*
X4021468Y-18386881D01*
X4025704Y-18345054D01*
X4025674Y-18344742D01*
X4025705Y-18344432D01*
X4021718Y-18303409D01*
X4019698Y-18282309D01*
X4019636Y-18281994D01*
X4017568Y-18260715D01*
X4011568Y-18240844D01*
X3552165Y-15897755D01*
X26009789Y-15897755D01*
X26027872Y-16074115D01*
X26080013Y-16243558D01*
X26164210Y-16399573D01*
X26277226Y-16536164D01*
X26414718Y-16648083D01*
X26571402Y-16731028D01*
X26741258Y-16781811D01*
X26917755Y-16798481D01*
X27094115Y-16780398D01*
X27263558Y-16728257D01*
X27419573Y-16644060D01*
X27556164Y-16531044D01*
X27668083Y-16393552D01*
X27730245Y-16276127D01*
X27752522Y-16221731D01*
X28084333Y-16553542D01*
X28108099Y-16580724D01*
X28122933Y-16592142D01*
X28622358Y-17091567D01*
X28633776Y-17106401D01*
X28660958Y-17130167D01*
X29072425Y-17541634D01*
X29633755Y-20017338D01*
X29640052Y-20048972D01*
X29643514Y-20060378D01*
X29646154Y-20072023D01*
X29656349Y-20102671D01*
X35078649Y-37968811D01*
X34995041Y-38756364D01*
X34995039Y-38756372D01*
X34893309Y-39714635D01*
X34893308Y-39714641D01*
X33695262Y-50999743D01*
X33352797Y-51342208D01*
X33337897Y-51353677D01*
X33314031Y-51380974D01*
X29501308Y-55193697D01*
X29463819Y-55239378D01*
X29435962Y-55291495D01*
X29418807Y-55348045D01*
X29413015Y-55406855D01*
X29418807Y-55465665D01*
X29435962Y-55522215D01*
X29463819Y-55574332D01*
X29501308Y-55620013D01*
X30915521Y-57034226D01*
X30961202Y-57071715D01*
X31013319Y-57099572D01*
X31069869Y-57116727D01*
X31128679Y-57122519D01*
X31187489Y-57116727D01*
X31244039Y-57099572D01*
X31296156Y-57071715D01*
X31341837Y-57034226D01*
X33242985Y-55133078D01*
X34202482Y-56092575D01*
X34230849Y-56120974D01*
X34231028Y-56121121D01*
X34231212Y-56121305D01*
X34231218Y-56121310D01*
X34906963Y-56797055D01*
X35009668Y-56881343D01*
X35166018Y-56964913D01*
X35311858Y-57009154D01*
X36599311Y-58066952D01*
X36709742Y-58140829D01*
X36873493Y-58208764D01*
X37047351Y-58243449D01*
X37224636Y-58243549D01*
X37398533Y-58209060D01*
X37562361Y-58141308D01*
X37709822Y-58042898D01*
X37835252Y-57917609D01*
X37933829Y-57770257D01*
X38001765Y-57606507D01*
X38036449Y-57432648D01*
X38036549Y-57255364D01*
X38002060Y-57081466D01*
X37934308Y-56917639D01*
X37835898Y-56770177D01*
X37742002Y-56676175D01*
X35441667Y-54786175D01*
X34515778Y-53860285D01*
X35584478Y-52791585D01*
X35621967Y-52745904D01*
X35649824Y-52693787D01*
X35666979Y-52637237D01*
X35672771Y-52578427D01*
X35666979Y-52519617D01*
X35649824Y-52463067D01*
X35621967Y-52410950D01*
X35584478Y-52365269D01*
X35230803Y-52011594D01*
X35251200Y-51991505D01*
X35278735Y-51950965D01*
X35309728Y-51913002D01*
X35328422Y-51877811D01*
X35350809Y-51844851D01*
X35369906Y-51799720D01*
X35392898Y-51756438D01*
X35404367Y-51718278D01*
X35419895Y-51681581D01*
X35429820Y-51633592D01*
X35443926Y-51586657D01*
X35451953Y-51502958D01*
X36673915Y-39992589D01*
X36673916Y-39992583D01*
X36784980Y-38946395D01*
X36784980Y-38946392D01*
X36883571Y-38017707D01*
X36892911Y-37970719D01*
X36892899Y-37885524D01*
X36893546Y-37800392D01*
X36892887Y-37796945D01*
X36892887Y-37793435D01*
X36876246Y-37709833D01*
X36860280Y-37626258D01*
X36842289Y-37581872D01*
X31647306Y-20464734D01*
X32103643Y-20464734D01*
X32103643Y-20570800D01*
X32615269Y-21084479D01*
X32660949Y-21121968D01*
X32713067Y-21149825D01*
X32769617Y-21166980D01*
X32828427Y-21172772D01*
X32887238Y-21166980D01*
X32943788Y-21149825D01*
X32995906Y-21121968D01*
X33041586Y-21084479D01*
X34173801Y-19951056D01*
X76912286Y-19951056D01*
X76971597Y-20038989D01*
X77437593Y-20131048D01*
X77496428Y-20136584D01*
X77555213Y-20130535D01*
X77611688Y-20113134D01*
X77663683Y-20085050D01*
X77709200Y-20047362D01*
X77746489Y-20001518D01*
X77774120Y-19949279D01*
X77791027Y-19892655D01*
X77862076Y-19525136D01*
X85857911Y-19525136D01*
X86618672Y-19673013D01*
X86706605Y-19613702D01*
X86979933Y-18215160D01*
X86985469Y-18156326D01*
X86979420Y-18097540D01*
X86962019Y-18041065D01*
X86933935Y-17989071D01*
X86896247Y-17943554D01*
X86850402Y-17906264D01*
X86798164Y-17878634D01*
X86741539Y-17861727D01*
X86274989Y-17772518D01*
X86187057Y-17831829D01*
X85857911Y-19525136D01*
X77862076Y-19525136D01*
X77922419Y-19213003D01*
X84645188Y-19213003D01*
X84704499Y-19300936D01*
X85465260Y-19448813D01*
X85794406Y-17755506D01*
X85735095Y-17667573D01*
X85269099Y-17575514D01*
X85210264Y-17569978D01*
X85151479Y-17576027D01*
X85095004Y-17593428D01*
X85043009Y-17621512D01*
X84997492Y-17659200D01*
X84960203Y-17705044D01*
X84932572Y-17757283D01*
X84915665Y-17813907D01*
X84645188Y-19213003D01*
X77922419Y-19213003D01*
X78061504Y-18493559D01*
X78002193Y-18405626D01*
X77241432Y-18257749D01*
X76912286Y-19951056D01*
X34173801Y-19951056D01*
X34574194Y-19550236D01*
X75721223Y-19550236D01*
X75727272Y-19609022D01*
X75744673Y-19665497D01*
X75772757Y-19717491D01*
X75810445Y-19763008D01*
X75856290Y-19800298D01*
X75908528Y-19827928D01*
X75965153Y-19844835D01*
X76431703Y-19934044D01*
X76519635Y-19874733D01*
X76848781Y-18181426D01*
X76088020Y-18033549D01*
X76000087Y-18092860D01*
X75726759Y-19491402D01*
X75721223Y-19550236D01*
X34574194Y-19550236D01*
X34967425Y-19156586D01*
X34967425Y-19050520D01*
X34242641Y-18325736D01*
X32103643Y-20464734D01*
X31647306Y-20464734D01*
X31495060Y-19963095D01*
X31714734Y-20181891D01*
X31820800Y-20181891D01*
X33959798Y-18042893D01*
X34525484Y-18042893D01*
X35250268Y-18767677D01*
X35356334Y-18767677D01*
X36259875Y-17865098D01*
X77317755Y-17865098D01*
X78078516Y-18012975D01*
X78166449Y-17953664D01*
X78439777Y-16555122D01*
X78445313Y-16496288D01*
X78439264Y-16437502D01*
X78421863Y-16381027D01*
X78393779Y-16329033D01*
X78356091Y-16283516D01*
X78310246Y-16246226D01*
X78258008Y-16218596D01*
X78201383Y-16201689D01*
X77734833Y-16112480D01*
X77646901Y-16171791D01*
X77317755Y-17865098D01*
X36259875Y-17865098D01*
X36572341Y-17552965D01*
X76105032Y-17552965D01*
X76164343Y-17640898D01*
X76925104Y-17788775D01*
X77254250Y-16095468D01*
X77194939Y-16007535D01*
X76728943Y-15915476D01*
X76670108Y-15909940D01*
X76611323Y-15915989D01*
X76554848Y-15933390D01*
X76502853Y-15961474D01*
X76457336Y-15999162D01*
X76420047Y-16045006D01*
X76392416Y-16097245D01*
X76375509Y-16153869D01*
X76105032Y-17552965D01*
X36572341Y-17552965D01*
X37284227Y-16841838D01*
X37321716Y-16796158D01*
X37349573Y-16744040D01*
X37366728Y-16687490D01*
X37372520Y-16628679D01*
X37366728Y-16569869D01*
X37349573Y-16513319D01*
X37321716Y-16461201D01*
X37284227Y-16415521D01*
X36770548Y-15903895D01*
X36664482Y-15903895D01*
X34525484Y-18042893D01*
X33959798Y-18042893D01*
X33235014Y-17318109D01*
X33128948Y-17318109D01*
X31285061Y-19160032D01*
X30782709Y-16944450D01*
X30781247Y-16929200D01*
X33517857Y-16929200D01*
X33517857Y-17035266D01*
X34242641Y-17760050D01*
X36381639Y-15621052D01*
X36381639Y-15514986D01*
X35870013Y-15001307D01*
X35824333Y-14963818D01*
X35772215Y-14935961D01*
X35715665Y-14918806D01*
X35656855Y-14913014D01*
X35598044Y-14918806D01*
X35541494Y-14935961D01*
X35489376Y-14963818D01*
X35443696Y-15001307D01*
X33517857Y-16929200D01*
X30781247Y-16929200D01*
X30779726Y-16913343D01*
X30763156Y-16858210D01*
X30760246Y-16845377D01*
X30750432Y-16815875D01*
X30728698Y-16743562D01*
X30722486Y-16731868D01*
X30718307Y-16719306D01*
X30680954Y-16653685D01*
X30645528Y-16586998D01*
X30637155Y-16576742D01*
X30630605Y-16565235D01*
X30581165Y-16508160D01*
X30565735Y-16489260D01*
X33748692Y-13306303D01*
X33786181Y-13260622D01*
X33814038Y-13208505D01*
X33831193Y-13151955D01*
X33836985Y-13093145D01*
X33831193Y-13034335D01*
X33814038Y-12977785D01*
X33786181Y-12925668D01*
X33748692Y-12879987D01*
X33638612Y-12769907D01*
X42783956Y-12769907D01*
X42783976Y-12770101D01*
X42783957Y-12770299D01*
X42788240Y-12812060D01*
X42792460Y-12853587D01*
X42792518Y-12853776D01*
X42792538Y-12853971D01*
X42804680Y-12893428D01*
X42817125Y-12934001D01*
X42817220Y-12934178D01*
X42817277Y-12934362D01*
X42837113Y-12971118D01*
X42857005Y-13008058D01*
X42857128Y-13008207D01*
X42857223Y-13008383D01*
X42884123Y-13040895D01*
X42910565Y-13072912D01*
X42910718Y-13073036D01*
X42910843Y-13073188D01*
X42943334Y-13099635D01*
X42975749Y-13126070D01*
X42975922Y-13126162D01*
X42976076Y-13126287D01*
X43013208Y-13145944D01*
X43050050Y-13165491D01*
X43050238Y-13165547D01*
X43050413Y-13165640D01*
X43090652Y-13177670D01*
X43130616Y-13189658D01*
X43151794Y-13191678D01*
X46788619Y-13899954D01*
X46808706Y-13905971D01*
X46829797Y-13907974D01*
X46829905Y-13907995D01*
X46850739Y-13909963D01*
X46892440Y-13913923D01*
X46892550Y-13913912D01*
X46892658Y-13913922D01*
X46934573Y-13909624D01*
X46976117Y-13905385D01*
X46976220Y-13905353D01*
X46976331Y-13905342D01*
X47016065Y-13893115D01*
X47056521Y-13880688D01*
X47056621Y-13880634D01*
X47056722Y-13880603D01*
X47093238Y-13860896D01*
X47130562Y-13840778D01*
X47130645Y-13840709D01*
X47130742Y-13840657D01*
X47162705Y-13814210D01*
X47195394Y-13787192D01*
X47195465Y-13787105D01*
X47195547Y-13787037D01*
X47221803Y-13754782D01*
X47248526Y-13721986D01*
X47248577Y-13721890D01*
X47248647Y-13721804D01*
X47268111Y-13685037D01*
X47287917Y-13647669D01*
X47287949Y-13647561D01*
X47287999Y-13647467D01*
X47299789Y-13608034D01*
X47306003Y-13587287D01*
X47306024Y-13587178D01*
X47312093Y-13566880D01*
X47314065Y-13546004D01*
X47537193Y-12403393D01*
X47543287Y-12382959D01*
X47547165Y-12341612D01*
X47551143Y-12299720D01*
X47551117Y-12299468D01*
X47551141Y-12299215D01*
X47546821Y-12257367D01*
X47542605Y-12216043D01*
X47542531Y-12215803D01*
X47542505Y-12215548D01*
X47530087Y-12175290D01*
X47517908Y-12135639D01*
X47517788Y-12135417D01*
X47517713Y-12135173D01*
X47497707Y-12098162D01*
X47477998Y-12061599D01*
X47477838Y-12061405D01*
X47477716Y-12061180D01*
X47450769Y-12028654D01*
X47424412Y-11996766D01*
X47424218Y-11996608D01*
X47424054Y-11996410D01*
X47391149Y-11969662D01*
X47359206Y-11943634D01*
X47358985Y-11943517D01*
X47358786Y-11943355D01*
X47321320Y-11923553D01*
X47284889Y-11904243D01*
X47284650Y-11904171D01*
X47284422Y-11904051D01*
X47243554Y-11891862D01*
X47204314Y-11880109D01*
X47183092Y-11878094D01*
X43547087Y-11172488D01*
X43527867Y-11166658D01*
X43527198Y-11166592D01*
X43526564Y-11166402D01*
X43505248Y-11164369D01*
X43504912Y-11164304D01*
X43485124Y-11162448D01*
X43465138Y-11160480D01*
X43464465Y-11160480D01*
X43442832Y-11158417D01*
X43442497Y-11158451D01*
X43442156Y-11158419D01*
X43401513Y-11162614D01*
X43360453Y-11166658D01*
X43359805Y-11166855D01*
X43359152Y-11166921D01*
X43358830Y-11167020D01*
X43358489Y-11167055D01*
X43319478Y-11179088D01*
X43279964Y-11191075D01*
X43279372Y-11191392D01*
X43278738Y-11191586D01*
X43278440Y-11191746D01*
X43278114Y-11191847D01*
X43242135Y-11211295D01*
X43205784Y-11230725D01*
X43205265Y-11231151D01*
X43204682Y-11231465D01*
X43204420Y-11231681D01*
X43204121Y-11231843D01*
X43172614Y-11257947D01*
X43140765Y-11284085D01*
X43140339Y-11284604D01*
X43139828Y-11285026D01*
X43139615Y-11285287D01*
X43139351Y-11285506D01*
X43113539Y-11317260D01*
X43087405Y-11349104D01*
X43087087Y-11349698D01*
X43086670Y-11350210D01*
X43086511Y-11350509D01*
X43086296Y-11350774D01*
X43067135Y-11387027D01*
X43047755Y-11423284D01*
X43047561Y-11423922D01*
X43047249Y-11424511D01*
X43047152Y-11424834D01*
X43046992Y-11425137D01*
X43035268Y-11464448D01*
X43023338Y-11503773D01*
X43023239Y-11504779D01*
X43022952Y-11505741D01*
X43021016Y-11526391D01*
X42797962Y-12666173D01*
X42791867Y-12686560D01*
X42787886Y-12728701D01*
X42783956Y-12769907D01*
X33638612Y-12769907D01*
X32334479Y-11465774D01*
X32288798Y-11428285D01*
X32236681Y-11400428D01*
X32180131Y-11383273D01*
X32121321Y-11377481D01*
X32062511Y-11383273D01*
X32005961Y-11400428D01*
X31953844Y-11428285D01*
X31908163Y-11465774D01*
X28727564Y-14646373D01*
X28725867Y-14644547D01*
X28675567Y-14608212D01*
X28627502Y-14568972D01*
X28603858Y-14556412D01*
X28582156Y-14540735D01*
X28525740Y-14514914D01*
X28470938Y-14485802D01*
X28464261Y-14483795D01*
X28560156Y-14249636D01*
X28598215Y-14122339D01*
X28614885Y-13945841D01*
X28596802Y-13769481D01*
X28544661Y-13600038D01*
X28460464Y-13444023D01*
X28347448Y-13307432D01*
X28209956Y-13195513D01*
X28053272Y-13112568D01*
X27883416Y-13061785D01*
X27706918Y-13045115D01*
X27530558Y-13063198D01*
X27361115Y-13115339D01*
X27205100Y-13199536D01*
X27068509Y-13312552D01*
X26956590Y-13450044D01*
X26894429Y-13567469D01*
X26064518Y-15593961D01*
X26026459Y-15721258D01*
X26009789Y-15897755D01*
X3552165Y-15897755D01*
X541251Y-541251D01*
X17842389Y-3933444D01*
X17842389Y-3933444D01*
G37*
X17842389Y-3933444D02*
X17390516Y-6229048D01*
X17384459Y-6249119D01*
X17382411Y-6270223D01*
X17382389Y-6270334D01*
X17380481Y-6290103D01*
X17376334Y-6332837D01*
X17376346Y-6332958D01*
X17376335Y-6333074D01*
X17380449Y-6374000D01*
X17384700Y-6416531D01*
X17384735Y-6416646D01*
X17384747Y-6416764D01*
X17396990Y-6456836D01*
X17409232Y-6496986D01*
X17409288Y-6497090D01*
X17409323Y-6497205D01*
X17429070Y-6533971D01*
X17448989Y-6571109D01*
X17449066Y-6571202D01*
X17449121Y-6571305D01*
X17474940Y-6602638D01*
X17502442Y-6636051D01*
X17502535Y-6636127D01*
X17502610Y-6636218D01*
X17534907Y-6662616D01*
X17567538Y-6689317D01*
X17567643Y-6689373D01*
X17567736Y-6689449D01*
X17604776Y-6709153D01*
X17641774Y-6728861D01*
X17641889Y-6728896D01*
X17641993Y-6728951D01*
X17682252Y-6741076D01*
X17702119Y-6747071D01*
X17702233Y-6747093D01*
X17722532Y-6753207D01*
X17743399Y-6755220D01*
X19077829Y-7018660D01*
X19097038Y-7024553D01*
X19118992Y-7026786D01*
X19119960Y-7026977D01*
X19139861Y-7028908D01*
X19180718Y-7033064D01*
X19181707Y-7032970D01*
X19182698Y-7033066D01*
X19223673Y-7028970D01*
X19264449Y-7025084D01*
X19265398Y-7024799D01*
X19266392Y-7024700D01*
X19305769Y-7012693D01*
X19345016Y-7000924D01*
X19345894Y-7000458D01*
X19346846Y-7000168D01*
X19383052Y-6980748D01*
X19419321Y-6961510D01*
X19420092Y-6960881D01*
X19420969Y-6960411D01*
X19452666Y-6934321D01*
X19484510Y-6908357D01*
X19485144Y-6907589D01*
X19485911Y-6906958D01*
X19511943Y-6875145D01*
X19538076Y-6843507D01*
X19538546Y-6842634D01*
X19539178Y-6841862D01*
X19558495Y-6805598D01*
X19577962Y-6769455D01*
X19578254Y-6768502D01*
X19578721Y-6767626D01*
X19590611Y-6728227D01*
X19596450Y-6709195D01*
X19596644Y-6708235D01*
X19603022Y-6687101D01*
X19604963Y-6667095D01*
X19701845Y-6187997D01*
X25282467Y-7285571D01*
X25185867Y-7763275D01*
X25179282Y-7785526D01*
X25175639Y-7825263D01*
X25171596Y-7865018D01*
X25171799Y-7867153D01*
X25171604Y-7869285D01*
X25175787Y-7908994D01*
X25179576Y-7948749D01*
X25180191Y-7950801D01*
X25180416Y-7952934D01*
X25192261Y-7991050D01*
X25203736Y-8029316D01*
X25204742Y-8031212D01*
X25205377Y-8033256D01*
X25224420Y-8068310D01*
X25243150Y-8103621D01*
X25244505Y-8105283D01*
X25245528Y-8107166D01*
X25271043Y-8137830D01*
X25296303Y-8168810D01*
X25297959Y-8170178D01*
X25299327Y-8171822D01*
X25330340Y-8196924D01*
X25361153Y-8222376D01*
X25363040Y-8223392D01*
X25364706Y-8224741D01*
X25400025Y-8243313D01*
X25435205Y-8262262D01*
X25437257Y-8262892D01*
X25439152Y-8263888D01*
X25477421Y-8275214D01*
X25515618Y-8286933D01*
X25538708Y-8289281D01*
X26875184Y-8545728D01*
X26894286Y-8551490D01*
X26916368Y-8553630D01*
X26917476Y-8553843D01*
X26937395Y-8555669D01*
X26978005Y-8559605D01*
X26979123Y-8559493D01*
X26980246Y-8559596D01*
X27021028Y-8555300D01*
X27061698Y-8551230D01*
X27062773Y-8550902D01*
X27063894Y-8550784D01*
X27103040Y-8538619D01*
X27142150Y-8526689D01*
X27143141Y-8526157D01*
X27144217Y-8525823D01*
X27180266Y-8506239D01*
X27216268Y-8486924D01*
X27217135Y-8486211D01*
X27218126Y-8485672D01*
X27249644Y-8459447D01*
X27281205Y-8433464D01*
X27281917Y-8432593D01*
X27282783Y-8431873D01*
X27308554Y-8400033D01*
X27334464Y-8368362D01*
X27334993Y-8367369D01*
X27335701Y-8366494D01*
X27354754Y-8330261D01*
X27373999Y-8294122D01*
X27374324Y-8293044D01*
X27374848Y-8292048D01*
X27386479Y-8252749D01*
X27392203Y-8233775D01*
X27392419Y-8232682D01*
X27398719Y-8211395D01*
X27400541Y-8191514D01*
X28390668Y-3173160D01*
X36724675Y-4807189D01*
X36272836Y-7100483D01*
X36266722Y-7120830D01*
X36262755Y-7162218D01*
X36258695Y-7204219D01*
X36258712Y-7204389D01*
X36258696Y-7204557D01*
X36262885Y-7245974D01*
X36267092Y-7287909D01*
X36267142Y-7288072D01*
X36267159Y-7288242D01*
X36279338Y-7328018D01*
X36291654Y-7368355D01*
X36291736Y-7368507D01*
X36291785Y-7368668D01*
X36311412Y-7405159D01*
X36331439Y-7442463D01*
X36331548Y-7442595D01*
X36331628Y-7442744D01*
X36358186Y-7474933D01*
X36384917Y-7507385D01*
X36385049Y-7507493D01*
X36385157Y-7507624D01*
X36417429Y-7533969D01*
X36450033Y-7560627D01*
X36450185Y-7560708D01*
X36450315Y-7560814D01*
X36486870Y-7580231D01*
X36524283Y-7600142D01*
X36524447Y-7600192D01*
X36524597Y-7600271D01*
X36564595Y-7612290D01*
X36604818Y-7624412D01*
X36625969Y-7626457D01*
X54530086Y-11139353D01*
X54078358Y-13432085D01*
X54072367Y-13451812D01*
X54070249Y-13473245D01*
X54070159Y-13473700D01*
X54068178Y-13494195D01*
X54064094Y-13535517D01*
X54064139Y-13535980D01*
X54064095Y-13536439D01*
X54068232Y-13577673D01*
X54072311Y-13619224D01*
X54072446Y-13619669D01*
X54072492Y-13620129D01*
X54084619Y-13659848D01*
X54096700Y-13699722D01*
X54096918Y-13700131D01*
X54097054Y-13700575D01*
X54116826Y-13737405D01*
X54136326Y-13773915D01*
X54136618Y-13774271D01*
X54136839Y-13774683D01*
X54163298Y-13806804D01*
X54189663Y-13838953D01*
X54190024Y-13839250D01*
X54190317Y-13839605D01*
X54222486Y-13865908D01*
X54254665Y-13892334D01*
X54255072Y-13892552D01*
X54255433Y-13892847D01*
X54292165Y-13912395D01*
X54328830Y-13932010D01*
X54329276Y-13932146D01*
X54329683Y-13932362D01*
X54369414Y-13944335D01*
X54389143Y-13950327D01*
X54389595Y-13950417D01*
X54410218Y-13956632D01*
X54430741Y-13958616D01*
X55765226Y-14224528D01*
X55784798Y-14230533D01*
X55806374Y-14232728D01*
X55806969Y-14232846D01*
X55827197Y-14234845D01*
X55868478Y-14239044D01*
X55869088Y-14238986D01*
X55869696Y-14239046D01*
X55911020Y-14234990D01*
X55952209Y-14231064D01*
X55952792Y-14230889D01*
X55953404Y-14230829D01*
X55993219Y-14218766D01*
X56032776Y-14206904D01*
X56033315Y-14206618D01*
X56033903Y-14206440D01*
X56070479Y-14186905D01*
X56107081Y-14167490D01*
X56107557Y-14167102D01*
X56108096Y-14166814D01*
X56140114Y-14140556D01*
X56172270Y-14114337D01*
X56172660Y-14113865D01*
X56173133Y-14113477D01*
X56199456Y-14081424D01*
X56225836Y-14049487D01*
X56226126Y-14048949D01*
X56226515Y-14048475D01*
X56246058Y-14011943D01*
X56265722Y-13975435D01*
X56265902Y-13974848D01*
X56266190Y-13974310D01*
X56278240Y-13934634D01*
X56284210Y-13915175D01*
X56284330Y-13914581D01*
X56290633Y-13893828D01*
X56292647Y-13873454D01*
X56389643Y-13393788D01*
X61975430Y-14489733D01*
X61883691Y-14958913D01*
X61877787Y-14978352D01*
X61875638Y-15000099D01*
X61875491Y-15000849D01*
X61873579Y-15020925D01*
X61869514Y-15062057D01*
X61869589Y-15062825D01*
X61869516Y-15063596D01*
X61873696Y-15104664D01*
X61877731Y-15145764D01*
X61877956Y-15146506D01*
X61878034Y-15147275D01*
X61890136Y-15186707D01*
X61902120Y-15226262D01*
X61902485Y-15226945D01*
X61902712Y-15227685D01*
X61922288Y-15264024D01*
X61941746Y-15300455D01*
X61942237Y-15301054D01*
X61942604Y-15301735D01*
X61968840Y-15333493D01*
X61995083Y-15365493D01*
X61995684Y-15365986D01*
X61996175Y-15366581D01*
X62028220Y-15392706D01*
X62060085Y-15418874D01*
X62060763Y-15419237D01*
X62061367Y-15419729D01*
X62097856Y-15439081D01*
X62134250Y-15458550D01*
X62134994Y-15458776D01*
X62135675Y-15459137D01*
X62175157Y-15470973D01*
X62194563Y-15476867D01*
X62195317Y-15477017D01*
X62216244Y-15483291D01*
X62236465Y-15485216D01*
X63572030Y-15751344D01*
X63592998Y-15757626D01*
X63634065Y-15761528D01*
X63675116Y-15765586D01*
X63675926Y-15765506D01*
X63676732Y-15765583D01*
X63717678Y-15761408D01*
X63758824Y-15757369D01*
X63759602Y-15757133D01*
X63760409Y-15757051D01*
X63799792Y-15744957D01*
X63839323Y-15732980D01*
X63840040Y-15732597D01*
X63840815Y-15732359D01*
X63877076Y-15712816D01*
X63913516Y-15693354D01*
X63914145Y-15692838D01*
X63914858Y-15692454D01*
X63946589Y-15666231D01*
X63978553Y-15640017D01*
X63979069Y-15639388D01*
X63979694Y-15638872D01*
X64005687Y-15606977D01*
X64031935Y-15575015D01*
X64032319Y-15574297D01*
X64032830Y-15573670D01*
X64052103Y-15537315D01*
X64071610Y-15500850D01*
X64071846Y-15500073D01*
X64072226Y-15499356D01*
X64084054Y-15459878D01*
X64096053Y-15420368D01*
X64098206Y-15398587D01*
X65079193Y-10376867D01*
X73412457Y-12013057D01*
X72960596Y-14306468D01*
X72954480Y-14326821D01*
X72950525Y-14368088D01*
X72946455Y-14410199D01*
X72946473Y-14410375D01*
X72946456Y-14410549D01*
X72950666Y-14452167D01*
X72954852Y-14493889D01*
X72954903Y-14494057D01*
X72954921Y-14494233D01*
X72967176Y-14534251D01*
X72979414Y-14574335D01*
X72979498Y-14574491D01*
X72979549Y-14574658D01*
X72999238Y-14611262D01*
X73019199Y-14648443D01*
X73019311Y-14648579D01*
X73019394Y-14648733D01*
X73045960Y-14680931D01*
X73072677Y-14713365D01*
X73072813Y-14713476D01*
X73072925Y-14713612D01*
X73105611Y-14740293D01*
X73137793Y-14766607D01*
X73137946Y-14766689D01*
X73138084Y-14766801D01*
X73175563Y-14786708D01*
X73212043Y-14806122D01*
X73212209Y-14806172D01*
X73212367Y-14806256D01*
X73253106Y-14818497D01*
X73292578Y-14830392D01*
X73313729Y-14832437D01*
X91197923Y-18340938D01*
X89293736Y-25902893D01*
X87030580Y-25333909D01*
X87010754Y-25326793D01*
X86989880Y-25323676D01*
X86989868Y-25323673D01*
X86974531Y-25321384D01*
X86927565Y-25314371D01*
X86927546Y-25314372D01*
X86927526Y-25314369D01*
X86887038Y-25316323D01*
X86843551Y-25318418D01*
X86843530Y-25318423D01*
X86843513Y-25318424D01*
X86811054Y-25326525D01*
X86761940Y-25338777D01*
X86761916Y-25338788D01*
X86761905Y-25338791D01*
X86734374Y-25351783D01*
X86685870Y-25374667D01*
X86685853Y-25374679D01*
X86685837Y-25374687D01*
X86657187Y-25395897D01*
X86618262Y-25424707D01*
X86618245Y-25424725D01*
X86618235Y-25424733D01*
X86595547Y-25449721D01*
X86561718Y-25486975D01*
X86561708Y-25486991D01*
X86561694Y-25487007D01*
X86538188Y-25526146D01*
X86518406Y-25559078D01*
X86518400Y-25559095D01*
X86518389Y-25559113D01*
X86504171Y-25598741D01*
X86497114Y-25618405D01*
X86497109Y-25618425D01*
X86489984Y-25638284D01*
X86486876Y-25659113D01*
X86179747Y-26880254D01*
X86172763Y-26899559D01*
X86169514Y-26920939D01*
X86169380Y-26921474D01*
X86166341Y-26941828D01*
X86160128Y-26982717D01*
X86160153Y-26983266D01*
X86160071Y-26983815D01*
X86162074Y-27025383D01*
X86163960Y-27066739D01*
X86164092Y-27067276D01*
X86164119Y-27067828D01*
X86174141Y-27108003D01*
X86184109Y-27148402D01*
X86184345Y-27148905D01*
X86184478Y-27149439D01*
X86202112Y-27186816D01*
X86219803Y-27224564D01*
X86220132Y-27225011D01*
X86220367Y-27225509D01*
X86245029Y-27258830D01*
X86269670Y-27292300D01*
X86270078Y-27292672D01*
X86270407Y-27293117D01*
X86301136Y-27321022D01*
X86331793Y-27349005D01*
X86332267Y-27349291D01*
X86332675Y-27349662D01*
X86368087Y-27370934D01*
X86403784Y-27392502D01*
X86404308Y-27392691D01*
X86404778Y-27392974D01*
X86443516Y-27406876D01*
X86463057Y-27413946D01*
X86463599Y-27414084D01*
X86483946Y-27421386D01*
X86504243Y-27424417D01*
X86969688Y-27542750D01*
X85696510Y-32600522D01*
X85231289Y-32486188D01*
X85212633Y-32479483D01*
X85190534Y-32476172D01*
X85189316Y-32475873D01*
X85169877Y-32473078D01*
X85129449Y-32467021D01*
X85128180Y-32467082D01*
X85126925Y-32466901D01*
X85086158Y-32469086D01*
X85045433Y-32471029D01*
X85044204Y-32471335D01*
X85042936Y-32471403D01*
X85003428Y-32481486D01*
X84963813Y-32491349D01*
X84962663Y-32491891D01*
X84961436Y-32492204D01*
X84924695Y-32509782D01*
X84887725Y-32527202D01*
X84886703Y-32527958D01*
X84885561Y-32528504D01*
X84852967Y-32552903D01*
X84820094Y-32577210D01*
X84819239Y-32578151D01*
X84818226Y-32578909D01*
X84791017Y-32609200D01*
X84763520Y-32639451D01*
X84762865Y-32640540D01*
X84762018Y-32641483D01*
X84741249Y-32676485D01*
X84720173Y-32711533D01*
X84719742Y-32712732D01*
X84719097Y-32713819D01*
X84705554Y-32752206D01*
X84698853Y-32770850D01*
X84698544Y-32772076D01*
X84691113Y-32793139D01*
X84688292Y-32812755D01*
X84381339Y-34030747D01*
X84374199Y-34050626D01*
X84368014Y-34091974D01*
X84361762Y-34133711D01*
X84361764Y-34133757D01*
X84361756Y-34133812D01*
X84363826Y-34176989D01*
X84365769Y-34217726D01*
X84365782Y-34217777D01*
X84365784Y-34217826D01*
X84375850Y-34258217D01*
X84386089Y-34299346D01*
X84386110Y-34299391D01*
X84386123Y-34299442D01*
X84404244Y-34337876D01*
X84421942Y-34375434D01*
X84421972Y-34375475D01*
X84421994Y-34375521D01*
X84446792Y-34409041D01*
X84471950Y-34443065D01*
X84471988Y-34443100D01*
X84472018Y-34443140D01*
X84502051Y-34470426D01*
X84534191Y-34499640D01*
X84534235Y-34499666D01*
X84534273Y-34499701D01*
X84569364Y-34520792D01*
X84606273Y-34542987D01*
X84606324Y-34543005D01*
X84606365Y-34543030D01*
X84643506Y-34556369D01*
X84685427Y-34571437D01*
X84706328Y-34574568D01*
X89669462Y-35824110D01*
X87759639Y-43410739D01*
X85496637Y-42839662D01*
X85476683Y-42832496D01*
X85435792Y-42826381D01*
X85393745Y-42820068D01*
X85393617Y-42820074D01*
X85393496Y-42820056D01*
X85351882Y-42822052D01*
X85309729Y-42824049D01*
X85309609Y-42824079D01*
X85309481Y-42824085D01*
X85268408Y-42834322D01*
X85228102Y-42844343D01*
X85227988Y-42844397D01*
X85227866Y-42844427D01*
X85189587Y-42862477D01*
X85152003Y-42880172D01*
X85151903Y-42880246D01*
X85151788Y-42880300D01*
X85117809Y-42905439D01*
X85084356Y-42930158D01*
X85084271Y-42930251D01*
X85084170Y-42930326D01*
X85055330Y-42962071D01*
X85027761Y-42992382D01*
X85027699Y-42992485D01*
X85027611Y-42992582D01*
X85005095Y-43030046D01*
X84984392Y-43064450D01*
X84984351Y-43064563D01*
X84984284Y-43064675D01*
X84969272Y-43106475D01*
X84955917Y-43143595D01*
X84952771Y-43164549D01*
X82944076Y-51143938D01*
X80680999Y-50566449D01*
X80660163Y-50559005D01*
X80619505Y-50552993D01*
X80579042Y-50546808D01*
X80577996Y-50546855D01*
X80576956Y-50546701D01*
X80536002Y-50548732D01*
X80495016Y-50550565D01*
X80493995Y-50550816D01*
X80492948Y-50550868D01*
X80453189Y-50560847D01*
X80413336Y-50570643D01*
X80412386Y-50571087D01*
X80411367Y-50571343D01*
X80374201Y-50588942D01*
X80337142Y-50606270D01*
X80336300Y-50606889D01*
X80335347Y-50607340D01*
X80302328Y-50631852D01*
X80269362Y-50656076D01*
X80268654Y-50656850D01*
X80267811Y-50657476D01*
X80240330Y-50687826D01*
X80212602Y-50718149D01*
X80212056Y-50719051D01*
X80211355Y-50719825D01*
X80190312Y-50754967D01*
X80169042Y-50790102D01*
X80168685Y-50791086D01*
X80168145Y-50791988D01*
X80154376Y-50830528D01*
X80140357Y-50869171D01*
X80137014Y-50891042D01*
X79829231Y-52122173D01*
X79821933Y-52142859D01*
X79816057Y-52183725D01*
X79810041Y-52224404D01*
X79810084Y-52225263D01*
X79809961Y-52226115D01*
X79812171Y-52267340D01*
X79814208Y-52308411D01*
X79814417Y-52309243D01*
X79814463Y-52310104D01*
X79824668Y-52350087D01*
X79834683Y-52389992D01*
X79835051Y-52390769D01*
X79835264Y-52391604D01*
X79853071Y-52428824D01*
X79870680Y-52466012D01*
X79871192Y-52466702D01*
X79871564Y-52467479D01*
X79896277Y-52500492D01*
X79920816Y-52533548D01*
X79921453Y-52534125D01*
X79921969Y-52534814D01*
X79952647Y-52562371D01*
X79983165Y-52590005D01*
X79983902Y-52590446D01*
X79984543Y-52591022D01*
X80019897Y-52611999D01*
X80055328Y-52633215D01*
X80056143Y-52633506D01*
X80056879Y-52633943D01*
X80095694Y-52647637D01*
X80134537Y-52661515D01*
X80156234Y-52664723D01*
X80618982Y-52778450D01*
X79347213Y-57837173D01*
X78884360Y-57719498D01*
X78865575Y-57712596D01*
X78843693Y-57709159D01*
X78842661Y-57708897D01*
X78823006Y-57705910D01*
X78782481Y-57699546D01*
X78781407Y-57699590D01*
X78780343Y-57699428D01*
X78739447Y-57701293D01*
X78698440Y-57702958D01*
X78697391Y-57703211D01*
X78696321Y-57703260D01*
X78656613Y-57713057D01*
X78616677Y-57722700D01*
X78615700Y-57723152D01*
X78614658Y-57723409D01*
X78577560Y-57740795D01*
X78540338Y-57758014D01*
X78539469Y-57758647D01*
X78538496Y-57759103D01*
X78505478Y-57783411D01*
X78472355Y-57807542D01*
X78471627Y-57808332D01*
X78470760Y-57808970D01*
X78443103Y-57839270D01*
X78415341Y-57869381D01*
X78414781Y-57870298D01*
X78414055Y-57871093D01*
X78392854Y-57906182D01*
X78371485Y-57941154D01*
X78371114Y-57942164D01*
X78370558Y-57943084D01*
X78356608Y-57981644D01*
X78349746Y-58000319D01*
X78349478Y-58001351D01*
X78341943Y-58022179D01*
X78338937Y-58041963D01*
X78021668Y-59264310D01*
X78013992Y-59285710D01*
X78008035Y-59325662D01*
X78001766Y-59365579D01*
X78001834Y-59367247D01*
X78001587Y-59368902D01*
X78003536Y-59409187D01*
X78005178Y-59449619D01*
X78005570Y-59451243D01*
X78005651Y-59452914D01*
X78015434Y-59492094D01*
X78024920Y-59531382D01*
X78025623Y-59532901D01*
X78026027Y-59534520D01*
X78043255Y-59571018D01*
X78060234Y-59607721D01*
X78061218Y-59609072D01*
X78061932Y-59610584D01*
X78086008Y-59643099D01*
X78109762Y-59675704D01*
X78110988Y-59676834D01*
X78111985Y-59678181D01*
X78141942Y-59705373D01*
X78171601Y-59732719D01*
X78173027Y-59733590D01*
X78174265Y-59734714D01*
X78208903Y-59755511D01*
X78243374Y-59776574D01*
X78244943Y-59777150D01*
X78246376Y-59778011D01*
X78284395Y-59791647D01*
X78322325Y-59805584D01*
X78344791Y-59809112D01*
X83309374Y-61056684D01*
X81401878Y-68643161D01*
X79136374Y-68071991D01*
X79116405Y-68064826D01*
X79075067Y-68058656D01*
X79033489Y-68052424D01*
X79033352Y-68052431D01*
X79033214Y-68052410D01*
X78991142Y-68054440D01*
X78949474Y-68056423D01*
X78949340Y-68056456D01*
X78949201Y-68056463D01*
X78908658Y-68066580D01*
X78867852Y-68076735D01*
X78867725Y-68076795D01*
X78867592Y-68076828D01*
X78830109Y-68094516D01*
X78791761Y-68112581D01*
X78791648Y-68112664D01*
X78791524Y-68112723D01*
X78757843Y-68137656D01*
X78724125Y-68162583D01*
X78724033Y-68162685D01*
X78723920Y-68162768D01*
X78694904Y-68194725D01*
X78667544Y-68224819D01*
X78667476Y-68224932D01*
X78667378Y-68225040D01*
X78644944Y-68262393D01*
X78624191Y-68296896D01*
X78624145Y-68297023D01*
X78624072Y-68297145D01*
X78609451Y-68337893D01*
X78595733Y-68376048D01*
X78592589Y-68397020D01*
X76544131Y-76544131D01*
X68790937Y-78493546D01*
X68221984Y-76230522D01*
X68218867Y-76209646D01*
X68203519Y-76166883D01*
X68190471Y-76130513D01*
X68190460Y-76130495D01*
X68190454Y-76130478D01*
X68168137Y-76093325D01*
X68147166Y-76058407D01*
X68147155Y-76058395D01*
X68147143Y-76058375D01*
X68114377Y-76022293D01*
X68090625Y-75996133D01*
X68090612Y-75996123D01*
X68090597Y-75996107D01*
X68054869Y-75969663D01*
X68023023Y-75946087D01*
X68023004Y-75946078D01*
X68022989Y-75946067D01*
X67985110Y-75928196D01*
X67946955Y-75910191D01*
X67946937Y-75910187D01*
X67946919Y-75910178D01*
X67909462Y-75900834D01*
X67865347Y-75889824D01*
X67865323Y-75889823D01*
X67865308Y-75889819D01*
X67827891Y-75888016D01*
X67781334Y-75885769D01*
X67781314Y-75885772D01*
X67781295Y-75885771D01*
X67736244Y-75892498D01*
X67698144Y-75898184D01*
X67678291Y-75905307D01*
X66455491Y-76212853D01*
X66433557Y-76216245D01*
X66395098Y-76230274D01*
X66356558Y-76244106D01*
X66355595Y-76244684D01*
X66354538Y-76245070D01*
X66319523Y-76266353D01*
X66284455Y-76287418D01*
X66283623Y-76288173D01*
X66282663Y-76288757D01*
X66252528Y-76316411D01*
X66222187Y-76343963D01*
X66221517Y-76344868D01*
X66220690Y-76345627D01*
X66196481Y-76378694D01*
X66172147Y-76411571D01*
X66171669Y-76412585D01*
X66171003Y-76413494D01*
X66153686Y-76450701D01*
X66136258Y-76487641D01*
X66135986Y-76488729D01*
X66135511Y-76489751D01*
X66125785Y-76529621D01*
X66115899Y-76569252D01*
X66115845Y-76570372D01*
X66115578Y-76571467D01*
X66113820Y-76612397D01*
X66111851Y-76653265D01*
X66112017Y-76654378D01*
X66111969Y-76655499D01*
X66118232Y-76695997D01*
X66124274Y-76736454D01*
X66131769Y-76757339D01*
X66251079Y-77221467D01*
X61187633Y-78493877D01*
X61069234Y-78028173D01*
X61066177Y-78007767D01*
X61058896Y-77987510D01*
X61058786Y-77987077D01*
X61051801Y-77967769D01*
X61037727Y-77928613D01*
X61037495Y-77928228D01*
X61037342Y-77927804D01*
X61015884Y-77892290D01*
X60994381Y-77856531D01*
X60994076Y-77856196D01*
X60993845Y-77855813D01*
X60965848Y-77825141D01*
X60937805Y-77794290D01*
X60937444Y-77794023D01*
X60937140Y-77793690D01*
X60903593Y-77768993D01*
X60870174Y-77744282D01*
X60869767Y-77744090D01*
X60869404Y-77743823D01*
X60831622Y-77726116D01*
X60794086Y-77708429D01*
X60793651Y-77708321D01*
X60793242Y-77708129D01*
X60752848Y-77698162D01*
X60712466Y-77688109D01*
X60712015Y-77688087D01*
X60711579Y-77687980D01*
X60670022Y-77686085D01*
X60628450Y-77684102D01*
X60628006Y-77684168D01*
X60627557Y-77684148D01*
X60586515Y-77690384D01*
X60566114Y-77693440D01*
X60565678Y-77693550D01*
X60544399Y-77696783D01*
X60524998Y-77703802D01*
X59306413Y-78010905D01*
X59285710Y-78013992D01*
X59265734Y-78021157D01*
X59265590Y-78021193D01*
X59245362Y-78028463D01*
X59206536Y-78042389D01*
X59206414Y-78042462D01*
X59206273Y-78042513D01*
X59170013Y-78064318D01*
X59134425Y-78085686D01*
X59134316Y-78085785D01*
X59134191Y-78085860D01*
X59103306Y-78113933D01*
X59072145Y-78142219D01*
X59072057Y-78142338D01*
X59071950Y-78142435D01*
X59046966Y-78176224D01*
X59022092Y-78209816D01*
X59022030Y-78209946D01*
X59021942Y-78210066D01*
X59003831Y-78248502D01*
X58986187Y-78285880D01*
X58986152Y-78286020D01*
X58986089Y-78286154D01*
X58976198Y-78325885D01*
X58965811Y-78367486D01*
X58965804Y-78367634D01*
X58965769Y-78367774D01*
X58963801Y-78409040D01*
X58961747Y-78451498D01*
X58961769Y-78451645D01*
X58961762Y-78451789D01*
X58967927Y-78492943D01*
X58971043Y-78513841D01*
X58971079Y-78513983D01*
X58974223Y-78534973D01*
X58981304Y-78554674D01*
X60228610Y-83518206D01*
X52651721Y-85434754D01*
X52082818Y-83169796D01*
X52079684Y-83148837D01*
X52065484Y-83109295D01*
X52051352Y-83069879D01*
X52051293Y-83069781D01*
X52051255Y-83069675D01*
X52029966Y-83034252D01*
X52008063Y-82997763D01*
X52007985Y-82997677D01*
X52007928Y-82997582D01*
X51979981Y-82966820D01*
X51951536Y-82935477D01*
X51951445Y-82935409D01*
X51951369Y-82935326D01*
X51917789Y-82910483D01*
X51883945Y-82885416D01*
X51883842Y-82885367D01*
X51883751Y-82885300D01*
X51845238Y-82867140D01*
X51807885Y-82849503D01*
X51807777Y-82849476D01*
X51807673Y-82849427D01*
X51766566Y-82839181D01*
X51726281Y-82829118D01*
X51726169Y-82829113D01*
X51726058Y-82829085D01*
X51683876Y-82827062D01*
X51642270Y-82825045D01*
X51642159Y-82825062D01*
X51642043Y-82825056D01*
X51599468Y-82831422D01*
X51559076Y-82837441D01*
X51539132Y-82844591D01*
X43558640Y-84853565D01*
X42989631Y-82588186D01*
X42986507Y-82567266D01*
X42972222Y-82527462D01*
X42958152Y-82488219D01*
X42958116Y-82488159D01*
X42958094Y-82488098D01*
X42936830Y-82452698D01*
X42914863Y-82416103D01*
X42914818Y-82416054D01*
X42914783Y-82415995D01*
X42885315Y-82383545D01*
X42858336Y-82353817D01*
X42858283Y-82353778D01*
X42858237Y-82353727D01*
X42824673Y-82328885D01*
X42790745Y-82303756D01*
X42790682Y-82303726D01*
X42790629Y-82303687D01*
X42752944Y-82285908D01*
X42714685Y-82267843D01*
X42714620Y-82267827D01*
X42714559Y-82267798D01*
X42674782Y-82257875D01*
X42633081Y-82247458D01*
X42633010Y-82247455D01*
X42632948Y-82247439D01*
X42590930Y-82245414D01*
X42549070Y-82243385D01*
X42549007Y-82243394D01*
X42548935Y-82243391D01*
X42504874Y-82249970D01*
X42465876Y-82255781D01*
X42445977Y-82262915D01*
X41225340Y-82569917D01*
X41205619Y-82572753D01*
X41184648Y-82580152D01*
X41183525Y-82580434D01*
X41164860Y-82587133D01*
X41126299Y-82600737D01*
X41125297Y-82601332D01*
X41124198Y-82601726D01*
X41089098Y-82622810D01*
X41053963Y-82643658D01*
X41053096Y-82644437D01*
X41052095Y-82645038D01*
X41021773Y-82672573D01*
X40991389Y-82699866D01*
X40990691Y-82700798D01*
X40989827Y-82701583D01*
X40965508Y-82734440D01*
X40940984Y-82767201D01*
X40940480Y-82768255D01*
X40939787Y-82769191D01*
X40922355Y-82806140D01*
X40904684Y-82843076D01*
X40904395Y-82844207D01*
X40903898Y-82845261D01*
X40894014Y-82884880D01*
X40883883Y-82924576D01*
X40883820Y-82925744D01*
X40883539Y-82926872D01*
X40881575Y-82967640D01*
X40879381Y-83008565D01*
X40879547Y-83009720D01*
X40879491Y-83010885D01*
X40885528Y-83051309D01*
X40888353Y-83070956D01*
X40888630Y-83072083D01*
X40891914Y-83094074D01*
X40898642Y-83112820D01*
X41013044Y-83578318D01*
X35955188Y-84853701D01*
X35836899Y-84388431D01*
X35833867Y-84368126D01*
X35826562Y-84347772D01*
X35826426Y-84347237D01*
X35819418Y-84327865D01*
X35805454Y-84288958D01*
X35805171Y-84288488D01*
X35804982Y-84287964D01*
X35783501Y-84252412D01*
X35762143Y-84216855D01*
X35761769Y-84216443D01*
X35761485Y-84215973D01*
X35733598Y-84185422D01*
X35705597Y-84154587D01*
X35705152Y-84154258D01*
X35704780Y-84153850D01*
X35671310Y-84129209D01*
X35637989Y-84104547D01*
X35637491Y-84104312D01*
X35637044Y-84103983D01*
X35599296Y-84086292D01*
X35561919Y-84068658D01*
X35561385Y-84068525D01*
X35560882Y-84068289D01*
X35520483Y-84058321D01*
X35480308Y-84048299D01*
X35479756Y-84048272D01*
X35479219Y-84048140D01*
X35437863Y-84046254D01*
X35396295Y-84044251D01*
X35395746Y-84044333D01*
X35395197Y-84044308D01*
X35354346Y-84050515D01*
X35333953Y-84053560D01*
X35333417Y-84053695D01*
X35312039Y-84056943D01*
X35292736Y-84063927D01*
X34071522Y-84371073D01*
X34050626Y-84374199D01*
X34012028Y-84388062D01*
X33971558Y-84402586D01*
X33971514Y-84402612D01*
X33971465Y-84402630D01*
X33935233Y-84424406D01*
X33899455Y-84445898D01*
X33899417Y-84445933D01*
X33899373Y-84445959D01*
X33870691Y-84472018D01*
X33837187Y-84502443D01*
X33837155Y-84502487D01*
X33837118Y-84502520D01*
X33812846Y-84535329D01*
X33787147Y-84570051D01*
X33787126Y-84570096D01*
X33787094Y-84570139D01*
X33770014Y-84606365D01*
X33751258Y-84646121D01*
X33751246Y-84646169D01*
X33751223Y-84646218D01*
X33740883Y-84687711D01*
X33730899Y-84727732D01*
X33730897Y-84727784D01*
X33730884Y-84727834D01*
X33728858Y-84770098D01*
X33726851Y-84811745D01*
X33726859Y-84811795D01*
X33726856Y-84811848D01*
X33733473Y-84856092D01*
X33739274Y-84894934D01*
X33746408Y-84914813D01*
X34995926Y-89877853D01*
X27411516Y-91785406D01*
X26840268Y-89519597D01*
X26837157Y-89498807D01*
X26830009Y-89478908D01*
X26829995Y-89478852D01*
X26823092Y-89459652D01*
X26808722Y-89419647D01*
X26808689Y-89419593D01*
X26808669Y-89419536D01*
X26787031Y-89383561D01*
X26765390Y-89347557D01*
X26765345Y-89347508D01*
X26765316Y-89347459D01*
X26738323Y-89317768D01*
X26708826Y-89285305D01*
X26708776Y-89285268D01*
X26708735Y-89285223D01*
X26675733Y-89260825D01*
X26641205Y-89235284D01*
X26641148Y-89235257D01*
X26641099Y-89235221D01*
X26603995Y-89217741D01*
X26565124Y-89199416D01*
X26565063Y-89199401D01*
X26565008Y-89199375D01*
X26524695Y-89189343D01*
X26483508Y-89179081D01*
X26483446Y-89179078D01*
X26483386Y-89179063D01*
X26442532Y-89177118D01*
X26399493Y-89175057D01*
X26399428Y-89175067D01*
X26399371Y-89175064D01*
X26359324Y-89181067D01*
X26337154Y-89184384D01*
X26337093Y-89184399D01*
X26316188Y-89187533D01*
X26296411Y-89194644D01*
X18340938Y-91197924D01*
X17492871Y-86874989D01*
X17772518Y-86874989D01*
X17861727Y-87341539D01*
X17878634Y-87398164D01*
X17906264Y-87450402D01*
X17943554Y-87496247D01*
X17989071Y-87533935D01*
X18041065Y-87562019D01*
X18097540Y-87579420D01*
X18156326Y-87585469D01*
X18215160Y-87579933D01*
X19613702Y-87306605D01*
X19673013Y-87218672D01*
X19525136Y-86457911D01*
X17831829Y-86787057D01*
X17772518Y-86874989D01*
X17492871Y-86874989D01*
X17283994Y-85810264D01*
X17569978Y-85810264D01*
X17575514Y-85869099D01*
X17667573Y-86335095D01*
X17755506Y-86394406D01*
X17821448Y-86381588D01*
X19917787Y-86381588D01*
X20065664Y-87142349D01*
X20153597Y-87201660D01*
X21552693Y-86931183D01*
X21609317Y-86914276D01*
X21661556Y-86886645D01*
X21707400Y-86849356D01*
X21745088Y-86803839D01*
X21773172Y-86751844D01*
X21790573Y-86695369D01*
X21796622Y-86636584D01*
X21791086Y-86577749D01*
X21699027Y-86111753D01*
X21611094Y-86052442D01*
X19917787Y-86381588D01*
X17821448Y-86381588D01*
X19448813Y-86065260D01*
X19300936Y-85304499D01*
X19213003Y-85245188D01*
X17813907Y-85515665D01*
X17757283Y-85532572D01*
X17705044Y-85560203D01*
X17659200Y-85597492D01*
X17621512Y-85643009D01*
X17593428Y-85695004D01*
X17576027Y-85751479D01*
X17569978Y-85810264D01*
X17283994Y-85810264D01*
X17169801Y-85228176D01*
X19693587Y-85228176D01*
X19841464Y-85988937D01*
X21534771Y-85659791D01*
X21594082Y-85571859D01*
X21504873Y-85105309D01*
X21487966Y-85048684D01*
X21460336Y-84996446D01*
X21423046Y-84950601D01*
X21377529Y-84912913D01*
X21325535Y-84884829D01*
X21269060Y-84867428D01*
X21210274Y-84861379D01*
X21151440Y-84866915D01*
X19752898Y-85140243D01*
X19693587Y-85228176D01*
X17169801Y-85228176D01*
X16826955Y-83480555D01*
X22919391Y-83480555D01*
X22960897Y-83701698D01*
X22977805Y-83758322D01*
X23005435Y-83810561D01*
X23042724Y-83856405D01*
X23088241Y-83894094D01*
X23140236Y-83922178D01*
X23196711Y-83939578D01*
X23255496Y-83945628D01*
X23314331Y-83940092D01*
X24761954Y-83657223D01*
X24821265Y-83569291D01*
X24721090Y-83053936D01*
X22978702Y-83392622D01*
X22919391Y-83480555D01*
X16826955Y-83480555D01*
X16666222Y-82661236D01*
X22764553Y-82661236D01*
X22770088Y-82720071D01*
X22814446Y-82940660D01*
X22902379Y-82999971D01*
X23017400Y-82977613D01*
X25113741Y-82977613D01*
X25213916Y-83492967D01*
X25301849Y-83552278D01*
X26750026Y-83272260D01*
X26806650Y-83255353D01*
X26858889Y-83227723D01*
X26904733Y-83190433D01*
X26942421Y-83144917D01*
X26970505Y-83092922D01*
X26987906Y-83036447D01*
X26993955Y-82977662D01*
X26988420Y-82918827D01*
X26944062Y-82698238D01*
X26856129Y-82638927D01*
X25113741Y-82977613D01*
X23017400Y-82977613D01*
X24644767Y-82661285D01*
X24544592Y-82145931D01*
X24456659Y-82086620D01*
X23008482Y-82366638D01*
X22951858Y-82383545D01*
X22899619Y-82411175D01*
X22853775Y-82448465D01*
X22816087Y-82493981D01*
X22788003Y-82545976D01*
X22770602Y-82602451D01*
X22764553Y-82661236D01*
X16666222Y-82661236D01*
X16550157Y-82069607D01*
X24937243Y-82069607D01*
X25037418Y-82584962D01*
X26779806Y-82246276D01*
X26839117Y-82158343D01*
X26797611Y-81937200D01*
X26780703Y-81880576D01*
X26753073Y-81828337D01*
X26715784Y-81782493D01*
X26670267Y-81744804D01*
X26618272Y-81716720D01*
X26561797Y-81699320D01*
X26503012Y-81693270D01*
X26444177Y-81698806D01*
X24996554Y-81981675D01*
X24937243Y-82069607D01*
X16550157Y-82069607D01*
X15817472Y-78334833D01*
X16112480Y-78334833D01*
X16201689Y-78801383D01*
X16218596Y-78858008D01*
X16246226Y-78910246D01*
X16283516Y-78956091D01*
X16329033Y-78993779D01*
X16381027Y-79021863D01*
X16437502Y-79039264D01*
X16496288Y-79045313D01*
X16555122Y-79039777D01*
X16853022Y-78981556D01*
X20944900Y-78981556D01*
X20944900Y-79119444D01*
X20971801Y-79254682D01*
X21024568Y-79382074D01*
X21101174Y-79496724D01*
X21198676Y-79594226D01*
X21313326Y-79670832D01*
X21440718Y-79723599D01*
X21567256Y-79748769D01*
X21685223Y-79946049D01*
X21694484Y-79961931D01*
X21695844Y-79963812D01*
X21697051Y-79965830D01*
X21707473Y-79979912D01*
X21707521Y-79979995D01*
X21719835Y-79996987D01*
X21722475Y-80000637D01*
X21724236Y-80003541D01*
X21734694Y-80017490D01*
X21744919Y-80031599D01*
X21747208Y-80034181D01*
X22426980Y-80940864D01*
X22430896Y-80948274D01*
X22431125Y-80948556D01*
X22436175Y-81002222D01*
X22531579Y-81493035D01*
X22562508Y-81596620D01*
X22613051Y-81692180D01*
X22681266Y-81776044D01*
X22764531Y-81844988D01*
X22859646Y-81896363D01*
X22962956Y-81928194D01*
X23070492Y-81939260D01*
X23178120Y-81929133D01*
X26123002Y-81356706D01*
X26226586Y-81325777D01*
X26322146Y-81275234D01*
X26406009Y-81207020D01*
X26474953Y-81123755D01*
X26526328Y-81028640D01*
X26558160Y-80925329D01*
X26569226Y-80817794D01*
X26559099Y-80710166D01*
X26554076Y-80684320D01*
X44311035Y-80684320D01*
X44311213Y-80685510D01*
X44311162Y-80686712D01*
X44317431Y-80727098D01*
X44323472Y-80767507D01*
X44330999Y-80788470D01*
X44620251Y-81911157D01*
X44623192Y-81930829D01*
X44630721Y-81951797D01*
X44631018Y-81952948D01*
X44637790Y-81971480D01*
X44651619Y-82009992D01*
X44652238Y-82011023D01*
X44652651Y-82012152D01*
X44673916Y-82047096D01*
X44694944Y-82082087D01*
X44695751Y-82082975D01*
X44696377Y-82084004D01*
X44724103Y-82114185D01*
X44751501Y-82144345D01*
X44752463Y-82145057D01*
X44753280Y-82145946D01*
X44786345Y-82170125D01*
X44819117Y-82194373D01*
X44820204Y-82194885D01*
X44821174Y-82195595D01*
X44858292Y-82212847D01*
X44895194Y-82230248D01*
X44896357Y-82230538D01*
X44897450Y-82231046D01*
X44937222Y-82240725D01*
X44976808Y-82250593D01*
X44978008Y-82250651D01*
X44979177Y-82250935D01*
X45019997Y-82252666D01*
X45060822Y-82254625D01*
X45062012Y-82254447D01*
X45063212Y-82254498D01*
X45103549Y-82248237D01*
X45123161Y-82245305D01*
X45124322Y-82245013D01*
X45146329Y-82241597D01*
X45165004Y-82234773D01*
X48482945Y-81399646D01*
X48503123Y-81396694D01*
X48523602Y-81389413D01*
X48524268Y-81389245D01*
X48543802Y-81382231D01*
X48582374Y-81368516D01*
X48582949Y-81368173D01*
X48583592Y-81367942D01*
X48619259Y-81346508D01*
X48654605Y-81325418D01*
X48655107Y-81324965D01*
X48655686Y-81324617D01*
X48686448Y-81296672D01*
X48717040Y-81269056D01*
X48717440Y-81268518D01*
X48717945Y-81268060D01*
X48742772Y-81234505D01*
X48767280Y-81201597D01*
X48767568Y-81200992D01*
X48767973Y-81200444D01*
X48785726Y-81162797D01*
X48803394Y-81125633D01*
X48803559Y-81124980D01*
X48803848Y-81124367D01*
X48813917Y-81083976D01*
X48823994Y-81044083D01*
X48824028Y-81043414D01*
X48824193Y-81042753D01*
X48826188Y-81001183D01*
X48828290Y-80960082D01*
X48828192Y-80959415D01*
X48828225Y-80958738D01*
X48822129Y-80917964D01*
X48819166Y-80897713D01*
X48819002Y-80897052D01*
X48815787Y-80875551D01*
X48808894Y-80856355D01*
X48532039Y-79741651D01*
X48530962Y-79730713D01*
X48527824Y-79720369D01*
X48526228Y-79709693D01*
X48515643Y-79680216D01*
X48506545Y-79650224D01*
X48501769Y-79641289D01*
X48498376Y-79631746D01*
X48498031Y-79631168D01*
X48497802Y-79630530D01*
X48481664Y-79603675D01*
X48466895Y-79576044D01*
X48460467Y-79568211D01*
X48455278Y-79559515D01*
X48454826Y-79559015D01*
X48454478Y-79558435D01*
X48433416Y-79535250D01*
X48413535Y-79511025D01*
X48405703Y-79504598D01*
X48398917Y-79497080D01*
X48398374Y-79496675D01*
X48397921Y-79496177D01*
X48372745Y-79477549D01*
X48348516Y-79457665D01*
X48339579Y-79452888D01*
X48331458Y-79446840D01*
X48330849Y-79446550D01*
X48330305Y-79446148D01*
X48301974Y-79432788D01*
X48274336Y-79418015D01*
X48264637Y-79415073D01*
X48255494Y-79410726D01*
X48254841Y-79410561D01*
X48254228Y-79410272D01*
X48223850Y-79402700D01*
X48193847Y-79393598D01*
X48183759Y-79392604D01*
X48173944Y-79390125D01*
X48173265Y-79390090D01*
X48172614Y-79389928D01*
X48141340Y-79388427D01*
X48131118Y-79387420D01*
X48121040Y-79387420D01*
X48089943Y-79385830D01*
X48089276Y-79385928D01*
X48088599Y-79385895D01*
X48057621Y-79390526D01*
X48026433Y-79393598D01*
X48016732Y-79396541D01*
X48006717Y-79398006D01*
X47986229Y-79405291D01*
X44654526Y-80243866D01*
X44632511Y-80247283D01*
X44594089Y-80261322D01*
X44555670Y-80275118D01*
X44554638Y-80275738D01*
X44553508Y-80276151D01*
X44518605Y-80297391D01*
X44483575Y-80318442D01*
X44482684Y-80319251D01*
X44481656Y-80319877D01*
X44451540Y-80347543D01*
X44421317Y-80374999D01*
X44420602Y-80375965D01*
X44419714Y-80376781D01*
X44395597Y-80409761D01*
X44371288Y-80442615D01*
X44370773Y-80443706D01*
X44370065Y-80444675D01*
X44352877Y-80481657D01*
X44335412Y-80518692D01*
X44335121Y-80519861D01*
X44334614Y-80520951D01*
X44324945Y-80560683D01*
X44315068Y-80600306D01*
X44315010Y-80601505D01*
X44314725Y-80602678D01*
X44312992Y-80643563D01*
X44311035Y-80684320D01*
X26554076Y-80684320D01*
X26463695Y-80219353D01*
X26432766Y-80115768D01*
X26382223Y-80020208D01*
X26314008Y-79936344D01*
X26230743Y-79867400D01*
X26135628Y-79816025D01*
X26032318Y-79784194D01*
X25924782Y-79773128D01*
X25817154Y-79783255D01*
X23066143Y-80317997D01*
X23019633Y-80314361D01*
X22760877Y-79969231D01*
X22796502Y-79965879D01*
X24249065Y-79683529D01*
X24274775Y-79680933D01*
X24296278Y-79674352D01*
X25380981Y-79463507D01*
X25542531Y-79505132D01*
X25798208Y-79519418D01*
X26051762Y-79483551D01*
X26293445Y-79398906D01*
X26458708Y-79301358D01*
X26887643Y-78987693D01*
X27234927Y-79002524D01*
X27585317Y-78948250D01*
X27918387Y-78826662D01*
X28145420Y-78688598D01*
X44035947Y-66744734D01*
X50263643Y-66744734D01*
X50263643Y-66850800D01*
X50775269Y-67364479D01*
X50820949Y-67401968D01*
X50873067Y-67429825D01*
X50929617Y-67446980D01*
X50988427Y-67452772D01*
X51047238Y-67446980D01*
X51103788Y-67429825D01*
X51155906Y-67401968D01*
X51201586Y-67364479D01*
X53127425Y-65436586D01*
X53127425Y-65330520D01*
X52402641Y-64605736D01*
X50263643Y-66744734D01*
X44035947Y-66744734D01*
X45376529Y-65737107D01*
X49272762Y-65737107D01*
X49278554Y-65795917D01*
X49295709Y-65852467D01*
X49323566Y-65904585D01*
X49361055Y-65950265D01*
X49874734Y-66461891D01*
X49980800Y-66461891D01*
X52119798Y-64322893D01*
X52685484Y-64322893D01*
X53410268Y-65047677D01*
X53516334Y-65047677D01*
X55444227Y-63121838D01*
X55481716Y-63076158D01*
X55509573Y-63024040D01*
X55526728Y-62967490D01*
X55528970Y-62944721D01*
X57858061Y-62944721D01*
X57858061Y-63050787D01*
X59783900Y-64978680D01*
X59829581Y-65016169D01*
X59881699Y-65044026D01*
X59938249Y-65061181D01*
X59997059Y-65066973D01*
X60055869Y-65061181D01*
X60112419Y-65044026D01*
X60164537Y-65016169D01*
X60210218Y-64978680D01*
X61428950Y-63757894D01*
X61428950Y-63651828D01*
X59289952Y-61512830D01*
X57858061Y-62944721D01*
X55528970Y-62944721D01*
X55532520Y-62908679D01*
X55526728Y-62849869D01*
X55509573Y-62793319D01*
X55481716Y-62741201D01*
X55444227Y-62695521D01*
X54930548Y-62183895D01*
X54824482Y-62183895D01*
X52685484Y-64322893D01*
X52119798Y-64322893D01*
X51395014Y-63598109D01*
X51288948Y-63598109D01*
X49361055Y-65523948D01*
X49323566Y-65569628D01*
X49295709Y-65621746D01*
X49278554Y-65678296D01*
X49272762Y-65737107D01*
X45376529Y-65737107D01*
X47255883Y-64324521D01*
X47288006Y-64307457D01*
X47397337Y-64218200D01*
X47439188Y-64186743D01*
X47465838Y-64162276D01*
X47493840Y-64139415D01*
X47530926Y-64102518D01*
X47634923Y-64007039D01*
X47656410Y-63977676D01*
X47671480Y-63962683D01*
X47673266Y-63961217D01*
X47734153Y-63900330D01*
X47795210Y-63839585D01*
X47796681Y-63837802D01*
X48054760Y-63579723D01*
X48573471Y-63209200D01*
X51677857Y-63209200D01*
X51677857Y-63315266D01*
X52402641Y-64040050D01*
X54541639Y-61901052D01*
X54541639Y-61794986D01*
X54030013Y-61281307D01*
X53984333Y-61243818D01*
X53932215Y-61215961D01*
X53875665Y-61198806D01*
X53816855Y-61193014D01*
X53758044Y-61198806D01*
X53701494Y-61215961D01*
X53649376Y-61243818D01*
X53603696Y-61281307D01*
X51677857Y-63209200D01*
X48573471Y-63209200D01*
X49795483Y-62336299D01*
X49824531Y-62321920D01*
X49939497Y-62233428D01*
X49985309Y-62200704D01*
X50009577Y-62179486D01*
X50105504Y-62105649D01*
X50142743Y-62063057D01*
X50185350Y-62025805D01*
X50259206Y-61929853D01*
X50280403Y-61905609D01*
X50313099Y-61859836D01*
X50401620Y-61744832D01*
X50416003Y-61715777D01*
X51268106Y-60522880D01*
X55452966Y-60522880D01*
X55458758Y-60581690D01*
X55475913Y-60638240D01*
X55503770Y-60690358D01*
X55541259Y-60736039D01*
X57469152Y-62661878D01*
X57575218Y-62661878D01*
X59007109Y-61229987D01*
X59572795Y-61229987D01*
X61711793Y-63368985D01*
X61817859Y-63368985D01*
X63038645Y-62150253D01*
X63076134Y-62104572D01*
X63103991Y-62052454D01*
X63121146Y-61995904D01*
X63126938Y-61937094D01*
X63121146Y-61878284D01*
X63103991Y-61821734D01*
X63076134Y-61769616D01*
X63038645Y-61723935D01*
X61110752Y-59798096D01*
X61004686Y-59798096D01*
X59572795Y-61229987D01*
X59007109Y-61229987D01*
X56868111Y-59090989D01*
X56762045Y-59090989D01*
X55541259Y-60309721D01*
X55503770Y-60355402D01*
X55475913Y-60407520D01*
X55458758Y-60464070D01*
X55452966Y-60522880D01*
X51268106Y-60522880D01*
X51659422Y-59975061D01*
X51917502Y-59716981D01*
X51919285Y-59715510D01*
X51980030Y-59654453D01*
X52040917Y-59593566D01*
X52042383Y-59591780D01*
X52092752Y-59541152D01*
X52159650Y-59486250D01*
X52217484Y-59415779D01*
X52219115Y-59414140D01*
X52273481Y-59347548D01*
X52384587Y-59212165D01*
X52385688Y-59210106D01*
X52387157Y-59208306D01*
X52469070Y-59054108D01*
X52551729Y-58899463D01*
X52552406Y-58897230D01*
X52553497Y-58895177D01*
X52603839Y-58727679D01*
X52611604Y-58702080D01*
X57150954Y-58702080D01*
X57150954Y-58808146D01*
X59289952Y-60947144D01*
X60721843Y-59515253D01*
X60721843Y-59409187D01*
X58796004Y-57481294D01*
X58750323Y-57443805D01*
X58698205Y-57415948D01*
X58641655Y-57398793D01*
X58582845Y-57393001D01*
X58524035Y-57398793D01*
X58467485Y-57415948D01*
X58415367Y-57443805D01*
X58369686Y-57481294D01*
X57150954Y-58702080D01*
X52611604Y-58702080D01*
X52654655Y-58560161D01*
X52654883Y-58557845D01*
X52655554Y-58555613D01*
X52672247Y-58381550D01*
X52680700Y-58295723D01*
X52680700Y-58293404D01*
X52689402Y-58202664D01*
X52680700Y-58116571D01*
X52680700Y-57739332D01*
X52682602Y-57679616D01*
X52680700Y-57650985D01*
X52680700Y-57622276D01*
X52674841Y-57562790D01*
X52584291Y-56199727D01*
X54836205Y-53947813D01*
X54873694Y-53902132D01*
X54901551Y-53850015D01*
X54918706Y-53793465D01*
X54924498Y-53734655D01*
X54918706Y-53675845D01*
X54901551Y-53619295D01*
X54873694Y-53567178D01*
X54836205Y-53521497D01*
X52926814Y-51612106D01*
X53041725Y-51497052D01*
X53096368Y-51454078D01*
X53166715Y-51371907D01*
X53180366Y-51358239D01*
X53224197Y-51304763D01*
X53326957Y-51184731D01*
X53336480Y-51167772D01*
X53348808Y-51152732D01*
X53423206Y-51013337D01*
X53457063Y-50953045D01*
X53464825Y-50935357D01*
X53515757Y-50839927D01*
X53535896Y-50773390D01*
X54400687Y-48802586D01*
X72000196Y-48802586D01*
X72000196Y-48908652D01*
X73926035Y-50836545D01*
X73971716Y-50874034D01*
X74023834Y-50901891D01*
X74080384Y-50919046D01*
X74139194Y-50924838D01*
X74198004Y-50919046D01*
X74254554Y-50901891D01*
X74306672Y-50874034D01*
X74352353Y-50836545D01*
X75571085Y-49615759D01*
X75571085Y-49509693D01*
X73432087Y-47370695D01*
X72000196Y-48802586D01*
X54400687Y-48802586D01*
X62737493Y-29803556D01*
X65918734Y-32984797D01*
X65907521Y-32998532D01*
X65891200Y-33016825D01*
X65879540Y-33032806D01*
X65838972Y-33082498D01*
X65827424Y-33104237D01*
X64435377Y-35012185D01*
X64320798Y-35127353D01*
X64309383Y-35136721D01*
X63868600Y-35577504D01*
X63845242Y-35599186D01*
X63840859Y-35605245D01*
X61480956Y-37965148D01*
X61443467Y-38010829D01*
X61415610Y-38062946D01*
X61398455Y-38119496D01*
X61392663Y-38178306D01*
X61398455Y-38237116D01*
X61415610Y-38293666D01*
X61443467Y-38345783D01*
X61480956Y-38391464D01*
X65315850Y-42226358D01*
X65337385Y-42249558D01*
X65343404Y-42253912D01*
X65710058Y-42620566D01*
X65925107Y-43653642D01*
X64126047Y-45319701D01*
X64037882Y-45419098D01*
X63948375Y-45572128D01*
X63890443Y-45739679D01*
X63874169Y-45858127D01*
X63828187Y-45926945D01*
X63775420Y-46054337D01*
X63748519Y-46189575D01*
X63748519Y-46327463D01*
X63775420Y-46462701D01*
X63828187Y-46590093D01*
X63904793Y-46704743D01*
X64002295Y-46802245D01*
X64116945Y-46878851D01*
X64244337Y-46931618D01*
X64379575Y-46958519D01*
X64517463Y-46958519D01*
X64652701Y-46931618D01*
X64780093Y-46878851D01*
X64825868Y-46848266D01*
X64912281Y-46843091D01*
X65083780Y-46798172D01*
X65243221Y-46720660D01*
X65349083Y-46640373D01*
X65629437Y-46380745D01*
X69595101Y-46380745D01*
X69600893Y-46439555D01*
X69618048Y-46496105D01*
X69645905Y-46548223D01*
X69683394Y-46593904D01*
X71611287Y-48519743D01*
X71717353Y-48519743D01*
X73149244Y-47087852D01*
X73714930Y-47087852D01*
X75853928Y-49226850D01*
X75959994Y-49226850D01*
X77100468Y-48088294D01*
X79385911Y-48088294D01*
X79387854Y-48129387D01*
X79389617Y-48170466D01*
X79389839Y-48171375D01*
X79389883Y-48172310D01*
X79399819Y-48212292D01*
X79409549Y-48252182D01*
X79409942Y-48253027D01*
X79410169Y-48253939D01*
X79427739Y-48291265D01*
X79445040Y-48328439D01*
X79445592Y-48329192D01*
X79445991Y-48330041D01*
X79470455Y-48363155D01*
X79494725Y-48396307D01*
X79495415Y-48396940D01*
X79495971Y-48397693D01*
X79526413Y-48425387D01*
X79556697Y-48453178D01*
X79557496Y-48453664D01*
X79558189Y-48454294D01*
X79593402Y-48475489D01*
X79628571Y-48496867D01*
X79629452Y-48497188D01*
X79630252Y-48497670D01*
X79668924Y-48511588D01*
X79687787Y-48518469D01*
X79688687Y-48518700D01*
X79709395Y-48526153D01*
X79729320Y-48529146D01*
X80854843Y-48818496D01*
X80875848Y-48826022D01*
X80916182Y-48832023D01*
X80956572Y-48838271D01*
X80957818Y-48838218D01*
X80959044Y-48838400D01*
X80999771Y-48836416D01*
X81040606Y-48834663D01*
X81041814Y-48834368D01*
X81043054Y-48834308D01*
X81082622Y-48824414D01*
X81122322Y-48814731D01*
X81123450Y-48814206D01*
X81124654Y-48813905D01*
X81161557Y-48796471D01*
X81198579Y-48779241D01*
X81199581Y-48778508D01*
X81200706Y-48777976D01*
X81233471Y-48753697D01*
X81266448Y-48729555D01*
X81267291Y-48728636D01*
X81268286Y-48727899D01*
X81295659Y-48697724D01*
X81323319Y-48667583D01*
X81323965Y-48666521D01*
X81324799Y-48665601D01*
X81345763Y-48630659D01*
X81367007Y-48595709D01*
X81367434Y-48594538D01*
X81368072Y-48593475D01*
X81381816Y-48555113D01*
X81395833Y-48516690D01*
X81399245Y-48494633D01*
X82235253Y-45163156D01*
X82242461Y-45142915D01*
X82248504Y-45101757D01*
X82254640Y-45060517D01*
X82254620Y-45060105D01*
X82254680Y-45059696D01*
X82252572Y-45018062D01*
X82250548Y-44976505D01*
X82250448Y-44976105D01*
X82250427Y-44975692D01*
X82240284Y-44935452D01*
X82230146Y-44894905D01*
X82229968Y-44894529D01*
X82229868Y-44894131D01*
X82212147Y-44856808D01*
X82194216Y-44818854D01*
X82193968Y-44818519D01*
X82193792Y-44818149D01*
X82168890Y-44784675D01*
X82144139Y-44751274D01*
X82143837Y-44751000D01*
X82143587Y-44750664D01*
X82112577Y-44722642D01*
X82081841Y-44694761D01*
X82081484Y-44694547D01*
X82081180Y-44694272D01*
X82045722Y-44673091D01*
X82009715Y-44651487D01*
X82009322Y-44651346D01*
X82008972Y-44651137D01*
X81969726Y-44637160D01*
X81930532Y-44623118D01*
X81909283Y-44619957D01*
X80786960Y-44340601D01*
X80767805Y-44333707D01*
X80756978Y-44332080D01*
X80746487Y-44328898D01*
X80715441Y-44325840D01*
X80684626Y-44321211D01*
X80683910Y-44321245D01*
X80683196Y-44321140D01*
X80651989Y-44322720D01*
X80641802Y-44322720D01*
X80631735Y-44323711D01*
X80600609Y-44325183D01*
X80599910Y-44325357D01*
X80599193Y-44325393D01*
X80589274Y-44327893D01*
X80579073Y-44328898D01*
X80549224Y-44337953D01*
X80518980Y-44345469D01*
X80518324Y-44345778D01*
X80517633Y-44345952D01*
X80508391Y-44350340D01*
X80498584Y-44353315D01*
X80471082Y-44368015D01*
X80442878Y-44381291D01*
X80442299Y-44381719D01*
X80441650Y-44382027D01*
X80433439Y-44388136D01*
X80424404Y-44392965D01*
X80400299Y-44412747D01*
X80375226Y-44431271D01*
X80374741Y-44431804D01*
X80374166Y-44432232D01*
X80367303Y-44439827D01*
X80359385Y-44446325D01*
X80339604Y-44470428D01*
X80318625Y-44493489D01*
X80318254Y-44494106D01*
X80317772Y-44494639D01*
X80312522Y-44503427D01*
X80306025Y-44511344D01*
X80291330Y-44538836D01*
X80275249Y-44565553D01*
X80275005Y-44566231D01*
X80274637Y-44566847D01*
X80271201Y-44576495D01*
X80266375Y-44585524D01*
X80257327Y-44615350D01*
X80253904Y-44624861D01*
X80253726Y-44625567D01*
X80246419Y-44646085D01*
X80244933Y-44656207D01*
X80241958Y-44666013D01*
X80240962Y-44676125D01*
X79405772Y-47984382D01*
X79398867Y-48003310D01*
X79395503Y-48025056D01*
X79395275Y-48025961D01*
X79392288Y-48045846D01*
X79386010Y-48086433D01*
X79386050Y-48087368D01*
X79385911Y-48088294D01*
X77100468Y-48088294D01*
X77180780Y-48008118D01*
X77218269Y-47962437D01*
X77246126Y-47910319D01*
X77263281Y-47853769D01*
X77269073Y-47794959D01*
X77263281Y-47736149D01*
X77246126Y-47679599D01*
X77218269Y-47627481D01*
X77180780Y-47581800D01*
X75252887Y-45655961D01*
X75146821Y-45655961D01*
X73714930Y-47087852D01*
X73149244Y-47087852D01*
X71010246Y-44948854D01*
X70904180Y-44948854D01*
X69683394Y-46167586D01*
X69645905Y-46213267D01*
X69618048Y-46265385D01*
X69600893Y-46321935D01*
X69595101Y-46380745D01*
X65629437Y-46380745D01*
X67504621Y-44644192D01*
X67555030Y-44602068D01*
X67588978Y-44559945D01*
X71293089Y-44559945D01*
X71293089Y-44666011D01*
X73432087Y-46805009D01*
X74863978Y-45373118D01*
X74863978Y-45267052D01*
X72938139Y-43339159D01*
X72892458Y-43301670D01*
X72840340Y-43273813D01*
X72783790Y-43256658D01*
X72724980Y-43250866D01*
X72666170Y-43256658D01*
X72609620Y-43273813D01*
X72557502Y-43301670D01*
X72511821Y-43339159D01*
X71293089Y-44559945D01*
X67588978Y-44559945D01*
X67597302Y-44549617D01*
X67642018Y-44499204D01*
X67652835Y-44480709D01*
X67666276Y-44464032D01*
X67697504Y-44404339D01*
X67731524Y-44346174D01*
X67738525Y-44325925D01*
X67748455Y-44306944D01*
X67767437Y-44242308D01*
X67789457Y-44178622D01*
X67792373Y-44157395D01*
X67798409Y-44136843D01*
X67804417Y-44069737D01*
X67813588Y-44002987D01*
X67812308Y-43981604D01*
X67814218Y-43960266D01*
X67807018Y-43893270D01*
X67802991Y-43826020D01*
X67786346Y-43762469D01*
X67427274Y-42037527D01*
X67423526Y-41998443D01*
X67409253Y-41950953D01*
X67408202Y-41945905D01*
X67396540Y-41908654D01*
X67372498Y-41828662D01*
X67370059Y-41824071D01*
X67368506Y-41819110D01*
X67328506Y-41745849D01*
X67289328Y-41672098D01*
X67286039Y-41668069D01*
X67283549Y-41663509D01*
X67230023Y-41599456D01*
X67209590Y-41574428D01*
X68978340Y-39805678D01*
X69015829Y-39759997D01*
X69043686Y-39707880D01*
X69060841Y-39651330D01*
X69066633Y-39592520D01*
X69060841Y-39533710D01*
X69043686Y-39477160D01*
X69015829Y-39425043D01*
X68978340Y-39379362D01*
X65795373Y-36196395D01*
X65806589Y-36182655D01*
X65822899Y-36164375D01*
X65834551Y-36148405D01*
X65875128Y-36098702D01*
X65886679Y-36076958D01*
X67278725Y-34169012D01*
X67393245Y-34053904D01*
X67404731Y-34044478D01*
X67823536Y-33625673D01*
X67850724Y-33601902D01*
X67862145Y-33587064D01*
X68818944Y-32630265D01*
X68856433Y-32584584D01*
X68884290Y-32532467D01*
X68901445Y-32475917D01*
X68907237Y-32417107D01*
X68901445Y-32358297D01*
X68884290Y-32301747D01*
X68856433Y-32249630D01*
X68818944Y-32203949D01*
X65089981Y-28474986D01*
X68588109Y-28474986D01*
X68588109Y-28581052D01*
X70513948Y-30508945D01*
X70559628Y-30546434D01*
X70611746Y-30574291D01*
X70668296Y-30591446D01*
X70727107Y-30597238D01*
X70785917Y-30591446D01*
X70842467Y-30574291D01*
X70894585Y-30546434D01*
X70940265Y-30508945D01*
X71451891Y-29995266D01*
X71451891Y-29889200D01*
X69312893Y-27750202D01*
X68588109Y-28474986D01*
X65089981Y-28474986D01*
X64576303Y-27961308D01*
X64575354Y-27960529D01*
X66270528Y-26265355D01*
X66271307Y-26266304D01*
X68199200Y-28192143D01*
X68305266Y-28192143D01*
X69030050Y-27467359D01*
X69595736Y-27467359D01*
X71734734Y-29606357D01*
X71840800Y-29606357D01*
X72354479Y-29094731D01*
X72391968Y-29049051D01*
X72419825Y-28996933D01*
X72436980Y-28940383D01*
X72442772Y-28881573D01*
X72436980Y-28822762D01*
X72419825Y-28766212D01*
X72391968Y-28714094D01*
X72354479Y-28668414D01*
X70540262Y-26856129D01*
X82038927Y-26856129D01*
X82098238Y-26944062D01*
X82318827Y-26988420D01*
X82377662Y-26993955D01*
X82436447Y-26987906D01*
X82492922Y-26970505D01*
X82544917Y-26942421D01*
X82590433Y-26904733D01*
X82627723Y-26858889D01*
X82655353Y-26806650D01*
X82672260Y-26750026D01*
X82952278Y-25301849D01*
X82892967Y-25213916D01*
X82377613Y-25113741D01*
X82038927Y-26856129D01*
X70540262Y-26856129D01*
X70426586Y-26742575D01*
X70320520Y-26742575D01*
X69595736Y-27467359D01*
X69030050Y-27467359D01*
X69015908Y-27453217D01*
X69298751Y-27170374D01*
X69312893Y-27184516D01*
X70037677Y-26459732D01*
X70037677Y-26353666D01*
X68324738Y-24638900D01*
X68416675Y-24638900D01*
X75958888Y-25611919D01*
X76224485Y-25619922D01*
X76574166Y-25561256D01*
X76905684Y-25435497D01*
X77016803Y-25365997D01*
X77259819Y-25230688D01*
X77220001Y-25435536D01*
X77209874Y-25543165D01*
X77220940Y-25650700D01*
X77252772Y-25754011D01*
X77304147Y-25849126D01*
X77373091Y-25932391D01*
X77456954Y-26000605D01*
X77552514Y-26051148D01*
X77656099Y-26082077D01*
X78146912Y-26177481D01*
X78254539Y-26187608D01*
X78362075Y-26176542D01*
X78465385Y-26144711D01*
X78560500Y-26093336D01*
X78643765Y-26024392D01*
X78711980Y-25940528D01*
X78720307Y-25924783D01*
X79173128Y-25924783D01*
X79184194Y-26032318D01*
X79216026Y-26135629D01*
X79267401Y-26230744D01*
X79336345Y-26314009D01*
X79420208Y-26382223D01*
X79515768Y-26432766D01*
X79619353Y-26463695D01*
X80110166Y-26559099D01*
X80217793Y-26569226D01*
X80325329Y-26558160D01*
X80428639Y-26526329D01*
X80471807Y-26503012D01*
X81093270Y-26503012D01*
X81099320Y-26561797D01*
X81116720Y-26618272D01*
X81144804Y-26670267D01*
X81182493Y-26715784D01*
X81228337Y-26753073D01*
X81280576Y-26780703D01*
X81337200Y-26797611D01*
X81558343Y-26839117D01*
X81646276Y-26779806D01*
X81984962Y-25037418D01*
X81469607Y-24937243D01*
X81381675Y-24996554D01*
X81098806Y-26444177D01*
X81093270Y-26503012D01*
X80471807Y-26503012D01*
X80523754Y-26474954D01*
X80607019Y-26406010D01*
X80675234Y-26322146D01*
X80725777Y-26226586D01*
X80756706Y-26123002D01*
X81029209Y-24721090D01*
X82453936Y-24721090D01*
X82969291Y-24821265D01*
X83057223Y-24761954D01*
X83340092Y-23314331D01*
X83345628Y-23255496D01*
X83339578Y-23196711D01*
X83322178Y-23140236D01*
X83294094Y-23088241D01*
X83256405Y-23042724D01*
X83210561Y-23005435D01*
X83158322Y-22977805D01*
X83101698Y-22960897D01*
X82880555Y-22919391D01*
X82792622Y-22978702D01*
X82453936Y-24721090D01*
X81029209Y-24721090D01*
X81313576Y-23258152D01*
X81431956Y-23281700D01*
X81569844Y-23281700D01*
X81705082Y-23254799D01*
X81720223Y-23248527D01*
X81486620Y-24456659D01*
X81545931Y-24544592D01*
X82061285Y-24644767D01*
X82399971Y-22902379D01*
X82340660Y-22814446D01*
X82174946Y-22781123D01*
X82200900Y-22650644D01*
X82200900Y-22512756D01*
X82173999Y-22377518D01*
X82121232Y-22250126D01*
X82044626Y-22135476D01*
X81947124Y-22037974D01*
X81832474Y-21961368D01*
X81705082Y-21908601D01*
X81569844Y-21881700D01*
X81431956Y-21881700D01*
X81296718Y-21908601D01*
X81169326Y-21961368D01*
X81054676Y-22037974D01*
X80957174Y-22135476D01*
X80880568Y-22250126D01*
X80827801Y-22377518D01*
X80800900Y-22512756D01*
X80800900Y-22513670D01*
X80402222Y-22436175D01*
X80294595Y-22426048D01*
X80187059Y-22437114D01*
X80083749Y-22468945D01*
X79988634Y-22520320D01*
X79905369Y-22589264D01*
X79837154Y-22673128D01*
X79786611Y-22768688D01*
X79755682Y-22872272D01*
X79183255Y-25817154D01*
X79173128Y-25924783D01*
X78720307Y-25924783D01*
X78762523Y-25844968D01*
X78793452Y-25741384D01*
X79365879Y-22796502D01*
X79376006Y-22688873D01*
X79364940Y-22581338D01*
X79333108Y-22478027D01*
X79281733Y-22382912D01*
X79212789Y-22299647D01*
X79128926Y-22231433D01*
X79033366Y-22180890D01*
X78929781Y-22149961D01*
X78438968Y-22054557D01*
X78331341Y-22044430D01*
X78223805Y-22055496D01*
X78120495Y-22087327D01*
X78025380Y-22138702D01*
X77942115Y-22207646D01*
X77873900Y-22291510D01*
X77823357Y-22387070D01*
X77792428Y-22490654D01*
X77705645Y-22937113D01*
X77570355Y-22769403D01*
X77533578Y-22710603D01*
X77290526Y-22452446D01*
X77001780Y-22246668D01*
X76678437Y-22101175D01*
X76419505Y-22041509D01*
X73083208Y-21611094D01*
X85452442Y-21611094D01*
X85511753Y-21699027D01*
X85977749Y-21791086D01*
X86036584Y-21796622D01*
X86095369Y-21790573D01*
X86151844Y-21773172D01*
X86203839Y-21745088D01*
X86249356Y-21707400D01*
X86286645Y-21661556D01*
X86314276Y-21609317D01*
X86331183Y-21552693D01*
X86601660Y-20153597D01*
X86542349Y-20065664D01*
X85781588Y-19917787D01*
X85452442Y-21611094D01*
X73083208Y-21611094D01*
X69976311Y-21210274D01*
X84261379Y-21210274D01*
X84267428Y-21269060D01*
X84284829Y-21325535D01*
X84312913Y-21377529D01*
X84350601Y-21423046D01*
X84396446Y-21460336D01*
X84448684Y-21487966D01*
X84505309Y-21504873D01*
X84971859Y-21594082D01*
X85059791Y-21534771D01*
X85388937Y-19841464D01*
X84628176Y-19693587D01*
X84540243Y-19752898D01*
X84266915Y-21151440D01*
X84261379Y-21210274D01*
X69976311Y-21210274D01*
X68911321Y-21072880D01*
X68885162Y-21064945D01*
X68735727Y-21050227D01*
X68674911Y-21042381D01*
X68647761Y-21041563D01*
X68620724Y-21038900D01*
X68559387Y-21038900D01*
X68409315Y-21034378D01*
X68382361Y-21038900D01*
X67353512Y-21038900D01*
X67265091Y-21030192D01*
X67176681Y-21038900D01*
X67176676Y-21038900D01*
X66912238Y-21064945D01*
X66572937Y-21167871D01*
X66494565Y-21209761D01*
X66463865Y-21222478D01*
X66378837Y-21248271D01*
X66066135Y-21415414D01*
X66066131Y-21415418D01*
X66066128Y-21415419D01*
X66056835Y-21423046D01*
X65860733Y-21583983D01*
X65860724Y-21583992D01*
X65792044Y-21640357D01*
X65735685Y-21709031D01*
X60911038Y-26533679D01*
X60911033Y-26533683D01*
X60032317Y-27412399D01*
X59977231Y-27455722D01*
X59907242Y-27537475D01*
X59893983Y-27550734D01*
X59849785Y-27604590D01*
X59746642Y-27725069D01*
X59737392Y-27741541D01*
X59725414Y-27756136D01*
X59650689Y-27895936D01*
X59616536Y-27956754D01*
X59608993Y-27973944D01*
X59558271Y-28068838D01*
X59537931Y-28135889D01*
X50331838Y-49115976D01*
X50177846Y-49270158D01*
X50167248Y-49278856D01*
X49088638Y-50357466D01*
X49013837Y-50428309D01*
X49004230Y-50441874D01*
X47338821Y-52107283D01*
X47301332Y-52152964D01*
X47273475Y-52205081D01*
X47256320Y-52261631D01*
X47250528Y-52320441D01*
X47256320Y-52379251D01*
X47273475Y-52435801D01*
X47301332Y-52487918D01*
X47338821Y-52533599D01*
X49262859Y-54457637D01*
X49230114Y-54497536D01*
X49201783Y-54550540D01*
X49166813Y-54599431D01*
X49118385Y-54706565D01*
X49062971Y-54810238D01*
X49045524Y-54867753D01*
X49020766Y-54922524D01*
X48994171Y-55037040D01*
X48960045Y-55149539D01*
X48954154Y-55209353D01*
X48940557Y-55267901D01*
X48936814Y-55385410D01*
X48925292Y-55502400D01*
X48939858Y-55650291D01*
X49061098Y-57475339D01*
X49042895Y-57489350D01*
X48965873Y-57577444D01*
X48945983Y-57597334D01*
X48907733Y-57643941D01*
X48867996Y-57689391D01*
X48851624Y-57712310D01*
X48777414Y-57802736D01*
X48748822Y-57856228D01*
X47576755Y-59497056D01*
X45935933Y-60669119D01*
X45882436Y-60697714D01*
X45792001Y-60771932D01*
X45769091Y-60788297D01*
X45723664Y-60828015D01*
X45677034Y-60866283D01*
X45657132Y-60886185D01*
X45569051Y-60963196D01*
X45532049Y-61011268D01*
X45191972Y-61351345D01*
X45105849Y-61437028D01*
X25982412Y-75810858D01*
X25786677Y-75990562D01*
X25577290Y-76276702D01*
X25427750Y-76598193D01*
X25357752Y-76885442D01*
X24923990Y-77202637D01*
X24780933Y-77330552D01*
X24627005Y-77535203D01*
X24515962Y-77765953D01*
X24489023Y-77870504D01*
X23889736Y-78120474D01*
X22490654Y-78392428D01*
X22387070Y-78423357D01*
X22291510Y-78473900D01*
X22207647Y-78542114D01*
X22170875Y-78586525D01*
X22091124Y-78506774D01*
X21976474Y-78430168D01*
X21849082Y-78377401D01*
X21713844Y-78350500D01*
X21575956Y-78350500D01*
X21440718Y-78377401D01*
X21313326Y-78430168D01*
X21198676Y-78506774D01*
X21101174Y-78604276D01*
X21024568Y-78718926D01*
X20971801Y-78846318D01*
X20944900Y-78981556D01*
X16853022Y-78981556D01*
X17953664Y-78766449D01*
X18012975Y-78678516D01*
X17865098Y-77917755D01*
X16171791Y-78246901D01*
X16112480Y-78334833D01*
X15817472Y-78334833D01*
X15608595Y-77270108D01*
X15909940Y-77270108D01*
X15915476Y-77328943D01*
X16007535Y-77794939D01*
X16095468Y-77854250D01*
X16161410Y-77841432D01*
X18257749Y-77841432D01*
X18405626Y-78602193D01*
X18493559Y-78661504D01*
X19892655Y-78391027D01*
X19949279Y-78374120D01*
X20001518Y-78346489D01*
X20047362Y-78309200D01*
X20085050Y-78263683D01*
X20113134Y-78211688D01*
X20130535Y-78155213D01*
X20136584Y-78096428D01*
X20131048Y-78037593D01*
X20038989Y-77571597D01*
X19951056Y-77512286D01*
X18257749Y-77841432D01*
X16161410Y-77841432D01*
X17788775Y-77525104D01*
X17640898Y-76764343D01*
X17552965Y-76705032D01*
X16153869Y-76975509D01*
X16097245Y-76992416D01*
X16045006Y-77020047D01*
X15999162Y-77057336D01*
X15961474Y-77102853D01*
X15933390Y-77154848D01*
X15915989Y-77211323D01*
X15909940Y-77270108D01*
X15608595Y-77270108D01*
X15494402Y-76688020D01*
X18033549Y-76688020D01*
X18181426Y-77448781D01*
X19874733Y-77119635D01*
X19934044Y-77031703D01*
X19844835Y-76565153D01*
X19827928Y-76508528D01*
X19800298Y-76456290D01*
X19763008Y-76410445D01*
X19717491Y-76372757D01*
X19665497Y-76344673D01*
X19609022Y-76327272D01*
X19550236Y-76321223D01*
X19491402Y-76326759D01*
X18092860Y-76600087D01*
X18033549Y-76688020D01*
X15494402Y-76688020D01*
X14910819Y-73713273D01*
X17195115Y-73270465D01*
X17215695Y-73268579D01*
X17236290Y-73262484D01*
X17236695Y-73262405D01*
X17256826Y-73256405D01*
X17296348Y-73244708D01*
X17296705Y-73244520D01*
X17297102Y-73244402D01*
X17334398Y-73224700D01*
X17370794Y-73205561D01*
X17371108Y-73205307D01*
X17371473Y-73205114D01*
X17403990Y-73178692D01*
X17436173Y-73152643D01*
X17436434Y-73152330D01*
X17436752Y-73152071D01*
X17463470Y-73119837D01*
X17489972Y-73087986D01*
X17490166Y-73087629D01*
X17490428Y-73087313D01*
X17510319Y-73050532D01*
X17530123Y-73014077D01*
X17530244Y-73013688D01*
X17530439Y-73013327D01*
X17542788Y-72973321D01*
X17555084Y-72933754D01*
X17555126Y-72933351D01*
X17555248Y-72932957D01*
X17559558Y-72891283D01*
X17563896Y-72850106D01*
X17563859Y-72849701D01*
X17563901Y-72849293D01*
X17560040Y-72808039D01*
X17558143Y-72787336D01*
X17558065Y-72786930D01*
X17556064Y-72765546D01*
X17550162Y-72745741D01*
X17293904Y-71410251D01*
X17291900Y-71388843D01*
X17279953Y-71348766D01*
X17268188Y-71309012D01*
X17267992Y-71308640D01*
X17267872Y-71308236D01*
X17248476Y-71271526D01*
X17229041Y-71234566D01*
X17228774Y-71234236D01*
X17228579Y-71233867D01*
X17202285Y-71201510D01*
X17176122Y-71169187D01*
X17175802Y-71168921D01*
X17175534Y-71168591D01*
X17143413Y-71141970D01*
X17111466Y-71115388D01*
X17111094Y-71115186D01*
X17110772Y-71114919D01*
X17074147Y-71095115D01*
X17037556Y-71075237D01*
X17037156Y-71075113D01*
X17036785Y-71074912D01*
X16997003Y-71062635D01*
X16957234Y-71050276D01*
X16956814Y-71050232D01*
X16956413Y-71050108D01*
X16915003Y-71045827D01*
X16873585Y-71041464D01*
X16873167Y-71041502D01*
X16872748Y-71041459D01*
X16831088Y-71045360D01*
X16789826Y-71049142D01*
X16769219Y-71055241D01*
X16291200Y-71147932D01*
X15202493Y-65565275D01*
X15669566Y-65475001D01*
X15691401Y-65472882D01*
X15730917Y-65460957D01*
X15770343Y-65449230D01*
X15771102Y-65448830D01*
X15771926Y-65448581D01*
X15808401Y-65429152D01*
X15844736Y-65409983D01*
X15845401Y-65409444D01*
X15846162Y-65409038D01*
X15878164Y-65382852D01*
X15910044Y-65356976D01*
X15910591Y-65356317D01*
X15911258Y-65355771D01*
X15937469Y-65323927D01*
X15963756Y-65292248D01*
X15964166Y-65291492D01*
X15964711Y-65290829D01*
X15984149Y-65254589D01*
X16003808Y-65218285D01*
X16004063Y-65217462D01*
X16004468Y-65216706D01*
X16016453Y-65177399D01*
X16028661Y-65137929D01*
X16028750Y-65137071D01*
X16029000Y-65136252D01*
X16033092Y-65095311D01*
X16037360Y-65054269D01*
X16037280Y-65053414D01*
X16037366Y-65052558D01*
X16033398Y-65011675D01*
X16029570Y-64970519D01*
X16023315Y-64949487D01*
X15759581Y-63613564D01*
X15757626Y-63592998D01*
X15751453Y-63572393D01*
X15751371Y-63571979D01*
X15745474Y-63552436D01*
X15733486Y-63512424D01*
X15733285Y-63512045D01*
X15733161Y-63511634D01*
X15713676Y-63475055D01*
X15694091Y-63438110D01*
X15693818Y-63437774D01*
X15693617Y-63437398D01*
X15667341Y-63405286D01*
X15640954Y-63372908D01*
X15640623Y-63372635D01*
X15640351Y-63372302D01*
X15608221Y-63345857D01*
X15576118Y-63319325D01*
X15575739Y-63319121D01*
X15575409Y-63318849D01*
X15538799Y-63299213D01*
X15502075Y-63279421D01*
X15501664Y-63279295D01*
X15501286Y-63279092D01*
X15461435Y-63266941D01*
X15421669Y-63254729D01*
X15421243Y-63254686D01*
X15420831Y-63254560D01*
X15379392Y-63250418D01*
X15337992Y-63246196D01*
X15337564Y-63246237D01*
X15337137Y-63246194D01*
X15295675Y-63250218D01*
X15275242Y-63252160D01*
X15274825Y-63252242D01*
X15253419Y-63254319D01*
X15233648Y-63260285D01*
X10212442Y-64241172D01*
X8578258Y-55906377D01*
X10864533Y-55454662D01*
X10885230Y-55452678D01*
X10905682Y-55446532D01*
X10905965Y-55446476D01*
X10926461Y-55440288D01*
X10965783Y-55428471D01*
X10966026Y-55428342D01*
X10966307Y-55428257D01*
X11004164Y-55408084D01*
X11040065Y-55389014D01*
X11040280Y-55388838D01*
X11040536Y-55388702D01*
X11073268Y-55361909D01*
X11105223Y-55335824D01*
X11105403Y-55335606D01*
X11105624Y-55335425D01*
X11132319Y-55302982D01*
X11158752Y-55270944D01*
X11158886Y-55270695D01*
X11159067Y-55270475D01*
X11178936Y-55233418D01*
X11198595Y-55196868D01*
X11198677Y-55196599D01*
X11198813Y-55196346D01*
X11211024Y-55156275D01*
X11223221Y-55116441D01*
X11223250Y-55116157D01*
X11223332Y-55115887D01*
X11227465Y-55074478D01*
X11231684Y-55032757D01*
X11231657Y-55032474D01*
X11231685Y-55032192D01*
X11227661Y-54990787D01*
X11225669Y-54970012D01*
X11225614Y-54969732D01*
X11223548Y-54948475D01*
X11217538Y-54928570D01*
X10815391Y-52878948D01*
X26868361Y-52878948D01*
X26868361Y-52985014D01*
X27379987Y-53498693D01*
X27425667Y-53536182D01*
X27477785Y-53564039D01*
X27534335Y-53581194D01*
X27593145Y-53586986D01*
X27651956Y-53581194D01*
X27708506Y-53564039D01*
X27760624Y-53536182D01*
X27806304Y-53498693D01*
X29732143Y-51570800D01*
X29732143Y-51464734D01*
X29007359Y-50739950D01*
X26868361Y-52878948D01*
X10815391Y-52878948D01*
X10617688Y-51871321D01*
X25877480Y-51871321D01*
X25883272Y-51930131D01*
X25900427Y-51986681D01*
X25928284Y-52038799D01*
X25965773Y-52084479D01*
X26479452Y-52596105D01*
X26585518Y-52596105D01*
X28724516Y-50457107D01*
X29290202Y-50457107D01*
X30014986Y-51181891D01*
X30121052Y-51181891D01*
X32048945Y-49256052D01*
X32086434Y-49210372D01*
X32114291Y-49158254D01*
X32131446Y-49101704D01*
X32137238Y-49042893D01*
X32131446Y-48984083D01*
X32114291Y-48927533D01*
X32086434Y-48875415D01*
X32048945Y-48829735D01*
X31535266Y-48318109D01*
X31429200Y-48318109D01*
X29290202Y-50457107D01*
X28724516Y-50457107D01*
X27999732Y-49732323D01*
X27893666Y-49732323D01*
X25965773Y-51658162D01*
X25928284Y-51703842D01*
X25900427Y-51755960D01*
X25883272Y-51812510D01*
X25877480Y-51871321D01*
X10617688Y-51871321D01*
X10121698Y-49343414D01*
X28282575Y-49343414D01*
X28282575Y-49449480D01*
X29007359Y-50174264D01*
X31146357Y-48035266D01*
X31146357Y-47929200D01*
X30634731Y-47415521D01*
X30589051Y-47378032D01*
X30536933Y-47350175D01*
X30480383Y-47333020D01*
X30421573Y-47327228D01*
X30362762Y-47333020D01*
X30306212Y-47350175D01*
X30254094Y-47378032D01*
X30208414Y-47415521D01*
X28282575Y-49343414D01*
X10121698Y-49343414D01*
X8965631Y-43451312D01*
X11158414Y-43451312D01*
X11158528Y-43452485D01*
X11158418Y-43453656D01*
X11162598Y-43494271D01*
X11164524Y-43514047D01*
X11164752Y-43515198D01*
X11167029Y-43537326D01*
X11172890Y-43556349D01*
X11888306Y-47173591D01*
X11890231Y-47193962D01*
X11896444Y-47214738D01*
X11896564Y-47215346D01*
X11902547Y-47235149D01*
X11914329Y-47274548D01*
X11914614Y-47275087D01*
X11914795Y-47275685D01*
X11934518Y-47312681D01*
X11953686Y-47348883D01*
X11954072Y-47349357D01*
X11954365Y-47349907D01*
X11980810Y-47382202D01*
X12006788Y-47414113D01*
X12007262Y-47414505D01*
X12007654Y-47414984D01*
X12039877Y-47441488D01*
X12071596Y-47467729D01*
X12072134Y-47468019D01*
X12072615Y-47468415D01*
X12109515Y-47488190D01*
X12145618Y-47507672D01*
X12146202Y-47507852D01*
X12146751Y-47508146D01*
X12186822Y-47520349D01*
X12226011Y-47532406D01*
X12226618Y-47532468D01*
X12227215Y-47532650D01*
X12268669Y-47536779D01*
X12309684Y-47540983D01*
X12310299Y-47540925D01*
X12310912Y-47540986D01*
X12352325Y-47536953D01*
X12372436Y-47535052D01*
X12373030Y-47534936D01*
X12394627Y-47532833D01*
X12414225Y-47526911D01*
X13546411Y-47306356D01*
X13567886Y-47304276D01*
X13607572Y-47292307D01*
X13647488Y-47280371D01*
X13647933Y-47280135D01*
X13648415Y-47279990D01*
X13685185Y-47260412D01*
X13721823Y-47241014D01*
X13722211Y-47240698D01*
X13722658Y-47240460D01*
X13754898Y-47214089D01*
X13787053Y-47187912D01*
X13787374Y-47187524D01*
X13787764Y-47187205D01*
X13814159Y-47155148D01*
X13840669Y-47123104D01*
X13840909Y-47122660D01*
X13841228Y-47122272D01*
X13860789Y-47085819D01*
X13880612Y-47049083D01*
X13880761Y-47048599D01*
X13880998Y-47048157D01*
X13893053Y-47008647D01*
X13905347Y-46968690D01*
X13905399Y-46968185D01*
X13905545Y-46967706D01*
X13909658Y-46926633D01*
X13913923Y-46885017D01*
X13913875Y-46884511D01*
X13913925Y-46884014D01*
X13909942Y-46842890D01*
X13906009Y-46801278D01*
X13899826Y-46780600D01*
X13183882Y-43150640D01*
X13181782Y-43129313D01*
X13181507Y-43128406D01*
X13181411Y-43127474D01*
X13169411Y-43088530D01*
X13157630Y-43049465D01*
X13157466Y-43049157D01*
X13157365Y-43048824D01*
X13156921Y-43047993D01*
X13156643Y-43047091D01*
X13137292Y-43011267D01*
X13118100Y-42975222D01*
X13117881Y-42974954D01*
X13117715Y-42974644D01*
X13117112Y-42973910D01*
X13116668Y-42973087D01*
X13090714Y-42941741D01*
X13064845Y-42910116D01*
X13064577Y-42909895D01*
X13064355Y-42909625D01*
X13063626Y-42909026D01*
X13063025Y-42908301D01*
X13031385Y-42882566D01*
X12999912Y-42856652D01*
X12999610Y-42856490D01*
X12999336Y-42856265D01*
X12998499Y-42855818D01*
X12997773Y-42855227D01*
X12961720Y-42836158D01*
X12925797Y-42816882D01*
X12925467Y-42816781D01*
X12925156Y-42816615D01*
X12924251Y-42816340D01*
X12923420Y-42815901D01*
X12884327Y-42804229D01*
X12845346Y-42792335D01*
X12845007Y-42792301D01*
X12844667Y-42792198D01*
X12843721Y-42792105D01*
X12842824Y-42791837D01*
X12802191Y-42788014D01*
X12761654Y-42783955D01*
X12760371Y-42784079D01*
X12759083Y-42783958D01*
X12718475Y-42788137D01*
X12677934Y-42792064D01*
X12677604Y-42792163D01*
X12677253Y-42792198D01*
X12656180Y-42798591D01*
X11524047Y-43028938D01*
X11504233Y-43030868D01*
X11482938Y-43037302D01*
X11481789Y-43037536D01*
X11462828Y-43043378D01*
X11423716Y-43055196D01*
X11422676Y-43055750D01*
X11421551Y-43056097D01*
X11385528Y-43075555D01*
X11349494Y-43094766D01*
X11348585Y-43095510D01*
X11347547Y-43096071D01*
X11316000Y-43122193D01*
X11284416Y-43148055D01*
X11283669Y-43148963D01*
X11282761Y-43149715D01*
X11256938Y-43181463D01*
X11230986Y-43213016D01*
X11230430Y-43214054D01*
X11229687Y-43214967D01*
X11210569Y-43251113D01*
X11191255Y-43287152D01*
X11190912Y-43288278D01*
X11190361Y-43289320D01*
X11178646Y-43328556D01*
X11166751Y-43367616D01*
X11166634Y-43368786D01*
X11166297Y-43369916D01*
X11162465Y-43410646D01*
X11158414Y-43451312D01*
X8965631Y-43451312D01*
X7704554Y-37024006D01*
X9989976Y-36572460D01*
X10009859Y-36570630D01*
X10031112Y-36564332D01*
X10032205Y-36564116D01*
X10051500Y-36558290D01*
X10090504Y-36546732D01*
X10091476Y-36546220D01*
X10092547Y-36545897D01*
X10128945Y-36526501D01*
X10164936Y-36507560D01*
X10165793Y-36506866D01*
X10166776Y-36506342D01*
X10198547Y-36480336D01*
X10230298Y-36454619D01*
X10231007Y-36453767D01*
X10231864Y-36453065D01*
X10257924Y-36421394D01*
X10284074Y-36389944D01*
X10284601Y-36388973D01*
X10285307Y-36388115D01*
X10304719Y-36351910D01*
X10324200Y-36316021D01*
X10324527Y-36314966D01*
X10325053Y-36313986D01*
X10336988Y-36274820D01*
X10349134Y-36235690D01*
X10349250Y-36234583D01*
X10349572Y-36233527D01*
X10353626Y-36192905D01*
X10357917Y-36152038D01*
X10357815Y-36150932D01*
X10357925Y-36149832D01*
X10353974Y-36109180D01*
X10352142Y-36089271D01*
X10351933Y-36088184D01*
X10349788Y-36066115D01*
X10344015Y-36046996D01*
X10087637Y-34713334D01*
X10085343Y-34690542D01*
X10073594Y-34652105D01*
X10062153Y-34613496D01*
X10061294Y-34611863D01*
X10060756Y-34610104D01*
X10041724Y-34574679D01*
X10022980Y-34539063D01*
X10021821Y-34537632D01*
X10020949Y-34536009D01*
X9995362Y-34504965D01*
X9970039Y-34473702D01*
X9968622Y-34472524D01*
X9967451Y-34471103D01*
X9936270Y-34445624D01*
X9905364Y-34419926D01*
X9903748Y-34419049D01*
X9902319Y-34417881D01*
X9866721Y-34398950D01*
X9831441Y-34379800D01*
X9829686Y-34379255D01*
X9828055Y-34378388D01*
X9789516Y-34366787D01*
X9751110Y-34354866D01*
X9749275Y-34354673D01*
X9747513Y-34354143D01*
X9707500Y-34350287D01*
X9667459Y-34346083D01*
X9665624Y-34346252D01*
X9663790Y-34346075D01*
X9623733Y-34350106D01*
X9583701Y-34353789D01*
X9561738Y-34360297D01*
X9091759Y-34454819D01*
X7996185Y-28873139D01*
X8468678Y-28776793D01*
X8488708Y-28774813D01*
X8509798Y-28768408D01*
X8510729Y-28768218D01*
X8529791Y-28762336D01*
X8569190Y-28750370D01*
X8570039Y-28749916D01*
X8570959Y-28749632D01*
X8607124Y-28730077D01*
X8643355Y-28710695D01*
X8644099Y-28710084D01*
X8644946Y-28709626D01*
X8676534Y-28683447D01*
X8708357Y-28657313D01*
X8708970Y-28656566D01*
X8709708Y-28655954D01*
X8735563Y-28624139D01*
X8761694Y-28592276D01*
X8762148Y-28591426D01*
X8762755Y-28590679D01*
X8781970Y-28554313D01*
X8801320Y-28518083D01*
X8801599Y-28517163D01*
X8802049Y-28516311D01*
X8813805Y-28476875D01*
X8825709Y-28437584D01*
X8825803Y-28436627D01*
X8826078Y-28435704D01*
X8829910Y-28394789D01*
X8833926Y-28353876D01*
X8833831Y-28352918D01*
X8833921Y-28351960D01*
X8829695Y-28311070D01*
X8827726Y-28291149D01*
X8827539Y-28290212D01*
X8825274Y-28268293D01*
X8819340Y-28249063D01*
X8553485Y-26914864D01*
X8551490Y-26894287D01*
X8545286Y-26873720D01*
X8545207Y-26873323D01*
X8539204Y-26853557D01*
X8527199Y-26813758D01*
X8527009Y-26813400D01*
X8526890Y-26813010D01*
X8507190Y-26776186D01*
X8487663Y-26739518D01*
X8487406Y-26739204D01*
X8487214Y-26738845D01*
X8460611Y-26706450D01*
X8434404Y-26674416D01*
X8434094Y-26674161D01*
X8433833Y-26673843D01*
X8401495Y-26647323D01*
X8369468Y-26620956D01*
X8369109Y-26620763D01*
X8368795Y-26620506D01*
X8331984Y-26600846D01*
X8295350Y-26581191D01*
X8294964Y-26581073D01*
X8294602Y-26580880D01*
X8254443Y-26568713D01*
X8214898Y-26556650D01*
X8214496Y-26556610D01*
X8214104Y-26556491D01*
X8172332Y-26552390D01*
X8131205Y-26548275D01*
X8130804Y-26548314D01*
X8130397Y-26548274D01*
X8088867Y-26552379D01*
X8068466Y-26554356D01*
X8068070Y-26554434D01*
X8046692Y-26556547D01*
X8026909Y-26562555D01*
X3008735Y-27552646D01*
X1372390Y-19218595D01*
X3658525Y-18766908D01*
X3679194Y-18764929D01*
X3699675Y-18758777D01*
X3699985Y-18758716D01*
X3720308Y-18752580D01*
X3759750Y-18740733D01*
X3760020Y-18740590D01*
X3760327Y-18740497D01*
X3797827Y-18720514D01*
X3834038Y-18701286D01*
X3834278Y-18701090D01*
X3834556Y-18700942D01*
X3867028Y-18674362D01*
X3899203Y-18648104D01*
X3899401Y-18647864D01*
X3899644Y-18647665D01*
X3926345Y-18615215D01*
X3952740Y-18583231D01*
X3952887Y-18582959D01*
X3953087Y-18582715D01*
X3973037Y-18545506D01*
X3992593Y-18509160D01*
X3992683Y-18508865D01*
X3992833Y-18508586D01*
X4005025Y-18468578D01*
X4017230Y-18428737D01*
X4017262Y-18428423D01*
X4017352Y-18428127D01*
X4021468Y-18386881D01*
X4025704Y-18345054D01*
X4025674Y-18344742D01*
X4025705Y-18344432D01*
X4021718Y-18303409D01*
X4019698Y-18282309D01*
X4019636Y-18281994D01*
X4017568Y-18260715D01*
X4011568Y-18240844D01*
X3552165Y-15897755D01*
X26009789Y-15897755D01*
X26027872Y-16074115D01*
X26080013Y-16243558D01*
X26164210Y-16399573D01*
X26277226Y-16536164D01*
X26414718Y-16648083D01*
X26571402Y-16731028D01*
X26741258Y-16781811D01*
X26917755Y-16798481D01*
X27094115Y-16780398D01*
X27263558Y-16728257D01*
X27419573Y-16644060D01*
X27556164Y-16531044D01*
X27668083Y-16393552D01*
X27730245Y-16276127D01*
X27752522Y-16221731D01*
X28084333Y-16553542D01*
X28108099Y-16580724D01*
X28122933Y-16592142D01*
X28622358Y-17091567D01*
X28633776Y-17106401D01*
X28660958Y-17130167D01*
X29072425Y-17541634D01*
X29633755Y-20017338D01*
X29640052Y-20048972D01*
X29643514Y-20060378D01*
X29646154Y-20072023D01*
X29656349Y-20102671D01*
X35078649Y-37968811D01*
X34995041Y-38756364D01*
X34995039Y-38756372D01*
X34893309Y-39714635D01*
X34893308Y-39714641D01*
X33695262Y-50999743D01*
X33352797Y-51342208D01*
X33337897Y-51353677D01*
X33314031Y-51380974D01*
X29501308Y-55193697D01*
X29463819Y-55239378D01*
X29435962Y-55291495D01*
X29418807Y-55348045D01*
X29413015Y-55406855D01*
X29418807Y-55465665D01*
X29435962Y-55522215D01*
X29463819Y-55574332D01*
X29501308Y-55620013D01*
X30915521Y-57034226D01*
X30961202Y-57071715D01*
X31013319Y-57099572D01*
X31069869Y-57116727D01*
X31128679Y-57122519D01*
X31187489Y-57116727D01*
X31244039Y-57099572D01*
X31296156Y-57071715D01*
X31341837Y-57034226D01*
X33242985Y-55133078D01*
X34202482Y-56092575D01*
X34230849Y-56120974D01*
X34231028Y-56121121D01*
X34231212Y-56121305D01*
X34231218Y-56121310D01*
X34906963Y-56797055D01*
X35009668Y-56881343D01*
X35166018Y-56964913D01*
X35311858Y-57009154D01*
X36599311Y-58066952D01*
X36709742Y-58140829D01*
X36873493Y-58208764D01*
X37047351Y-58243449D01*
X37224636Y-58243549D01*
X37398533Y-58209060D01*
X37562361Y-58141308D01*
X37709822Y-58042898D01*
X37835252Y-57917609D01*
X37933829Y-57770257D01*
X38001765Y-57606507D01*
X38036449Y-57432648D01*
X38036549Y-57255364D01*
X38002060Y-57081466D01*
X37934308Y-56917639D01*
X37835898Y-56770177D01*
X37742002Y-56676175D01*
X35441667Y-54786175D01*
X34515778Y-53860285D01*
X35584478Y-52791585D01*
X35621967Y-52745904D01*
X35649824Y-52693787D01*
X35666979Y-52637237D01*
X35672771Y-52578427D01*
X35666979Y-52519617D01*
X35649824Y-52463067D01*
X35621967Y-52410950D01*
X35584478Y-52365269D01*
X35230803Y-52011594D01*
X35251200Y-51991505D01*
X35278735Y-51950965D01*
X35309728Y-51913002D01*
X35328422Y-51877811D01*
X35350809Y-51844851D01*
X35369906Y-51799720D01*
X35392898Y-51756438D01*
X35404367Y-51718278D01*
X35419895Y-51681581D01*
X35429820Y-51633592D01*
X35443926Y-51586657D01*
X35451953Y-51502958D01*
X36673915Y-39992589D01*
X36673916Y-39992583D01*
X36784980Y-38946395D01*
X36784980Y-38946392D01*
X36883571Y-38017707D01*
X36892911Y-37970719D01*
X36892899Y-37885524D01*
X36893546Y-37800392D01*
X36892887Y-37796945D01*
X36892887Y-37793435D01*
X36876246Y-37709833D01*
X36860280Y-37626258D01*
X36842289Y-37581872D01*
X31647306Y-20464734D01*
X32103643Y-20464734D01*
X32103643Y-20570800D01*
X32615269Y-21084479D01*
X32660949Y-21121968D01*
X32713067Y-21149825D01*
X32769617Y-21166980D01*
X32828427Y-21172772D01*
X32887238Y-21166980D01*
X32943788Y-21149825D01*
X32995906Y-21121968D01*
X33041586Y-21084479D01*
X34173801Y-19951056D01*
X76912286Y-19951056D01*
X76971597Y-20038989D01*
X77437593Y-20131048D01*
X77496428Y-20136584D01*
X77555213Y-20130535D01*
X77611688Y-20113134D01*
X77663683Y-20085050D01*
X77709200Y-20047362D01*
X77746489Y-20001518D01*
X77774120Y-19949279D01*
X77791027Y-19892655D01*
X77862076Y-19525136D01*
X85857911Y-19525136D01*
X86618672Y-19673013D01*
X86706605Y-19613702D01*
X86979933Y-18215160D01*
X86985469Y-18156326D01*
X86979420Y-18097540D01*
X86962019Y-18041065D01*
X86933935Y-17989071D01*
X86896247Y-17943554D01*
X86850402Y-17906264D01*
X86798164Y-17878634D01*
X86741539Y-17861727D01*
X86274989Y-17772518D01*
X86187057Y-17831829D01*
X85857911Y-19525136D01*
X77862076Y-19525136D01*
X77922419Y-19213003D01*
X84645188Y-19213003D01*
X84704499Y-19300936D01*
X85465260Y-19448813D01*
X85794406Y-17755506D01*
X85735095Y-17667573D01*
X85269099Y-17575514D01*
X85210264Y-17569978D01*
X85151479Y-17576027D01*
X85095004Y-17593428D01*
X85043009Y-17621512D01*
X84997492Y-17659200D01*
X84960203Y-17705044D01*
X84932572Y-17757283D01*
X84915665Y-17813907D01*
X84645188Y-19213003D01*
X77922419Y-19213003D01*
X78061504Y-18493559D01*
X78002193Y-18405626D01*
X77241432Y-18257749D01*
X76912286Y-19951056D01*
X34173801Y-19951056D01*
X34574194Y-19550236D01*
X75721223Y-19550236D01*
X75727272Y-19609022D01*
X75744673Y-19665497D01*
X75772757Y-19717491D01*
X75810445Y-19763008D01*
X75856290Y-19800298D01*
X75908528Y-19827928D01*
X75965153Y-19844835D01*
X76431703Y-19934044D01*
X76519635Y-19874733D01*
X76848781Y-18181426D01*
X76088020Y-18033549D01*
X76000087Y-18092860D01*
X75726759Y-19491402D01*
X75721223Y-19550236D01*
X34574194Y-19550236D01*
X34967425Y-19156586D01*
X34967425Y-19050520D01*
X34242641Y-18325736D01*
X32103643Y-20464734D01*
X31647306Y-20464734D01*
X31495060Y-19963095D01*
X31714734Y-20181891D01*
X31820800Y-20181891D01*
X33959798Y-18042893D01*
X34525484Y-18042893D01*
X35250268Y-18767677D01*
X35356334Y-18767677D01*
X36259875Y-17865098D01*
X77317755Y-17865098D01*
X78078516Y-18012975D01*
X78166449Y-17953664D01*
X78439777Y-16555122D01*
X78445313Y-16496288D01*
X78439264Y-16437502D01*
X78421863Y-16381027D01*
X78393779Y-16329033D01*
X78356091Y-16283516D01*
X78310246Y-16246226D01*
X78258008Y-16218596D01*
X78201383Y-16201689D01*
X77734833Y-16112480D01*
X77646901Y-16171791D01*
X77317755Y-17865098D01*
X36259875Y-17865098D01*
X36572341Y-17552965D01*
X76105032Y-17552965D01*
X76164343Y-17640898D01*
X76925104Y-17788775D01*
X77254250Y-16095468D01*
X77194939Y-16007535D01*
X76728943Y-15915476D01*
X76670108Y-15909940D01*
X76611323Y-15915989D01*
X76554848Y-15933390D01*
X76502853Y-15961474D01*
X76457336Y-15999162D01*
X76420047Y-16045006D01*
X76392416Y-16097245D01*
X76375509Y-16153869D01*
X76105032Y-17552965D01*
X36572341Y-17552965D01*
X37284227Y-16841838D01*
X37321716Y-16796158D01*
X37349573Y-16744040D01*
X37366728Y-16687490D01*
X37372520Y-16628679D01*
X37366728Y-16569869D01*
X37349573Y-16513319D01*
X37321716Y-16461201D01*
X37284227Y-16415521D01*
X36770548Y-15903895D01*
X36664482Y-15903895D01*
X34525484Y-18042893D01*
X33959798Y-18042893D01*
X33235014Y-17318109D01*
X33128948Y-17318109D01*
X31285061Y-19160032D01*
X30782709Y-16944450D01*
X30781247Y-16929200D01*
X33517857Y-16929200D01*
X33517857Y-17035266D01*
X34242641Y-17760050D01*
X36381639Y-15621052D01*
X36381639Y-15514986D01*
X35870013Y-15001307D01*
X35824333Y-14963818D01*
X35772215Y-14935961D01*
X35715665Y-14918806D01*
X35656855Y-14913014D01*
X35598044Y-14918806D01*
X35541494Y-14935961D01*
X35489376Y-14963818D01*
X35443696Y-15001307D01*
X33517857Y-16929200D01*
X30781247Y-16929200D01*
X30779726Y-16913343D01*
X30763156Y-16858210D01*
X30760246Y-16845377D01*
X30750432Y-16815875D01*
X30728698Y-16743562D01*
X30722486Y-16731868D01*
X30718307Y-16719306D01*
X30680954Y-16653685D01*
X30645528Y-16586998D01*
X30637155Y-16576742D01*
X30630605Y-16565235D01*
X30581165Y-16508160D01*
X30565735Y-16489260D01*
X33748692Y-13306303D01*
X33786181Y-13260622D01*
X33814038Y-13208505D01*
X33831193Y-13151955D01*
X33836985Y-13093145D01*
X33831193Y-13034335D01*
X33814038Y-12977785D01*
X33786181Y-12925668D01*
X33748692Y-12879987D01*
X33638612Y-12769907D01*
X42783956Y-12769907D01*
X42783976Y-12770101D01*
X42783957Y-12770299D01*
X42788240Y-12812060D01*
X42792460Y-12853587D01*
X42792518Y-12853776D01*
X42792538Y-12853971D01*
X42804680Y-12893428D01*
X42817125Y-12934001D01*
X42817220Y-12934178D01*
X42817277Y-12934362D01*
X42837113Y-12971118D01*
X42857005Y-13008058D01*
X42857128Y-13008207D01*
X42857223Y-13008383D01*
X42884123Y-13040895D01*
X42910565Y-13072912D01*
X42910718Y-13073036D01*
X42910843Y-13073188D01*
X42943334Y-13099635D01*
X42975749Y-13126070D01*
X42975922Y-13126162D01*
X42976076Y-13126287D01*
X43013208Y-13145944D01*
X43050050Y-13165491D01*
X43050238Y-13165547D01*
X43050413Y-13165640D01*
X43090652Y-13177670D01*
X43130616Y-13189658D01*
X43151794Y-13191678D01*
X46788619Y-13899954D01*
X46808706Y-13905971D01*
X46829797Y-13907974D01*
X46829905Y-13907995D01*
X46850739Y-13909963D01*
X46892440Y-13913923D01*
X46892550Y-13913912D01*
X46892658Y-13913922D01*
X46934573Y-13909624D01*
X46976117Y-13905385D01*
X46976220Y-13905353D01*
X46976331Y-13905342D01*
X47016065Y-13893115D01*
X47056521Y-13880688D01*
X47056621Y-13880634D01*
X47056722Y-13880603D01*
X47093238Y-13860896D01*
X47130562Y-13840778D01*
X47130645Y-13840709D01*
X47130742Y-13840657D01*
X47162705Y-13814210D01*
X47195394Y-13787192D01*
X47195465Y-13787105D01*
X47195547Y-13787037D01*
X47221803Y-13754782D01*
X47248526Y-13721986D01*
X47248577Y-13721890D01*
X47248647Y-13721804D01*
X47268111Y-13685037D01*
X47287917Y-13647669D01*
X47287949Y-13647561D01*
X47287999Y-13647467D01*
X47299789Y-13608034D01*
X47306003Y-13587287D01*
X47306024Y-13587178D01*
X47312093Y-13566880D01*
X47314065Y-13546004D01*
X47537193Y-12403393D01*
X47543287Y-12382959D01*
X47547165Y-12341612D01*
X47551143Y-12299720D01*
X47551117Y-12299468D01*
X47551141Y-12299215D01*
X47546821Y-12257367D01*
X47542605Y-12216043D01*
X47542531Y-12215803D01*
X47542505Y-12215548D01*
X47530087Y-12175290D01*
X47517908Y-12135639D01*
X47517788Y-12135417D01*
X47517713Y-12135173D01*
X47497707Y-12098162D01*
X47477998Y-12061599D01*
X47477838Y-12061405D01*
X47477716Y-12061180D01*
X47450769Y-12028654D01*
X47424412Y-11996766D01*
X47424218Y-11996608D01*
X47424054Y-11996410D01*
X47391149Y-11969662D01*
X47359206Y-11943634D01*
X47358985Y-11943517D01*
X47358786Y-11943355D01*
X47321320Y-11923553D01*
X47284889Y-11904243D01*
X47284650Y-11904171D01*
X47284422Y-11904051D01*
X47243554Y-11891862D01*
X47204314Y-11880109D01*
X47183092Y-11878094D01*
X43547087Y-11172488D01*
X43527867Y-11166658D01*
X43527198Y-11166592D01*
X43526564Y-11166402D01*
X43505248Y-11164369D01*
X43504912Y-11164304D01*
X43485124Y-11162448D01*
X43465138Y-11160480D01*
X43464465Y-11160480D01*
X43442832Y-11158417D01*
X43442497Y-11158451D01*
X43442156Y-11158419D01*
X43401513Y-11162614D01*
X43360453Y-11166658D01*
X43359805Y-11166855D01*
X43359152Y-11166921D01*
X43358830Y-11167020D01*
X43358489Y-11167055D01*
X43319478Y-11179088D01*
X43279964Y-11191075D01*
X43279372Y-11191392D01*
X43278738Y-11191586D01*
X43278440Y-11191746D01*
X43278114Y-11191847D01*
X43242135Y-11211295D01*
X43205784Y-11230725D01*
X43205265Y-11231151D01*
X43204682Y-11231465D01*
X43204420Y-11231681D01*
X43204121Y-11231843D01*
X43172614Y-11257947D01*
X43140765Y-11284085D01*
X43140339Y-11284604D01*
X43139828Y-11285026D01*
X43139615Y-11285287D01*
X43139351Y-11285506D01*
X43113539Y-11317260D01*
X43087405Y-11349104D01*
X43087087Y-11349698D01*
X43086670Y-11350210D01*
X43086511Y-11350509D01*
X43086296Y-11350774D01*
X43067135Y-11387027D01*
X43047755Y-11423284D01*
X43047561Y-11423922D01*
X43047249Y-11424511D01*
X43047152Y-11424834D01*
X43046992Y-11425137D01*
X43035268Y-11464448D01*
X43023338Y-11503773D01*
X43023239Y-11504779D01*
X43022952Y-11505741D01*
X43021016Y-11526391D01*
X42797962Y-12666173D01*
X42791867Y-12686560D01*
X42787886Y-12728701D01*
X42783956Y-12769907D01*
X33638612Y-12769907D01*
X32334479Y-11465774D01*
X32288798Y-11428285D01*
X32236681Y-11400428D01*
X32180131Y-11383273D01*
X32121321Y-11377481D01*
X32062511Y-11383273D01*
X32005961Y-11400428D01*
X31953844Y-11428285D01*
X31908163Y-11465774D01*
X28727564Y-14646373D01*
X28725867Y-14644547D01*
X28675567Y-14608212D01*
X28627502Y-14568972D01*
X28603858Y-14556412D01*
X28582156Y-14540735D01*
X28525740Y-14514914D01*
X28470938Y-14485802D01*
X28464261Y-14483795D01*
X28560156Y-14249636D01*
X28598215Y-14122339D01*
X28614885Y-13945841D01*
X28596802Y-13769481D01*
X28544661Y-13600038D01*
X28460464Y-13444023D01*
X28347448Y-13307432D01*
X28209956Y-13195513D01*
X28053272Y-13112568D01*
X27883416Y-13061785D01*
X27706918Y-13045115D01*
X27530558Y-13063198D01*
X27361115Y-13115339D01*
X27205100Y-13199536D01*
X27068509Y-13312552D01*
X26956590Y-13450044D01*
X26894429Y-13567469D01*
X26064518Y-15593961D01*
X26026459Y-15721258D01*
X26009789Y-15897755D01*
X3552165Y-15897755D01*
X541251Y-541251D01*
X17842389Y-3933444D01*
M02*
