G04 #@! TF.GenerationSoftware,KiCad,Pcbnew,5.1.4+dfsg1-1*
G04 #@! TF.CreationDate,2019-11-20T14:25:38+01:00*
G04 #@! TF.ProjectId,LED-Polyhedron,4c45442d-506f-46c7-9968-6564726f6e2e,rev?*
G04 #@! TF.SameCoordinates,Original*
G04 #@! TF.FileFunction,Soldermask,Bot*
G04 #@! TF.FilePolarity,Negative*
%FSLAX46Y46*%
G04 Gerber Fmt 4.6, Leading zero omitted, Abs format (unit mm)*
G04 Created by KiCad (PCBNEW 5.1.4+dfsg1-1) date 2019-11-20 14:25:38*
%MOMM*%
%LPD*%
G04 APERTURE LIST*
%ADD10C,0.100000*%
G04 APERTURE END LIST*
D10*
G36*
X21140541Y-85138985D02*
G01*
X21174837Y-85149552D01*
X21206410Y-85166605D01*
X21234051Y-85189492D01*
X21256698Y-85217335D01*
X21273475Y-85249055D01*
X21285510Y-85289361D01*
X21518750Y-86489281D01*
X21522690Y-86531152D01*
X21519016Y-86566851D01*
X21508449Y-86601147D01*
X21491396Y-86632720D01*
X21468509Y-86660361D01*
X21440666Y-86683008D01*
X21408946Y-86699785D01*
X21368640Y-86711820D01*
X18303629Y-87307597D01*
X18261758Y-87311537D01*
X18226059Y-87307863D01*
X18191763Y-87297296D01*
X18160190Y-87280243D01*
X18132549Y-87257356D01*
X18109902Y-87229513D01*
X18093125Y-87197793D01*
X18081090Y-87157487D01*
X17847850Y-85957567D01*
X17843910Y-85915696D01*
X17847584Y-85879997D01*
X17858151Y-85845701D01*
X17875204Y-85814128D01*
X17898091Y-85786487D01*
X17925934Y-85763840D01*
X17957654Y-85747063D01*
X17997960Y-85735028D01*
X21062971Y-85139251D01*
X21104842Y-85135311D01*
X21140541Y-85138985D01*
X21140541Y-85138985D01*
G37*
G36*
X26415927Y-81976522D02*
G01*
X26455722Y-81988783D01*
X26492354Y-82008569D01*
X26524425Y-82035124D01*
X26550699Y-82067426D01*
X26570165Y-82104230D01*
X26583844Y-82150043D01*
X26710486Y-82801563D01*
X26714965Y-82849161D01*
X26710702Y-82890580D01*
X26698442Y-82930370D01*
X26678656Y-82967003D01*
X26652101Y-82999074D01*
X26619801Y-83025347D01*
X26582993Y-83044814D01*
X26537179Y-83058494D01*
X23431594Y-83662159D01*
X23383994Y-83666638D01*
X23342581Y-83662376D01*
X23302786Y-83650115D01*
X23266154Y-83630329D01*
X23234083Y-83603774D01*
X23207809Y-83571472D01*
X23188343Y-83534668D01*
X23174664Y-83488855D01*
X23048022Y-82837335D01*
X23043543Y-82789737D01*
X23047806Y-82748318D01*
X23060066Y-82708528D01*
X23079852Y-82671895D01*
X23106407Y-82639824D01*
X23138707Y-82613551D01*
X23175515Y-82594084D01*
X23221329Y-82580404D01*
X26326914Y-81976739D01*
X26374514Y-81972260D01*
X26415927Y-81976522D01*
X26415927Y-81976522D01*
G37*
G36*
X26034310Y-80013267D02*
G01*
X26074105Y-80025528D01*
X26110737Y-80045314D01*
X26142808Y-80071869D01*
X26169082Y-80104171D01*
X26188548Y-80140975D01*
X26202227Y-80186788D01*
X26328869Y-80838308D01*
X26333348Y-80885906D01*
X26329085Y-80927325D01*
X26316825Y-80967115D01*
X26297039Y-81003748D01*
X26270484Y-81035819D01*
X26238184Y-81062092D01*
X26201376Y-81081559D01*
X26155562Y-81095239D01*
X23049977Y-81698904D01*
X23002377Y-81703383D01*
X22960964Y-81699121D01*
X22921169Y-81686860D01*
X22884537Y-81667074D01*
X22852466Y-81640519D01*
X22826192Y-81608217D01*
X22806726Y-81571413D01*
X22793047Y-81525600D01*
X22666405Y-80874080D01*
X22661926Y-80826482D01*
X22666189Y-80785063D01*
X22678449Y-80745273D01*
X22698235Y-80708640D01*
X22724790Y-80676569D01*
X22757090Y-80650296D01*
X22793898Y-80630829D01*
X22839712Y-80617149D01*
X25945297Y-80013484D01*
X25992897Y-80009005D01*
X26034310Y-80013267D01*
X26034310Y-80013267D01*
G37*
G36*
X25652692Y-78050013D02*
G01*
X25692487Y-78062274D01*
X25729119Y-78082060D01*
X25761190Y-78108615D01*
X25787464Y-78140917D01*
X25806930Y-78177721D01*
X25820609Y-78223534D01*
X25947251Y-78875054D01*
X25951730Y-78922652D01*
X25947467Y-78964071D01*
X25935207Y-79003861D01*
X25915421Y-79040494D01*
X25888866Y-79072565D01*
X25856566Y-79098838D01*
X25819758Y-79118305D01*
X25773944Y-79131985D01*
X22668359Y-79735650D01*
X22620759Y-79740129D01*
X22579346Y-79735867D01*
X22539551Y-79723606D01*
X22502919Y-79703820D01*
X22470848Y-79677265D01*
X22444574Y-79644963D01*
X22425108Y-79608159D01*
X22411429Y-79562346D01*
X22284787Y-78910826D01*
X22280308Y-78863228D01*
X22284571Y-78821809D01*
X22296831Y-78782019D01*
X22316617Y-78745386D01*
X22343172Y-78713315D01*
X22375472Y-78687042D01*
X22412280Y-78667575D01*
X22458094Y-78653895D01*
X25563679Y-78050230D01*
X25611279Y-78045751D01*
X25652692Y-78050013D01*
X25652692Y-78050013D01*
G37*
G36*
X19480503Y-76598829D02*
G01*
X19514799Y-76609396D01*
X19546372Y-76626449D01*
X19574013Y-76649336D01*
X19596660Y-76677179D01*
X19613437Y-76708899D01*
X19625472Y-76749205D01*
X19858712Y-77949125D01*
X19862652Y-77990996D01*
X19858978Y-78026695D01*
X19848411Y-78060991D01*
X19831358Y-78092564D01*
X19808471Y-78120205D01*
X19780628Y-78142852D01*
X19748908Y-78159629D01*
X19708602Y-78171664D01*
X16643591Y-78767441D01*
X16601720Y-78771381D01*
X16566021Y-78767707D01*
X16531725Y-78757140D01*
X16500152Y-78740087D01*
X16472511Y-78717200D01*
X16449864Y-78689357D01*
X16433087Y-78657637D01*
X16421052Y-78617331D01*
X16187812Y-77417411D01*
X16183872Y-77375540D01*
X16187546Y-77339841D01*
X16198113Y-77305545D01*
X16215166Y-77273972D01*
X16238053Y-77246331D01*
X16265896Y-77223684D01*
X16297616Y-77206907D01*
X16337922Y-77194872D01*
X19402933Y-76599095D01*
X19444804Y-76595155D01*
X19480503Y-76598829D01*
X19480503Y-76598829D01*
G37*
G36*
X55303193Y-62908679D02*
G01*
X50988427Y-67223445D01*
X49502089Y-65737107D01*
X53816855Y-61422341D01*
X55303193Y-62908679D01*
X55303193Y-62908679D01*
G37*
G36*
X62897611Y-61937094D02*
G01*
X59997059Y-64837646D01*
X55682293Y-60522880D01*
X58582845Y-57622328D01*
X62897611Y-61937094D01*
X62897611Y-61937094D01*
G37*
G36*
X51767659Y-59373145D02*
G01*
X47452893Y-63687911D01*
X45966555Y-62201573D01*
X50281321Y-57886807D01*
X51767659Y-59373145D01*
X51767659Y-59373145D01*
G37*
G36*
X35443445Y-52578427D02*
G01*
X31128679Y-56893193D01*
X29642341Y-55406855D01*
X33957107Y-51092089D01*
X35443445Y-52578427D01*
X35443445Y-52578427D01*
G37*
G36*
X54695172Y-53734655D02*
G01*
X51794620Y-56635207D01*
X47479854Y-52320441D01*
X50380406Y-49419889D01*
X54695172Y-53734655D01*
X54695172Y-53734655D01*
G37*
G36*
X31907911Y-49042893D02*
G01*
X27593145Y-53357659D01*
X26106807Y-51871321D01*
X30421573Y-47556555D01*
X31907911Y-49042893D01*
X31907911Y-49042893D01*
G37*
G36*
X77039746Y-47794959D02*
G01*
X74139194Y-50695511D01*
X69824428Y-46380745D01*
X72724980Y-43480193D01*
X77039746Y-47794959D01*
X77039746Y-47794959D01*
G37*
G36*
X68837307Y-39592520D02*
G01*
X65936755Y-42493072D01*
X61621989Y-38178306D01*
X64522541Y-35277754D01*
X68837307Y-39592520D01*
X68837307Y-39592520D01*
G37*
G36*
X68677911Y-32417107D02*
G01*
X67191573Y-33903445D01*
X62876807Y-29588679D01*
X64363145Y-28102341D01*
X68677911Y-32417107D01*
X68677911Y-32417107D01*
G37*
G36*
X72213445Y-28881573D02*
G01*
X70727107Y-30367911D01*
X66412341Y-26053145D01*
X67898679Y-24566807D01*
X72213445Y-28881573D01*
X72213445Y-28881573D01*
G37*
G36*
X82237335Y-23048022D02*
G01*
X82888852Y-23174663D01*
X82934666Y-23188343D01*
X82971474Y-23207810D01*
X83003774Y-23234083D01*
X83030329Y-23266154D01*
X83050115Y-23302787D01*
X83062375Y-23342577D01*
X83066638Y-23383996D01*
X83062159Y-23431594D01*
X82458493Y-26537182D01*
X82444814Y-26582995D01*
X82425348Y-26619799D01*
X82399074Y-26652101D01*
X82367003Y-26678656D01*
X82330371Y-26698442D01*
X82290576Y-26710703D01*
X82249163Y-26714965D01*
X82201563Y-26710486D01*
X81550046Y-26583845D01*
X81504232Y-26570165D01*
X81467424Y-26550698D01*
X81435124Y-26524425D01*
X81408569Y-26492354D01*
X81388783Y-26455721D01*
X81376523Y-26415931D01*
X81372260Y-26374512D01*
X81376739Y-26326914D01*
X81980405Y-23221326D01*
X81994084Y-23175513D01*
X82013550Y-23138709D01*
X82039824Y-23106407D01*
X82071895Y-23079852D01*
X82108527Y-23060066D01*
X82148322Y-23047805D01*
X82189735Y-23043543D01*
X82237335Y-23048022D01*
X82237335Y-23048022D01*
G37*
G36*
X80274080Y-22666405D02*
G01*
X80925597Y-22793046D01*
X80971411Y-22806726D01*
X81008219Y-22826193D01*
X81040519Y-22852466D01*
X81067074Y-22884537D01*
X81086860Y-22921170D01*
X81099120Y-22960960D01*
X81103383Y-23002379D01*
X81098904Y-23049977D01*
X80495238Y-26155565D01*
X80481559Y-26201378D01*
X80462093Y-26238182D01*
X80435819Y-26270484D01*
X80403748Y-26297039D01*
X80367116Y-26316825D01*
X80327321Y-26329086D01*
X80285908Y-26333348D01*
X80238308Y-26328869D01*
X79586791Y-26202228D01*
X79540977Y-26188548D01*
X79504169Y-26169081D01*
X79471869Y-26142808D01*
X79445314Y-26110737D01*
X79425528Y-26074104D01*
X79413268Y-26034314D01*
X79409005Y-25992895D01*
X79413484Y-25945297D01*
X80017150Y-22839709D01*
X80030829Y-22793896D01*
X80050295Y-22757092D01*
X80076569Y-22724790D01*
X80108640Y-22698235D01*
X80145272Y-22678449D01*
X80185067Y-22666188D01*
X80226480Y-22661926D01*
X80274080Y-22666405D01*
X80274080Y-22666405D01*
G37*
G36*
X78310826Y-22284787D02*
G01*
X78962343Y-22411428D01*
X79008157Y-22425108D01*
X79044965Y-22444575D01*
X79077265Y-22470848D01*
X79103820Y-22502919D01*
X79123606Y-22539552D01*
X79135866Y-22579342D01*
X79140129Y-22620761D01*
X79135650Y-22668359D01*
X78531984Y-25773947D01*
X78518305Y-25819760D01*
X78498839Y-25856564D01*
X78472565Y-25888866D01*
X78440494Y-25915421D01*
X78403862Y-25935207D01*
X78364067Y-25947468D01*
X78322654Y-25951730D01*
X78275054Y-25947251D01*
X77623537Y-25820610D01*
X77577723Y-25806930D01*
X77540915Y-25787463D01*
X77508615Y-25761190D01*
X77482060Y-25729119D01*
X77462274Y-25692486D01*
X77450014Y-25652696D01*
X77445751Y-25611277D01*
X77450230Y-25563679D01*
X78053896Y-22458091D01*
X78067575Y-22412278D01*
X78087041Y-22375474D01*
X78113315Y-22343172D01*
X78145386Y-22316617D01*
X78182018Y-22296831D01*
X78221813Y-22284570D01*
X78263226Y-22280308D01*
X78310826Y-22284787D01*
X78310826Y-22284787D01*
G37*
G36*
X85357567Y-17847850D02*
G01*
X85433341Y-17862579D01*
X85433342Y-17862579D01*
X85498292Y-17875204D01*
X86557487Y-18081090D01*
X86597793Y-18093125D01*
X86629513Y-18109902D01*
X86657356Y-18132549D01*
X86680243Y-18160190D01*
X86697296Y-18191763D01*
X86707863Y-18226059D01*
X86711537Y-18261758D01*
X86707597Y-18303629D01*
X86111820Y-21368640D01*
X86099785Y-21408946D01*
X86083008Y-21440666D01*
X86060361Y-21468509D01*
X86032720Y-21491396D01*
X86001147Y-21508449D01*
X85966851Y-21519016D01*
X85931152Y-21522690D01*
X85889281Y-21518750D01*
X85813507Y-21504021D01*
X85813506Y-21504021D01*
X85603912Y-21463280D01*
X84689361Y-21285510D01*
X84649055Y-21273475D01*
X84617335Y-21256698D01*
X84589492Y-21234051D01*
X84566605Y-21206410D01*
X84549552Y-21174837D01*
X84538985Y-21140541D01*
X84535311Y-21104842D01*
X84539251Y-21062971D01*
X85135028Y-17997960D01*
X85147063Y-17957654D01*
X85163840Y-17925934D01*
X85186487Y-17898091D01*
X85214128Y-17875204D01*
X85245701Y-17858151D01*
X85279997Y-17847584D01*
X85315696Y-17843910D01*
X85357567Y-17847850D01*
X85357567Y-17847850D01*
G37*
G36*
X37143193Y-16628679D02*
G01*
X32828427Y-20943445D01*
X31342089Y-19457107D01*
X35656855Y-15142341D01*
X37143193Y-16628679D01*
X37143193Y-16628679D01*
G37*
G36*
X76817411Y-16187812D02*
G01*
X76893185Y-16202541D01*
X76893186Y-16202541D01*
X76958136Y-16215166D01*
X78017331Y-16421052D01*
X78057637Y-16433087D01*
X78089357Y-16449864D01*
X78117200Y-16472511D01*
X78140087Y-16500152D01*
X78157140Y-16531725D01*
X78167707Y-16566021D01*
X78171381Y-16601720D01*
X78167441Y-16643591D01*
X77571664Y-19708602D01*
X77559629Y-19748908D01*
X77542852Y-19780628D01*
X77520205Y-19808471D01*
X77492564Y-19831358D01*
X77460991Y-19848411D01*
X77426695Y-19858978D01*
X77390996Y-19862652D01*
X77349125Y-19858712D01*
X77273351Y-19843983D01*
X77273350Y-19843983D01*
X77063756Y-19803242D01*
X76149205Y-19625472D01*
X76108899Y-19613437D01*
X76077179Y-19596660D01*
X76049336Y-19574013D01*
X76026449Y-19546372D01*
X76009396Y-19514799D01*
X75998829Y-19480503D01*
X75995155Y-19444804D01*
X75999095Y-19402933D01*
X76594872Y-16337922D01*
X76606907Y-16297616D01*
X76623684Y-16265896D01*
X76646331Y-16238053D01*
X76673972Y-16215166D01*
X76705545Y-16198113D01*
X76739841Y-16187546D01*
X76775540Y-16183872D01*
X76817411Y-16187812D01*
X76817411Y-16187812D01*
G37*
G36*
X33607659Y-13093145D02*
G01*
X29292893Y-17407911D01*
X27806555Y-15921573D01*
X32121321Y-11606807D01*
X33607659Y-13093145D01*
X33607659Y-13093145D01*
G37*
M02*
